<svg width="120" height="120" viewBox="0 0 120 120" fill="none" xmlns="http://www.w3.org/2000/svg">
<rect x="20" y="65" width="80" height="25" fill="#757E8F" style="fill:#757E8F;fill:color(display-p3 0.4593 0.4931 0.5607);fill-opacity:1;"/>
<path d="M35.5312 29.4812L32.0417 35.8564L21.9512 56.9085C20.2563 60.4445 19.646 64.4031 20.1972 68.2855C20.9217 73.3881 24.0486 80.9846 28.2117 85.4727C30.3954 87.8267 33.7086 88.4468 36.9196 88.4468C40.1305 88.4468 43.2715 89.253 46.3093 90.2931C49.5768 91.4119 52.9768 92.122 56.4318 92.4026L63.0666 92.9415C70.8541 93.574 78.6206 91.4928 85.0483 87.051L85.5016 86.7378C90.7033 83.1432 94.7246 78.0893 97.0587 72.2131L99.2714 66.6427C101.842 60.171 101.008 52.8427 97.0494 47.1139L95.5237 44.9061C92.5061 40.5392 87.5006 37.9756 82.1935 38.0789L80.2591 38.1165C74.7381 38.2239 69.7444 34.8526 67.7801 29.6917C66.5101 26.3549 63.9311 23.6822 60.6417 22.2939L58.6134 21.4378C49.9952 17.8004 40.0225 21.2755 35.5312 29.4812Z" fill="#757E8F" style="fill:#757E8F;fill:color(display-p3 0.4593 0.4931 0.5607);fill-opacity:1;"/>
<path d="M38.9829 24.6826C41.7515 23.7979 44.7132 25.3251 45.5981 28.0938C46.4831 30.8625 44.9558 33.824 42.187 34.709L41.3218 34.9854C46.3146 40.5725 61.9124 52.3009 73.0015 60.6748C78.0083 64.4557 78.2155 71.5082 72.7231 74.541C66.826 77.7973 58.5667 81.2921 48.1216 83.6133C29.4663 87.7589 24.584 54.8286 26.9497 39.5791L22.1343 41.1191C19.3655 42.0041 16.4031 40.4768 15.5181 37.708C14.6333 34.9394 16.1607 31.9778 18.9292 31.0928L38.9829 24.6826Z" fill="#757E8F" style="fill:#757E8F;fill:color(display-p3 0.4593 0.4931 0.5607);fill-opacity:1;"/>
<path d="M75.1367 24.4336C76.82 24.4338 78.0701 25.9925 77.7051 27.6357L76.7598 31.8877C76.937 31.8006 77.1124 31.7083 77.2832 31.6074C88.9299 24.7302 99.4678 37.6669 99.4678 50.6992C99.4678 65.261 87.6852 77.0654 73.1514 77.0654C58.6177 77.0652 46.836 65.2609 46.8359 50.6992C46.8359 37.667 57.3746 24.7304 69.0205 31.6074C69.1926 31.7091 69.3692 31.802 69.5479 31.8896L68.6025 27.6357C68.2375 25.9925 69.4876 24.4338 71.1709 24.4336H75.1367Z" fill="#757E8F" style="fill:#757E8F;fill:color(display-p3 0.4593 0.4931 0.5607);fill-opacity:1;"/>
<path d="M105 50C107.761 50 110 52.2386 110 55C110 57.7614 107.761 60 105 60H104.184L99.916 97.666C99.7651 98.9958 98.6401 100.001 97.3018 100.001H22.7021C21.3637 100.001 20.2388 98.9959 20.0879 97.666L15.8203 60H15C12.2386 60 10 57.7614 10 55C10 52.2386 12.2386 50 15 50H105ZM36.0049 62.5C33.0608 62.5002 30.6738 64.6767 30.6738 67.3613V81.9443C30.6738 84.629 33.0608 86.8055 36.0049 86.8057C38.949 86.8055 41.3359 84.629 41.3359 81.9443V67.3613C41.3359 64.6767 38.949 62.5002 36.0049 62.5ZM59.9951 62.5C57.0508 62.5 54.6641 64.6766 54.6641 67.3613V81.9443C54.6641 84.6291 57.0508 86.8057 59.9951 86.8057C62.9392 86.8055 65.3262 84.629 65.3262 81.9443V67.3613C65.3262 64.6767 62.9392 62.5002 59.9951 62.5ZM83.9854 62.5C81.0411 62.5 78.6543 64.6766 78.6543 67.3613V81.9443C78.6543 84.6291 81.0411 86.8057 83.9854 86.8057C86.9293 86.8053 89.3164 84.6289 89.3164 81.9443V67.3613C89.3164 64.6768 86.9293 62.5004 83.9854 62.5Z" fill="#757E8F" style="fill:#757E8F;fill:color(display-p3 0.4593 0.4931 0.5607);fill-opacity:1;"/>
</svg>
