<svg width="120" height="120" viewBox="0 0 120 120" fill="none" xmlns="http://www.w3.org/2000/svg">
<path d="M47.9534 22.3209C50.8092 20.8631 54.1908 20.8631 57.0466 22.3209L84.5466 36.3587C87.8934 38.0672 90 41.5077 90 45.2654V79.739C90 83.4971 87.893 86.9379 84.5456 88.6462L57.0456 102.68C54.1903 104.137 50.8096 104.137 47.9544 102.68L20.4544 88.6462C17.107 86.9379 15 83.4971 15 79.739V45.2654C15 41.5077 17.1066 38.0672 20.4534 36.3587L47.9534 22.3209Z" fill="#757E8F" style="fill:#757E8F;fill:color(display-p3 0.4593 0.4931 0.5607);fill-opacity:1;"/>
<path d="M45.7762 17.2996C48.6385 15.8336 52.0311 15.8336 54.8934 17.2996L80.3454 30.3353C83.6856 32.0461 85.7868 35.483 85.7868 39.2359V71.3236C85.7868 75.0769 83.6852 78.5141 80.3444 80.2247L54.8924 93.2568C52.0307 94.7221 48.639 94.7221 45.7772 93.2568L20.3252 80.2247C16.9844 78.5141 14.8828 75.0769 14.8828 71.3236V39.2359C14.8828 35.483 16.984 32.0461 20.3242 30.3353L45.7762 17.2996Z" fill="#757E8F" style="fill:#757E8F;fill:color(display-p3 0.4593 0.4931 0.5607);fill-opacity:1;"/>
<path d="M72.8066 26.4727L46.3457 40.6504C43.9734 41.9214 41.9493 43.7554 40.4512 45.9912C38.6369 48.6989 37.668 51.8852 37.668 55.1445V61.5332C37.6679 62.0894 37.0829 62.4518 36.585 62.2041L27.9805 57.9229C27.7101 57.7882 27.5391 57.512 27.5391 57.21V49.9639C27.5391 46.7967 28.4802 43.7004 30.2432 41.0693C31.79 38.7609 33.9125 36.8959 36.4004 35.6582L63.9648 21.9453L72.8066 26.4727Z" fill="#757E8F" style="fill:#757E8F;fill:color(display-p3 0.4593 0.4931 0.5607);fill-opacity:1;"/>
<path d="M90.3115 69.2054C91.0669 81.7887 81.4794 92.5958 68.8975 93.3438C56.3156 94.0917 45.5031 84.4973 44.7474 71.9139C43.9917 59.3304 53.5793 48.5234 66.1613 47.7755C78.7432 47.0276 89.5558 56.6219 90.3115 69.2054Z" fill="#757E8F" stroke="#757E8F" style="fill:#757E8F;fill:color(display-p3 0.4593 0.4931 0.5607);fill-opacity:1;stroke:#757E8F;stroke:color(display-p3 0.4593 0.4931 0.5607);stroke-opacity:1;" stroke-width="5"/>
<rect x="-1.78684" y="0.106755" width="2.52517" height="22.7417" rx="1.26258" transform="matrix(-0.665547 0.746356 -0.749678 -0.661803 101.987 102.706)" fill="#757E8F" stroke="#757E8F" style="fill:#757E8F;fill:color(display-p3 0.4593 0.4931 0.5607);fill-opacity:1;stroke:#757E8F;stroke:color(display-p3 0.4593 0.4931 0.5607);stroke-opacity:1;" stroke-width="2.52517"/>
<path d="M81.6418 64.905C82.0194 65.0867 82.0194 65.6244 81.6418 65.8061L80.4552 66.3771C77.4086 67.8431 74.9466 70.2954 73.4686 73.3362L72.8987 74.5086C72.7163 74.8838 72.1817 74.8838 71.9993 74.5086L71.4294 73.3362C69.9514 70.2954 67.4894 67.8431 64.4428 66.3771L63.2562 65.8061C62.8786 65.6244 62.8786 65.0867 63.2562 64.905L64.4428 64.334C67.4894 62.868 69.9514 60.4157 71.4294 57.3749L71.9993 56.2025C72.1817 55.8273 72.7163 55.8273 72.8987 56.2025L73.4686 57.3749C74.9466 60.4157 77.4086 62.868 80.4552 64.334L81.6418 64.905Z" fill="#757E8F" style="fill:#757E8F;fill:color(display-p3 0.4593 0.4931 0.5607);fill-opacity:1;"/>
<path d="M65.5098 76.5856C65.7382 76.6959 65.7377 77.022 65.509 77.1316C63.6667 78.0149 62.1733 79.4964 61.2775 81.3326C61.167 81.5592 60.8439 81.5588 60.734 81.3319C59.8435 79.4931 58.3544 78.0074 56.5146 77.1189C56.2862 77.0086 56.2867 76.6825 56.5154 76.5729C58.3577 75.6896 59.8511 74.2081 60.7469 72.3718C60.8574 72.1452 61.1805 72.1457 61.2904 72.3726C62.1809 74.2114 63.67 75.6971 65.5098 76.5856Z" fill="#757E8F" style="fill:#757E8F;fill:color(display-p3 0.4593 0.4931 0.5607);fill-opacity:1;"/>
</svg>
