<svg width="120" height="120" viewBox="0 0 120 120" fill="none" xmlns="http://www.w3.org/2000/svg">
<circle cx="60" cy="70" r="15" fill="#757E8F" style="fill:#757E8F;fill:color(display-p3 0.4593 0.4931 0.5607);fill-opacity:1;"/>
<path d="M60 45V69.1795" stroke="#757E8F" style="stroke:#757E8F;stroke:color(display-p3 0.4593 0.4931 0.5607);stroke-opacity:1;" stroke-width="1.69643"/>
<path d="M67.8516 24.1629C67.8516 19.966 64.3345 16.5643 59.9951 16.5643C55.6557 16.5643 52.1387 19.966 52.1387 24.1629V30.5525H45.3516V24.1629C45.3516 16.3413 51.9081 10 59.9951 10C68.0821 10 74.6387 16.3413 74.6387 24.1629V30.5525H67.8516V24.1629Z" fill="#757E8F" style="fill:#757E8F;fill:color(display-p3 0.4593 0.4931 0.5607);fill-opacity:1;"/>
<path d="M43.5713 28.3926H76.4287C82.0501 28.3927 86.6073 32.9499 86.6074 38.5713V39.6426C86.6074 49.0117 79.0117 56.6074 69.6426 56.6074H50.3574C40.9883 56.6074 33.3926 49.0117 33.3926 39.6426V38.5713C33.3927 32.9499 37.9499 28.3927 43.5713 28.3926Z" fill="#757E8F" stroke="#757E8F" style="fill:#757E8F;fill:color(display-p3 0.4593 0.4931 0.5607);fill-opacity:1;stroke:#757E8F;stroke:color(display-p3 0.4593 0.4931 0.5607);stroke-opacity:1;" stroke-width="6.78571"/>
<path d="M35 40C35 37.2386 37.2386 35 40 35H80C82.7614 35 85 37.2386 85 40C85 48.2843 78.2843 55 70 55H50C41.7157 55 35 48.2843 35 40Z" fill="#757E8F" style="fill:#757E8F;fill:color(display-p3 0.4593 0.4931 0.5607);fill-opacity:1;"/>
<rect x="20" y="105" width="80" height="5" rx="2.5" fill="#757E8F" style="fill:#757E8F;fill:color(display-p3 0.4593 0.4931 0.5607);fill-opacity:1;"/>
<rect x="56.25" y="30.5508" width="7.5" height="3.45421" rx="1.7271" fill="#757E8F" style="fill:#757E8F;fill:color(display-p3 0.4593 0.4931 0.5607);fill-opacity:1;"/>
<path d="M60.0195 65.7324C64.1616 65.7324 67.5194 68.8253 67.5195 72.6406C67.5195 73.8989 67.1528 75.0775 66.5146 76.0938H76.0889C77.6559 76.0939 79.019 77.1672 79.3867 78.6904L85.25 102.993C85.7648 105.128 84.1469 107.182 81.9512 107.182H38.0693C35.8736 107.182 34.2557 105.128 34.7705 102.993L40.6338 78.6904C41.0015 77.1672 42.3646 76.0939 43.9316 76.0938H53.5254C52.8873 75.0775 52.5195 73.8989 52.5195 72.6406C52.5197 68.8255 55.8777 65.7327 60.0195 65.7324ZM60.0195 69.1895C57.9487 69.1897 56.2696 70.736 56.2695 72.6436C56.2695 74.5035 57.866 76.019 59.8652 76.0938H60.1738C62.1735 76.0194 63.7695 74.5038 63.7695 72.6436C63.7695 70.7359 62.0906 69.1895 60.0195 69.1895Z" fill="#757E8F" style="fill:#757E8F;fill:color(display-p3 0.4593 0.4931 0.5607);fill-opacity:1;"/>
<path d="M69.375 65.7324V67.9533C69.375 70.5422 67.2763 72.6408 64.6875 72.6408H63.4542C61.5465 72.6408 60 71.0943 60 69.1866" stroke="#757E8F" style="stroke:#757E8F;stroke:color(display-p3 0.4593 0.4931 0.5607);stroke-opacity:1;" stroke-width="1.69643" stroke-linecap="round"/>
</svg>
