<svg width="120" height="120" viewBox="0 0 120 120" fill="none" xmlns="http://www.w3.org/2000/svg">
<mask id="path-1-inside-1_4077_18498" fill="white">
<rect width="28.1629" height="10.3923" rx="2.04325" transform="matrix(0.99384 -0.110823 0.10782 0.99417 28.7793 76.4551)"/>
</mask>
<rect width="28.1629" height="10.3923" rx="2.04325" transform="matrix(0.99384 -0.110823 0.10782 0.99417 28.7793 76.4551)" fill="#757E8F" stroke="#757E8F" style="fill:#757E8F;fill:color(display-p3 0.4593 0.4931 0.5607);fill-opacity:1;stroke:#757E8F;stroke:color(display-p3 0.4593 0.4931 0.5607);stroke-opacity:1;" stroke-width="10.3923" mask="url(#path-1-inside-1_4077_18498)"/>
<path d="M34.8633 79.2715L35.6107 86.1627" stroke="#757E8F" style="stroke:#757E8F;stroke:color(display-p3 0.4593 0.4931 0.5607);stroke-opacity:1;" stroke-width="2.04325"/>
<path d="M41.8652 78.4922L42.6126 85.3834" stroke="#757E8F" style="stroke:#757E8F;stroke:color(display-p3 0.4593 0.4931 0.5607);stroke-opacity:1;" stroke-width="2.04325"/>
<rect width="28.1999" height="10.379" rx="2.04325" transform="matrix(0.946373 -0.323077 0.314692 0.949194 25.4297 49.2188)" fill="#757E8F" style="fill:#757E8F;fill:color(display-p3 0.4593 0.4931 0.5607);fill-opacity:1;"/>
<path d="M31.9531 50.6406L34.1314 57.211" stroke="#757E8F" style="stroke:#757E8F;stroke:color(display-p3 0.4593 0.4931 0.5607);stroke-opacity:1;" stroke-width="2.04325"/>
<path d="M38.6328 48.3691L40.8111 54.9395" stroke="#757E8F" style="stroke:#757E8F;stroke:color(display-p3 0.4593 0.4931 0.5607);stroke-opacity:1;" stroke-width="2.04325"/>
<rect width="28.164" height="10.3919" rx="2.04325" transform="matrix(0.994172 0.107809 -0.104449 0.99453 23.5254 62.8555)" fill="#757E8F" style="fill:#757E8F;fill:color(display-p3 0.4593 0.4931 0.5607);fill-opacity:1;"/>
<path d="M28.877 66.9238L28.1531 73.8166" stroke="#757E8F" style="stroke:#757E8F;stroke:color(display-p3 0.4593 0.4931 0.5607);stroke-opacity:1;" stroke-width="2.04325"/>
<path d="M35.8789 67.6758L35.155 74.5685" stroke="#757E8F" style="stroke:#757E8F;stroke:color(display-p3 0.4593 0.4931 0.5607);stroke-opacity:1;" stroke-width="2.04325"/>
<rect width="28.2044" height="10.3774" rx="2.04325" transform="matrix(0.945623 0.325265 -0.316491 0.948596 29.9805 48.291)" fill="#757E8F" style="fill:#757E8F;fill:color(display-p3 0.4593 0.4931 0.5607);fill-opacity:1;"/>
<path d="M43.7402 56.6836L41.5505 63.2468" stroke="#757E8F" style="stroke:#757E8F;stroke:color(display-p3 0.4593 0.4931 0.5607);stroke-opacity:1;" stroke-width="2.04325"/>
<path d="M50.4004 58.9785L48.2106 65.5417" stroke="#757E8F" style="stroke:#757E8F;stroke:color(display-p3 0.4593 0.4931 0.5607);stroke-opacity:1;" stroke-width="2.04325"/>
<path d="M56.5755 30.7324C55.5117 38.3094 48.4089 43.5477 40.7109 42.4324C33.0129 41.317 27.6348 34.2705 28.6986 26.6934C29.7624 19.1164 36.8653 13.8781 44.5632 14.9934C52.2612 16.1087 57.6393 23.1553 56.5755 30.7324Z" fill="#757E8F" style="fill:#757E8F;fill:color(display-p3 0.4593 0.4931 0.5607);fill-opacity:1;"/>
<path d="M54.5558 30.4385C55.4521 24.0493 50.9115 18.0026 44.2736 17.0409C37.6366 16.0804 31.6167 20.5966 30.7191 26.9849C29.8221 33.3738 34.3595 39.419 40.9966 40.3818L40.7109 42.4324L39.2967 42.1572C32.366 40.4369 27.7013 33.7974 28.6986 26.6934C29.7624 19.1164 36.8653 13.8781 44.5632 14.9934C52.2612 16.1087 57.6393 23.1553 56.5755 30.7324L56.4582 31.4348C55.0676 38.6301 48.1686 43.5129 40.7109 42.4324L40.9966 40.3818C47.6349 41.3436 53.6587 36.8281 54.5558 30.4385Z" fill="#757E8F" style="fill:#757E8F;fill:color(display-p3 0.4593 0.4931 0.5607);fill-opacity:1;"/>
<path d="M49.8152 23.4176C52.8204 27.3551 52.0391 32.92 48.0701 35.8471C44.1011 38.7742 38.4474 37.9551 35.4422 34.0175C32.4369 30.08 33.2182 24.5151 37.1872 21.588C41.1562 18.6609 46.81 19.48 49.8152 23.4176Z" fill="#757E8F" style="fill:#757E8F;fill:color(display-p3 0.4593 0.4931 0.5607);fill-opacity:1;"/>
<path d="M97.7679 57.3056C98.7345 56.7176 99.069 55.4343 98.515 54.4393L86.7983 33.3961C86.2443 32.401 85.0115 32.071 84.0449 32.6589L46.1488 55.7091C45.1821 56.2971 44.8477 57.5803 45.4017 58.5754L57.1184 79.6186C57.6724 80.6137 58.9052 80.9437 59.8718 80.3557L97.7679 57.3056Z" fill="#757E8F" style="fill:#757E8F;fill:color(display-p3 0.4593 0.4931 0.5607);fill-opacity:1;"/>
<path d="M47.1493 57.5102L45.4017 58.5754L57.1184 79.6186L58.8671 78.5554L47.1493 57.5102ZM85.0475 34.4588L96.7653 55.504L57.1184 79.6186L57.3557 79.9604C57.887 80.5786 58.7334 80.8045 59.4968 80.5336L59.8718 80.3557L97.7679 57.3056C98.7345 56.7176 99.069 55.4343 98.515 54.4393L86.7983 33.3961L86.5589 33.0538C85.9385 32.3332 84.8901 32.145 84.0449 32.6589L46.1488 55.7091L45.8148 55.9607C45.2126 56.5202 44.9828 57.4016 45.2339 58.1896L45.4017 58.5754L85.0475 34.4588Z" fill="#757E8F" style="fill:#757E8F;fill:color(display-p3 0.4593 0.4931 0.5607);fill-opacity:1;"/>
<path d="M79.5318 51.8985C77.1042 47.5384 71.7438 46.0672 67.5591 48.6126C63.3744 51.1579 61.9501 56.7558 64.3777 61.1159C66.8054 65.476 72.1657 66.9471 76.3504 64.4018C80.5351 61.8565 81.9595 56.2585 79.5318 51.8985Z" fill="#757E8F" style="fill:#757E8F;fill:color(display-p3 0.4593 0.4931 0.5607);fill-opacity:1;"/>
<path d="M73.6989 55.4478C74.3166 56.5585 73.9038 57.8504 73.0089 58.3962C72.1127 58.9412 70.8305 58.6799 70.2113 57.5691C69.5923 56.4574 70.0089 55.1635 70.9054 54.6183L67.5591 48.6126L66.8053 49.1243C63.2104 51.8527 62.102 57.0287 64.3777 61.1159C66.8054 65.476 72.1657 66.9471 76.3504 64.4018L77.1026 63.8884C80.6974 61.1603 81.8068 55.9856 79.5318 51.8985C77.1042 47.5384 71.7438 46.0672 67.5591 48.6126L70.9054 54.6183C71.8018 54.0744 73.0804 54.3368 73.6989 55.4478Z" fill="#757E8F" style="fill:#757E8F;fill:color(display-p3 0.4593 0.4931 0.5607);fill-opacity:1;"/>
<path d="M71.4861 25.4751C72.2325 24.6189 73.5385 24.5193 74.4029 25.2527L92.6844 40.7616C93.5489 41.495 93.6446 42.7836 92.8981 43.6398L63.6336 77.2074C62.8871 78.0636 61.5812 78.1632 60.7167 77.4298L42.4353 61.9209C41.5708 61.1876 41.4751 59.8989 42.2216 59.0427L71.4861 25.4751Z" fill="#757E8F" style="fill:#757E8F;fill:color(display-p3 0.4593 0.4931 0.5607);fill-opacity:1;"/>
<path d="M62.0685 75.8823L60.7167 77.4298L42.4353 61.9209L43.7852 60.3719L62.0685 75.8823ZM91.3345 42.3129L73.0513 26.8025L42.4353 61.9209L42.1469 61.6222C41.6439 60.9801 41.5789 60.0955 41.9807 59.3841L42.2216 59.0427L71.4861 25.4751C72.2325 24.6189 73.5385 24.5193 74.4029 25.2527L92.6844 40.7616L92.9729 41.0625C93.559 41.812 93.5506 42.8911 92.8981 43.6398L63.6336 77.2074L63.3287 77.4944C62.6761 77.9927 61.7792 78.0611 61.0605 77.6674L60.7167 77.4298L91.3345 42.3129Z" fill="#757E8F" style="fill:#757E8F;fill:color(display-p3 0.4593 0.4931 0.5607);fill-opacity:1;"/>
<path d="M73.4091 44.6361C77.1969 47.8495 77.6479 53.4593 74.4164 57.166C71.1848 60.8728 65.4945 61.2727 61.7066 58.0593C57.9188 54.8459 57.4678 49.236 60.6993 45.5293C63.9308 41.8226 69.6212 41.4227 73.4091 44.6361Z" fill="#757E8F" style="fill:#757E8F;fill:color(display-p3 0.4593 0.4931 0.5607);fill-opacity:1;"/>
<path d="M94.972 82.1822C93.7968 85.2573 90.9629 87.0109 88.6421 86.0989C86.3214 85.1869 83.4874 86.9405 82.3123 90.0156L82.0329 90.7468C81.3706 92.4799 80.1987 93.9246 78.793 94.741L62.6058 104.142C60.739 105.226 58.7313 105.449 56.9943 104.767L17.9805 89.4359C15.1626 88.3286 14.0349 84.404 15.4618 80.6701C16.8887 76.9362 20.3298 74.807 23.1477 75.9143L41.9349 83.4784C43.3439 84.0321 44.9396 83.9924 46.5018 83.3649L67.3402 74.9938C68.9501 74.3471 69.019 74.0514 71.7748 71.6754C74.5307 69.2994 77.2818 66.0827 81.0038 67.5453L92.9091 72.2236C95.727 73.3309 96.8547 77.2555 95.4278 80.9894L94.972 82.1822Z" fill="#757E8F" style="fill:#757E8F;fill:color(display-p3 0.4593 0.4931 0.5607);fill-opacity:1;"/>
<path d="M86.5355 71.5885C87.0089 70.3498 88.3832 69.735 89.6052 70.2152L102.939 75.455C104.161 75.9352 104.768 77.3286 104.295 78.5672L95.5428 101.47C95.0694 102.709 93.6951 103.323 92.4731 102.843L79.1389 97.6035C77.9169 97.1233 77.31 95.7298 77.7834 94.4912L86.5355 71.5885Z" fill="#757E8F" style="fill:#757E8F;fill:color(display-p3 0.4593 0.4931 0.5607);fill-opacity:1;"/>
</svg>
