<svg width="120" height="120" viewBox="0 0 120 120" fill="none" xmlns="http://www.w3.org/2000/svg">
<path d="M35 34.0933V15C35 12.2386 37.2386 10 40 10H60C62.7614 10 65 12.2386 65 15V16.4136C65 16.8145 65.4847 17.0153 65.7682 16.7318L69.1923 13.3077C71.0536 11.4463 74.0394 11.3469 76.0204 13.0803L89.1998 24.6123C91.0882 26.2647 91.4594 29.0608 90.0675 31.1487L85.8343 37.4986C84.1002 40.0997 85.1516 43.6364 88.0249 44.8678L95.7713 48.1877C98.1615 49.2121 99.3675 51.8976 98.5451 54.3646L88.6396 84.0811C87.9591 86.1228 86.0484 87.5 83.8962 87.5H26.2202C24.0121 87.5 22.0655 86.0517 21.431 83.9367L16.4734 67.4114C15.6657 64.7192 17.2352 61.8904 19.947 61.1508L37.2079 56.4433C40.048 55.6687 41.6076 52.6203 40.5739 49.8639L35.3184 35.8489C35.1078 35.2876 35 34.6929 35 34.0933Z" fill="#757E8F" style="fill:#757E8F;fill:color(display-p3 0.4593 0.4931 0.5607);fill-opacity:1;"/>
<rect x="15" y="85" width="80" height="10" rx="5" fill="#757E8F" style="fill:#757E8F;fill:color(display-p3 0.4593 0.4931 0.5607);fill-opacity:1;"/>
<rect x="95.8984" y="29.9902" width="10" height="64.9263" rx="5" transform="rotate(9.5574 95.8984 29.9902)" fill="#757E8F" style="fill:#757E8F;fill:color(display-p3 0.4593 0.4931 0.5607);fill-opacity:1;"/>
<circle cx="32.5" cy="100" r="10" fill="#757E8F" style="fill:#757E8F;fill:color(display-p3 0.4593 0.4931 0.5607);fill-opacity:1;"/>
<circle cx="77.5" cy="100" r="10" fill="#757E8F" style="fill:#757E8F;fill:color(display-p3 0.4593 0.4931 0.5607);fill-opacity:1;"/>
<rect x="32.5" y="50" width="50" height="35" rx="2.5" fill="#757E8F" style="fill:#757E8F;fill:color(display-p3 0.4593 0.4931 0.5607);fill-opacity:1;"/>
<rect x="22.5" y="20" width="40" height="30" rx="2.5" fill="#757E8F" style="fill:#757E8F;fill:color(display-p3 0.4593 0.4931 0.5607);fill-opacity:1;"/>
<path d="M52.5 50H62.5V62.5C62.5 63.8807 61.3807 65 60 65H55C53.6193 65 52.5 63.8807 52.5 62.5V50Z" fill="#757E8F" style="fill:#757E8F;fill:color(display-p3 0.4593 0.4931 0.5607);fill-opacity:1;"/>
<rect x="52.5" y="25" width="40" height="25" rx="2.5" fill="#757E8F" style="fill:#757E8F;fill:color(display-p3 0.4593 0.4931 0.5607);fill-opacity:1;"/>
<path d="M37.5 20H47.5V27.5C47.5 28.8807 46.3807 30 45 30H40C38.6193 30 37.5 28.8807 37.5 27.5V20Z" fill="#757E8F" style="fill:#757E8F;fill:color(display-p3 0.4593 0.4931 0.5607);fill-opacity:1;"/>
<path d="M67.5 25H77.5V32.5C77.5 33.8807 76.3807 35 75 35H70C68.6193 35 67.5 33.8807 67.5 32.5V25Z" fill="#757E8F" style="fill:#757E8F;fill:color(display-p3 0.4593 0.4931 0.5607);fill-opacity:1;"/>
</svg>
