<svg width="120" height="120" viewBox="0 0 120 120" fill="none" xmlns="http://www.w3.org/2000/svg">
<path d="M72.9909 13.2055L32.5 37.5L85.6742 76.7949L107.5 30L90.7428 14.9185C85.8442 10.5098 78.642 9.81483 72.9909 13.2055Z" fill="#757E8F" style="fill:#757E8F;fill:color(display-p3 0.4593 0.4931 0.5607);fill-opacity:1;"/>
<path d="M56.3711 28.0762C58.6844 28.0765 60.408 30.2111 59.9209 32.4727L58.7471 37.9199C59.1463 37.7497 59.5374 37.5588 59.916 37.3428C74.781 28.8598 88.1074 45.9376 88.1074 63.1396C88.1072 82.5828 73.0611 106.115 54.0537 98.3525C35.4439 106.115 20.0002 82.5828 20 63.1396C20 45.9378 33.3275 28.8602 48.1914 37.3428C48.5722 37.5601 48.9655 37.752 49.3672 37.9229L48.1934 32.4727C47.7063 30.211 49.4296 28.0762 51.7432 28.0762H56.3711Z" fill="#757E8F" style="fill:#757E8F;fill:color(display-p3 0.4593 0.4931 0.5607);fill-opacity:1;"/>
<path d="M67.2529 74.2285C67.9737 74.2287 68.5102 74.894 68.3584 75.5986L67.8857 77.79C67.9284 77.7657 67.972 77.7431 68.0137 77.7168C73.4396 74.2852 78.3768 80.4961 78.377 86.7529C78.377 93.697 73.0032 102.102 66.2148 99.3291C59.5684 102.102 54.0527 93.697 54.0527 86.7529C54.0529 80.4963 58.9897 74.2859 64.415 77.7168C64.4614 77.7461 64.51 77.772 64.5576 77.7988L64.084 75.5986C63.9322 74.8939 64.4695 74.2285 65.1904 74.2285H67.2529Z" fill="#757E8F" style="fill:#757E8F;fill:color(display-p3 0.4593 0.4931 0.5607);fill-opacity:1;"/>
<rect x="20" y="99.873" width="72.973" height="5.12821" rx="2.5641" fill="#757E8F" style="fill:#757E8F;fill:color(display-p3 0.4593 0.4931 0.5607);fill-opacity:1;"/>
<path d="M66.2565 41.7424C75.5148 43.1382 84.2364 56.578 80.4028 69.6092" stroke="#757E8F" style="stroke:#757E8F;stroke:color(display-p3 0.4593 0.4931 0.5607);stroke-opacity:1;" stroke-width="7.70661" stroke-linecap="round"/>
</svg>
