<svg width="120" height="120" viewBox="0 0 120 120" fill="none" xmlns="http://www.w3.org/2000/svg">
<path d="M45 30C47.7614 30 50 32.2386 50 35C50 37.7614 47.7614 40 45 40H40C42.7614 40 45 42.2386 45 45C45 47.7614 42.7614 50 40 50H25C22.2386 50 20 47.7614 20 45H15C12.2386 45 10 42.7614 10 40C10 37.2386 12.2386 35 15 35H25C25 32.2386 27.2386 30 30 30H45Z" fill="#757E8F" style="fill:#757E8F;fill:color(display-p3 0.4593 0.4931 0.5607);fill-opacity:1;"/>
<path d="M85 25C87.7614 25 90 27.2386 90 30H95C97.7614 30 100 32.2386 100 35C100 37.7614 97.7614 40 95 40H80C77.2386 40 75 37.7614 75 35H70C67.2386 35 65 32.7614 65 30C65 27.2386 67.2386 25 70 25H85Z" fill="#757E8F" style="fill:#757E8F;fill:color(display-p3 0.4593 0.4931 0.5607);fill-opacity:1;"/>
<path d="M19.6875 59.5298C23.2336 63.0395 33.1177 67.5001 36.5219 53.4614C40.068 58.141 49.4352 62.9186 57.9459 46.0722C64.3288 46.6572 77.2594 42.8158 82.3658 21.7578" stroke="#757E8F" style="stroke:#757E8F;stroke:color(display-p3 0.4593 0.4931 0.5607);stroke-opacity:1;"/>
<rect x="56.8066" y="44.5742" width="2.12766" height="24.5676" rx="1.06383" fill="#757E8F" style="fill:#757E8F;fill:color(display-p3 0.4593 0.4931 0.5607);fill-opacity:1;"/>
<rect x="81.2988" y="20.0234" width="2.12766" height="24.5676" rx="1.06383" fill="#757E8F" style="fill:#757E8F;fill:color(display-p3 0.4593 0.4931 0.5607);fill-opacity:1;"/>
<rect x="35.5273" y="51.5859" width="2.12766" height="24.5676" rx="1.06383" fill="#757E8F" style="fill:#757E8F;fill:color(display-p3 0.4593 0.4931 0.5607);fill-opacity:1;"/>
<rect x="18.5156" y="58.6094" width="2.12766" height="24.5676" rx="1.06383" fill="#757E8F" style="fill:#757E8F;fill:color(display-p3 0.4593 0.4931 0.5607);fill-opacity:1;"/>
<path d="M82.3047 29.3365V21.3538C82.3047 20.7268 82.9597 20.3151 83.5247 20.5868L93.2034 25.2426C93.8889 25.5723 93.8305 26.5671 93.1111 26.8144L83.4324 30.1413C82.8799 30.3313 82.3047 29.9207 82.3047 29.3365Z" fill="#757E8F" style="fill:#757E8F;fill:color(display-p3 0.4593 0.4931 0.5607);fill-opacity:1;"/>
<path d="M105.173 99.9967H13.7377C11.8339 99.9967 10.4323 98.2144 10.8812 96.3643L15.5186 77.2479C17.2744 70.0105 23.7546 64.9144 31.2019 64.9144C36.5693 64.9144 41.5855 67.583 44.585 72.0342L47.8815 76.9262C48.0777 77.2173 48.5083 77.211 48.6958 76.9142L64.718 51.5524C67.8153 46.6497 72.8112 43.2552 78.5101 42.1813C89.973 40.0212 100.984 47.6672 102.964 59.1625L109.18 95.2398C109.609 97.725 107.695 99.9967 105.173 99.9967Z" fill="#757E8F" style="fill:#757E8F;fill:color(display-p3 0.4593 0.4931 0.5607);fill-opacity:1;"/>
<path d="M30.5805 64.9175C36.1754 64.9179 41.2442 67.0902 43.5169 70.4621L44.3023 71.6297C43.441 71.9736 42.4858 71.9924 41.7258 71.901C40.8697 71.798 39.9936 71.5371 39.1494 71.2213C38.9288 71.139 38.7703 71.1014 38.6839 71.0897C38.6223 71.082 38.5842 71.0897 38.5842 71.0897C38.5842 71.0897 38.5385 71.0996 38.4678 71.1336C38.3847 71.1738 38.2467 71.2529 38.0855 71.3967C36.9511 72.4086 35.7252 73.278 34.412 73.973C33.2266 74.5971 31.7859 74.7167 30.406 74.3787C29.2321 74.0905 28.1931 73.4929 27.2644 72.8C27.2225 72.8886 27.1734 72.9869 27.1314 73.096C26.7367 74.1249 26.2581 75.0289 25.6853 75.771C25.1194 76.5035 24.3993 77.1754 23.4246 77.6238C22.7599 77.9291 21.9592 78.0876 21.1141 78.0514C20.3123 78.0163 19.6037 77.8073 19.0197 77.558C17.9326 77.0934 16.916 76.3229 15.957 75.4037L16.597 72.7808C17.6961 68.2502 23.6238 64.9175 30.5805 64.9175Z" fill="#757E8F" style="fill:#757E8F;fill:color(display-p3 0.4593 0.4931 0.5607);fill-opacity:1;"/>
<path d="M78.1994 42.2401C89.2734 40.1533 100.54 45.1242 101.841 52.6716L102.817 58.356C102.817 58.356 102.069 57.9224 101.483 57.8995C100.897 57.8767 100.004 59.9292 100.004 59.9292C99.7226 60.6134 99.3966 61.2195 99.023 61.7162C98.6758 62.1776 98.1633 62.7192 97.3442 63.0537C96.8954 63.2359 96.3385 63.3611 95.7318 63.3607C95.1354 63.3594 94.6117 63.2359 94.1859 63.0756C93.3934 62.7768 92.8045 62.2881 92.3741 61.8368C90.9727 60.3675 89.6601 59.2858 88.4512 58.5478C87.2611 57.8217 86.3439 57.5784 85.6919 57.5502C85.6262 57.5491 84.9851 57.5724 83.9299 58.7561C83.2534 59.5145 82.3048 60.6315 80.9066 62.5686C79.5084 64.5057 75.4599 64.6205 73.8236 63.5127C72.1873 62.4049 73.2024 59.0218 71.3259 58.356C69.4494 57.6901 65.1548 61.2596 64.8641 61.8806C64.5734 62.5017 61.5572 64.5648 60.4259 64.3474C59.2947 64.13 58.5919 63.5045 58.1819 63.0756C58.0341 62.9208 57.8923 62.7499 57.7498 62.5686L66.1149 49.3333C68.2968 45.8796 72.745 43.268 78.1994 42.2401Z" fill="#757E8F" style="fill:#757E8F;fill:color(display-p3 0.4593 0.4931 0.5607);fill-opacity:1;"/>
</svg>
