<svg width="120" height="120" viewBox="0 0 120 120" fill="none" xmlns="http://www.w3.org/2000/svg">
<path d="M89.207 15.6982C96.839 12.8125 105 18.452 105 26.6113V31.1182C105 33.0221 104.087 34.7117 102.676 35.7764C104.073 36.6631 105 38.223 105 40V100.007C105 102.768 102.761 105.007 100 105.007H20C17.2387 105.007 15.0002 102.768 15 100.007V40C15 38.2233 15.9268 36.6632 17.3232 35.7764C15.9125 34.7117 15.0001 33.0218 15 31.1182V26.6113C15 18.452 23.161 12.8125 30.793 15.6982L54.5889 24.6953C55.602 23.8463 56.9078 23.335 58.333 23.335H61.667C63.0919 23.335 64.3971 23.8466 65.4102 24.6953L89.207 15.6982Z" fill="#757E8F" style="fill:#757E8F;fill:color(display-p3 0.4593 0.4931 0.5607);fill-opacity:1;"/>
<path d="M46.8262 35.9307C53.405 35.9307 58.6895 41.0953 58.6895 47.4062C58.6893 53.7171 53.4049 58.8818 46.8262 58.8818C40.2476 58.8817 34.9641 53.717 34.9639 47.4062C34.9639 41.0954 40.2475 35.9308 46.8262 35.9307Z" fill="#757E8F" stroke="#757E8F" style="fill:#757E8F;fill:color(display-p3 0.4593 0.4931 0.5607);fill-opacity:1;stroke:#757E8F;stroke:color(display-p3 0.4593 0.4931 0.5607);stroke-opacity:1;" stroke-width="1.86089"/>
<mask id="path-3-inside-1_4077_18494" fill="white">
<rect x="28.8672" y="78.418" width="25.5864" height="9.30444" rx="1.86089"/>
</mask>
<rect x="28.8672" y="78.418" width="25.5864" height="9.30444" rx="1.86089" fill="#757E8F" stroke="#757E8F" style="fill:#757E8F;fill:color(display-p3 0.4593 0.4931 0.5607);fill-opacity:1;stroke:#757E8F;stroke:color(display-p3 0.4593 0.4931 0.5607);stroke-opacity:1;" stroke-width="9.30444" mask="url(#path-3-inside-1_4077_18494)"/>
<path d="M34.082 81.5234V87.7264" stroke="#757E8F" style="stroke:#757E8F;stroke:color(display-p3 0.4593 0.4931 0.5607);stroke-opacity:1;" stroke-width="1.86089"/>
<path d="M40.4785 81.5234V87.7264" stroke="#757E8F" style="stroke:#757E8F;stroke:color(display-p3 0.4593 0.4931 0.5607);stroke-opacity:1;" stroke-width="1.86089"/>
<rect x="28.8672" y="59.8145" width="25.5864" height="9.30444" rx="1.86089" fill="#757E8F" style="fill:#757E8F;fill:color(display-p3 0.4593 0.4931 0.5607);fill-opacity:1;"/>
<path d="M34.082 62.9141V69.117" stroke="#757E8F" style="stroke:#757E8F;stroke:color(display-p3 0.4593 0.4931 0.5607);stroke-opacity:1;" stroke-width="1.86089"/>
<path d="M40.4785 62.9141V69.117" stroke="#757E8F" style="stroke:#757E8F;stroke:color(display-p3 0.4593 0.4931 0.5607);stroke-opacity:1;" stroke-width="1.86089"/>
<rect x="32.2168" y="69.1172" width="25.5864" height="9.30444" rx="1.86089" fill="#757E8F" style="fill:#757E8F;fill:color(display-p3 0.4593 0.4931 0.5607);fill-opacity:1;"/>
<path d="M46.4551 72.2188V78.4217" stroke="#757E8F" style="stroke:#757E8F;stroke:color(display-p3 0.4593 0.4931 0.5607);stroke-opacity:1;" stroke-width="1.86089"/>
<path d="M52.8516 72.2188V78.4217" stroke="#757E8F" style="stroke:#757E8F;stroke:color(display-p3 0.4593 0.4931 0.5607);stroke-opacity:1;" stroke-width="1.86089"/>
<circle cx="8.07255" cy="8.07255" r="8.07255" transform="matrix(0.71789 -0.696157 0.71789 0.696157 35.2344 47.4023)" fill="#757E8F" style="fill:#757E8F;fill:color(display-p3 0.4593 0.4931 0.5607);fill-opacity:1;"/>
<rect x="32.2266" y="87.7246" width="25.5864" height="9.30444" rx="1.86089" fill="#757E8F" style="fill:#757E8F;fill:color(display-p3 0.4593 0.4931 0.5607);fill-opacity:1;"/>
<path d="M46.8262 90.8242V97.0272" stroke="#757E8F" style="stroke:#757E8F;stroke:color(display-p3 0.4593 0.4931 0.5607);stroke-opacity:1;" stroke-width="1.86089"/>
<path d="M53.2227 90.8242V97.0272" stroke="#757E8F" style="stroke:#757E8F;stroke:color(display-p3 0.4593 0.4931 0.5607);stroke-opacity:1;" stroke-width="1.86089"/>
<rect x="-1.20242" y="0.565311" width="23.6377" height="41.7177" rx="0.930444" transform="matrix(-0.944043 -0.329824 -0.348268 0.937395 89.9882 56.1095)" fill="#757E8F" stroke="#757E8F" style="fill:#757E8F;fill:color(display-p3 0.4593 0.4931 0.5607);fill-opacity:1;stroke:#757E8F;stroke:color(display-p3 0.4593 0.4931 0.5607);stroke-opacity:1;" stroke-width="1.86089"/>
<rect x="-0.286627" y="1.26542" width="23.5076" height="41.9497" rx="0.930444" transform="matrix(-0.853161 0.521647 0.545107 0.838367 70.1853 52.6705)" fill="#757E8F" stroke="#757E8F" style="fill:#757E8F;fill:color(display-p3 0.4593 0.4931 0.5607);fill-opacity:1;stroke:#757E8F;stroke:color(display-p3 0.4593 0.4931 0.5607);stroke-opacity:1;" stroke-width="1.86089"/>
<ellipse cx="8.0189" cy="8.12584" rx="8.0189" ry="8.12584" transform="matrix(-0.545107 -0.838367 -0.853161 0.521647 83.8281 79.7871)" fill="#757E8F" style="fill:#757E8F;fill:color(display-p3 0.4593 0.4931 0.5607);fill-opacity:1;"/>
</svg>
