<svg width="120" height="120" viewBox="0 0 120 120" fill="none" xmlns="http://www.w3.org/2000/svg">
<rect x="9.90234" y="25" width="22.8617" height="13.4352" rx="6.71761" fill="#757E8F" style="fill:#757E8F;fill:color(display-p3 0.4593 0.4931 0.5607);fill-opacity:1;"/>
<rect x="23.623" y="29.4766" width="22.8617" height="13.4352" rx="6.71761" fill="#757E8F" style="fill:#757E8F;fill:color(display-p3 0.4593 0.4931 0.5607);fill-opacity:1;"/>
<rect x="73.2715" y="54.8789" width="22.8617" height="13.4352" rx="6.71761" fill="#757E8F" style="fill:#757E8F;fill:color(display-p3 0.4593 0.4931 0.5607);fill-opacity:1;"/>
<rect x="86.9824" y="59.3555" width="22.8617" height="13.4352" rx="6.71761" fill="#757E8F" style="fill:#757E8F;fill:color(display-p3 0.4593 0.4931 0.5607);fill-opacity:1;"/>
<path d="M41.9674 39.1621C48.6612 34.7385 57.2064 35.3715 62.1716 40.6587L62.1716 40.6587L41.52 59.2557L31.7366 48.8378C30.8524 47.8963 31.1327 46.3222 32.3246 45.5345L41.9674 39.1621Z" fill="#757E8F" style="fill:#757E8F;fill:color(display-p3 0.4593 0.4931 0.5607);fill-opacity:1;"/>
<path d="M70.6112 69.6624C75.6724 63.5004 75.7428 55.109 70.7776 49.8218L70.7776 49.8218L50.126 68.4188L59.9094 78.8367C60.7936 79.7782 62.4189 79.6364 63.3201 78.5391L70.6112 69.6624Z" fill="#757E8F" style="fill:#757E8F;fill:color(display-p3 0.4593 0.4931 0.5607);fill-opacity:1;"/>
<path d="M53.9249 42.4512C63.2013 34.0977 73.5373 26.9666 84.6179 21.2754L84.6179 21.2754C90.4045 18.3032 95.8895 24.1452 92.3809 29.5431L92.3809 29.5431C85.663 39.8787 77.5422 49.3679 68.2667 57.7207L56.4373 68.3732L42.0968 53.1026L53.9249 42.4512Z" fill="#757E8F" style="fill:#757E8F;fill:color(display-p3 0.4593 0.4931 0.5607);fill-opacity:1;"/>
<path d="M42.0898 53.1016L56.4304 68.3722L55.1447 69.5299C53.7569 70.7797 51.9436 71.4792 50.0568 71.4928C47.9057 71.5082 45.8468 70.6315 44.3893 69.0795L40.3632 64.7922C38.9057 63.2402 38.1857 61.1578 38.3813 59.0601C38.5529 57.22 39.4164 55.5091 40.8042 54.2593L42.0898 53.1016Z" fill="#757E8F" style="fill:#757E8F;fill:color(display-p3 0.4593 0.4931 0.5607);fill-opacity:1;"/>
<path d="M37.1362 67.9513C38.3832 67.361 39.8026 67.5793 40.6587 68.4932C41.5131 69.4053 41.6148 70.8056 40.9114 71.9708L37.7728 77.1695C35.8054 80.4282 32.404 82.6949 28.6713 83.2348L27.0586 83.468C25.252 83.7293 23.8623 82.2495 24.2793 80.5084L24.6531 78.9475C25.5136 75.3544 28.1015 72.2284 31.578 70.5826L37.1362 67.9513Z" fill="#757E8F" style="fill:#757E8F;fill:color(display-p3 0.4593 0.4931 0.5607);fill-opacity:1;"/>
<path d="M75.2724 37.3235C77.4561 39.6488 77.3154 43.2644 74.9454 45.3987C72.5752 47.5331 68.8836 47.3686 66.6998 45.0432C64.5162 42.7178 64.6574 39.1016 67.0275 36.9673C69.3976 34.8332 73.0886 34.9983 75.2724 37.3235Z" fill="#757E8F" stroke="#757E8F" style="fill:#757E8F;fill:color(display-p3 0.4593 0.4931 0.5607);fill-opacity:1;stroke:#757E8F;stroke:color(display-p3 0.4593 0.4931 0.5607);stroke-opacity:1;" stroke-width="2.5"/>
<path d="M30.8206 86.3379L10.6798 98.1372C9.7999 98.6526 10.1655 100 11.1853 100H108.536C109.195 100 109.674 99.3741 109.502 98.7383L100.161 64.2944C99.6509 62.4118 97.2771 61.813 95.9347 63.2282L72.9144 87.4971C72.286 88.1596 71.3465 88.4268 70.4635 88.194L62.4867 86.0917C61.6037 85.859 60.6641 86.1261 60.0357 86.7886L54.0997 93.0466C53.3909 93.7938 52.2965 94.0299 51.3427 93.6413L33.0275 86.1797C32.3073 85.8863 31.4916 85.9448 30.8206 86.3379Z" fill="#757E8F" style="fill:#757E8F;fill:color(display-p3 0.4593 0.4931 0.5607);fill-opacity:1;"/>
</svg>
