<svg width="120" height="120" viewBox="0 0 120 120" fill="none" xmlns="http://www.w3.org/2000/svg">
<rect x="15" y="95" width="90" height="10" rx="5" fill="#757E8F" style="fill:#757E8F;fill:color(display-p3 0.4593 0.4931 0.5607);fill-opacity:1;"/>
<rect x="15" y="15" width="68" height="85" rx="5" fill="#757E8F" style="fill:#757E8F;fill:color(display-p3 0.4593 0.4931 0.5607);fill-opacity:1;"/>
<rect x="23.4961" y="23.5" width="51" height="12.75" rx="6.375" fill="#757E8F" style="fill:#757E8F;fill:color(display-p3 0.4593 0.4931 0.5607);fill-opacity:1;"/>
<path d="M66.7207 60.3477C70.2415 60.3477 73.0957 63.2018 73.0957 66.7227V82.3359C73.0957 85.8568 70.2415 88.7109 66.7207 88.7109C63.1999 88.7109 60.3457 85.8568 60.3457 82.3359V66.7227C60.3457 63.2018 63.1999 60.3477 66.7207 60.3477ZM29.875 75.9287C33.3958 75.9287 36.25 78.7829 36.25 82.3037C36.25 85.8245 33.3958 88.6787 29.875 88.6787C26.3542 88.6787 23.5 85.8245 23.5 82.3037C23.5 78.7829 26.3542 75.9287 29.875 75.9287ZM48.3027 75.9287C51.8235 75.9287 54.6777 78.7829 54.6777 82.3037C54.6777 85.8245 51.8235 88.6787 48.3027 88.6787C44.7819 88.6787 41.9277 85.8245 41.9277 82.3037C41.9277 78.7829 44.7819 75.9287 48.3027 75.9287ZM29.875 60.3477C33.3958 60.3477 36.25 63.2018 36.25 66.7227C36.25 70.2435 33.3958 73.0977 29.875 73.0977C26.3542 73.0977 23.5 70.2435 23.5 66.7227C23.5 63.2018 26.3542 60.3477 29.875 60.3477ZM48.3027 60.3477C51.8235 60.3477 54.6777 63.2018 54.6777 66.7227C54.6777 70.2435 51.8235 73.0977 48.3027 73.0977C44.7819 73.0977 41.9277 70.2435 41.9277 66.7227C41.9277 63.2018 44.7819 60.3477 48.3027 60.3477ZM29.875 44.7617C33.3958 44.7617 36.25 47.6159 36.25 51.1367C36.25 54.6575 33.3958 57.5117 29.875 57.5117C26.3542 57.5117 23.5 54.6575 23.5 51.1367C23.5 47.6159 26.3542 44.7617 29.875 44.7617ZM48.3027 44.7617C51.8235 44.7617 54.6777 47.6159 54.6777 51.1367C54.6777 54.6575 51.8235 57.5117 48.3027 57.5117C44.7819 57.5117 41.9277 54.6575 41.9277 51.1367C41.9277 47.6159 44.7819 44.7617 48.3027 44.7617ZM66.7109 44.7617C70.2318 44.7617 73.0859 47.6159 73.0859 51.1367C73.0859 54.6575 70.2318 57.5117 66.7109 57.5117C63.1901 57.5117 60.3359 54.6575 60.3359 51.1367C60.3359 47.6159 63.1901 44.7617 66.7109 44.7617Z" fill="#757E8F" style="fill:#757E8F;fill:color(display-p3 0.4593 0.4931 0.5607);fill-opacity:1;"/>
<path d="M60 85.1471C60 84.4161 60.6296 83.8235 61.4062 83.8235H69.8438C70.6204 83.8235 71.25 84.4161 71.25 85.1471V103.676C71.25 104.407 70.6204 105 69.8438 105H61.4062C60.6296 105 60 104.407 60 103.676V85.1471Z" fill="#757E8F" style="fill:#757E8F;fill:color(display-p3 0.4593 0.4931 0.5607);fill-opacity:1;"/>
<path d="M76.875 77.2059C76.875 76.4749 77.5046 75.8824 78.2812 75.8824H86.7188C87.4954 75.8824 88.125 76.4749 88.125 77.2059V103.676C88.125 104.407 87.4954 105 86.7188 105H78.2812C77.5046 105 76.875 104.407 76.875 103.676V77.2059Z" fill="#757E8F" style="fill:#757E8F;fill:color(display-p3 0.4593 0.4931 0.5607);fill-opacity:1;"/>
<path d="M93.75 61.3235C93.75 60.5926 94.3796 60 95.1562 60H103.594C104.37 60 105 60.5926 105 61.3235V103.676C105 104.407 104.37 105 103.594 105H95.1562C94.3796 105 93.75 104.407 93.75 103.676V61.3235Z" fill="#757E8F" style="fill:#757E8F;fill:color(display-p3 0.4593 0.4931 0.5607);fill-opacity:1;"/>
<path d="M99.6416 64.4443C99.9494 64.1946 100.412 64.3332 100.532 64.7109L102.972 72.3857C103.107 72.8123 102.714 73.2187 102.283 73.0977L100.069 72.4746C93.103 88.1446 76.6383 95.8941 63.0215 97.2559C61.8629 97.3711 60.83 96.5248 60.7139 95.3662C60.5986 94.2075 61.4448 93.1746 62.6035 93.0586C75.1144 91.8072 89.6388 84.805 95.9561 71.3184L93.4521 70.6152C93.0131 70.4918 92.895 69.9243 93.249 69.6367L99.6416 64.4443Z" fill="#757E8F" style="fill:#757E8F;fill:color(display-p3 0.4593 0.4931 0.5607);fill-opacity:1;"/>
</svg>
