<svg width="120" height="120" viewBox="0 0 120 120" fill="none" xmlns="http://www.w3.org/2000/svg">
<path d="M59.6484 20C62.0425 20.0003 63.8171 22.2229 63.2871 24.5576L61.7207 31.4561C61.7518 31.4372 61.7836 31.4196 61.8145 31.4004C80.2965 19.9068 97.2041 39.951 97.2041 60.1445C97.2039 82.4063 79.044 109.351 56.1025 100.463C33.6407 109.351 15.0002 82.4064 15 60.1445C15 39.9512 31.9091 19.9074 50.3896 31.4004C50.4197 31.4191 50.4512 31.4357 50.4814 31.4541L48.916 24.5576C48.386 22.2228 50.1604 20 52.5547 20H59.6484Z" fill="#757E8F" style="fill:#757E8F;fill:color(display-p3 0.4593 0.4931 0.5607);fill-opacity:1;"/>
<path d="M57.7713 101.049C79.9192 108.041 97.2058 81.8638 97.2058 60.1441C97.2058 38.7251 78.1837 17.4747 58.4373 33.8483C56.8942 35.1279 56.1035 37.0882 56.1035 39.0928V98.7028C56.1035 99.7634 56.7599 100.729 57.7713 101.049Z" fill="#757E8F" style="fill:#757E8F;fill:color(display-p3 0.4593 0.4931 0.5607);fill-opacity:1;"/>
<path d="M92.068 60.1428C92.0677 50.3743 87.5011 40.9245 81.2807 36.255C78.2643 33.9914 74.9929 32.9292 71.6373 33.2195C69.1357 33.4363 66.2435 34.4357 63.0781 36.743C61.8727 37.6217 61.2413 39.064 61.2413 40.5557V94.5643C61.2413 95.7794 62.092 96.8487 63.3013 96.9664C70.0903 97.627 76.2736 94.406 81.4011 88.5863C87.9646 81.1366 92.068 70.0502 92.068 60.1428ZM97.2058 60.1428C97.2058 81.8627 79.9194 108.041 57.7713 101.049C56.7599 100.729 56.1035 99.7634 56.1035 98.7028V37.0377C56.1035 36.3478 56.3929 35.6696 56.8986 35.2002C77.1833 16.372 97.2051 38.168 97.2058 60.1428Z" fill="#757E8F" style="fill:#757E8F;fill:color(display-p3 0.4593 0.4931 0.5607);fill-opacity:1;"/>
<path d="M54.6087 100.956C74.1923 113.442 97.6649 92.6306 103.286 71.651C108.83 50.9619 95.9561 25.5122 72.6447 36.2172C70.8231 37.0538 69.5519 38.7427 69.0331 40.679L53.6049 98.2578C53.3304 99.2823 53.7144 100.385 54.6087 100.956Z" fill="#757E8F" style="fill:#757E8F;fill:color(display-p3 0.4593 0.4931 0.5607);fill-opacity:1;"/>
<path d="M98.324 70.32C100.852 60.8842 98.8868 50.5745 94.0868 44.4542C91.7591 41.4871 88.8741 39.6143 85.5577 39.0262C83.0852 38.5882 80.0329 38.8049 76.3782 40.2144C74.9864 40.7512 74.0033 41.9809 73.6172 43.4218L59.6387 95.5901C59.3243 96.7638 59.8692 98.0168 61.0069 98.4435C67.3935 100.839 74.1998 99.3278 80.6588 95.0335C88.9269 89.5365 95.7598 79.8898 98.324 70.32ZM103.287 71.6497C97.6652 92.6296 74.1924 113.442 54.6087 100.956C53.7144 100.385 53.3304 99.2823 53.6049 98.2578L69.565 38.6939C69.7436 38.0275 70.1987 37.4473 70.8086 37.1248C95.2752 24.1882 108.974 50.4236 103.287 71.6497Z" fill="#757E8F" style="fill:#757E8F;fill:color(display-p3 0.4593 0.4931 0.5607);fill-opacity:1;"/>
<path d="M72.5885 68.4159C73.2462 67.4376 74.5724 67.1777 75.5506 67.8353C76.7697 68.6548 76.8159 70.432 75.6411 71.3137L72.6492 73.5593C72.1381 73.9429 71.4403 73.961 70.9099 73.6045C70.2217 73.1418 70.0388 72.2087 70.5015 71.5205L72.5885 68.4159Z" fill="#757E8F" style="fill:#757E8F;fill:color(display-p3 0.4593 0.4931 0.5607);fill-opacity:1;"/>
<path d="M39.7702 35.2051C30.4073 35.2009 19.7742 47.1854 21.6161 60.6434" stroke="#757E8F" style="stroke:#757E8F;stroke:color(display-p3 0.4593 0.4931 0.5607);stroke-opacity:1;" stroke-width="7.70661" stroke-linecap="round"/>
</svg>
