<svg width="120" height="120" viewBox="0 0 120 120" fill="none" xmlns="http://www.w3.org/2000/svg">
<path d="M88.9463 102.499C88.3804 104.154 86.8244 105.267 85.0752 105.267H34.9248C33.1755 105.267 31.6196 104.154 31.0537 102.499L20 70.166H20.0146C17.2453 70.166 15.0001 67.9206 15 65.1514C15 62.382 17.2453 60.1367 20.0146 60.1367H99.9854C102.755 60.1367 105 62.382 105 65.1514C105 67.9206 102.755 70.166 99.9854 70.166H100L88.9463 102.499Z" fill="#757E8F" style="fill:#757E8F;fill:color(display-p3 0.4593 0.4931 0.5607);fill-opacity:1;"/>
<path d="M94.4195 67.8505C94.6961 66.9623 93.9819 66.078 93.0554 66.1613L63.662 68.8068C48.5624 70.1658 38.1966 84.6232 41.7556 99.3602C42.0003 100.373 42.907 101.087 43.9494 101.087H81.0595C82.8503 101.087 84.4329 99.9225 84.9653 98.2127L94.4195 67.8505Z" fill="#757E8F" style="fill:#757E8F;fill:color(display-p3 0.4593 0.4931 0.5607);fill-opacity:1;"/>
<path d="M25.9002 68.7074C25.4727 67.415 26.5002 66.1046 27.8572 66.2116L35.6797 66.8284C56.6526 68.4821 75.1952 81.083 84.4543 99.9739C84.7061 100.488 84.3321 101.087 83.7601 101.087H39.5683C37.8042 101.087 36.2387 99.9563 35.6846 98.2814L25.9002 68.7074Z" fill="#757E8F" style="fill:#757E8F;fill:color(display-p3 0.4593 0.4931 0.5607);fill-opacity:1;"/>
<path d="M82.8809 15.3038C83.4915 15.1366 84.1206 15.5079 84.2822 16.1216C86.4413 24.3523 81.5853 32.964 73.3984 35.2047L62.0508 38.3045V58.4356C62.0504 59.568 61.134 60.4871 60.0049 60.4874C58.8755 60.4874 57.9593 59.5682 57.959 58.4356V38.3045L46.6113 35.2047C38.4245 32.964 33.5685 24.3523 35.7275 16.1216C35.8892 15.5079 36.5182 15.1366 37.1289 15.3038L48.2617 18.3545C54.7034 20.1177 59.1793 25.5982 60.0049 31.87C60.8304 25.5982 65.3063 20.1177 71.748 18.3545L82.8809 15.3038Z" fill="#757E8F" style="fill:#757E8F;fill:color(display-p3 0.4593 0.4931 0.5607);fill-opacity:1;"/>
<path d="M59.4531 56.7588C64.5471 56.7588 68.6807 60.9016 68.6807 66.0156C68.6804 71.1295 64.5469 75.2715 59.4531 75.2715C54.3593 75.2715 50.2258 71.1295 50.2256 66.0156C50.2256 60.9016 54.3592 56.7588 59.4531 56.7588Z" fill="#757E8F" stroke="#757E8F" style="fill:#757E8F;fill:color(display-p3 0.4593 0.4931 0.5607);fill-opacity:1;stroke:#757E8F;stroke:color(display-p3 0.4593 0.4931 0.5607);stroke-opacity:1;" stroke-width="1.54558"/>
<circle cx="6.41549" cy="6.41549" r="6.41549" transform="matrix(0.706088 -0.708124 0.706088 0.708124 50.3906 66.0195)" fill="#757E8F" style="fill:#757E8F;fill:color(display-p3 0.4593 0.4931 0.5607);fill-opacity:1;"/>
<mask id="path-7-inside-1_4077_18485" fill="white">
<rect x="48.1445" y="91.1719" width="20.9336" height="7.77593" rx="1.52249"/>
</mask>
<rect x="48.1445" y="91.1719" width="20.9336" height="7.77593" rx="1.52249" fill="#757E8F" stroke="#757E8F" style="fill:#757E8F;fill:color(display-p3 0.4593 0.4931 0.5607);fill-opacity:1;stroke:#757E8F;stroke:color(display-p3 0.4593 0.4931 0.5607);stroke-opacity:1;" stroke-width="7.77593" mask="url(#path-7-inside-1_4077_18485)"/>
<path d="M52.4023 93.7656V98.9496" stroke="#757E8F" style="stroke:#757E8F;stroke:color(display-p3 0.4593 0.4931 0.5607);stroke-opacity:1;" stroke-width="1.52249"/>
<path d="M57.6465 93.7656V98.9496" stroke="#757E8F" style="stroke:#757E8F;stroke:color(display-p3 0.4593 0.4931 0.5607);stroke-opacity:1;" stroke-width="1.52249"/>
<rect x="48.1445" y="75.625" width="20.9336" height="7.77593" rx="1.52249" fill="#757E8F" style="fill:#757E8F;fill:color(display-p3 0.4593 0.4931 0.5607);fill-opacity:1;"/>
<path d="M52.4023 78.2188V83.4027" stroke="#757E8F" style="stroke:#757E8F;stroke:color(display-p3 0.4593 0.4931 0.5607);stroke-opacity:1;" stroke-width="1.52249"/>
<path d="M57.6465 78.2188V83.4027" stroke="#757E8F" style="stroke:#757E8F;stroke:color(display-p3 0.4593 0.4931 0.5607);stroke-opacity:1;" stroke-width="1.52249"/>
<rect x="50.8887" y="83.3984" width="20.9336" height="7.77593" rx="1.52249" fill="#757E8F" style="fill:#757E8F;fill:color(display-p3 0.4593 0.4931 0.5607);fill-opacity:1;"/>
<path d="M62.5391 85.9922V91.1761" stroke="#757E8F" style="stroke:#757E8F;stroke:color(display-p3 0.4593 0.4931 0.5607);stroke-opacity:1;" stroke-width="1.52249"/>
<path d="M67.7734 85.9922V91.1761" stroke="#757E8F" style="stroke:#757E8F;stroke:color(display-p3 0.4593 0.4931 0.5607);stroke-opacity:1;" stroke-width="1.52249"/>
</svg>
