<svg width="120" height="120" viewBox="0 0 120 120" fill="none" xmlns="http://www.w3.org/2000/svg">
<rect x="10" y="90" width="100" height="10" rx="5" fill="#757E8F" style="fill:#757E8F;fill:color(display-p3 0.4593 0.4931 0.5607);fill-opacity:1;"/>
<path d="M25.0684 20.6602C27.7037 19.4466 30.8972 19.8929 33.166 21.791L35.9043 24.082C37.3776 25.3148 38.5343 26.8294 39.3105 28.501C41.3474 28.0701 43.4599 27.8418 45.625 27.8418H79.6406C96.4084 27.8418 110.002 41.4354 110.002 58.2031C110.002 71.7257 101.16 83.1808 88.9434 87.1094C88.9398 91.4665 85.4068 94.9971 81.0488 94.9971C77.1883 94.9969 73.9766 92.226 73.291 88.5645H51.9609C51.2753 92.2261 48.0637 94.9971 44.2031 94.9971C39.844 94.9969 36.3101 91.4643 36.3086 87.1055C28.0317 84.4396 21.3071 78.3188 17.833 70.4404C17.7297 70.4511 17.6247 70.457 17.5186 70.457C13.3661 70.4569 10 67.0909 10 62.9385V53.4424C10.0001 49.2901 13.3662 45.923 17.5186 45.9229C17.6283 45.9229 17.737 45.929 17.8438 45.9404C19.6627 41.8258 22.3678 38.1905 25.7188 35.2783C25.3064 34.057 24.5494 32.9461 23.5156 32.0811C19.5914 28.7974 20.2905 22.8614 24.8486 20.7617L25.0684 20.6602ZM42.8086 33.6533C42.1312 33.6534 41.582 34.2024 41.582 34.8799C41.5821 35.5572 42.1312 36.1064 42.8086 36.1064H82.4609C83.1384 36.1064 83.6874 35.5573 83.6875 34.8799C83.6875 34.2024 83.1384 33.6533 82.4609 33.6533H42.8086Z" fill="#757E8F" style="fill:#757E8F;fill:color(display-p3 0.4593 0.4931 0.5607);fill-opacity:1;"/>
<mask id="mask0_4077_18496" style="mask-type:alpha" maskUnits="userSpaceOnUse" x="10" y="19" width="101" height="76">
<path d="M25.0684 20.6602C27.7037 19.4466 30.8972 19.8929 33.166 21.791L35.9043 24.082C37.3776 25.3148 38.5343 26.8294 39.3105 28.501C41.3474 28.0701 43.4599 27.8418 45.625 27.8418H79.6406C96.4084 27.8418 110.002 41.4354 110.002 58.2031C110.002 71.7257 101.16 83.1808 88.9434 87.1094C88.9398 91.4665 85.4068 94.9971 81.0488 94.9971C77.1883 94.9969 73.9766 92.226 73.291 88.5645H51.9609C51.2753 92.2261 48.0637 94.9971 44.2031 94.9971C39.844 94.9969 36.3101 91.4643 36.3086 87.1055C28.0317 84.4396 21.3071 78.3188 17.833 70.4404C17.7297 70.4511 17.6247 70.457 17.5186 70.457C13.3661 70.4569 10 67.0909 10 62.9385V53.4424C10.0001 49.2901 13.3662 45.923 17.5186 45.9229C17.6283 45.9229 17.737 45.929 17.8438 45.9404C19.6627 41.8258 22.3678 38.1905 25.7188 35.2783C25.3064 34.057 24.5494 32.9461 23.5156 32.0811C19.5914 28.7974 20.2905 22.8614 24.8486 20.7617L25.0684 20.6602ZM42.8086 33.6533C42.1312 33.6534 41.582 34.2024 41.582 34.8799C41.5821 35.5572 42.1312 36.1064 42.8086 36.1064H82.4609C83.1384 36.1064 83.6874 35.5573 83.6875 34.8799C83.6875 34.2024 83.1384 33.6533 82.4609 33.6533H42.8086Z" fill="url(#paint0_linear_4077_18496)" style=""/>
</mask>
<g mask="url(#mask0_4077_18496)">
<path d="M24.3564 53.3012L13.814 77.8944C13.4174 78.8196 13.4795 79.8765 13.993 80.7423C17.0766 85.9414 22.282 94.2062 23.5446 94.2062C24.897 94.2062 61.6653 99.8956 81.033 102.92C81.8271 103.044 82.627 102.861 83.2931 102.411L105.5 87.4152C106.103 87.0078 106.549 86.4059 106.762 85.7098L113.599 63.3791C114.282 61.1496 112.414 58.9673 110.106 59.2979L107.008 59.7416C105.9 59.9003 104.979 58.8961 105.233 57.8062L105.896 54.9561C106.214 53.5878 105.598 52.1726 104.379 51.4741L97.7822 47.6946C96.7341 47.0941 95.4363 47.1388 94.4321 47.8101L82.6255 55.7023C81.6532 56.3523 80.3354 55.7661 80.1671 54.6087L79.1582 47.6723C78.9492 46.235 77.7935 45.1218 76.3494 44.9666L67.3106 43.9956C65.9286 43.8471 64.6103 44.6128 64.0544 45.8867L60.0921 54.9678C59.9113 55.3822 59.5626 55.7001 59.1333 55.8421L40.3678 62.0451C39.1253 62.4558 37.946 61.2745 38.3588 60.0327L39.5524 56.4422C40.1975 54.5018 38.8711 52.4654 36.8356 52.271L27.5833 51.3875C26.206 51.2559 24.9015 52.0296 24.3564 53.3012Z" fill="#757E8F" style="fill:#757E8F;fill:color(display-p3 0.4593 0.4931 0.5607);fill-opacity:1;"/>
<rect x="-0.798366" y="0.286784" width="14.7647" height="25.157" rx="0.592101" transform="matrix(-0.910059 -0.414477 -0.438303 0.898827 66.5012 55.9891)" fill="#757E8F" stroke="#757E8F" style="fill:#757E8F;fill:color(display-p3 0.4593 0.4931 0.5607);fill-opacity:1;stroke:#757E8F;stroke:color(display-p3 0.4593 0.4931 0.5607);stroke-opacity:1;" stroke-width="1.1842"/>
<path d="M57.7194 66.12C58.3622 64.8017 57.7896 63.024 56.1147 62.2611C54.4397 61.4982 52.6566 62.2031 52.0138 63.5214C51.371 64.8397 51.9435 66.6174 53.6184 67.3802C55.2934 68.1429 57.0765 67.4381 57.7194 66.12Z" fill="#757E8F" stroke="#757E8F" style="fill:#757E8F;fill:color(display-p3 0.4593 0.4931 0.5607);fill-opacity:1;stroke:#757E8F;stroke:color(display-p3 0.4593 0.4931 0.5607);stroke-opacity:1;" stroke-width="3.94734"/>
<rect x="0.0389295" y="-0.794663" width="14.5009" height="25.7183" rx="0.592101" transform="matrix(0.772666 -0.634812 -0.706918 -0.707295 88.9588 77.336)" fill="#757E8F" stroke="#757E8F" style="fill:#757E8F;fill:color(display-p3 0.4593 0.4931 0.5607);fill-opacity:1;stroke:#757E8F;stroke:color(display-p3 0.4593 0.4931 0.5607);stroke-opacity:1;" stroke-width="1.1842"/>
<path d="M83.7062 66.1118C84.8313 67.2374 86.8169 67.355 88.1468 66.2624C89.4765 65.1698 89.5426 63.3667 88.4176 62.241C87.2926 61.1153 85.307 60.9979 83.9771 62.0904C82.6471 63.1831 82.5811 64.9861 83.7062 66.1118Z" fill="#757E8F" stroke="#757E8F" style="fill:#757E8F;fill:color(display-p3 0.4593 0.4931 0.5607);fill-opacity:1;stroke:#757E8F;stroke:color(display-p3 0.4593 0.4931 0.5607);stroke-opacity:1;" stroke-width="3.94734"/>
<rect x="-0.175689" y="0.778874" width="14.6794" height="25.3992" rx="0.592101" transform="matrix(-0.868768 0.495219 0.572046 0.820221 35.7496 55.8423)" fill="#757E8F" stroke="#757E8F" style="fill:#757E8F;fill:color(display-p3 0.4593 0.4931 0.5607);fill-opacity:1;stroke:#757E8F;stroke:color(display-p3 0.4593 0.4931 0.5607);stroke-opacity:1;" stroke-width="1.1842"/>
<path d="M39.9358 68.9165C39.0677 67.6721 37.1445 67.1941 35.5843 68.0834C34.0243 68.9728 33.6723 70.7477 34.54 71.9923C35.408 73.2369 37.3317 73.7155 38.892 72.8261C40.4523 71.9367 40.8039 70.1611 39.9358 68.9165Z" fill="#757E8F" stroke="#757E8F" style="fill:#757E8F;fill:color(display-p3 0.4593 0.4931 0.5607);fill-opacity:1;stroke:#757E8F;stroke:color(display-p3 0.4593 0.4931 0.5607);stroke-opacity:1;" stroke-width="3.94734"/>
<rect x="-0.842715" y="-0.135035" width="14.246" height="26.0537" rx="0.592101" transform="matrix(-0.601948 -0.798535 -0.821316 0.570474 87.9532 70.1831)" fill="#757E8F" stroke="#757E8F" style="fill:#757E8F;fill:color(display-p3 0.4593 0.4931 0.5607);fill-opacity:1;stroke:#757E8F;stroke:color(display-p3 0.4593 0.4931 0.5607);stroke-opacity:1;" stroke-width="1.1842"/>
<path d="M75.3659 74.8936C76.7441 73.9363 77.0285 72.103 76.0514 70.8067C75.0742 69.5104 73.1712 69.1966 71.793 70.1538C70.4148 71.1111 70.1303 72.9444 71.1074 74.2407C72.0846 75.537 73.9877 75.8508 75.3659 74.8936Z" fill="#757E8F" stroke="#757E8F" style="fill:#757E8F;fill:color(display-p3 0.4593 0.4931 0.5607);fill-opacity:1;stroke:#757E8F;stroke:color(display-p3 0.4593 0.4931 0.5607);stroke-opacity:1;" stroke-width="3.94734"/>
</g>
<defs>
<linearGradient id="paint0_linear_4077_18496" x1="60.001" y1="19.9844" x2="60.001" y2="94.9973" gradientUnits="userSpaceOnUse">
<stop stop-color="#E6E7EA" style="stop-color:#E6E7EA;stop-color:color(display-p3 0.9007 0.9069 0.9193);stop-opacity:1;"/>
<stop offset="1" stop-color="#828384" style="stop-color:#828384;stop-color:color(display-p3 0.5088 0.5123 0.5193);stop-opacity:1;"/>
</linearGradient>
</defs>
</svg>
