<svg width="120" height="120" viewBox="0 0 120 120" fill="none" xmlns="http://www.w3.org/2000/svg">
<path d="M88.1815 49.1791L91.9185 37.7676C92.2669 36.7038 91.8281 35.5403 90.8639 34.9714L72.8476 24.3409C71.8018 23.7239 70.46 23.9917 69.7317 24.9629L63.4718 33.3104C63.3118 33.5237 63.1259 33.7084 62.8854 33.8233C59.718 35.3368 44.1146 38.434 35.6421 39.9896C35.0772 40.0934 34.4896 39.981 33.9886 39.6995C19.5726 31.6009 8.98828 38.5907 9.83209 43.8437C10.5192 48.1214 18.7164 53.56 22.7291 55.7446L77.8047 77.195C79.0877 77.6947 80.5253 77.0061 80.9401 75.693L82.3066 71.3671C82.3495 71.2314 82.4044 71.0998 82.4708 70.9739L84.9032 66.3585C85.0155 66.1454 85.0948 65.9165 85.1385 65.6795L88.1815 49.1791Z" fill="#757E8F" style="fill:#757E8F;fill:color(display-p3 0.4593 0.4931 0.5607);fill-opacity:1;"/>
<path d="M82.4692 70.98C82.4015 71.1085 82.345 71.2438 82.3013 71.3823L80.9441 75.6779C80.5242 77.0036 79.0853 77.7044 77.8045 77.206L22.7267 55.7518C18.7137 53.567 10.5175 48.1295 9.83037 43.852C9.63279 42.6191 10.0673 41.2942 11.0304 40.0876C22.844 51.8545 50.9921 67.7603 82.8295 70.2968L82.4692 70.98Z" fill="#757E8F" style="fill:#757E8F;fill:color(display-p3 0.4593 0.4931 0.5607);fill-opacity:1;"/>
<path d="M45.3708 28.8699C51.1227 25.3868 59.7535 29.5956 61.8935 34.1735C62.4362 35.3343 61.1826 36.2348 59.9342 35.9364C53.0562 34.2922 39.4267 32.4693 45.3708 28.8699Z" stroke="#757E8F" style="stroke:#757E8F;stroke:color(display-p3 0.4593 0.4931 0.5607);stroke-opacity:1;" stroke-width="3.94252"/>
<path d="M51.504 22.1794C58.1391 21.301 64.3527 28.658 64.4914 33.7316C64.5266 35.018 63.024 35.3389 62.0017 34.5598C56.3714 30.2691 44.6476 23.087 51.504 22.1794Z" stroke="#757E8F" style="stroke:#757E8F;stroke:color(display-p3 0.4593 0.4931 0.5607);stroke-opacity:1;" stroke-width="3.94252"/>
<path d="M52.2489 35.6764C53.7988 34.2689 58.0701 32.5812 62.7566 37.0908" stroke="#757E8F" style="stroke:#757E8F;stroke:color(display-p3 0.4593 0.4931 0.5607);stroke-opacity:1;" stroke-width="3.94252" stroke-linecap="round"/>
<path d="M44.377 37.606C45.9268 36.1984 51.4662 37.0672 53.905 40.7524M37.2885 38.1434C38.8384 36.7358 44.3777 37.6046 46.8166 41.2898" stroke="#757E8F" style="stroke:#757E8F;stroke:color(display-p3 0.4593 0.4931 0.5607);stroke-opacity:1;" stroke-width="3.94252" stroke-linecap="round"/>
<path d="M102.857 61.6425L100.508 49.8668C100.289 48.769 99.3351 47.9711 98.2158 47.9491L77.301 47.5381C76.0871 47.5142 75.0498 48.4066 74.8924 49.6102L73.5395 59.9561C73.5049 60.2204 73.4337 60.4726 73.2807 60.6909C71.265 63.5649 59.1945 73.9265 52.5785 79.4429C52.1373 79.8107 51.5702 80.0014 50.9956 80.0023C34.4606 80.0284 28.674 91.3156 31.9891 95.4769C34.6886 98.8656 44.5002 99.5768 49.0685 99.5089L107.579 91.143C108.942 90.9481 109.856 89.6421 109.572 88.2947L108.638 83.8553C108.608 83.716 108.592 83.5744 108.588 83.4321L108.44 78.2171C108.433 77.9763 108.389 77.7379 108.311 77.5101L102.857 61.6425Z" fill="#757E8F" style="fill:#757E8F;fill:color(display-p3 0.4593 0.4931 0.5607);fill-opacity:1;"/>
<path d="M108.593 83.4288C108.598 83.574 108.615 83.7196 108.645 83.8618L109.572 88.2701C109.858 89.6312 108.949 90.9484 107.588 91.1432L49.074 99.507C44.5053 99.5749 34.6952 98.8641 31.9957 95.4756C31.2181 94.4987 30.9458 93.1312 31.1921 91.6071C47.262 96.0545 79.5932 96.0845 108.572 82.6568L108.593 83.4288Z" fill="#757E8F" style="fill:#757E8F;fill:color(display-p3 0.4593 0.4931 0.5607);fill-opacity:1;"/>
<path d="M55.5973 64.975C58.8969 59.1159 68.4821 58.543 72.5946 61.4796C73.6374 62.2242 72.9878 63.6243 71.7538 63.9775C64.955 65.9235 52.1874 71.0299 55.5973 64.975Z" stroke="#757E8F" style="stroke:#757E8F;stroke:color(display-p3 0.4593 0.4931 0.5607);stroke-opacity:1;" stroke-width="3.94252"/>
<path d="M57.652 56.1307C63.0002 52.1066 72.0262 55.4632 74.6389 59.8146C75.3014 60.9179 74.1501 61.9354 72.877 61.7589C65.8652 60.7867 52.1254 60.2889 57.652 56.1307Z" stroke="#757E8F" style="stroke:#757E8F;stroke:color(display-p3 0.4593 0.4931 0.5607);stroke-opacity:1;" stroke-width="3.94252"/>
<path d="M64.926 67.5288C65.5847 65.5415 68.4765 61.9736 74.7736 63.5999" stroke="#757E8F" style="stroke:#757E8F;stroke:color(display-p3 0.4593 0.4931 0.5607);stroke-opacity:1;" stroke-width="3.94252" stroke-linecap="round"/>
<path d="M59.0171 73.0725C59.6758 71.0851 64.9277 69.1212 68.8621 71.1334M53.1065 77.0221C53.7652 75.0348 59.0171 73.0709 62.9515 75.0831" stroke="#757E8F" style="stroke:#757E8F;stroke:color(display-p3 0.4593 0.4931 0.5607);stroke-opacity:1;" stroke-width="3.94252" stroke-linecap="round"/>
</svg>
