<svg width="120" height="120" viewBox="0 0 120 120" fill="none" xmlns="http://www.w3.org/2000/svg">
<rect x="10" y="20" width="100" height="80" rx="25" fill="#757E8F" style="fill:#757E8F;fill:color(display-p3 0.4593 0.4931 0.5607);fill-opacity:1;"/>
<rect width="36.2636" height="3.23691" rx="1.61845" transform="matrix(0.792629 -0.609704 0.688616 0.725126 51.25 55.1074)" fill="#757E8F" style="fill:#757E8F;fill:color(display-p3 0.4593 0.4931 0.5607);fill-opacity:1;"/>
<rect x="51.25" y="51.5625" width="3.43742" height="18.5621" rx="1.71871" fill="#757E8F" style="fill:#757E8F;fill:color(display-p3 0.4593 0.4931 0.5607);fill-opacity:1;"/>
<rect x="54.6875" y="51.5625" width="3.43742" height="18.5621" rx="1.71871" fill="#757E8F" style="fill:#757E8F;fill:color(display-p3 0.4593 0.4931 0.5607);fill-opacity:1;"/>
<rect x="27.5" y="82.5" width="65" height="4.5" rx="2.25" fill="#757E8F" style="fill:#757E8F;fill:color(display-p3 0.4593 0.4931 0.5607);fill-opacity:1;"/>
<rect x="58.125" y="51.5625" width="3.43742" height="18.5621" rx="1.71871" fill="#757E8F" style="fill:#757E8F;fill:color(display-p3 0.4593 0.4931 0.5607);fill-opacity:1;"/>
<rect width="37.1088" height="3.16323" rx="1.58162" transform="matrix(0.914863 -0.403763 0.47845 0.878115 51.25 55.9219)" fill="#757E8F" style="fill:#757E8F;fill:color(display-p3 0.4593 0.4931 0.5607);fill-opacity:1;"/>
<path d="M80.5957 63.9395C81.4742 63.9396 82.1864 64.6518 82.1865 65.5303C82.1865 73.2775 76.034 79.5859 68.3486 79.8398C67.998 81.366 66.6325 82.5047 65 82.5049H54.6875C53.0548 82.5049 51.6885 81.3661 51.3379 79.8398C43.6524 79.5859 37.5 73.2775 37.5 65.5303C37.5001 64.6517 38.2123 63.9396 39.0908 63.9395H80.5957Z" fill="#757E8F" style="fill:#757E8F;fill:color(display-p3 0.4593 0.4931 0.5607);fill-opacity:1;"/>
<path d="M105 20C107.761 20 110 22.2386 110 25V95C110 97.7614 107.761 100 105 100H15C12.2386 100 10 97.7614 10 95V25C10 22.2386 12.2386 20 15 20H105ZM20 88.6111C20 89.9918 21.1193 91.1111 22.5 91.1111H97.5C98.8807 91.1111 100 89.9918 100 88.6111V31.3889C100 30.0082 98.8807 28.8889 97.5 28.8889H22.5C21.1193 28.8889 20 30.0082 20 31.3889V88.6111Z" fill="#757E8F" style="fill:#757E8F;fill:color(display-p3 0.4593 0.4931 0.5607);fill-opacity:1;"/>
<path d="M20 87.5C20 88.8807 21.1193 90 22.5 90H97.5C98.8807 90 100 88.8807 100 87.5V32.5C100 31.1193 98.8807 30 97.5 30H22.5C21.1193 30 20 31.1193 20 32.5V87.5ZM105 92.5C105 93.8807 103.881 95 102.5 95H17.5C16.1193 95 15 93.8807 15 92.5V27.5C15 26.1193 16.1193 25 17.5 25H102.5C103.881 25 105 26.1193 105 27.5V92.5Z" fill="#757E8F" style="fill:#757E8F;fill:color(display-p3 0.4593 0.4931 0.5607);fill-opacity:1;"/>
</svg>
