<svg width="120" height="120" viewBox="0 0 120 120" fill="none" xmlns="http://www.w3.org/2000/svg">
<path d="M97.5 20.0029L74.5732 27.5967C74.2881 27.5246 73.9887 27.4905 73.6807 27.501C70.3197 27.6158 67.6721 28.8006 65.6455 30.5537L61.1123 32.0557C60.2139 32.3265 59.7014 33.2855 59.9678 34.1982C60.1366 34.7767 60.5783 35.1965 61.1074 35.3584L58.6709 35.7012C57.7474 35.8623 57.1268 36.7531 57.2852 37.6914C57.4436 38.6299 58.3213 39.2606 59.2451 39.0996L60.7666 38.8857C60.168 41.2323 59.986 43.6603 60.1562 45.874C60.3405 48.2678 60.9591 50.7266 62.1973 52.5918C65.5491 57.6381 68.0867 61.6215 68.6953 65.2344C68.973 66.8834 68.8227 68.3709 68.1299 69.8389C67.4137 71.3557 66.0011 73.0936 63.3662 74.9971C57.7989 79.0191 55.6577 84.2818 55.3789 89.1904C55.2565 91.3481 55.4953 93.4177 55.9277 95.2812H35.5479C35.2441 95.2812 34.9971 95.5273 34.9971 95.8311C34.9971 100.894 39.1019 104.999 44.165 104.999H95.5684C100.632 104.999 104.736 100.894 104.736 95.8311C104.736 95.5274 104.49 95.2814 104.187 95.2812H80.332C79.4767 93.485 78.6918 90.767 78.8535 87.9092C79.0293 84.8141 80.3052 81.4649 84.1309 78.7012C87.3654 76.3644 89.6528 73.8315 90.9785 71.0234C92.3273 68.1659 92.5637 65.2694 92.0908 62.4619C91.1979 57.1612 87.6809 51.9198 84.5791 47.25C84.1901 46.6643 83.7586 45.4471 83.624 43.6973C83.4943 42.0081 83.6661 40.1122 84.1865 38.3604C84.5182 37.2441 84.9642 36.2476 85.5312 35.4033L104.163 32.7842C104.499 32.7257 104.724 32.4017 104.667 32.0605L104.302 29.8975C104.244 29.5562 103.925 29.3272 103.589 29.3857L93.5957 30.79C93.8951 30.2717 94.0593 29.6645 94.0381 29.0195C93.9795 27.25 92.5529 25.8529 90.8262 25.8379L98.4648 23.3086C98.7916 23.2102 98.9777 22.8613 98.8809 22.5293L98.2676 20.4258C98.1707 20.0938 97.8268 19.9045 97.5 20.0029Z" fill="#757E8F" style="fill:#757E8F;fill:color(display-p3 0.4593 0.4931 0.5607);fill-opacity:1;"/>
<path d="M39.9728 34.1994C39.7064 33.2864 40.2189 32.3269 41.1175 32.0563L97.6573 15.026C97.9841 14.9276 98.3275 15.1169 98.4244 15.4489L99.0385 17.5527C99.1354 17.8847 98.949 18.2336 98.6222 18.332L42.0824 35.3622C41.1838 35.6329 40.2393 35.1123 39.9728 34.1994Z" fill="#757E8F" style="fill:#757E8F;fill:color(display-p3 0.4593 0.4931 0.5607);fill-opacity:1;"/>
<path d="M40.9806 38.1212C42.5162 32.9525 46.4493 27.749 53.6855 27.5019C55.4739 27.4409 56.9757 28.8653 57.0358 30.6821C57.0958 32.4989 55.6916 34.02 53.9031 34.0809C50.3682 34.2017 48.2227 36.5299 47.1848 40.0234C46.6644 41.7753 46.4921 43.671 46.6218 45.3602C46.7564 47.11 47.1879 48.3272 47.5769 48.9129C50.6787 53.5827 54.1955 58.8236 55.0884 64.1243C55.5614 66.932 55.3254 69.8283 53.9766 72.686C52.6508 75.4942 50.3633 78.0272 47.1286 80.3641C43.303 83.1278 42.0276 86.4767 41.8518 89.5718C41.6679 92.8226 42.7081 95.8927 43.6844 97.6308L38.059 100.898C36.5817 98.2688 35.1143 93.942 35.3838 89.1915C35.6625 84.2828 37.8038 79.0199 43.3712 74.9978C46.0061 73.0944 47.4184 71.3567 48.1345 69.8399C48.8274 68.3719 48.9783 66.8845 48.7006 65.2355C48.092 61.6226 45.5539 57.6393 42.202 52.5928C40.9639 50.7277 40.345 48.2692 40.1608 45.8754C39.9719 43.42 40.2144 40.7003 40.9806 38.1212Z" fill="#757E8F" style="fill:#757E8F;fill:color(display-p3 0.4593 0.4931 0.5607);fill-opacity:1;"/>
<path d="M46.3614 38.6329C47.897 33.4642 51.8301 28.2607 59.0663 28.0136C60.8547 27.9526 62.3566 29.377 62.4167 31.1938C62.4767 33.0106 61.0724 34.5317 59.284 34.5927C55.7491 34.7135 53.6036 37.0416 52.5657 40.5351C52.0452 42.287 51.8729 44.1827 52.0027 45.8719C52.1373 47.6217 52.5687 48.8389 52.9578 49.4246C56.0596 54.0944 59.5763 59.3353 60.4693 64.6361C60.9422 67.4437 60.7063 70.34 59.3574 73.1978C58.0317 76.006 55.7442 78.5389 52.5095 80.8758C48.6838 83.6395 47.4084 86.9884 47.2327 90.0835C47.0487 93.3343 48.0889 96.4044 49.0652 98.1425L43.4399 101.409C41.9626 98.7805 40.4952 94.4537 40.7646 89.7032C41.0434 84.7945 43.1846 79.5316 48.752 75.5096C51.387 73.6061 52.7992 71.8685 53.5154 70.3516C54.2083 68.8836 54.3591 67.3962 54.0815 65.7472C53.4728 62.1343 50.9348 58.151 47.5829 53.1046C46.3448 51.2394 45.7259 48.7809 45.5416 46.3871C45.3528 43.9317 45.5952 41.212 46.3614 38.6329Z" fill="#757E8F" style="fill:#757E8F;fill:color(display-p3 0.4593 0.4931 0.5607);fill-opacity:1;"/>
<path d="M52.1622 37.8966C53.6978 32.7279 57.6309 27.5244 64.8671 27.2773C66.6555 27.2163 68.1573 28.6407 68.2174 30.4575C68.2775 32.2743 66.8732 33.7954 65.0848 33.8563C61.5499 33.9771 59.4044 36.3053 58.3665 39.7988C57.846 41.5507 57.6737 43.4464 57.8035 45.1356C57.938 46.8854 58.3695 48.1025 58.7586 48.6883C61.8604 53.3581 65.3771 58.599 66.27 63.8997C66.743 66.7074 66.5071 69.6037 65.1582 72.4614C63.8324 75.2696 61.545 77.8026 58.3103 80.1395C54.4846 82.9031 53.2092 86.2521 53.0335 89.3472C52.8495 92.598 53.8897 95.6681 54.866 97.4062L49.2407 100.673C47.7633 98.0442 46.296 93.7173 46.5654 88.9669C46.8442 84.0582 48.9854 78.7953 54.5528 74.7732C57.1878 72.8697 58.6 71.1321 59.3162 69.6153C60.009 68.1473 60.1599 66.6599 59.8822 65.0109C59.2736 61.398 56.7356 57.4146 53.3837 52.3682C52.1455 50.5031 51.5267 48.0446 51.3424 45.6508C51.1536 43.1954 51.396 40.4756 52.1622 37.8966Z" fill="#757E8F" style="fill:#757E8F;fill:color(display-p3 0.4593 0.4931 0.5607);fill-opacity:1;"/>
<path d="M57.9825 36.461C59.5181 31.2923 63.4512 26.0889 70.6874 25.8417C72.4758 25.7808 73.9777 27.2052 74.0378 29.0219C74.0978 30.8388 72.6935 32.3598 70.9051 32.4208C67.3702 32.5416 65.2247 34.8697 64.1868 38.3632C63.6663 40.1151 63.494 42.0109 63.6238 43.7C63.7584 45.4498 64.1898 46.667 64.5789 47.2527C67.6807 51.9226 71.1974 57.1634 72.0904 62.4642C72.5633 65.2718 72.3274 68.1682 70.9785 71.0259C69.6528 73.8341 67.3653 76.3671 64.1306 78.7039C60.3049 81.4676 59.0295 84.8166 58.8538 87.9116C58.6698 91.1624 59.71 94.2325 60.6863 95.9707L55.061 99.2375C53.5837 96.6087 52.1163 92.2818 52.3857 87.5314C52.6645 82.6227 54.8057 77.3597 60.3731 73.3377C63.0081 71.4342 64.4203 69.6966 65.1365 68.1797C65.8293 66.7118 65.9802 65.2244 65.7026 63.5753C65.0939 59.9625 62.5559 55.9791 59.204 50.9327C57.9659 49.0675 57.347 46.609 57.1627 44.2152C56.9739 41.7599 57.2163 39.0401 57.9825 36.461Z" fill="#757E8F" style="fill:#757E8F;fill:color(display-p3 0.4593 0.4931 0.5607);fill-opacity:1;"/>
<path d="M63.0118 35.836C64.5474 30.6673 68.4805 25.4639 75.7167 25.2167C77.5051 25.1558 79.007 26.5802 79.0671 28.3969C79.1271 30.2138 77.7228 31.7348 75.9344 31.7958C72.3995 31.9166 70.254 34.2447 69.2161 37.7382C68.6956 39.4901 68.5233 41.3859 68.6531 43.075C68.7877 44.8248 69.2191 46.042 69.6082 46.6277C72.71 51.2976 76.2267 56.5384 77.1197 61.8392C77.5926 64.6468 77.3567 67.5432 76.0078 70.4009C74.6821 73.2091 72.3946 75.7421 69.1599 78.0789C65.3342 80.8426 64.0588 84.1916 63.8831 87.2866C63.6991 90.5374 64.7393 93.6075 65.7156 95.3457L60.0903 98.6125C58.613 95.9837 57.1456 91.6568 57.415 86.9064C57.6938 81.9977 59.835 76.7347 65.4024 72.7127C68.0374 70.8092 69.4496 69.0716 70.1658 67.5547C70.8586 66.0868 71.0095 64.5994 70.7318 62.9503C70.1232 59.3375 67.5852 55.3541 64.2333 50.3077C62.9951 48.4425 62.3763 45.984 62.192 43.5902C62.0032 41.1349 62.2456 38.4151 63.0118 35.836Z" fill="#757E8F" style="fill:#757E8F;fill:color(display-p3 0.4593 0.4931 0.5607);fill-opacity:1;"/>
<path d="M37.2903 37.6934C37.1319 36.7549 37.7523 35.8636 38.6762 35.7026L103.914 24.3353C104.25 24.2768 104.569 24.506 104.626 24.8472L104.991 27.01C105.049 27.3513 104.823 27.6754 104.488 27.7339L39.25 39.1012C38.3262 39.2622 37.4488 38.6319 37.2903 37.6934Z" fill="#757E8F" style="fill:#757E8F;fill:color(display-p3 0.4593 0.4931 0.5607);fill-opacity:1;"/>
<path d="M18.7109 99.0817C25.1911 93.9093 43.243 85.4438 77.341 99.7077" stroke="#757E8F" style="stroke:#757E8F;stroke:color(display-p3 0.4593 0.4931 0.5607);stroke-opacity:1;" stroke-width="8.33164"/>
<path d="M23.0273 99.0817C29.5075 93.9093 47.5594 85.4438 81.6574 99.7077" stroke="#757E8F" style="stroke:#757E8F;stroke:color(display-p3 0.4593 0.4931 0.5607);stroke-opacity:1;" stroke-width="8.33164"/>
<path d="M27.3438 99.4583C32.8689 95.1347 48.2605 88.0587 77.3336 99.9815" stroke="#757E8F" style="stroke:#757E8F;stroke:color(display-p3 0.4593 0.4931 0.5607);stroke-opacity:1;" stroke-width="8.33164"/>
<path d="M84.7363 95.8323C84.7363 100.895 80.6318 105 75.5686 105L24.1652 105C19.102 105 14.9974 100.895 14.9974 95.8323C14.9974 95.5285 15.2437 95.2822 15.5475 95.2822L84.1863 95.2822C84.4901 95.2822 84.7363 95.5285 84.7363 95.8323Z" fill="#757E8F" style="fill:#757E8F;fill:color(display-p3 0.4593 0.4931 0.5607);fill-opacity:1;"/>
</svg>
