<svg width="120" height="120" viewBox="0 0 120 120" fill="none" xmlns="http://www.w3.org/2000/svg">
<path d="M85.1699 20.9609C88.1966 20.9611 90.6503 23.4147 90.6504 26.4414V44.0068L93.6895 40.7744C94.726 39.672 96.4599 39.619 97.5625 40.6553L99.001 42.0068C100.104 43.0434 100.158 44.7781 99.1211 45.8809L90.6504 54.8916V103.17C90.6504 106.197 88.1967 108.651 85.1699 108.651H30.3633C27.3365 108.651 24.8828 106.197 24.8828 103.17V26.4414C24.8829 23.4147 27.3365 20.961 30.3633 20.9609H85.1699Z" fill="#757E8F" style="fill:#757E8F;fill:color(display-p3 0.4593 0.4931 0.5607);fill-opacity:1;"/>
<rect x="19.8828" y="22.3086" width="65.7675" height="87.69" rx="5.48063" fill="#757E8F" style="fill:#757E8F;fill:color(display-p3 0.4593 0.4931 0.5607);fill-opacity:1;"/>
<rect x="30.8398" y="16.832" width="43.845" height="10.9613" rx="5.48063" fill="#757E8F" style="fill:#757E8F;fill:color(display-p3 0.4593 0.4931 0.5607);fill-opacity:1;"/>
<path d="M52.7656 10C55.7924 10 58.246 12.4537 58.2461 15.4805C58.2461 18.5073 55.7925 20.9609 52.7656 20.9609C49.7389 20.9608 47.2852 18.5072 47.2852 15.4805C47.2852 12.4538 49.739 10.0002 52.7656 10ZM52.7666 14.1113C52.0099 14.1113 51.3965 14.7248 51.3965 15.4814C51.3965 16.2381 52.0099 16.8515 52.7666 16.8516C53.5233 16.8516 54.1367 16.2382 54.1367 15.4814C54.1367 14.7247 53.5233 14.1113 52.7666 14.1113Z" fill="#757E8F" style="fill:#757E8F;fill:color(display-p3 0.4593 0.4931 0.5607);fill-opacity:1;"/>
<rect x="30.8398" y="38.75" width="10.9613" height="10.9613" rx="2.74031" fill="#757E8F" style="fill:#757E8F;fill:color(display-p3 0.4593 0.4931 0.5607);fill-opacity:1;"/>
<rect x="47.2852" y="41.4941" width="27.4031" height="5.48063" rx="2.74031" fill="#757E8F" style="fill:#757E8F;fill:color(display-p3 0.4593 0.4931 0.5607);fill-opacity:1;"/>
<path d="M32.832 43.8245L34.73 46.1361C35.0585 46.5363 35.6708 46.5368 36 46.137L39.823 41.4941" stroke="#757E8F" style="stroke:#757E8F;stroke:color(display-p3 0.4593 0.4931 0.5607);stroke-opacity:1;" stroke-width="1.64419" stroke-linecap="round"/>
<rect x="30.8398" y="60.6738" width="10.9613" height="10.9613" rx="2.74031" fill="#757E8F" style="fill:#757E8F;fill:color(display-p3 0.4593 0.4931 0.5607);fill-opacity:1;"/>
<rect x="47.2852" y="63.4141" width="27.4031" height="5.48063" rx="2.74031" fill="#757E8F" style="fill:#757E8F;fill:color(display-p3 0.4593 0.4931 0.5607);fill-opacity:1;"/>
<path d="M32.832 65.7444L34.73 68.056C35.0585 68.4562 35.6708 68.4567 36 68.0569L39.823 63.4141" stroke="#757E8F" style="stroke:#757E8F;stroke:color(display-p3 0.4593 0.4931 0.5607);stroke-opacity:1;" stroke-width="1.64419" stroke-linecap="round"/>
<rect x="30.8398" y="82.5977" width="10.9613" height="10.9613" rx="2.74031" fill="#757E8F" style="fill:#757E8F;fill:color(display-p3 0.4593 0.4931 0.5607);fill-opacity:1;"/>
<rect x="47.2852" y="85.3359" width="27.4031" height="5.48063" rx="2.74031" fill="#757E8F" style="fill:#757E8F;fill:color(display-p3 0.4593 0.4931 0.5607);fill-opacity:1;"/>
<path d="M32.832 87.6662L34.73 89.9779C35.0585 90.3781 35.6708 90.3786 36 89.9788L39.823 85.3359" stroke="#757E8F" style="stroke:#757E8F;stroke:color(display-p3 0.4593 0.4931 0.5607);stroke-opacity:1;" stroke-width="1.64419" stroke-linecap="round"/>
<path d="M71.5938 66.5312L65.3145 68.8418C64.6788 69.0755 64.049 68.4839 64.2432 67.835L66.1621 61.4258L71.5938 66.5312ZM93.6895 32.1426C94.726 31.0401 96.4599 30.987 97.5625 32.0234L99.001 33.375C100.104 34.4116 100.158 36.1463 99.1211 37.249L71.5947 66.5312L66.1631 61.4248L93.6895 32.1426Z" fill="#757E8F" style="fill:#757E8F;fill:color(display-p3 0.4593 0.4931 0.5607);fill-opacity:1;"/>
</svg>
