<svg width="120" height="120" viewBox="0 0 120 120" fill="none" xmlns="http://www.w3.org/2000/svg">
<path d="M30.7695 45C34.593 45 37.6931 48.0994 37.6934 51.9229V51.9238H48.084C51.9075 51.9238 55.0076 55.0233 55.0078 58.8467C55.0078 62.6703 51.9076 65.7705 48.084 65.7705H34.2373C30.4139 65.7703 27.3145 62.6702 27.3145 58.8467H16.9229C13.0994 58.8465 10 55.7463 10 51.9229C10.0002 48.0996 13.0996 45.0002 16.9229 45H30.7695Z" fill="#757E8F" style="fill:#757E8F;fill:color(display-p3 0.4593 0.4931 0.5607);fill-opacity:1;"/>
<path d="M80.0088 15C75.2756 15 71.4377 18.8364 71.4365 23.5693H58.583C53.8492 23.5693 50.0108 27.4068 50.0107 32.1406C50.0107 36.8745 53.8491 40.7119 58.583 40.7119H75.7256C80.4588 40.7118 84.2959 36.8756 84.2969 32.1426H97.1514C101.885 32.1425 105.723 28.3051 105.723 23.5713C105.723 18.8375 101.885 15.0001 97.1514 15H80.0088Z" fill="#757E8F" style="fill:#757E8F;fill:color(display-p3 0.4593 0.4931 0.5607);fill-opacity:1;"/>
<path d="M45.192 19.3072C46.9079 17.1167 50.2238 17.1167 51.9397 19.3072L54.042 21.9911C54.9674 23.1725 56.4432 23.7838 57.9329 23.6028L61.3172 23.1915C64.0795 22.8559 66.4243 25.2006 66.0886 27.9629L65.6774 31.3473C65.4964 32.8369 66.1077 34.3127 67.289 35.2381L69.9729 37.3404C72.1635 39.0563 72.1635 42.3723 69.9729 44.0882L67.289 46.1905C66.1077 47.1158 65.4964 48.5917 65.6774 50.0813L66.0886 53.4657C66.4243 56.228 64.0795 58.5727 61.3172 58.237L57.9329 57.8258C56.4432 57.6448 54.9674 58.2561 54.042 59.4374L51.9397 62.1213C50.2238 64.3119 46.9079 64.3119 45.192 62.1213L43.0897 59.4374C42.1643 58.2561 40.6885 57.6448 39.1988 57.8258L35.8145 58.237C33.0522 58.5727 30.7074 56.228 31.0431 53.4657L31.4543 50.0813C31.6353 48.5917 31.024 47.1158 29.8427 46.1905L27.1588 44.0882C24.9682 42.3723 24.9682 39.0563 27.1588 37.3404L29.8427 35.2381C31.024 34.3127 31.6353 32.8369 31.4543 31.3473L31.0431 27.9629C30.7074 25.2006 33.0522 22.8559 35.8145 23.1915L39.1988 23.6028C40.6885 23.7838 42.1643 23.1725 43.0897 21.9911L45.192 19.3072Z" fill="#757E8F" style="fill:#757E8F;fill:color(display-p3 0.4593 0.4931 0.5607);fill-opacity:1;"/>
<circle cx="48.5645" cy="40.709" r="12.8613" fill="#757E8F" style="fill:#757E8F;fill:color(display-p3 0.4593 0.4931 0.5607);fill-opacity:1;"/>
<path d="M88.3721 55C84.5373 55 81.4288 58.1086 81.4287 61.9434C81.4287 61.9449 81.4287 61.9467 81.4287 61.9482H70.5205C66.6858 61.9482 63.5772 65.0569 63.5771 68.8916C63.5771 72.7264 66.6857 75.835 70.5205 75.835H85.2051C89.0398 75.8349 92.1484 72.7263 92.1484 68.8916C92.1484 68.89 92.1484 68.8883 92.1484 68.8867H103.057C106.891 68.8866 110 65.7781 110 61.9434C110 58.1087 106.891 55.0001 103.057 55H88.3721Z" fill="#757E8F" style="fill:#757E8F;fill:color(display-p3 0.4593 0.4931 0.5607);fill-opacity:1;"/>
<path d="M76.4963 58.8646C80.2176 57.4571 84.0833 57.1942 87.6894 57.8995C88.6781 58.0929 88.5878 59.5284 87.6456 59.8848C79.8421 62.8364 75.8419 71.378 78.7108 78.9639C81.58 86.5498 90.2318 90.307 98.0356 87.3557C98.9756 87.0002 99.9903 88.0144 99.3784 88.8117C97.1418 91.7258 94.0703 94.0863 90.35 95.4933C79.9449 99.4287 68.4085 94.4189 64.5829 84.3042C60.7577 74.1896 66.0914 62.8 76.4963 58.8646Z" fill="#757E8F" style="fill:#757E8F;fill:color(display-p3 0.4593 0.4931 0.5607);fill-opacity:1;"/>
<path d="M50.9531 80.0039C55.5542 80.0039 59.285 83.7332 59.2861 88.334H72.3789C76.9806 88.334 80.7118 92.0643 80.7119 96.666C80.7119 101.268 76.9807 104.998 72.3789 104.998H54.7578C50.1567 104.998 46.4267 101.269 46.4258 96.668H33.332C28.7304 96.6679 25 92.9376 25 88.3359C25.0001 83.7343 28.7304 80.004 33.332 80.0039H50.9531Z" fill="#757E8F" style="fill:#757E8F;fill:color(display-p3 0.4593 0.4931 0.5607);fill-opacity:1;"/>
</svg>
