<svg width="120" height="120" viewBox="0 0 120 120" fill="none" xmlns="http://www.w3.org/2000/svg">
<rect x="35" y="80" width="15" height="20" rx="5" fill="#757E8F" style="fill:#757E8F;fill:color(display-p3 0.4593 0.4931 0.5607);fill-opacity:1;"/>
<rect x="75" y="80" width="15" height="20" rx="5" fill="#757E8F" style="fill:#757E8F;fill:color(display-p3 0.4593 0.4931 0.5607);fill-opacity:1;"/>
<rect x="30" y="20" width="65" height="70" rx="5" fill="#757E8F" style="fill:#757E8F;fill:color(display-p3 0.4593 0.4931 0.5607);fill-opacity:1;"/>
<rect x="35" y="45" width="55" height="30" rx="2.5" fill="#757E8F" style="fill:#757E8F;fill:color(display-p3 0.4593 0.4931 0.5607);fill-opacity:1;"/>
<rect x="35" y="25" width="55" height="15" rx="2.5" fill="#757E8F" style="fill:#757E8F;fill:color(display-p3 0.4593 0.4931 0.5607);fill-opacity:1;"/>
<rect x="35" y="80" width="10" height="5" rx="2.5" fill="#757E8F" style="fill:#757E8F;fill:color(display-p3 0.4593 0.4931 0.5607);fill-opacity:1;"/>
<rect x="80" y="80" width="10" height="5" rx="2.5" fill="#757E8F" style="fill:#757E8F;fill:color(display-p3 0.4593 0.4931 0.5607);fill-opacity:1;"/>
<path d="M30 40H23.75C21.6789 40 20 41.6789 20 43.75V45C20 50.5228 24.4772 55 30 55V40Z" fill="#757E8F" style="fill:#757E8F;fill:color(display-p3 0.4593 0.4931 0.5607);fill-opacity:1;"/>
<path d="M95 40H101.25C103.321 40 105 41.6789 105 43.75V45C105 50.5228 100.523 55 95 55V40Z" fill="#757E8F" style="fill:#757E8F;fill:color(display-p3 0.4593 0.4931 0.5607);fill-opacity:1;"/>
<rect x="15" y="50" width="95" height="10" rx="5" fill="#757E8F" style="fill:#757E8F;fill:color(display-p3 0.4593 0.4931 0.5607);fill-opacity:1;"/>
<path d="M10 45C10 42.2386 12.2386 40 15 40C17.7614 40 20 42.2386 20 45V99.7015C20 99.8664 19.8664 100 19.7015 100H10.2985C10.1336 100 10 99.8664 10 99.7015V45Z" fill="#757E8F" style="fill:#757E8F;fill:color(display-p3 0.4593 0.4931 0.5607);fill-opacity:1;"/>
</svg>
