<svg width="120" height="120" viewBox="0 0 120 120" fill="none" xmlns="http://www.w3.org/2000/svg">
<path d="M20 61.533H9.74119L24.8429 70.8461C37.3626 78.5669 47.8993 89.1135 55.6082 101.641L70.2637 86.9851L55.6082 78.1919L20 61.533Z" fill="#757E8F" style="fill:#757E8F;fill:color(display-p3 0.4593 0.4931 0.5607);fill-opacity:1;"/>
<path d="M101.788 69.3966H75.2603C74.9005 69.3966 74.8572 68.8736 75.2121 68.8144L97.5034 65.0992C97.8769 65.0369 98.2574 65.1589 98.5252 65.4266L101.995 68.8963C102.179 69.0809 102.049 69.3966 101.788 69.3966Z" fill="#757E8F" style="fill:#757E8F;fill:color(display-p3 0.4593 0.4931 0.5607);fill-opacity:1;"/>
<path d="M55.3027 12.9311C55.3027 11.3123 56.615 10 58.2338 10C59.8526 10 61.1649 11.3123 61.1649 12.9311V89.1394C61.1649 90.7582 59.8526 92.0705 58.2338 92.0705C56.615 92.0705 55.3027 90.7582 55.3027 89.1394V12.9311Z" fill="#757E8F" style="fill:#757E8F;fill:color(display-p3 0.4593 0.4931 0.5607);fill-opacity:1;"/>
<path d="M80.52 69.3984H96.641L90.1332 73.1172C74.1589 82.2453 60.443 94.8505 50.0016 109.999L20 107.499C35.7641 92.0229 54.443 79.8292 74.9541 71.6248L80.52 69.3984Z" fill="#757E8F" style="fill:#757E8F;fill:color(display-p3 0.4593 0.4931 0.5607);fill-opacity:1;"/>
<path d="M31.375 16.7086C31.9239 16.1646 32.6654 15.8594 33.4383 15.8594H67.3257C68.9445 15.8594 70.2568 17.1717 70.2568 18.7905V30.5148C70.2568 32.1336 68.9445 33.4459 67.3257 33.4459H33.4383C32.6654 33.4459 31.9239 33.1407 31.375 32.5967L24.4097 25.6936C23.8311 25.1202 23.8311 24.1851 24.4097 23.6117L31.375 16.7086Z" fill="#757E8F" style="fill:#757E8F;fill:color(display-p3 0.4593 0.4931 0.5607);fill-opacity:1;"/>
<path d="M38.7432 18.7891C41.9807 18.7891 44.6055 21.4138 44.6055 24.6514C44.6054 27.8889 41.9807 30.5136 38.7432 30.5137C35.5056 30.5137 32.8809 27.8889 32.8809 24.6514C32.8809 21.4138 35.5056 18.7891 38.7432 18.7891ZM38.7422 20.9863C36.7187 20.9863 35.0781 22.6269 35.0781 24.6504C35.0782 26.6738 36.7188 28.3145 38.7422 28.3145C40.7655 28.3143 42.4061 26.6737 42.4062 24.6504C42.4062 22.627 40.7656 20.9864 38.7422 20.9863Z" fill="#757E8F" style="fill:#757E8F;fill:color(display-p3 0.4593 0.4931 0.5607);fill-opacity:1;"/>
<path d="M79.8262 40.1617C79.2773 39.6177 78.5357 39.3125 77.7629 39.3125H43.8755C42.2567 39.3125 40.9444 40.6248 40.9444 42.2436V53.9679C40.9444 55.5867 42.2567 56.899 43.8755 56.899H77.7629C78.5357 56.899 79.2773 56.5938 79.8262 56.0498L86.7915 49.1467C87.37 48.5733 87.37 47.6382 86.7915 47.0648L79.8262 40.1617Z" fill="#757E8F" style="fill:#757E8F;fill:color(display-p3 0.4593 0.4931 0.5607);fill-opacity:1;"/>
<rect width="2.3685" height="14.211" rx="1.18425" transform="matrix(0.707135 0.707078 -0.707135 0.707078 75.1758 42.2363)" fill="#757E8F" style="fill:#757E8F;fill:color(display-p3 0.4593 0.4931 0.5607);fill-opacity:1;"/>
<rect width="2.3685" height="14.211" rx="1.18425" transform="matrix(0.707135 -0.707078 0.707135 0.707078 65.127 43.916)" fill="#757E8F" style="fill:#757E8F;fill:color(display-p3 0.4593 0.4931 0.5607);fill-opacity:1;"/>
</svg>
