<svg width="120" height="120" viewBox="0 0 120 120" fill="none" xmlns="http://www.w3.org/2000/svg">
<path d="M98.7397 83.2401C102.573 76.1331 106.691 68.399 109.421 63.2478C110.969 60.3269 109.126 56.8497 105.728 56.26C103.667 55.9025 101.58 56.7439 100.425 58.3976L97.5079 62.5778C96.78 63.6207 95.0632 63.1213 95.0808 61.8718L95.4611 34.9933C95.5754 26.9097 89.348 19.9932 80.8915 18.8116C71.4637 17.4943 62.7221 23.7348 61.4781 32.6706L54.792 80.6946C53.8684 87.3284 59.2066 93.2646 66.2783 93.4677L79.6797 93.8527C87.6744 94.0823 95.105 89.9782 98.7397 83.2401Z" fill="#757E8F" style="fill:#757E8F;fill:color(display-p3 0.4593 0.4931 0.5607);fill-opacity:1;"/>
<path d="M89.6212 96.4179C89.9814 94.3652 88.5139 92.425 86.3434 92.0844L62.763 88.3836C60.5925 88.043 58.541 89.4309 58.1808 91.4836C57.8206 93.5363 59.2881 95.4765 61.4587 95.8172L85.039 99.5179C87.2095 99.8586 89.2611 98.4707 89.6212 96.4179Z" fill="#757E8F" style="fill:#757E8F;fill:color(display-p3 0.4593 0.4931 0.5607);fill-opacity:1;"/>
<path d="M84.5754 33.1251C84.0284 33.0736 83.5409 33.4514 83.486 33.9688L81.457 53.0838C81.4026 53.6011 81.8021 54.0622 82.3491 54.1142C82.8961 54.1657 83.3837 53.7878 83.4386 53.2705L85.4675 34.1554C85.522 33.6381 85.1225 33.177 84.5754 33.1251ZM73.2266 39.8515C72.6778 39.819 72.2031 40.2141 72.1684 40.733L71.3857 52.5352C71.3518 53.0537 71.7692 53.4993 72.3174 53.5324C72.8663 53.5649 73.3411 53.1701 73.3756 52.6509L74.1586 40.8523C74.193 40.3333 73.7752 39.8844 73.2266 39.8515Z" fill="#757E8F" style="fill:#757E8F;fill:color(display-p3 0.4593 0.4931 0.5607);fill-opacity:1;"/>
<path d="M78.0214 52.5652C73.3996 52.316 68.3245 52.7817 64.3057 53.9354C63.7796 54.0865 63.4819 54.612 63.6412 55.1096C63.8009 55.6071 64.3566 55.8886 64.8827 55.7379C68.6383 54.6597 73.4765 54.2068 77.9107 54.446C80.1227 54.5654 82.208 54.8579 83.989 55.3153C85.7834 55.7762 87.2028 56.3893 88.1387 57.1168C88.5636 57.4471 89.191 57.3891 89.5403 56.9874C89.8896 56.5855 89.8283 55.9921 89.4035 55.6618C88.1634 54.6978 86.4442 53.9923 84.5125 53.4961C82.5676 52.9966 80.3371 52.6901 78.0214 52.5652Z" fill="#757E8F" style="fill:#757E8F;fill:color(display-p3 0.4593 0.4931 0.5607);fill-opacity:1;"/>
<path d="M21.9045 83.9054C17.9126 76.8768 13.6223 69.2269 10.7776 64.1315C9.16462 61.2423 10.9299 57.7289 14.3139 57.0714C16.3662 56.6726 18.4718 57.4721 19.6628 59.1022L22.6734 63.223C23.4244 64.2511 25.1297 63.7174 25.084 62.4686L24.1019 35.6038C23.8066 27.5242 29.8777 20.4845 38.3059 19.1338C47.702 17.628 56.5814 23.692 58.0253 32.6009L65.7854 80.4802C66.8573 87.094 61.6532 93.1358 54.5877 93.4805L41.1979 94.1338C33.2102 94.5236 25.6893 90.5692 21.9045 83.9054Z" fill="#757E8F" style="fill:#757E8F;fill:color(display-p3 0.4593 0.4931 0.5607);fill-opacity:1;"/>
<path d="M31.3212 96.8865C30.9151 94.8414 32.3389 92.8723 34.5013 92.4882L62.728 87.4751C64.8904 87.091 66.9726 88.4375 67.3787 90.4826C67.7848 92.5276 66.361 94.4968 64.1986 94.8808L35.9719 99.894C33.8095 100.278 31.7273 98.9315 31.3212 96.8865Z" fill="#757E8F" style="fill:#757E8F;fill:color(display-p3 0.4593 0.4931 0.5607);fill-opacity:1;"/>
<path d="M34.9577 33.5134C35.5034 33.4509 35.9993 33.819 36.0658 34.3351L38.5224 53.4052C38.5884 53.9213 38.1993 54.3903 37.6535 54.4532C37.1078 54.5157 36.6119 54.1477 36.5454 53.6315L34.0889 34.5614C34.0228 34.0453 34.4119 33.5763 34.9577 33.5134ZM46.4547 40.011C47.0026 39.9675 47.486 40.353 47.5324 40.8711L48.5792 52.655C48.6246 53.1727 48.2173 53.6266 47.67 53.6706C47.1219 53.7142 46.6384 53.3289 46.5923 52.8105L45.5452 41.0303C45.4992 40.5121 45.9069 40.0549 46.4547 40.011Z" fill="#757E8F" style="fill:#757E8F;fill:color(display-p3 0.4593 0.4931 0.5607);fill-opacity:1;"/>
<path d="M41.9322 52.8152C46.5474 52.4735 51.6318 52.8374 55.6756 53.9104C56.205 54.0509 56.5144 54.5702 56.3662 55.0709C56.2176 55.5715 55.6684 55.8641 55.139 55.724C51.3601 54.7212 46.5128 54.3654 42.085 54.6933C39.8762 54.857 37.7979 55.1912 36.0276 55.6842C34.2439 56.1809 32.8385 56.8223 31.9192 57.5684C31.5018 57.9072 30.8731 57.8618 30.5149 57.4671C30.1567 57.0723 30.2047 56.4778 30.6221 56.139C31.8403 55.1504 33.5433 54.4107 35.4634 53.8759C37.3967 53.3375 39.6198 52.9864 41.9322 52.8152Z" fill="#757E8F" style="fill:#757E8F;fill:color(display-p3 0.4593 0.4931 0.5607);fill-opacity:1;"/>
<path d="M67.1953 53.8404C67.4768 53.3935 68.0881 53.2471 68.5607 53.5134C69.0332 53.7796 69.188 54.3578 68.9065 54.8047L53.6128 79.0794C53.3313 79.5263 52.7199 79.6727 52.2474 79.4064C51.7749 79.1402 51.6201 78.562 51.9016 78.1151L67.1953 53.8404Z" fill="#757E8F" style="fill:#757E8F;fill:color(display-p3 0.4593 0.4931 0.5607);fill-opacity:1;"/>
<path d="M79.7334 55.3647C76.9443 59.96 70.8886 61.4656 66.2075 58.7275C61.5265 55.9895 59.9928 50.0447 62.7819 45.4494C65.571 40.8541 71.6268 39.3485 76.3078 42.0865C80.9888 44.8246 82.5225 50.7694 79.7334 55.3647Z" fill="#757E8F" style="fill:#757E8F;fill:color(display-p3 0.4593 0.4931 0.5607);fill-opacity:1;"/>
<path d="M61.3632 42.839C61.9263 41.9452 63.1489 41.6524 64.094 42.1849L81.2058 51.8274C82.1509 52.3599 82.4605 53.5162 81.8974 54.41L79.8582 57.6466C79.2951 58.5404 78.0725 58.8332 77.1275 58.3007L60.0157 48.6582C59.0706 48.1257 58.761 46.9694 59.3241 46.0757L61.3632 42.839Z" fill="#757E8F" style="fill:#757E8F;fill:color(display-p3 0.4593 0.4931 0.5607);fill-opacity:1;"/>
<path d="M52.0358 49.239C51.645 48.7208 51.7723 48.0011 52.3202 47.6315C52.8681 47.2618 53.6291 47.3822 54.02 47.9004L75.2515 76.0469C75.6424 76.5651 75.5151 77.2848 74.9672 77.6545C74.4193 78.0241 73.6582 77.9037 73.2674 77.3856L52.0358 49.239Z" fill="#757E8F" style="fill:#757E8F;fill:color(display-p3 0.4593 0.4931 0.5607);fill-opacity:1;"/>
<path d="M58.6386 37.4198C62.4397 42.748 61.2017 50.1488 55.8735 53.9499C50.5453 57.751 43.1445 56.513 39.3434 51.1847C35.5423 45.8565 36.7803 38.4557 42.1086 34.6546C47.4368 30.8536 54.8376 32.0916 58.6386 37.4198Z" fill="#757E8F" style="fill:#757E8F;fill:color(display-p3 0.4593 0.4931 0.5607);fill-opacity:1;"/>
<path d="M36.1518 50.0053C35.37 48.969 35.6246 47.5296 36.7204 46.7903L56.5616 33.4041C57.6574 32.6648 59.1794 32.9056 59.9611 33.9419L62.792 37.6948C63.5737 38.7311 63.3191 40.1705 62.2233 40.9098L42.3822 54.296C41.2864 55.0353 39.7644 54.7945 38.9826 53.7582L36.1518 50.0053Z" fill="#757E8F" style="fill:#757E8F;fill:color(display-p3 0.4593 0.4931 0.5607);fill-opacity:1;"/>
</svg>
