<svg width="271" height="374" viewBox="0 0 271 374" fill="none" xmlns="http://www.w3.org/2000/svg">
<rect x="0.475258" y="0.475258" width="269.962" height="931.122" rx="14.733" fill="white" style="fill:white;fill-opacity:1;"/>
<rect x="0.475258" y="0.475258" width="269.962" height="931.122" rx="14.733" stroke="#E6E7EA" style="stroke:#E6E7EA;stroke:color(display-p3 0.9007 0.9069 0.9193);stroke-opacity:1;" stroke-width="0.950515"/>
<rect x="0.475258" y="0.475258" width="269.962" height="930.694" rx="14.733" fill="white" style="fill:white;fill-opacity:1;"/>
<rect x="0.475258" y="0.475258" width="269.962" height="930.694" rx="14.733" stroke="#F7F7F8" style="stroke:#F7F7F8;stroke:color(display-p3 0.9669 0.9690 0.9731);stroke-opacity:1;" stroke-width="0.950515"/>
<rect opacity="0.35" x="234.12" y="16.2001" width="16.5443" height="8.96149" rx="2.06804" stroke="black" style="stroke:black;stroke-opacity:1;" stroke-width="0.689345"/>
<rect x="235.154" y="17.2344" width="14.4763" height="6.89345" rx="2.06804" fill="black" style="fill:black;fill-opacity:1;"/>
<path opacity="0.35" d="M251.699 19.3008C251.699 19.3008 253.078 19.5765 253.078 20.6795C253.078 21.7824 251.699 22.0582 251.699 22.0582V19.3008Z" fill="black" style="fill:black;fill-opacity:1;"/>
<path fill-rule="evenodd" clip-rule="evenodd" d="M223.09 22.0575C224.032 22.0575 224.885 22.4433 225.502 23.067L223.09 25.5042L220.677 23.067C221.294 22.4433 222.147 22.0575 223.09 22.0575ZM223.089 18.6108C224.974 18.6108 226.68 19.3824 227.915 20.6298L226.467 22.0922C225.603 21.2189 224.409 20.6788 223.089 20.6788C221.77 20.6788 220.576 21.2189 219.712 22.0922L218.264 20.6298C219.499 19.3824 221.205 18.6108 223.089 18.6108ZM222.836 15.1672L223.089 15.1641L223.399 15.1687L223.671 15.1805L223.905 15.1964L224.203 15.2245L224.451 15.2547L224.72 15.2945L224.998 15.3435L225.274 15.4001L225.513 15.4558L225.793 15.5287L226.08 15.6124L226.276 15.6751L226.491 15.7489L226.723 15.8345L226.979 15.9369L227.232 16.046L227.466 16.1544L227.694 16.267L227.919 16.385L228.137 16.5066L228.346 16.6299L228.57 16.7699L228.791 16.9155L228.996 17.0584L229.182 17.1946L229.428 17.385L229.61 17.5336L229.793 17.6896L229.997 17.8737L230.212 18.0782L230.328 18.1933L228.88 19.655C227.398 18.158 225.351 17.2321 223.089 17.2321C220.828 17.2321 218.781 18.1578 217.299 19.6546L215.852 18.1926L215.868 18.1761C215.929 18.1148 215.991 18.0542 216.053 17.9944C216.177 17.8763 216.303 17.7613 216.432 17.6495L216.575 17.5284L216.75 17.3852L216.907 17.2628L217.079 17.1333L217.255 17.0073L217.356 16.937L217.638 16.7508L217.85 16.6195L218.042 16.5066L218.324 16.3504L218.551 16.2333L218.782 16.1216L218.997 16.0236L219.249 15.9164L219.505 15.8159L219.731 15.7333L220.024 15.6358L220.225 15.5744L220.488 15.5009L220.749 15.4357L220.975 15.3849L221.236 15.3331L221.5 15.288L221.754 15.2513L222.018 15.2201L222.288 15.1953L222.585 15.1764L222.836 15.1672Z" fill="black" style="fill:black;fill-opacity:1;"/>
<rect x="197.24" y="21.3691" width="2.75738" height="3.44673" rx="1.03402" fill="black" style="fill:black;fill-opacity:1;"/>
<rect x="201.377" y="19.9902" width="2.75738" height="4.82542" rx="1.03402" fill="black" style="fill:black;fill-opacity:1;"/>
<rect x="205.512" y="17.9238" width="2.75738" height="6.89345" rx="1.03402" fill="black" style="fill:black;fill-opacity:1;"/>
<rect x="209.648" y="15.8555" width="2.75738" height="8.96149" rx="1.03402" fill="black" style="fill:black;fill-opacity:1;"/>
<path d="M35.8017 15.166C33.8144 15.166 32.3984 16.5292 32.3984 18.3957V18.4084C32.3984 20.1539 33.6302 21.4407 35.389 21.4407C36.6462 21.4407 37.4463 20.7973 37.7828 20.0711H37.9098C37.9098 20.1411 37.9034 20.2112 37.9034 20.2813C37.8336 22.0394 37.2177 23.4664 35.7637 23.4664C34.9573 23.4664 34.3922 23.0459 34.1509 22.4026L34.1318 22.3388H32.5191L32.5318 22.4089C32.8239 23.8167 34.081 24.8169 35.7637 24.8169C38.0685 24.8169 39.459 22.9822 39.459 19.8863V19.8736C39.459 16.5611 37.7574 15.166 35.8017 15.166ZM35.7954 20.1794C34.7541 20.1794 33.9985 19.4149 33.9985 18.3511V18.3384C33.9985 17.3128 34.8049 16.5038 35.8144 16.5038C36.8304 16.5038 37.624 17.3255 37.624 18.3766V18.3893C37.624 19.4277 36.8304 20.1794 35.7954 20.1794Z" fill="black" style="fill:black;fill-opacity:1;"/>
<path d="M42.3417 18.6314C42.9258 18.6314 43.3513 18.1855 43.3513 17.6249C43.3513 17.058 42.9258 16.6184 42.3417 16.6184C41.7639 16.6184 41.3321 17.058 41.3321 17.6249C41.3321 18.1855 41.7639 18.6314 42.3417 18.6314ZM42.3417 23.3581C42.9258 23.3581 43.3513 22.9185 43.3513 22.3516C43.3513 21.7846 42.9258 21.3451 42.3417 21.3451C41.7639 21.3451 41.3321 21.7846 41.3321 22.3516C41.3321 22.9185 41.7639 23.3581 42.3417 23.3581Z" fill="black" style="fill:black;fill-opacity:1;"/>
<path d="M49.669 24.5875H51.2373V22.823H52.4691V21.4661H51.2373V15.3953H48.9197C47.6752 17.2937 46.3736 19.4086 45.1863 21.4789V22.823H49.669V24.5875ZM46.7101 21.5044V21.4088C47.599 19.8481 48.6594 18.1473 49.5991 16.7076H49.6944V21.5044H46.7101Z" fill="black" style="fill:black;fill-opacity:1;"/>
<path d="M56.2661 24.5875H57.9042V15.3953H56.2724L53.8787 17.0834V18.6314L56.1581 17.0134H56.2661V24.5875Z" fill="black" style="fill:black;fill-opacity:1;"/>
<path fill-rule="evenodd" clip-rule="evenodd" d="M18.4546 44.2725C18.2431 44.0654 17.9002 44.0654 17.6887 44.2725L11.1891 50.6357C10.9776 50.8428 10.9776 51.1785 11.1891 51.3856L17.6887 57.7488C17.9002 57.9559 18.2431 57.9559 18.4546 57.7488C18.6662 57.5417 18.6662 57.206 18.4546 56.9989L12.3381 51.0106L18.4546 45.0224C18.6662 44.8153 18.6662 44.4796 18.4546 44.2725Z" fill="#1A1C20" style="fill:#1A1C20;fill:color(display-p3 0.1020 0.1098 0.1255);fill-opacity:1;"/>
<path d="M45.7385 43.3441V57.9658H43.9612V43.3441H45.7385ZM41.2469 44.6205V50.0976H36.2223V53.0381C38.5246 53.0219 40.5118 52.9088 42.7818 52.5211L42.9434 53.9913C40.4553 54.4275 38.2741 54.5083 35.6568 54.5083H34.3804V48.6758H39.4213V46.0746H34.3643V44.6205H41.2469ZM50.133 44.1035V45.8161H52.5404V44.1035H54.2045V50.3076H48.4366V44.1035H50.133ZM50.133 48.9181H52.5404V47.1571H50.133V48.9181ZM60.3601 43.3603V50.9216H58.6475V47.8518H57.1934V50.7761H55.5132V43.635H57.1934V46.3977H58.6475V43.3603H60.3601ZM60.3601 51.4709V55.2192H52.298V56.3986H60.8287V57.8204H50.4885V53.9105H58.5667V52.8765H50.4723V51.4709H60.3601ZM69.327 44.3458V48.8697H64.5447V50.7115C66.9601 50.7034 68.5757 50.6227 70.3933 50.3238L70.5387 51.794C68.5192 52.101 66.742 52.1656 63.9307 52.1656H62.7351V47.4802H67.5336V45.7838H62.719V44.3458H69.327ZM74.4002 43.3603V54.1044H72.6068V48.4819H70.1187V46.9632H72.6068V43.3603H74.4002ZM74.7879 56.2047V57.6588H64.7385V53.2481H66.5319V56.2047H74.7879ZM88.6341 43.3603V52.0202H86.8245V43.3603H88.6341ZM83.7225 52.2949C86.7761 52.2949 88.6987 53.3289 88.6987 55.0899C88.6987 56.8672 86.7761 57.9012 83.7225 57.885C80.6366 57.9012 78.7301 56.8672 78.7301 55.0899C78.7301 53.3289 80.6366 52.2949 83.7225 52.2949ZM83.7225 53.6843C81.6868 53.7005 80.5235 54.169 80.5235 55.0899C80.5235 56.0109 81.6868 56.4956 83.7225 56.4956C85.7582 56.4956 86.9376 56.0109 86.9376 55.0899C86.9376 54.169 85.7582 53.7005 83.7225 53.6843ZM81.9129 45.396C81.9129 47.3025 83.1247 49.0959 85.4512 49.8229L84.5626 51.2447C82.8743 50.6873 81.6706 49.5886 81.0082 48.1749C80.3538 49.7583 79.1259 51.0185 77.3891 51.6324L76.4843 50.1784C78.8432 49.3867 80.0549 47.3994 80.0549 45.396V43.9904H81.9129V45.396Z" fill="#1A1C20" style="fill:#1A1C20;fill:color(display-p3 0.1020 0.1098 0.1255);fill-opacity:1;"/>
<g style="mix-blend-mode:hard-light">
<g style="mix-blend-mode:hard-light">
<rect x="112.363" y="37.2266" width="47.7898" height="17.7652" rx="4.13693" fill="#1A1C20" style="fill:#1A1C20;fill:color(display-p3 0.1020 0.1098 0.1255);fill-opacity:1;"/>
<path d="M127.325 48.5821V49.4586H119.541V48.5821H122.886V46.9045H120.21V46.0751H121.407V43.5305H120.181V42.6823H126.647V43.5305H125.403V46.0751H126.618V46.9045H123.923V48.5821H127.325ZM122.453 46.0751H124.366V43.5305H122.453V46.0751ZM134.997 41.9283V50.4482H133.941V41.9283H134.997ZM132.452 42.8331C132.452 45.3683 131.472 47.5265 128.485 48.9402L127.938 48.1014C130.167 47.0412 131.204 45.5992 131.387 43.6624H128.371V42.8331H132.452ZM142.895 41.9283V45.3212H144.205V46.1882H142.895V50.4482H141.858V41.9283H142.895ZM141.198 43.2383V44.0771H136.175V43.2383H138.192V42.0508H139.238V43.2383H141.198ZM138.72 44.6332C139.945 44.6332 140.859 45.4625 140.859 46.6406C140.859 47.8187 139.945 48.6386 138.72 48.6386C137.476 48.6386 136.561 47.8187 136.571 46.6406C136.561 45.4625 137.476 44.6332 138.72 44.6332ZM138.72 45.4908C138.051 45.4908 137.57 45.9432 137.57 46.6406C137.57 47.338 138.051 47.781 138.72 47.7716C139.37 47.781 139.851 47.338 139.86 46.6406C139.851 45.9432 139.37 45.4908 138.72 45.4908ZM151.679 41.9283V50.4482H150.623V41.9283H151.679ZM149.134 42.8331C149.134 45.3683 148.154 47.5265 145.166 48.9402L144.62 48.1014C146.848 47.0412 147.885 45.5992 148.069 43.6624H145.053V42.8331H149.134Z" fill="white" style="fill:white;fill-opacity:1;"/>
</g>
</g>
<rect x="11.0293" y="76.7773" width="248.854" height="134.071" rx="8.27215" fill="#F7F7F8" style="fill:#F7F7F8;fill:color(display-p3 0.9669 0.9690 0.9731);fill-opacity:1;"/>
<path d="M25.3958 96.0372V103.174H20.3065V96.0372H25.3958ZM21.4456 96.946V102.241H24.281V96.946H21.4456ZM28.6918 94.9951V105.876H27.5406V94.9951H28.6918ZM39.1006 95.504V96.3159C39.1006 97.1156 39.1006 98.0729 38.8583 99.3331H40.3608V100.266H35.9501V102.12H39.1491V105.852H37.9979V103.041H31.4424V102.12H34.7989V100.266H30.4246V99.3331H37.695C37.9495 98.1213 37.9616 97.2125 37.9616 96.437H31.6726V95.504H39.1006ZM45.8742 95.6494V97.2731H48.7703V95.6494H49.9093V100.824H44.7473V95.6494H45.8742ZM45.8742 99.8905H48.7703V98.1819H45.8742V99.8905ZM53.181 102.12V105.852H52.0299V103.041H45.8258V102.12H53.181ZM53.181 94.9951V101.551H52.0299V94.9951H53.181ZM59.3488 96.2795V97.2004H56.3921V99.1998H58.8641V100.096H56.3921V102.375C57.8099 102.362 58.7369 102.296 59.8577 102.096L59.9547 103.029C58.7066 103.283 57.6766 103.308 55.9923 103.308H55.2895V96.2795H59.3488ZM64.2321 94.9951V105.852H63.1173V94.9951H64.2321ZM61.9904 95.2253V105.307H60.8998V99.9995H59.4336V99.0665H60.8998V95.2253H61.9904ZM74.3623 96.0493V97.3701C74.3623 98.9574 74.3623 100.448 73.8897 102.702L72.7506 102.593C72.9809 101.599 73.102 100.727 73.1626 99.9147L66.6435 100.266L66.4981 99.321L73.2232 99.0665C73.2414 98.4849 73.2414 97.9275 73.2475 97.3701V96.9944H66.801V96.0493H74.3623ZM75.5255 103.453V104.398H65.6256V103.453H75.5255ZM80.8329 96.0008V98.5939H82.905V96.0008H83.9714V103.174H79.7424V96.0008H80.8329ZM80.8329 102.241H82.905V99.5027H80.8329V102.241ZM88.7214 94.9951V105.852H87.6187V100.193H86.2737V105.319H85.1831V95.201H86.2737V99.2483H87.6187V94.9951H88.7214ZM98.6455 94.9951V97.7457H100.209V98.6909H98.6455V101.405H97.4823V94.9951H98.6455ZM95.1315 101.611C97.349 101.611 98.7303 102.387 98.7303 103.72C98.7303 105.052 97.349 105.84 95.1315 105.828C92.8898 105.84 91.4841 105.052 91.4841 103.72C91.4841 102.387 92.8898 101.611 95.1315 101.611ZM95.1315 102.544C93.5562 102.532 92.6111 102.968 92.6232 103.72C92.6111 104.471 93.5562 104.907 95.1315 104.907C96.6704 104.907 97.6155 104.471 97.6277 103.72C97.6155 102.968 96.6704 102.532 95.1315 102.544ZM95.4102 95.7948V96.7278H91.7023V99.6845C93.841 99.6784 95.0467 99.6118 96.4159 99.3331L96.525 100.266C95.0709 100.569 93.7743 100.618 91.4236 100.618H90.5632V95.7948H95.4102ZM109.503 95.5403V96.3643C109.503 97.2186 109.503 98.188 109.224 99.5027H110.763V100.448H100.827V99.5027H108.061C108.352 98.2365 108.364 97.3095 108.364 96.4855H102.075V95.5403H109.503ZM109.515 101.829V105.719H102.038V101.829H109.515ZM103.165 102.738V104.786H108.376V102.738H103.165Z" fill="#474C57" style="fill:#474C57;fill:color(display-p3 0.2779 0.2993 0.3421);fill-opacity:1;"/>
<rect x="192.824" y="90.5645" width="58.7869" height="19.5148" rx="8.27215" fill="#FAFCFF" style="fill:#FAFCFF;fill:color(display-p3 0.9800 0.9890 1.0000);fill-opacity:1;"/>
<path d="M207.068 95.6789V100.702H206.173V98.5628H204.599V97.8277H206.173V95.6789H207.068ZM204.241 100.938C206.012 100.938 207.096 101.522 207.096 102.531C207.096 103.539 206.012 104.114 204.241 104.123C202.469 104.114 201.376 103.539 201.385 102.531C201.376 101.522 202.469 100.938 204.241 100.938ZM204.241 101.635C203.006 101.635 202.271 101.956 202.271 102.531C202.271 103.096 203.006 103.426 204.241 103.417C205.475 103.426 206.21 103.096 206.21 102.531C206.21 101.956 205.475 101.635 204.241 101.635ZM203.053 97.168C203.053 98.2424 203.817 99.2791 205.089 99.7126L204.627 100.419C203.68 100.09 202.982 99.4158 202.62 98.5817C202.247 99.5288 201.507 100.288 200.499 100.655L200.028 99.9388C201.338 99.4864 202.139 98.3461 202.139 97.1774V96.9889H200.311V96.2632H204.863V96.9889H203.053V97.168ZM216.097 102.333V103.077H208.369V102.333H211.771V100.599H209.255V96.2538H210.15V97.7052H214.297V96.2538H215.183V100.599H212.657V102.333H216.097ZM210.15 99.8728H214.297V98.4309H210.15V99.8728ZM222.006 98.167C222.006 99.5053 222.883 100.994 224.164 101.598L223.655 102.295C222.708 101.838 221.959 100.886 221.582 99.7786C221.191 100.99 220.399 102.031 219.433 102.512L218.905 101.805C220.187 101.192 221.12 99.5995 221.12 98.167V97.2716H219.216V96.5271H223.844V97.2716H222.006V98.167ZM225.644 95.6789V99.0246H227.001V99.7786H225.644V104.123H224.749V95.6789H225.644ZM229.979 97.9879C229.979 99.3356 230.545 100.778 231.676 101.466L231.176 102.154C230.385 101.678 229.847 100.834 229.565 99.854C229.249 100.928 228.669 101.843 227.849 102.342L227.293 101.673C228.49 100.957 229.112 99.4676 229.112 98.0256V96.4517H229.979V97.9879ZM234.673 95.6789V104.123H233.815V95.6789H234.673ZM232.92 95.8391V103.709H232.072V99.3922H230.762V98.6476H232.072V95.8391H232.92ZM242.74 95.6789V104.123H241.845V95.6789H242.74ZM241.025 97.0172V97.7429H235.936V97.0172H238.019V95.7637H238.923V97.0172H241.025ZM238.49 98.3555C239.724 98.3555 240.62 99.166 240.62 100.316C240.62 101.475 239.724 102.276 238.49 102.286C237.265 102.276 236.369 101.475 236.369 100.316C236.369 99.166 237.265 98.3555 238.49 98.3555ZM238.49 99.0906C237.755 99.0906 237.217 99.5901 237.217 100.316C237.217 101.051 237.755 101.541 238.49 101.532C239.225 101.541 239.762 101.051 239.762 100.316C239.762 99.5901 239.225 99.0906 238.49 99.0906Z" fill="#005CCC" style="fill:#005CCC;fill:color(display-p3 0.0000 0.3600 0.8000);fill-opacity:1;"/>
<rect x="19.6455" y="118.925" width="111.674" height="59.9731" rx="7.92747" stroke="#E6E7EA" style="stroke:#E6E7EA;stroke:color(display-p3 0.9007 0.9069 0.9193);stroke-opacity:1;" stroke-width="0.689345"/>
<path d="M34.5132 137.26V138.023H26.785V137.26H30.1778V135.46H27.4635V134.753H28.7264V132.095H27.4447V131.369H33.8063V132.095H32.5152V134.753H33.7781V135.46H31.0638V137.26H34.5132ZM29.6124 134.753H31.6387V132.095H29.6124V134.753ZM41.9775 135.083V135.799H36.0965V131.285H41.8927V132.01H37.0013V133.151H41.7136V133.857H37.0013V135.083H41.9775ZM42.854 137.231V137.967H35.1258V137.231H42.854ZM50.4408 130.804V131.482H49.2156V132.953H50.4031V133.622H47.7548V134.348H51.1665V135.054H43.4666V134.348H46.8595V133.622H44.2111V132.953H45.4081V131.482H44.1734V130.804H50.4408ZM50.1958 135.658V137.561H45.2761V138.268H50.4314V138.947H44.3996V136.93H49.3099V136.308H44.3902V135.658H50.1958ZM46.294 132.953H48.3203V131.482H46.294V132.953ZM58.8193 130.587V139.05H57.924V130.587H58.8193ZM56.237 131.35V134.432H53.2022V136.28C54.5688 136.275 55.7657 136.214 57.1794 135.978L57.2643 136.713C55.7657 136.968 54.4934 137.024 53.0043 137.024H52.2881V133.716H55.3228V132.076H52.2786V131.35H56.237ZM63.9935 131.096C65.803 131.105 67.113 131.991 67.113 133.339C67.113 134.607 66.0151 135.441 64.4364 135.573V137.231H67.8764V137.976H60.1482V137.231H63.5505V135.573C61.9813 135.441 60.8833 134.607 60.8833 133.339C60.8833 131.991 62.1934 131.105 63.9935 131.096ZM63.9935 131.831C62.6929 131.822 61.7504 132.425 61.7504 133.339C61.7504 134.291 62.6929 134.875 63.9935 134.885C65.3035 134.875 66.246 134.291 66.246 133.339C66.246 132.425 65.3035 131.822 63.9935 131.831ZM78.5451 134.913V135.639H70.8452V134.913H74.2475V133.942H75.1334V134.913H78.5451ZM75.1334 130.578V131.388H77.7723V132.104H75.1899C75.2842 132.92 76.4528 133.532 78.1304 133.669L77.8571 134.357C76.3963 134.22 75.2135 133.73 74.6904 132.943C74.1627 133.73 72.9799 134.22 71.5332 134.357L71.2504 133.669C72.9186 133.532 74.0873 132.92 74.1909 132.104H71.618V131.388H74.2475V130.578H75.1334ZM74.6904 136.195C76.5282 136.195 77.6027 136.694 77.6027 137.608C77.6027 138.523 76.5282 139.022 74.6904 139.013C72.8432 139.022 71.7594 138.523 71.7594 137.608C71.7594 136.694 72.8432 136.195 74.6904 136.195ZM74.6904 136.864C73.3898 136.864 72.6641 137.128 72.6641 137.608C72.6641 138.089 73.3898 138.344 74.6904 138.334C75.9722 138.344 76.7073 138.089 76.7073 137.608C76.7073 137.128 75.9722 136.864 74.6904 136.864ZM88.1206 130.587V133.952H89.4306V134.696H88.1206V139.022H87.2252V130.587H88.1206ZM85.9152 131.473C85.9058 133.914 84.8314 136.091 82.0511 137.467L81.5516 136.77C83.6674 135.714 84.8172 134.187 85.001 132.218H81.9757V131.473H85.9152ZM96.8761 130.587V139.032H95.9807V130.587H96.8761ZM93.0591 133.301C93.0591 134.649 93.9544 136.025 95.2644 136.581L94.7744 137.269C93.8036 136.845 93.0261 135.969 92.635 134.904C92.2533 136.03 91.4899 136.968 90.505 137.411L90.0055 136.723C91.3155 136.138 92.1826 134.715 92.1826 133.301V132.745H90.26V132.029H92.1732V130.757H93.0591V132.029H94.9534V132.745H93.0591V133.301Z" fill="#474C57" style="fill:#474C57;fill:color(display-p3 0.2779 0.2993 0.3421);fill-opacity:1;"/>
<path d="M30.671 155.706V163.504H29.26V157.074H29.2169L27.3966 158.237V156.955L29.3246 155.706H30.671ZM32.5667 163.504V162.491L35.3241 159.831C36.1103 159.045 36.5196 158.582 36.5196 157.925C36.5196 157.203 35.9488 156.74 35.184 156.74C34.3762 156.74 33.8592 157.246 33.87 158.032H32.5344C32.5236 156.557 33.633 155.598 35.1948 155.598C36.7889 155.598 37.866 156.546 37.866 157.86C37.866 158.743 37.4352 159.454 35.9057 160.897L34.5162 162.276V162.33H37.9845V163.504H32.5667ZM42.0452 163.612C40.3757 163.612 39.1909 162.707 39.1585 161.393H40.5696C40.6126 162.018 41.2374 162.427 42.0452 162.427C42.9069 162.427 43.5208 161.953 43.5208 161.264C43.5208 160.563 42.9176 160.057 41.9052 160.057H41.205V158.98H41.9052C42.7345 158.98 43.3162 158.517 43.3054 157.838C43.3162 157.181 42.8207 156.74 42.056 156.74C41.3235 156.74 40.688 157.149 40.6665 157.806H39.3201C39.3524 156.492 40.5372 155.598 42.0667 155.598C43.6501 155.598 44.6733 156.567 44.6625 157.763C44.6733 158.635 44.0917 159.271 43.2408 159.443V159.508C44.3394 159.659 44.9641 160.359 44.9534 161.339C44.9641 162.653 43.7362 163.612 42.0452 163.612ZM47.5169 162.739L46.6121 165.755H45.5888L46.1489 162.739H47.5169ZM51.5775 163.612C49.908 163.612 48.7232 162.707 48.6909 161.393H50.1019C50.145 162.018 50.7697 162.427 51.5775 162.427C52.4392 162.427 53.0532 161.953 53.0532 161.264C53.0532 160.563 52.45 160.057 51.4375 160.057H50.7374V158.98H51.4375C52.2669 158.98 52.8485 158.517 52.8377 157.838C52.8485 157.181 52.3531 156.74 51.5883 156.74C50.8559 156.74 50.2204 157.149 50.1988 157.806H48.8525C48.8848 156.492 50.0696 155.598 51.5991 155.598C53.1824 155.598 54.2057 156.567 54.1949 157.763C54.2057 158.635 53.624 159.271 52.7731 159.443V159.508C53.8718 159.659 54.4965 160.359 54.4857 161.339C54.4965 162.653 53.2686 163.612 51.5775 163.612ZM55.5736 162.05V160.93L58.9449 155.706H60.6898V160.897H61.7131V162.05H60.6898V163.504H59.3542V162.05H55.5736ZM57.0061 160.897H59.3758V157.3H59.2896L57.0061 160.843V160.897ZM65.6014 163.612C64.0396 163.612 62.8979 162.685 62.8548 161.393H64.2227C64.2658 162.028 64.8582 162.481 65.6014 162.481C66.4739 162.481 67.0986 161.845 67.0986 160.983C67.0986 160.089 66.4523 159.454 65.5583 159.454C64.9551 159.443 64.5135 159.659 64.2658 160.122H62.9625L63.4364 155.706H68.0464V156.88H64.5889L64.352 158.948H64.4274C64.729 158.603 65.2998 158.355 65.9353 158.355C67.3894 158.355 68.4557 159.443 68.4557 160.94C68.4557 162.502 67.2817 163.612 65.6014 163.612ZM70.9546 162.739L70.0498 165.755H69.0266L69.5867 162.739H70.9546ZM75.0476 163.612C73.5289 163.601 71.9994 162.696 72.0102 159.82C72.0102 157.149 73.2273 155.598 75.1338 155.598C76.6417 155.598 77.6757 156.546 77.8481 157.806H76.4586C76.3186 157.214 75.8447 156.815 75.1338 156.815C74.0028 156.815 73.3673 157.817 73.3673 159.454H73.4427C73.8412 158.786 74.5952 158.388 75.4461 158.388C76.8464 158.388 77.9235 159.443 77.9235 160.919C77.9235 162.47 76.771 163.622 75.0476 163.612ZM75.0476 162.481C75.92 162.481 76.5663 161.802 76.5663 160.951C76.5663 160.122 75.9308 159.454 75.0691 159.454C74.1967 159.454 73.5289 160.143 73.5181 160.962C73.5289 161.781 74.1644 162.481 75.0476 162.481ZM79.3991 163.504L82.7812 156.934V156.88H78.8605V155.706H84.2353V156.901L80.8532 163.504H79.3991ZM85.8725 163.504L89.2546 156.934V156.88H85.3339V155.706H90.7087V156.901L87.3266 163.504H85.8725Z" fill="black" style="fill:black;fill-opacity:1;"/>
<path d="M104.081 153.812V161.082H103.23V160.091H101.248V159.477H103.23V153.812H104.081ZM104.318 162.461V163.172H97.5103V160.371H98.3612V162.461H104.318ZM96.1316 158.249C97.9196 158.239 100.311 158.228 102.368 157.969L102.422 158.583C101.566 158.718 100.672 158.804 99.7938 158.853V160.748H98.9429V158.896C97.9735 158.939 97.0525 158.944 96.2501 158.939L96.1316 158.249ZM99.2768 154.199C100.677 154.199 101.636 154.867 101.646 155.869C101.636 156.892 100.677 157.528 99.2768 157.528C97.8658 157.528 96.9071 156.892 96.9071 155.869C96.9071 154.867 97.8658 154.199 99.2768 154.199ZM99.2768 154.846C98.3397 154.835 97.7042 155.255 97.715 155.869C97.7042 156.494 98.3397 156.903 99.2768 156.903C100.182 156.903 100.828 156.494 100.839 155.869C100.828 155.255 100.182 154.835 99.2768 154.846Z" fill="black" style="fill:black;fill-opacity:1;"/>
<rect x="138.214" y="118.696" width="113.053" height="60.4288" rx="7.92747" stroke="#E6E7EA" style="stroke:#E6E7EA;stroke:color(display-p3 0.9007 0.9069 0.9193);stroke-opacity:1;" stroke-width="0.689345"/>
<path d="M149.38 132.214C149.38 133.27 150.737 134.288 152.339 134.523L151.99 135.23C150.652 135.009 149.469 134.316 148.927 133.364C148.39 134.335 147.198 135.028 145.855 135.249L145.516 134.542C147.118 134.297 148.466 133.308 148.466 132.214V131.847H149.38V132.214ZM152.792 135.881V136.606H149.436V138.237H148.55V136.606H145.063V135.881H152.792ZM151.934 139.17V139.895H146.025V137.445H146.92V139.17H151.934ZM160.096 132.375C160.086 133.496 161.462 134.552 163.121 134.768L162.772 135.504C161.392 135.282 160.176 134.566 159.634 133.572C159.078 134.571 157.867 135.282 156.495 135.504L156.137 134.768C157.796 134.552 159.153 133.506 159.163 132.375V131.913H160.096V132.375ZM163.47 136.333V137.068H160.039V140.075H159.163V137.068H155.77V136.333H163.47ZM171.113 137.068V140.075H170.218V137.794H165.392V137.068H171.113ZM171.113 131.63V136.635H170.218V131.63H171.113ZM166.533 132.12C167.824 132.12 168.776 132.95 168.776 134.137C168.776 135.325 167.824 136.154 166.533 136.154C165.241 136.154 164.28 135.325 164.28 134.137C164.28 132.95 165.241 132.12 166.533 132.12ZM166.533 132.884C165.732 132.884 165.157 133.383 165.157 134.137C165.157 134.9 165.732 135.4 166.533 135.39C167.324 135.4 167.899 134.9 167.899 134.137C167.899 133.383 167.324 132.884 166.533 132.884Z" fill="#474C57" style="fill:#474C57;fill:color(display-p3 0.2779 0.2993 0.3421);fill-opacity:1;"/>
<rect width="31.0205" height="16.5443" rx="8.27215" transform="matrix(1 0 0 -1 213.695 144.547)" fill="#3490FF" style="fill:#3490FF;fill:color(display-p3 0.2057 0.5631 1.0000);fill-opacity:1;"/>
<rect width="12.4082" height="12.4082" rx="6.20411" transform="matrix(1 0 0 -1 230.238 142.479)" fill="white" style="fill:white;fill-opacity:1;"/>
<path d="M149.239 158.02V165.818H147.828V159.388H147.785L145.965 160.551V159.27L147.893 158.02H149.239ZM151.135 165.818V164.806L153.892 162.145C154.679 161.359 155.088 160.896 155.088 160.239C155.088 159.517 154.517 159.054 153.752 159.054C152.945 159.054 152.428 159.56 152.438 160.347H151.103C151.092 158.871 152.201 157.912 153.763 157.912C155.357 157.912 156.434 158.86 156.434 160.174C156.434 161.058 156.004 161.768 154.474 163.212L153.085 164.59V164.644H156.553V165.818H151.135ZM160.614 165.926C158.944 165.926 157.759 165.021 157.727 163.707H159.138C159.181 164.332 159.806 164.741 160.614 164.741C161.475 164.741 162.089 164.267 162.089 163.578C162.089 162.878 161.486 162.372 160.474 162.372H159.773V161.295H160.474C161.303 161.295 161.885 160.831 161.874 160.153C161.885 159.496 161.389 159.054 160.624 159.054C159.892 159.054 159.256 159.463 159.235 160.12H157.888C157.921 158.806 159.106 157.912 160.635 157.912C162.218 157.912 163.242 158.882 163.231 160.077C163.242 160.95 162.66 161.585 161.809 161.758V161.822C162.908 161.973 163.532 162.673 163.522 163.653C163.532 164.967 162.305 165.926 160.614 165.926ZM166.085 165.054L165.18 168.07H164.157L164.717 165.054H166.085ZM170.146 165.926C168.476 165.926 167.292 165.021 167.259 163.707H168.67C168.713 164.332 169.338 164.741 170.146 164.741C171.008 164.741 171.622 164.267 171.622 163.578C171.622 162.878 171.018 162.372 170.006 162.372H169.306V161.295H170.006C170.835 161.295 171.417 160.831 171.406 160.153C171.417 159.496 170.921 159.054 170.157 159.054C169.424 159.054 168.789 159.463 168.767 160.12H167.421C167.453 158.806 168.638 157.912 170.167 157.912C171.751 157.912 172.774 158.882 172.763 160.077C172.774 160.95 172.192 161.585 171.341 161.758V161.822C172.44 161.973 173.065 162.673 173.054 163.653C173.065 164.967 171.837 165.926 170.146 165.926ZM174.142 164.364V163.244L177.513 158.02H179.258V163.212H180.281V164.364H179.258V165.818H177.923V164.364H174.142ZM175.574 163.212H177.944V159.614H177.858L175.574 163.158V163.212ZM184.17 165.926C182.608 165.926 181.466 165 181.423 163.707H182.791C182.834 164.343 183.427 164.795 184.17 164.795C185.042 164.795 185.667 164.16 185.667 163.298C185.667 162.404 185.021 161.768 184.127 161.768C183.524 161.758 183.082 161.973 182.834 162.436H181.531L182.005 158.02H186.615V159.194H183.157L182.92 161.262H182.996C183.297 160.918 183.868 160.67 184.504 160.67C185.958 160.67 187.024 161.758 187.024 163.255C187.024 164.817 185.85 165.926 184.17 165.926ZM189.523 165.054L188.618 168.07H187.595L188.155 165.054H189.523ZM193.616 165.926C192.097 165.915 190.568 165.011 190.579 162.135C190.579 159.463 191.796 157.912 193.702 157.912C195.21 157.912 196.244 158.86 196.416 160.12H195.027C194.887 159.528 194.413 159.13 193.702 159.13C192.571 159.13 191.936 160.131 191.936 161.768H192.011C192.41 161.101 193.164 160.702 194.014 160.702C195.415 160.702 196.492 161.758 196.492 163.233C196.492 164.784 195.339 165.937 193.616 165.926ZM193.616 164.795C194.488 164.795 195.135 164.117 195.135 163.266C195.135 162.436 194.499 161.768 193.637 161.768C192.765 161.768 192.097 162.458 192.086 163.276C192.097 164.095 192.733 164.795 193.616 164.795ZM197.967 165.818L201.35 159.248V159.194H197.429V158.02H202.804V159.216L199.422 165.818H197.967ZM204.441 165.818L207.823 159.248V159.194H203.902V158.02H209.277V159.216L205.895 165.818H204.441Z" fill="black" style="fill:black;fill-opacity:1;"/>
<path d="M222.649 156.126V163.397H221.798V162.406H219.816V161.792H221.798V156.126H222.649ZM222.886 164.775V165.486H216.079V162.686H216.93V164.775H222.886ZM214.7 160.564C216.488 160.553 218.879 160.542 220.936 160.284L220.99 160.898C220.134 161.032 219.24 161.119 218.362 161.167V163.063H217.511V161.21C216.542 161.253 215.621 161.259 214.818 161.253L214.7 160.564ZM217.845 156.514C219.245 156.514 220.204 157.182 220.215 158.183C220.204 159.207 219.245 159.842 217.845 159.842C216.434 159.842 215.475 159.207 215.475 158.183C215.475 157.182 216.434 156.514 217.845 156.514ZM217.845 157.16C216.908 157.149 216.273 157.569 216.283 158.183C216.273 158.808 216.908 159.217 217.845 159.217C218.75 159.217 219.396 158.808 219.407 158.183C219.396 157.569 218.75 157.149 217.845 157.16Z" fill="black" style="fill:black;fill-opacity:1;"/>
<path fill-rule="evenodd" clip-rule="evenodd" d="M23.4409 196.675C25.0589 196.676 26.3718 195.366 26.3733 193.747C26.3748 192.129 25.0643 190.817 23.4463 190.815C21.8282 190.814 20.5153 192.124 20.5138 193.742C20.5124 195.36 21.8228 196.673 23.4409 196.675ZM23.4404 197.192C25.344 197.193 26.8885 195.652 26.8903 193.748C26.892 191.844 25.3503 190.3 23.4467 190.298C21.5432 190.296 19.9986 191.838 19.9968 193.742C19.9951 195.645 21.5368 197.19 23.4404 197.192Z" fill="#757E8F" style="fill:#757E8F;fill:color(display-p3 0.4593 0.4931 0.5607);fill-opacity:1;"/>
<path fill-rule="evenodd" clip-rule="evenodd" d="M26.3733 193.747C26.3718 195.366 25.0589 196.676 23.4409 196.675C21.8228 196.673 20.5124 195.36 20.5138 193.742C20.5153 192.124 21.8282 190.814 23.4463 190.815C25.0643 190.817 26.3748 192.129 26.3733 193.747ZM23.5416 193.448C23.2551 193.626 23.0913 193.807 23.0862 194.399C23.0862 194.399 23.0849 194.425 23.0861 194.441C23.1022 194.648 23.6014 194.649 23.6179 194.442C23.6192 194.425 23.618 194.4 23.618 194.4C23.6228 194.052 23.732 193.891 23.9958 193.727C24.2914 193.548 24.4757 193.302 24.4783 192.924C24.4766 192.371 24.0565 192.022 23.4429 192.021C22.7679 192.033 22.4104 192.621 22.4103 192.963C22.4101 193.306 22.9535 193.245 22.9784 192.964C23.0033 192.683 23.2129 192.504 23.4379 192.505C23.6856 192.505 23.8854 192.672 23.8829 192.932C23.885 193.165 23.7348 193.32 23.5416 193.448ZM23.3677 194.748C23.1722 194.75 23.0107 194.91 23.0128 195.105C23.0103 195.305 23.1716 195.468 23.367 195.468C23.5556 195.468 23.7171 195.306 23.7173 195.106C23.7175 194.911 23.5563 194.751 23.3677 194.748Z" fill="#757E8F" style="fill:#757E8F;fill:color(display-p3 0.4593 0.4931 0.5607);fill-opacity:1;"/>
<path d="M36.6164 190.206L36.6097 197.461L35.8423 197.46L35.8489 190.206L36.6164 190.206ZM34.4023 190.859L34.3999 193.5L31.7987 193.498L31.7972 195.081C32.9686 195.078 33.9946 195.027 35.2065 194.826L35.2786 195.456C33.994 195.673 32.9034 195.72 31.627 195.719L31.0131 195.719L31.0157 192.883L33.6169 192.885L33.6182 191.48L31.0089 191.477L31.0094 190.855L34.4023 190.859ZM38.7891 190.588L38.7882 191.493L40.1858 191.494L40.1866 190.589L40.8975 190.59L40.8947 193.651L38.0592 193.649L38.062 190.587L38.7891 190.588ZM38.7868 193.044L40.1844 193.045L40.1852 192.076L38.7877 192.074L38.7868 193.044ZM43.9272 190.221L43.9237 193.985L43.1967 193.985L43.1981 192.401L42.3499 192.401L42.3485 193.911L41.6377 193.911L41.6409 190.348L42.3518 190.349L42.3505 191.779L43.1987 191.779L43.2001 190.22L43.9272 190.221ZM43.9235 194.284L43.9218 196.07L39.8504 196.066L39.8497 196.761L44.1716 196.765L44.1711 197.379L39.0817 197.374L39.0835 195.5L43.163 195.503L43.1636 194.881L39.0679 194.878L39.0684 194.28L43.9235 194.284ZM48.4344 190.718L48.4324 192.899L45.9605 192.897L45.9595 193.939C47.244 193.936 48.0559 193.9 48.9971 193.74L49.0692 194.37C48.0512 194.531 47.1788 194.562 45.7651 194.561L45.1915 194.56L45.1936 192.29L47.6736 192.292L47.6745 191.331L45.1783 191.329L45.1789 190.715L48.4344 190.718ZM50.9391 190.227L50.9342 195.543L50.1668 195.542L50.1694 192.715L48.8688 192.714L48.8694 192.059L50.17 192.06L50.1717 190.227L50.9391 190.227ZM51.1432 196.682L51.1427 197.304L46.1826 197.3L46.1846 195.127L46.952 195.127L46.9506 196.678L51.1432 196.682ZM58.0561 190.234L58.0521 194.54L57.2847 194.539L57.2886 190.233L58.0561 190.234ZM55.6366 194.683C57.1472 194.684 58.0919 195.194 58.0911 196.067C58.0903 196.931 57.1447 197.439 55.6341 197.438C54.1073 197.436 53.1707 196.926 53.1715 196.062C53.1723 195.19 54.1098 194.681 55.6366 194.683ZM55.636 195.289C54.5697 195.288 53.9393 195.562 53.9389 196.063C53.9384 196.555 54.5683 196.831 55.6346 196.832C56.6929 196.833 57.3313 196.559 57.3398 196.066C57.3322 195.565 56.6943 195.29 55.636 195.289ZM54.6865 191.249C54.6775 192.242 55.3633 193.148 56.4778 193.512L56.0976 194.118C55.2537 193.83 54.6322 193.248 54.3057 192.501C53.9818 193.332 53.343 193.99 52.4783 194.308L52.0911 193.694C53.2225 193.291 53.902 192.29 53.9029 191.248L53.9036 190.545L54.6871 190.546L54.6865 191.249ZM62.499 190.351C64.1308 190.353 65.0837 190.79 65.0829 191.598C65.0822 192.405 64.1285 192.849 62.4967 192.847C60.8649 192.846 59.9121 192.401 59.9128 191.593C59.9136 190.785 60.8672 190.35 62.499 190.351ZM62.4985 190.917C61.3433 190.916 60.7049 191.165 60.7126 191.594C60.7041 192.038 61.3421 192.273 62.4973 192.274C63.6524 192.275 64.2908 192.041 64.2912 191.597C64.2916 191.169 63.6537 190.918 62.4985 190.917ZM65.8003 193.295L65.7998 193.909L59.1998 193.903L59.2004 193.289L65.8003 193.295ZM64.9672 194.465L64.9656 196.162L60.7488 196.158L60.7482 196.804L65.167 196.808L65.1665 197.398L59.9964 197.393L59.998 195.6L64.2068 195.604L64.2073 195.038L59.9905 195.034L59.991 194.461L64.9672 194.465ZM74.0107 190.241L74.008 193.173L75.1712 193.174L75.1706 193.812L74.0074 193.811L74.004 197.479L73.2447 197.478L73.2513 190.24L74.0107 190.241ZM72.6202 191.37L72.6196 192L68.33 191.996L68.3306 191.366L70.1159 191.368L70.1168 190.334L70.8843 190.335L70.8833 191.369L72.6202 191.37ZM70.5026 192.532C71.5366 192.532 72.2953 193.228 72.3025 194.213C72.2935 195.207 71.5335 195.893 70.4995 195.9C69.4574 195.891 68.6987 195.204 68.6996 194.21C68.7005 193.225 69.4605 192.531 70.5026 192.532ZM70.502 193.162C69.8881 193.161 69.4272 193.589 69.4347 194.211C69.4261 194.841 69.8861 195.261 70.5001 195.254C71.114 195.263 71.5668 194.843 71.5674 194.213C71.5679 193.591 71.116 193.162 70.502 193.162ZM81.3761 192.364L81.3755 192.978L76.3912 192.973L76.3935 190.501L77.1529 190.502L77.1512 192.36L81.3761 192.364ZM82.134 193.891L82.1335 194.505L75.5093 194.499L75.5099 193.885L82.134 193.891ZM81.4206 196.686L81.42 197.316L76.3307 197.311L76.3327 195.187L77.1001 195.187L77.0987 196.682L81.4206 196.686ZM90.6842 190.256L90.6775 197.51L89.9101 197.509L89.9168 190.255L90.6842 190.256ZM86.8142 190.793C87.8886 190.794 88.6794 191.781 88.678 193.332C88.6765 194.891 87.884 195.876 86.8095 195.875C85.719 195.874 84.9363 194.887 84.9377 193.328C84.9391 191.777 85.7236 190.792 86.8142 190.793ZM86.8136 191.48C86.1431 191.48 85.682 192.19 85.6809 193.329C85.6799 194.476 86.1397 195.187 86.8102 195.188C87.4726 195.189 87.9337 194.478 87.9348 193.331C87.9358 192.192 87.476 191.481 86.8136 191.48ZM98.4517 194.351L98.4512 194.981L96.7709 194.979L96.7686 197.499L95.9931 197.499L95.9954 194.978L94.2666 194.977L94.2643 197.497L93.4726 197.496L93.4749 194.976L91.827 194.975L91.8276 194.344L98.4517 194.351ZM95.127 190.535C96.6538 190.536 97.7034 191.159 97.7025 192.136C97.7016 193.098 96.6509 193.711 95.1241 193.701C93.5892 193.708 92.5477 193.093 92.5486 192.132C92.5494 191.154 93.5921 190.533 95.127 190.535ZM95.1264 191.148C94.052 191.156 93.3327 191.526 93.3402 192.132C93.3316 192.722 94.0502 193.094 95.1246 193.095C96.199 193.096 96.9184 192.725 96.9189 192.136C96.9194 191.53 96.2008 191.158 95.1264 191.148ZM100.172 195.079C100.181 194.021 100.496 193.698 101.03 193.367C101.369 193.158 101.628 192.867 101.628 192.439C101.629 191.93 101.241 191.615 100.757 191.614C100.32 191.614 99.9 191.88 99.8591 192.478L98.9866 192.477C99.0199 191.451 99.7959 190.886 100.757 190.887C101.807 190.888 102.51 191.519 102.509 192.44C102.508 193.086 102.201 193.522 101.684 193.836C101.199 194.127 101.012 194.426 100.996 195.08L100.996 195.128L100.172 195.128L100.172 195.079ZM100.614 196.873C100.299 196.873 100.033 196.614 100.041 196.299C100.034 195.984 100.3 195.726 100.615 195.726C100.922 195.726 101.189 195.985 101.188 196.3C101.188 196.615 100.921 196.873 100.614 196.873Z" fill="#757E8F" style="fill:#757E8F;fill:color(display-p3 0.4593 0.4931 0.5607);fill-opacity:1;"/>
<path d="M145.327 190.774L145.321 196.819L144.682 196.819L144.687 190.774L145.327 190.774ZM143.482 191.318L143.48 193.519L141.312 193.517L141.311 194.837C142.287 194.834 143.142 194.791 144.152 194.624L144.212 195.149C143.142 195.33 142.233 195.369 141.169 195.368L140.657 195.368L140.66 193.005L142.827 193.007L142.828 191.836L140.654 191.834L140.654 191.315L143.482 191.318ZM147.137 191.092L147.137 191.846L148.301 191.847L148.302 191.093L148.894 191.094L148.892 193.645L146.529 193.643L146.532 191.092L147.137 191.092ZM147.136 193.139L148.3 193.14L148.301 192.332L147.136 192.331L147.136 193.139ZM151.419 190.787L151.416 193.924L150.81 193.923L150.812 192.604L150.105 192.603L150.104 193.862L149.511 193.861L149.514 190.892L150.106 190.893L150.105 192.085L150.812 192.085L150.813 190.786L151.419 190.787ZM151.416 194.173L151.415 195.66L148.022 195.657L148.021 196.236L151.623 196.24L151.622 196.751L147.381 196.747L147.383 195.185L150.782 195.189L150.783 194.67L147.37 194.667L147.37 194.169L151.416 194.173ZM155.175 191.201L155.174 193.018L153.114 193.016L153.113 193.885C154.183 193.882 154.86 193.853 155.644 193.719L155.704 194.244C154.856 194.378 154.129 194.404 152.951 194.403L152.473 194.402L152.475 192.511L154.541 192.513L154.542 191.712L152.462 191.71L152.462 191.198L155.175 191.201ZM157.262 190.792L157.258 195.221L156.619 195.221L156.621 192.865L155.537 192.864L155.538 192.318L156.622 192.319L156.623 190.791L157.262 190.792ZM157.433 196.171L157.432 196.689L153.299 196.685L153.3 194.874L153.94 194.875L153.939 196.168L157.433 196.171ZM163.193 190.797L163.19 194.385L162.55 194.385L162.554 190.797L163.193 190.797ZM161.177 194.505C162.436 194.506 163.223 194.931 163.222 195.658C163.222 196.378 162.434 196.801 161.175 196.8C159.903 196.799 159.122 196.374 159.123 195.654C159.123 194.927 159.905 194.504 161.177 194.505ZM161.177 195.01C160.288 195.009 159.763 195.237 159.762 195.655C159.762 196.065 160.287 196.295 161.175 196.295C162.057 196.296 162.589 196.068 162.596 195.657C162.59 195.24 162.058 195.01 161.177 195.01ZM160.385 191.643C160.378 192.471 160.949 193.225 161.878 193.529L161.561 194.034C160.858 193.794 160.34 193.309 160.068 192.686C159.798 193.379 159.266 193.927 158.545 194.193L158.222 193.681C159.165 193.345 159.732 192.511 159.732 191.642L159.733 191.057L160.386 191.057L160.385 191.643ZM166.896 190.895C168.256 190.896 169.05 191.26 169.049 191.934C169.048 192.607 168.254 192.976 166.894 192.975C165.534 192.974 164.74 192.603 164.741 191.93C164.741 191.256 165.536 190.894 166.896 190.895ZM166.895 191.366C165.933 191.365 165.401 191.573 165.407 191.93C165.4 192.301 165.932 192.496 166.894 192.497C167.857 192.498 168.389 192.303 168.389 191.933C168.39 191.576 167.858 191.367 166.895 191.366ZM169.647 193.348L169.646 193.859L164.146 193.854L164.147 193.343L169.647 193.348ZM168.953 194.323L168.951 195.737L165.437 195.734L165.437 196.272L169.119 196.276L169.119 196.767L164.81 196.763L164.812 195.269L168.319 195.272L168.319 194.801L164.805 194.798L164.806 194.32L168.953 194.323ZM177.287 193.974L177.286 194.479L171.773 194.474L171.774 193.969L174.21 193.971L174.211 193.446L172.494 193.445L172.497 190.961L176.617 190.964L176.616 191.469L173.142 191.466L173.142 191.958L176.461 191.961L176.46 192.439L173.141 192.436L173.141 192.947L176.655 192.95L176.655 193.449L174.85 193.447L174.85 193.972L177.287 193.974ZM174.533 194.874C175.859 194.868 176.613 195.219 176.612 195.852C176.611 196.491 175.857 196.827 174.531 196.819C173.191 196.825 172.438 196.487 172.438 195.848C172.439 195.215 173.193 194.866 174.533 194.874ZM174.532 195.352C173.583 195.351 173.071 195.525 173.078 195.849C173.071 196.172 173.582 196.34 174.531 196.335C175.467 196.342 175.972 196.174 175.972 195.851C175.973 195.528 175.468 195.353 174.532 195.352ZM180.729 191.803L180.728 192.321L177.733 192.319L177.733 191.8L178.918 191.801L178.919 190.98L179.552 190.981L179.551 191.802L180.729 191.803ZM179.234 192.683C180.001 192.684 180.539 193.257 180.545 194.071C180.538 194.893 179.999 195.471 179.231 195.47C178.477 195.47 177.919 194.89 177.926 194.069C177.92 193.254 178.48 192.683 179.234 192.683ZM179.233 193.215C178.796 193.215 178.492 193.571 178.492 194.07C178.491 194.581 178.794 194.925 179.232 194.925C179.662 194.926 179.979 194.583 179.98 194.071C179.98 193.573 179.664 193.216 179.233 193.215ZM182.911 190.809L182.905 196.84L182.3 196.84L182.302 193.844L181.609 193.844L181.606 196.556L181.001 196.556L181.006 190.942L181.612 190.942L181.609 193.318L182.303 193.319L182.305 190.808L182.911 190.809ZM190.087 190.815L190.085 193.259L191.054 193.26L191.054 193.792L190.084 193.791L190.082 196.847L189.449 196.846L189.454 190.815L190.087 190.815ZM188.928 191.757L188.928 192.282L185.353 192.278L185.354 191.753L186.842 191.755L186.842 190.893L187.482 190.894L187.481 191.755L188.928 191.757ZM187.164 192.724C188.025 192.725 188.658 193.305 188.664 194.126C188.656 194.954 188.023 195.526 187.161 195.532C186.293 195.524 185.661 194.951 185.661 194.123C185.662 193.302 186.295 192.724 187.164 192.724ZM187.163 193.249C186.652 193.249 186.268 193.605 186.274 194.124C186.267 194.649 186.65 194.999 187.162 194.993C187.673 195 188.051 194.651 188.051 194.125C188.052 193.607 187.675 193.25 187.163 193.249ZM194.335 191.176L194.333 192.899L192.233 192.897L192.232 193.672C193.279 193.669 194.019 193.633 194.898 193.485L194.965 194.004C194.029 194.165 193.235 194.198 192.077 194.196L191.592 194.196L191.594 192.399L193.707 192.401L193.708 191.694L191.588 191.692L191.588 191.173L194.335 191.176ZM196.085 190.827L196.084 192.335L196.966 192.336L196.965 192.868L196.083 192.867L196.082 194.49L195.442 194.489L195.446 190.827L196.085 190.827ZM196.082 194.793L196.08 196.846L195.44 196.845L195.442 195.31L192.096 195.307L192.096 194.789L196.082 194.793ZM202.494 190.827L202.488 196.858L201.876 196.858L201.881 190.826L202.494 190.827ZM201.269 190.94L201.264 196.561L200.651 196.56L200.654 193.652L199.974 193.652C199.919 194.83 199.413 195.563 198.666 195.556C197.878 195.562 197.367 194.733 197.369 193.427C197.37 192.121 197.882 191.3 198.67 191.308C199.404 191.302 199.901 191.999 199.974 193.133L200.654 193.134L200.656 190.939L201.269 190.94ZM198.669 191.907C198.232 191.907 197.962 192.465 197.961 193.428C197.96 194.39 198.229 194.949 198.667 194.95C199.111 194.95 199.387 194.392 199.388 193.429C199.389 192.466 199.114 191.907 198.669 191.907ZM210.121 190.834L210.116 196.865L209.503 196.865L209.506 193.748L208.725 193.747L208.723 196.554L208.137 196.554L208.142 190.953L208.728 190.953L208.726 193.222L209.506 193.223L209.509 190.833L210.121 190.834ZM207.408 191.558L207.407 192.076L205.785 192.075L205.782 194.869C206.523 194.863 207.082 194.83 207.728 194.709L207.775 195.234C207.047 195.382 206.428 195.408 205.546 195.414L205.142 195.413L205.146 191.556L207.408 191.558ZM215.897 190.839L215.892 196.884L215.252 196.884L215.258 190.838L215.897 190.839ZM211.878 191.34L211.876 192.888L213.499 192.89L213.5 191.342L214.133 191.342L214.129 195.435L211.235 195.432L211.238 191.339L211.878 191.34ZM211.875 194.908L213.497 194.909L213.498 193.395L211.876 193.393L211.875 194.908ZM221.599 190.824L221.598 192.238L222.48 192.238L222.479 192.763L221.597 192.763L221.596 194.143L220.957 194.142L220.96 190.823L221.599 190.824ZM221.596 194.425L221.595 195.826L218.336 195.823L218.336 196.328L221.803 196.331L221.802 196.815L217.709 196.812L217.711 195.371L220.962 195.374L220.963 194.903L217.698 194.9L217.698 194.422L221.596 194.425ZM220.461 191.355L220.46 191.86L216.866 191.856L216.866 191.351L218.347 191.353L218.348 190.787L218.987 190.788L218.987 191.353L220.461 191.355ZM218.663 192.087C219.545 192.088 220.123 192.465 220.123 193.078C220.122 193.69 219.543 194.06 218.661 194.059C217.772 194.058 217.194 193.688 217.194 193.075C217.195 192.462 217.774 192.086 218.663 192.087ZM218.662 192.545C218.144 192.544 217.807 192.752 217.814 193.076C217.807 193.399 218.143 193.594 218.661 193.595C219.18 193.595 219.517 193.4 219.524 193.077C219.517 192.754 219.181 192.545 218.662 192.545ZM227.59 191.381C227.583 192.182 228.565 192.937 229.749 193.093L229.5 193.618C228.514 193.459 227.646 192.947 227.259 192.236C226.862 192.949 225.996 193.457 225.016 193.614L224.761 193.089C225.946 192.935 226.916 192.189 226.924 191.381L226.924 191.051L227.59 191.052L227.59 191.381ZM229.997 194.211L229.997 194.736L227.547 194.734L227.545 196.881L226.919 196.881L226.92 194.733L224.497 194.731L224.497 194.206L229.997 194.211ZM234.231 194.841C234.231 195.359 234.486 195.908 235.031 196.235C235.587 195.882 235.86 195.304 235.86 194.842L235.861 194.553L236.487 194.554L236.486 194.843C236.486 195.469 236.896 196.075 237.683 196.332L237.366 196.803C236.771 196.597 236.367 196.196 236.156 195.698C235.963 196.186 235.603 196.626 235.051 196.855C234.472 196.635 234.105 196.207 233.921 195.716C233.702 196.19 233.304 196.59 232.735 196.799L232.412 196.327C233.187 196.052 233.605 195.426 233.612 194.84L233.612 194.551L234.231 194.551L234.231 194.841ZM237.143 190.865L237.14 194.298L236.5 194.298L236.504 190.864L237.143 190.865ZM233.871 191.192C234.793 191.193 235.473 191.779 235.472 192.621C235.471 193.455 234.791 194.034 233.868 194.033C232.946 194.032 232.26 193.452 232.261 192.618C232.262 191.776 232.949 191.191 233.871 191.192ZM233.871 191.737C233.298 191.73 232.887 192.086 232.887 192.618C232.886 193.143 233.297 193.5 233.869 193.501C234.434 193.501 234.845 193.145 234.846 192.62C234.846 192.088 234.436 191.731 233.871 191.737ZM239.734 191.312C240.552 191.313 241.151 192.006 241.247 193.124L242.493 193.125L242.495 190.863L243.128 190.864L243.122 196.909L242.489 196.908L242.492 193.644L241.254 193.642C241.182 194.817 240.569 195.547 239.731 195.546C238.828 195.545 238.196 194.723 238.204 193.424C238.199 192.132 238.832 191.311 239.734 191.312ZM239.734 191.884C239.189 191.883 238.811 192.476 238.81 193.425C238.809 194.381 239.186 194.973 239.731 194.974C240.276 194.974 240.654 194.382 240.655 193.426C240.656 192.477 240.279 191.884 239.734 191.884ZM249.572 195.616L249.572 196.148L244.052 196.142L244.052 195.611L245.372 195.612L245.373 194.037C244.879 193.764 244.58 193.329 244.58 192.79C244.581 191.841 245.51 191.216 246.803 191.217C248.102 191.218 249.031 191.845 249.03 192.795C249.029 193.326 248.739 193.754 248.254 194.026L248.253 195.615L249.572 195.616ZM246.803 191.729C245.853 191.728 245.2 192.138 245.199 192.791C245.199 193.437 245.851 193.862 246.801 193.863C247.743 193.864 248.41 193.44 248.41 192.794C248.411 192.141 247.745 191.73 246.803 191.729ZM246.005 195.612L247.607 195.614L247.608 194.268C247.362 194.331 247.09 194.361 246.8 194.361C246.517 194.361 246.248 194.33 246.006 194.273L246.005 195.612ZM250.696 196.377C250.433 196.377 250.212 196.162 250.218 195.899C250.212 195.637 250.434 195.421 250.697 195.422C250.953 195.422 251.175 195.637 251.174 195.9C251.174 196.162 250.952 196.378 250.696 196.377Z" fill="#757E8F" style="fill:#757E8F;fill:color(display-p3 0.4593 0.4931 0.5607);fill-opacity:1;"/>
<g filter="url(#filter0_d_4819_34258)">
<rect x="11.0293" y="234.311" width="248.854" height="141.858" rx="8.27215" fill="white" style="fill:white;fill-opacity:1;" shape-rendering="crispEdges"/>
<mask id="path-36-inside-1_4819_34258" fill="white">
<path d="M22.0586 248.098H248.853V337.565H22.0586V248.098Z"/>
</mask>
<path d="M248.853 337.565V336.876H22.0586V337.565V338.254H248.853V337.565Z" fill="#F7F7F8" style="fill:#F7F7F8;fill:color(display-p3 0.9669 0.9690 0.9731);fill-opacity:1;" mask="url(#path-36-inside-1_4819_34258)"/>
<path d="M22.7856 261.098V259.959L25.8877 256.966C26.7723 256.081 27.2327 255.56 27.2327 254.821C27.2327 254.009 26.5905 253.488 25.7302 253.488C24.8214 253.488 24.2397 254.057 24.2518 254.942H22.7493C22.7372 253.282 23.9853 252.203 25.7423 252.203C27.5357 252.203 28.7474 253.27 28.7474 254.748C28.7474 255.742 28.2627 256.542 26.542 258.165L24.9789 259.716V259.777H28.8807V261.098H22.7856ZM33.7519 254.7C33.7519 256.323 34.6728 258.093 36.3571 258.892L35.6058 259.91C34.4244 259.359 33.5641 258.274 33.1097 256.99C32.625 258.371 31.7222 259.541 30.4681 260.104L29.7289 259.062C31.4496 258.286 32.419 256.42 32.419 254.7V254.13H30.0803V253.052H32.419V251.452H33.764V253.052H36.0663V254.13H33.7519V254.7ZM38.4777 251.222V255.56H40.162V256.687H38.4777V262.176H37.1326V251.222H38.4777ZM52.7399 251.234V259.232H51.3948V255.221H49.456V254.13H51.3948V251.234H52.7399ZM53.0186 260.867V261.958H45.5542V258.529H46.8993V260.867H53.0186ZM47.59 253.415C47.59 254.736 48.4745 256.093 50.171 256.651L49.4924 257.729C48.2685 257.311 47.4021 256.481 46.9235 255.439C46.4388 256.596 45.5239 257.511 44.2334 257.959L43.5427 256.869C45.2877 256.299 46.2207 254.857 46.2207 253.403V253.112H43.9426V252.022H49.8559V253.112H47.59V253.415ZM58.4229 254.336C58.4229 256.13 59.4771 258.02 61.2463 258.759L60.5071 259.825C59.2105 259.268 58.2654 258.117 57.7686 256.723C57.2596 258.226 56.3024 259.486 55.0179 260.092L54.2424 259.038C55.9752 258.238 57.0536 256.202 57.0536 254.336V253.415H54.6423V252.3H60.8222V253.415H58.4229V254.336ZM63.4032 251.222V262.176H62.046V251.222H63.4032ZM68.0199 253.645V252.325H75.0116V253.645H72.3095V261.098H70.7342V253.645H68.0199ZM77.8229 252.325V261.098H76.2476V252.325H77.8229ZM85.3357 255.124C85.057 254.191 84.3299 253.621 83.2636 253.621C81.8458 253.621 80.828 254.724 80.828 256.699C80.828 258.698 81.8337 259.801 83.2999 259.801C84.6207 259.801 85.469 259.001 85.4932 257.753H83.4575V256.505H87.02V257.559C87.02 259.813 85.469 261.219 83.2999 261.219C80.8765 261.219 79.2406 259.498 79.2406 256.711C79.2406 253.9 80.9492 252.203 83.2515 252.203C85.1903 252.203 86.6807 253.403 86.9473 255.124H85.3357ZM88.4498 261.098V252.325H94.1571V253.645H90.0251V256.045H93.8542V257.365H90.0251V259.765H94.1814V261.098H88.4498ZM95.6718 261.098V252.325H98.9677C100.979 252.325 102.058 253.452 102.058 255.124C102.058 256.317 101.512 257.202 100.482 257.62L102.373 261.098H100.616L98.895 257.887H97.2471V261.098H95.6718ZM97.2471 256.566H98.7254C99.9129 256.566 100.446 256.057 100.446 255.124C100.446 254.191 99.9129 253.645 98.7254 253.645H97.2471V256.566ZM107.547 254.518L108.88 256.954L110.237 254.518H111.873L109.886 257.802L111.909 261.098H110.285L108.88 258.723L107.511 261.098H105.863L107.874 257.802L105.911 254.518H107.547ZM112.951 261.098V259.959L116.053 256.966C116.938 256.081 117.398 255.56 117.398 254.821C117.398 254.009 116.756 253.488 115.896 253.488C114.987 253.488 114.405 254.057 114.417 254.942H112.915C112.903 253.282 114.151 252.203 115.908 252.203C117.701 252.203 118.913 253.27 118.913 254.748C118.913 255.742 118.428 256.542 116.708 258.165L115.144 259.716V259.777H119.046V261.098H112.951Z" fill="black" style="fill:black;fill-opacity:1;"/>
<path d="M28.085 285.185V287.665H26.0008V288.505H28.9251V289.127H22.3252V288.505H25.2414V287.665H23.1653V285.185H28.085ZM23.9166 285.791V287.051H27.3256V285.791H23.9166ZM28.1173 289.814V292.124H27.3418V290.42H23.0603V289.814H28.1173ZM36.0986 290.638V291.268H29.4744V290.638H31.2517V289.03H30.0561V288.408H31.1386V286.154H30.0399V285.524H35.4928V286.154H34.386V288.408H35.4685V289.03H34.281V290.638H36.0986ZM31.8979 288.408H33.6348V286.154H31.8979V288.408ZM32.0191 290.638H33.5136V289.03H32.0191V290.638ZM44.6374 284.886V292.14H43.8699V284.886H44.6374ZM39.8146 285.492V287.35H41.7615V285.492H42.5208V290.403H39.0472V285.492H39.8146ZM39.8146 289.773H41.7615V287.956H39.8146V289.773ZM52.3925 288.239V288.861H49.4682V289.555C50.797 289.628 51.5847 290.076 51.5847 290.832C51.5847 291.656 50.6476 292.116 49.0885 292.108C47.5132 292.116 46.5761 291.656 46.5761 290.832C46.5761 290.076 47.3638 289.628 48.7088 289.555V288.861H45.7925V288.239H52.3925ZM49.0885 290.137C47.9818 290.137 47.3517 290.387 47.3517 290.832C47.3517 291.268 47.9818 291.526 49.0885 291.518C50.179 291.526 50.8172 291.268 50.8172 290.832C50.8172 290.387 50.179 290.137 49.0885 290.137ZM51.8028 285.217V285.831H49.6055C49.7145 286.53 50.7324 287.124 52.0532 287.253L51.7785 287.859C50.5264 287.713 49.4884 287.184 49.0966 286.413C48.6926 287.184 47.6586 287.713 46.4065 287.859L46.1399 287.253C47.4405 287.124 48.4624 286.53 48.5715 285.831H46.3984V285.217H51.8028Z" fill="#474C57" style="fill:#474C57;fill:color(display-p3 0.2779 0.2993 0.3421);fill-opacity:1;"/>
<rect x="55.8164" y="275.422" width="35.0591" height="26.0295" rx="2.75738" fill="#E0EEFF" style="fill:#E0EEFF;fill:color(display-p3 0.8800 0.9340 1.0000);fill-opacity:1;"/>
<path d="M70.6586 284.139V291.938H69.2476V285.507H69.2046L67.3843 286.67V285.389L69.3123 284.139H70.6586ZM75.4302 292.045C73.5561 292.045 72.4359 290.591 72.4359 288.038C72.4359 285.496 73.5561 284.032 75.4302 284.032C77.2936 284.032 78.4246 285.496 78.4246 288.038C78.4246 290.591 77.3044 292.045 75.4302 292.045ZM75.4302 290.871C76.4104 290.871 77.0135 289.913 77.0135 288.038C77.0135 286.175 76.3996 285.195 75.4302 285.195C74.4608 285.195 73.8469 286.175 73.8469 288.038C73.8469 289.913 74.45 290.871 75.4302 290.871Z" fill="#1A1C20" style="fill:#1A1C20;fill:color(display-p3 0.1020 0.1098 0.1255);fill-opacity:1;"/>
<path d="M94.4216 287.856C93.4885 287.866 92.9796 287.168 92.989 286.16C92.9796 285.161 93.5074 284.473 94.4216 284.473C95.3546 284.473 95.8541 285.161 95.8541 286.16C95.8541 287.178 95.3358 287.866 94.4216 287.856ZM94.4216 287.196C94.8645 287.196 95.0719 286.782 95.0719 286.16C95.0719 285.547 94.874 285.132 94.4216 285.132C93.988 285.142 93.7618 285.547 93.7618 286.16C93.7618 286.782 93.9786 287.196 94.4216 287.196ZM98.7286 291.579C97.7956 291.579 97.2867 290.891 97.2961 289.882C97.2867 288.874 97.8239 288.186 98.7286 288.186C99.6617 288.186 100.161 288.874 100.161 289.882C100.161 290.891 99.6428 291.579 98.7286 291.579ZM98.7286 290.91C99.1716 290.91 99.3789 290.495 99.3789 289.882C99.3789 289.26 99.181 288.846 98.7286 288.846C98.2951 288.855 98.0689 289.27 98.0689 289.882C98.0689 290.495 98.2951 290.91 98.7286 290.91ZM93.7618 291.438L98.4459 284.614H99.3035L94.6195 291.438H93.7618Z" fill="black" style="fill:black;fill-opacity:1;"/>
<path d="M187.125 275.826V281.343H186.358V279.849H185.195V279.235H186.358V278.338H185.195V277.708H186.358V275.826H187.125ZM185.17 276.666V277.288H181.099V276.666H182.795V275.818H183.555V276.666H185.17ZM183.167 277.635C184.144 277.635 184.831 278.201 184.839 279.025C184.831 279.857 184.144 280.422 183.167 280.422C182.189 280.422 181.503 279.857 181.503 279.025C181.503 278.201 182.189 277.635 183.167 277.635ZM183.167 278.233C182.601 278.241 182.222 278.548 182.222 279.025C182.222 279.518 182.601 279.824 183.167 279.824C183.724 279.824 184.112 279.518 184.12 279.025C184.112 278.548 183.724 278.241 183.167 278.233ZM187.287 282.28V282.902H182.399V280.859H183.175V282.28H187.287ZM194.493 275.818V283.056H193.758V279.34H192.893V282.7H192.166V275.955H192.893V278.694H193.758V275.818H194.493ZM190.437 277.732C190.437 279.033 190.93 280.212 191.98 280.753L191.528 281.343C190.817 280.959 190.34 280.285 190.082 279.445C189.836 280.398 189.355 281.157 188.62 281.594L188.143 281.012C189.201 280.414 189.694 279.17 189.694 277.732V277.264H188.337V276.642H191.698V277.264H190.437V277.732ZM203.403 275.818V283.072H202.636V275.818H203.403ZM198.58 276.424V278.282H200.527V276.424H201.286V281.335H197.813V276.424H198.58ZM198.58 280.705H200.527V278.887H198.58V280.705ZM211.158 279.17V279.792H208.234V280.487C209.563 280.56 210.35 281.008 210.35 281.763C210.35 282.587 209.413 283.048 207.854 283.04C206.279 283.048 205.342 282.587 205.342 281.763C205.342 281.008 206.129 280.56 207.474 280.487V279.792H204.558V279.17H211.158ZM207.854 281.069C206.747 281.069 206.117 281.319 206.117 281.763C206.117 282.199 206.747 282.458 207.854 282.45C208.945 282.458 209.583 282.199 209.583 281.763C209.583 281.319 208.945 281.069 207.854 281.069ZM210.568 276.149V276.763H208.371C208.48 277.462 209.498 278.055 210.819 278.185L210.544 278.79C209.292 278.645 208.254 278.116 207.862 277.344C207.458 278.116 206.424 278.645 205.172 278.79L204.906 278.185C206.206 278.055 207.228 277.462 207.337 276.763H205.164V276.149H210.568Z" fill="#757E8F" style="fill:#757E8F;fill:color(display-p3 0.4593 0.4931 0.5607);fill-opacity:1;"/>
<path d="M186.519 292.682V299.506H185.473V293.719H185.435L183.805 294.784V293.795L185.501 292.682H186.519ZM190.628 299.6C189.045 299.6 188.121 298.328 188.121 296.094C188.121 293.879 189.064 292.588 190.628 292.588C192.193 292.588 193.135 293.879 193.135 296.094C193.135 298.328 192.202 299.6 190.628 299.6ZM190.628 298.705C191.552 298.705 192.099 297.8 192.099 296.094C192.099 294.398 191.543 293.465 190.628 293.465C189.714 293.465 189.158 294.398 189.158 296.094C189.158 297.8 189.705 298.705 190.628 298.705ZM196.585 299.6C195.001 299.6 194.078 298.328 194.078 296.094C194.078 293.879 195.02 292.588 196.585 292.588C198.149 292.588 199.092 293.879 199.092 296.094C199.092 298.328 198.159 299.6 196.585 299.6ZM196.585 298.705C197.508 298.705 198.055 297.8 198.055 296.094C198.055 294.398 197.499 293.465 196.585 293.465C195.671 293.465 195.114 294.398 195.114 296.094C195.114 297.8 195.661 298.705 196.585 298.705Z" fill="#757E8F" style="fill:#757E8F;fill:color(display-p3 0.4593 0.4931 0.5607);fill-opacity:1;"/>
<path d="M202.492 295.924C201.559 295.934 201.05 295.236 201.059 294.228C201.05 293.229 201.578 292.541 202.492 292.541C203.425 292.541 203.924 293.229 203.924 294.228C203.924 295.246 203.406 295.934 202.492 295.924ZM202.492 295.265C202.935 295.265 203.142 294.85 203.142 294.228C203.142 293.615 202.944 293.201 202.492 293.201C202.058 293.21 201.832 293.615 201.832 294.228C201.832 294.85 202.049 295.265 202.492 295.265ZM206.799 299.647C205.866 299.647 205.357 298.959 205.366 297.951C205.357 296.942 205.894 296.254 206.799 296.254C207.732 296.254 208.231 296.942 208.231 297.951C208.231 298.959 207.713 299.647 206.799 299.647ZM206.799 298.978C207.242 298.978 207.449 298.563 207.449 297.951C207.449 297.329 207.251 296.914 206.799 296.914C206.365 296.924 206.139 297.338 206.139 297.951C206.139 298.563 206.365 298.978 206.799 298.978ZM201.832 299.506L206.516 292.682H207.374L202.69 299.506H201.832Z" fill="#757E8F" style="fill:#757E8F;fill:color(display-p3 0.4593 0.4931 0.5607);fill-opacity:1;"/>
<path d="M230.744 281.521V282.151H224.12V281.521H227.044V279.808H227.812V281.521H230.744ZM227.82 277.134C227.82 278.241 229.072 279.227 230.453 279.445L230.146 280.051C228.979 279.829 227.901 279.15 227.432 278.201C226.96 279.162 225.889 279.861 224.742 280.083L224.427 279.477C225.776 279.251 227.02 278.241 227.02 277.134V277.07H224.669V276.44H230.171V277.07H227.82V277.134ZM237.304 275.818V280.123H236.536V278.29H235.187V277.66H236.536V275.818H237.304ZM234.88 280.325C236.399 280.325 237.328 280.826 237.328 281.691C237.328 282.555 236.399 283.048 234.88 283.056C233.362 283.048 232.425 282.555 232.433 281.691C232.425 280.826 233.362 280.325 234.88 280.325ZM234.88 280.923C233.822 280.923 233.192 281.198 233.192 281.691C233.192 282.175 233.822 282.458 234.88 282.45C235.939 282.458 236.569 282.175 236.569 281.691C236.569 281.198 235.939 280.923 234.88 280.923ZM233.862 277.094C233.862 278.015 234.517 278.904 235.607 279.275L235.212 279.881C234.4 279.598 233.802 279.021 233.491 278.306C233.172 279.118 232.538 279.768 231.673 280.083L231.269 279.469C232.392 279.081 233.079 278.104 233.079 277.102V276.941H231.512V276.319H235.414V276.941H233.862V277.094ZM246.667 276.617V277.248H240.777V276.617H243.354V275.785H244.114V276.617H246.667ZM247.062 280.503V281.133H244.114V283.064H243.354V281.133H240.438V280.503H247.062ZM243.734 277.619C245.237 277.619 246.141 278.047 246.141 278.839C246.141 279.614 245.237 280.043 243.734 280.051C242.223 280.043 241.319 279.614 241.327 278.839C241.319 278.047 242.223 277.619 243.734 277.619ZM243.734 278.193C242.692 278.193 242.118 278.419 242.118 278.839C242.118 279.243 242.692 279.469 243.734 279.469C244.768 279.469 245.342 279.243 245.35 278.839C245.342 278.419 244.768 278.193 243.734 278.193Z" fill="#474C57" style="fill:#474C57;fill:color(display-p3 0.2779 0.2993 0.3421);fill-opacity:1;"/>
<path d="M226.048 292.682V299.506H225.002V293.719H224.965L223.334 294.784V293.795L225.031 292.682H226.048ZM230.158 299.6C228.574 299.6 227.651 298.328 227.651 296.094C227.651 293.879 228.593 292.588 230.158 292.588C231.722 292.588 232.665 293.879 232.665 296.094C232.665 298.328 231.732 299.6 230.158 299.6ZM230.158 298.705C231.081 298.705 231.628 297.8 231.628 296.094C231.628 294.398 231.072 293.465 230.158 293.465C229.243 293.465 228.687 294.398 228.687 296.094C228.687 297.8 229.234 298.705 230.158 298.705ZM236.114 299.6C234.531 299.6 233.607 298.328 233.607 296.094C233.607 293.879 234.55 292.588 236.114 292.588C237.678 292.588 238.621 293.879 238.621 296.094C238.621 298.328 237.688 299.6 236.114 299.6ZM236.114 298.705C237.038 298.705 237.584 297.8 237.584 296.094C237.584 294.398 237.028 293.465 236.114 293.465C235.2 293.465 234.644 294.398 234.644 296.094C234.644 297.8 235.19 298.705 236.114 298.705Z" fill="#474C57" style="fill:#474C57;fill:color(display-p3 0.2779 0.2993 0.3421);fill-opacity:1;"/>
<path d="M242.021 295.924C241.088 295.934 240.579 295.236 240.589 294.228C240.579 293.229 241.107 292.541 242.021 292.541C242.954 292.541 243.454 293.229 243.454 294.228C243.454 295.246 242.935 295.934 242.021 295.924ZM242.021 295.265C242.464 295.265 242.671 294.85 242.671 294.228C242.671 293.615 242.474 293.201 242.021 293.201C241.588 293.21 241.361 293.615 241.361 294.228C241.361 294.85 241.578 295.265 242.021 295.265ZM246.328 299.647C245.395 299.647 244.886 298.959 244.896 297.951C244.886 296.942 245.423 296.254 246.328 296.254C247.261 296.254 247.761 296.942 247.761 297.951C247.761 298.959 247.242 299.647 246.328 299.647ZM246.328 298.978C246.771 298.978 246.979 298.563 246.979 297.951C246.979 297.329 246.781 296.914 246.328 296.914C245.895 296.924 245.669 297.338 245.669 297.951C245.669 298.563 245.895 298.978 246.328 298.978ZM241.361 299.506L246.046 292.682H246.903L242.219 299.506H241.361Z" fill="#474C57" style="fill:#474C57;fill:color(display-p3 0.2779 0.2993 0.3421);fill-opacity:1;"/>
<rect x="22.0586" y="311.777" width="68.2721" height="17.5148" rx="5.51476" fill="#EFFAEC" style="fill:#EFFAEC;fill:color(display-p3 0.9384 0.9802 0.9268);fill-opacity:1;"/>
<path d="M28.7884 323.616C27.5767 323.616 26.7123 322.962 26.68 322.008H27.5848C27.6171 322.525 28.126 322.849 28.7804 322.849C29.4832 322.849 30.0002 322.461 30.0002 321.895C30.0002 321.322 29.5155 320.902 28.6834 320.902H28.1826V320.175H28.6834C29.3458 320.175 29.8144 319.803 29.8144 319.246C29.8144 318.712 29.4185 318.349 28.7965 318.349C28.2068 318.349 27.6898 318.672 27.6656 319.205H26.8093C26.8335 318.252 27.714 317.606 28.8046 317.606C29.9517 317.606 30.6788 318.333 30.6707 319.197C30.6788 319.86 30.2668 320.344 29.6367 320.498V320.538C30.4364 320.651 30.8969 321.184 30.8969 321.928C30.8969 322.905 30.0002 323.616 28.7884 323.616ZM38.2239 321.063V321.685H35.2834V324.214H34.5321V321.685H31.6239V321.063H38.2239ZM37.6018 317.412V318.026H35.3641C35.3763 318.922 36.4911 319.722 37.8603 319.908L37.5776 320.514C36.3901 320.328 35.3641 319.742 34.9279 318.914C34.4796 319.742 33.4577 320.328 32.2863 320.514L31.9955 319.908C33.3486 319.722 34.4634 318.922 34.4917 318.026H32.2379V317.412H37.6018ZM45.3893 320.304V320.894H38.7651V320.304H45.3893ZM44.5734 321.402V322.994H40.3242V323.592H44.7996V324.133H39.5568V322.485H43.814V321.952H39.5487V321.402H44.5734ZM44.5572 317.169V318.737H40.3727V319.286H44.6784V319.827H39.6133V318.228H43.7898V317.711H39.5972V317.169H44.5572ZM54.1704 316.984V324.222H53.4352V320.449H52.5385V323.866H51.8115V317.121H52.5385V319.819H53.4352V316.984H54.1704ZM50.9956 317.8V322.315H48.1844V317.8H50.9956ZM48.9114 318.405V321.701H50.2766V318.405H48.9114ZM58.7992 317.622C58.7911 318.583 59.9706 319.488 61.3923 319.674L61.0934 320.304C59.91 320.114 58.8679 319.5 58.4034 318.648C57.9267 319.504 56.8887 320.114 55.7133 320.304L55.4063 319.674C56.8281 319.488 57.9914 318.591 57.9995 317.622V317.226H58.7992V317.622ZM61.6912 321.015V321.645H58.7507V324.222H57.9995V321.645H55.0913V321.015H61.6912ZM69.9472 316.959V318.656H71.0055V319.286H69.9472V320.942H69.1798V316.959H69.9472ZM69.9472 321.281V322.962H66.0373V323.567H70.1976V324.149H65.2861V322.42H69.1879V321.855H65.2699V321.281H69.9472ZM68.582 317.598V318.203H64.2682V317.598H66.0454V316.919H66.8128V317.598H68.582ZM66.4251 318.478C67.4833 318.478 68.1781 318.931 68.1781 319.666C68.1781 320.401 67.4833 320.845 66.4251 320.845C65.3588 320.845 64.664 320.401 64.664 319.666C64.664 318.931 65.3588 318.478 66.4251 318.478ZM66.4251 319.027C65.8031 319.027 65.3991 319.278 65.4072 319.666C65.3991 320.053 65.8031 320.288 66.4251 320.288C67.0471 320.288 67.451 320.053 67.4591 319.666C67.451 319.278 67.0471 319.027 66.4251 319.027ZM73.2028 317.84C73.1947 319.464 72.9927 321.136 71.9829 322.558L71.3851 322.218C72.2293 321.087 72.4838 319.835 72.5403 318.47H71.5548V317.84H73.2028ZM74.8103 317.84C74.8103 318.45 74.7982 319.116 74.7215 319.787H75.5697V317.169H76.2967V323.866H75.5697V320.409H74.6326C74.467 321.31 74.1641 322.202 73.6067 322.994L73.0089 322.647C73.946 321.39 74.1156 319.868 74.1479 318.47H73.4209V317.84H74.8103ZM77.67 316.984V324.222H76.9349V316.984H77.67ZM85.1828 322.679V323.317H78.5586V322.679H80.142V320.789C79.5482 320.461 79.1887 319.94 79.1887 319.294C79.1887 318.155 80.3035 317.404 81.8546 317.404C83.4137 317.404 84.5285 318.155 84.5285 319.294C84.5285 319.932 84.1811 320.445 83.5995 320.772V322.679H85.1828ZM81.8546 318.018C80.7155 318.018 79.9319 318.51 79.9319 319.294C79.9319 320.07 80.7155 320.579 81.8546 320.579C82.9855 320.579 83.7853 320.07 83.7853 319.294C83.7853 318.51 82.9855 318.018 81.8546 318.018ZM80.9013 322.679H82.824V321.063C82.5291 321.14 82.2019 321.176 81.8546 321.176C81.5153 321.176 81.1922 321.14 80.9013 321.071V322.679Z" fill="#43A329" style="fill:#43A329;fill:color(display-p3 0.2640 0.6400 0.1600);fill-opacity:1;"/>
<path d="M194.919 320.878V322.339C195.692 322.296 196.474 322.23 197.209 322.122L197.275 322.782C195.362 323.13 193.317 323.149 191.809 323.149L191.696 322.414C192.375 322.409 193.176 322.405 194.024 322.376V320.878H194.919ZM196.814 317.466V318.192H194.919C194.966 319.181 195.767 320.039 197.03 320.378L196.616 321.076C195.607 320.788 194.853 320.176 194.476 319.37C194.104 320.218 193.364 320.859 192.346 321.151L191.922 320.473C193.18 320.115 193.972 319.229 194.014 318.192H192.148V317.466H194.024V316.458H194.919V317.466H196.814ZM198.633 316.392V324.855H197.737V316.392H198.633ZM204.278 319.398V320.539H207.69V321.274H199.99V320.539H203.392V319.398H204.278ZM203.835 321.886C205.663 321.886 206.747 322.405 206.747 323.357C206.747 324.299 205.663 324.827 203.835 324.817C201.997 324.827 200.904 324.299 200.904 323.357C200.904 322.405 201.997 321.886 203.835 321.886ZM203.835 322.574C202.534 322.574 201.809 322.848 201.809 323.357C201.809 323.866 202.534 324.139 203.835 324.139C205.117 324.139 205.852 323.866 205.852 323.357C205.852 322.848 205.117 322.574 203.835 322.574ZM207.002 316.778V317.494H204.438C204.565 318.3 205.762 318.984 207.294 319.134L206.973 319.841C205.503 319.672 204.297 319.068 203.835 318.173C203.373 319.068 202.167 319.672 200.706 319.841L200.386 319.134C201.908 318.984 203.105 318.31 203.232 317.494H200.697V316.778H207.002ZM218.415 323.046V323.79H210.687V323.046H214.089V321.311H211.573V316.967H212.468V318.418H216.615V316.967H217.501V321.311H214.975V323.046H218.415ZM212.468 320.586H216.615V319.144H212.468V320.586ZM226.746 321.161V321.896H224.786V324.836H223.881V321.896H221.864V324.836H220.941V321.896H219.018V321.161H226.746ZM222.863 316.712C224.645 316.712 225.87 317.438 225.87 318.578C225.87 319.7 224.645 320.416 222.863 320.407C221.073 320.416 219.857 319.7 219.857 318.578C219.857 317.438 221.073 316.712 222.863 316.712ZM222.863 317.428C221.61 317.438 220.771 317.871 220.78 318.578C220.771 319.266 221.61 319.7 222.863 319.7C224.117 319.7 224.956 319.266 224.956 318.578C224.956 317.871 224.117 317.438 222.863 317.428Z" fill="#5E6573" style="fill:#5E6573;fill:color(display-p3 0.3676 0.3959 0.4524);fill-opacity:1;"/>
<path d="M230.742 324.035V323.023L233.499 320.362C234.286 319.576 234.695 319.113 234.695 318.456C234.695 317.734 234.124 317.271 233.359 317.271C232.551 317.271 232.034 317.777 232.045 318.563H230.71C230.699 317.088 231.808 316.129 233.37 316.129C234.964 316.129 236.041 317.077 236.041 318.391C236.041 319.274 235.61 319.985 234.081 321.429L232.692 322.807V322.861H236.16V324.035H230.742Z" fill="#1A1C20" style="fill:#1A1C20;fill:color(display-p3 0.1020 0.1098 0.1255);fill-opacity:1;"/>
<path d="M247.864 321.151V321.877H244.434V324.827H243.557V321.877H240.165V321.151H247.864ZM247.139 316.891V317.608H244.528C244.542 318.654 245.843 319.587 247.44 319.803L247.11 320.51C245.725 320.294 244.528 319.61 244.019 318.644C243.496 319.61 242.304 320.294 240.937 320.51L240.598 319.803C242.177 319.587 243.477 318.654 243.51 317.608H240.881V316.891H247.139Z" fill="#5E6573" style="fill:#5E6573;fill:color(display-p3 0.3676 0.3959 0.4524);fill-opacity:1;"/>
<path d="M24.7971 352.259V358.107H23.9004V353.147H23.8681L22.4706 354.06V353.212L23.9247 352.259H24.7971ZM32.633 355.635V356.257H29.6926V358.786H28.9413V356.257H26.0331V355.635H32.633ZM32.011 351.984V352.598H29.7733C29.7855 353.495 30.9003 354.294 32.2695 354.48L31.9868 355.086C30.7993 354.9 29.7733 354.315 29.3371 353.487C28.8888 354.315 27.8669 354.9 26.6955 355.086L26.4047 354.48C27.7578 354.294 28.8726 353.495 28.9009 352.598H26.647V351.984H32.011ZM40.8971 351.556V353.39H41.9392V354.02H40.8971V355.829H40.1216V351.556H40.8971ZM38.5544 355.967C40.0327 355.967 40.9537 356.484 40.9537 357.372C40.9537 358.261 40.0327 358.786 38.5544 358.778C37.0599 358.786 36.1229 358.261 36.1229 357.372C36.1229 356.484 37.0599 355.967 38.5544 355.967ZM38.5544 356.589C37.5042 356.581 36.8741 356.871 36.8822 357.372C36.8741 357.873 37.5042 358.164 38.5544 358.164C39.5804 358.164 40.2105 357.873 40.2185 357.372C40.2105 356.871 39.5804 356.581 38.5544 356.589ZM38.7402 352.089V352.711H36.2683V354.682C37.6941 354.678 38.4979 354.634 39.4107 354.448L39.4834 355.07C38.514 355.272 37.6497 355.304 36.0825 355.304H35.5089V352.089H38.7402Z" fill="#5E6573" style="fill:#5E6573;fill:color(display-p3 0.3676 0.3959 0.4524);fill-opacity:1;"/>
<path d="M49.4098 350.284V357.107H48.3637V351.321H48.326L46.6955 352.386V351.396L48.3919 350.284H49.4098ZM51.1439 357.107V356.353L53.5095 353.969C54.2541 353.187 54.6311 352.753 54.6311 352.159C54.6311 351.49 54.0844 351.057 53.3681 351.057C52.6142 351.057 52.1241 351.537 52.1241 352.263H51.1439C51.1345 351.019 52.0864 350.19 53.387 350.19C54.7064 350.19 55.6112 351.019 55.6206 352.131C55.6112 352.895 55.2531 353.498 53.9713 354.761L52.5859 356.165V356.222H55.7337V357.107H51.1439ZM59.3057 357.202C57.892 357.202 56.8835 356.438 56.8458 355.326H57.9014C57.9391 355.929 58.5329 356.306 59.2963 356.306C60.1162 356.306 60.7194 355.854 60.7194 355.194C60.7194 354.525 60.1539 354.035 59.1832 354.035H58.5988V353.187H59.1832C59.956 353.187 60.5026 352.753 60.5026 352.103C60.5026 351.481 60.0408 351.057 59.3151 351.057C58.6271 351.057 58.0239 351.434 57.9957 352.056H56.9966C57.0249 350.944 58.0522 350.19 59.3245 350.19C60.6628 350.19 61.511 351.038 61.5016 352.046C61.511 352.819 61.0304 353.385 60.2953 353.564V353.611C61.2283 353.743 61.7655 354.365 61.7655 355.232C61.7655 356.372 60.7194 357.202 59.3057 357.202ZM63.9238 356.457L63.1698 359.058H62.3687L62.8682 356.457H63.9238ZM65.1301 355.779V354.94L68.146 350.284H69.4277V354.902H70.3608V355.779H69.4277V357.107H68.4476V355.779H65.1301ZM66.2234 354.902H68.4476V351.519H68.3722L66.2234 354.846V354.902ZM73.7254 357.202C72.4342 357.202 71.4635 356.41 71.4163 355.326H72.4248C72.4813 355.91 73.0374 356.335 73.7254 356.335C74.5548 356.335 75.1485 355.731 75.1485 354.921C75.1485 354.092 74.5359 353.488 73.6783 353.479C73.1316 353.479 72.7169 353.658 72.4813 354.082H71.5012L71.9441 350.284H75.8082V351.17H72.8018L72.5756 353.083H72.6415C72.9243 352.81 73.4049 352.621 73.9233 352.621C75.2051 352.621 76.1569 353.573 76.1569 354.893C76.1569 356.24 75.1485 357.202 73.7254 357.202ZM79.7289 357.202C78.466 357.192 77.1465 356.448 77.1465 353.922C77.1465 351.547 78.1738 350.19 79.8137 350.19C81.0672 350.19 81.9437 350.972 82.1039 352.056H81.0766C80.9447 351.5 80.5017 351.094 79.8137 351.094C78.7581 351.094 78.1455 352.018 78.1455 353.554H78.2209C78.5885 352.979 79.2294 352.631 79.9739 352.631C81.1897 352.631 82.1699 353.564 82.1699 354.874C82.1699 356.193 81.1991 357.211 79.7289 357.202ZM79.7195 356.335C80.5488 356.335 81.1614 355.694 81.1614 354.893C81.1614 354.11 80.5677 353.479 79.7477 353.479C78.9089 353.479 78.2775 354.139 78.2681 354.902C78.2775 355.656 78.8807 356.335 79.7195 356.335ZM84.1867 356.457L83.4328 359.058H82.6317L83.1312 356.457H84.1867ZM85.6004 357.107L88.6446 351.226V351.17H85.1292V350.284H89.719V351.208L86.6843 357.107H85.6004ZM93.0176 357.202C91.538 357.202 90.5013 356.401 90.5107 355.288C90.5013 354.412 91.1327 353.696 91.9338 353.573V353.535C91.2364 353.375 90.7651 352.753 90.7651 352.009C90.7651 350.963 91.717 350.19 93.0176 350.19C94.3088 350.19 95.2513 350.963 95.2607 352.009C95.2513 352.753 94.78 353.375 94.092 353.535V353.573C94.8837 353.696 95.5152 354.412 95.5246 355.288C95.5152 356.401 94.4785 357.202 93.0176 357.202ZM93.0176 356.344C93.9036 356.344 94.469 355.882 94.469 355.213C94.469 354.506 93.8564 353.997 93.0176 353.997C92.1694 353.997 91.5474 354.506 91.5662 355.213C91.5474 355.882 92.1129 356.344 93.0176 356.344ZM93.0176 353.177C93.7339 353.177 94.2428 352.744 94.2428 352.103C94.2428 351.471 93.7433 351.038 93.0176 351.038C92.2637 351.038 91.7736 351.462 91.7736 352.103C91.7736 352.744 92.2919 353.177 93.0176 353.177ZM98.9457 350.19C100.199 350.199 101.519 350.953 101.519 353.451C101.519 355.845 100.491 357.202 98.8515 357.202C97.598 357.202 96.7121 356.429 96.5519 355.317H97.5792C97.7205 355.892 98.1635 356.297 98.8515 356.297C99.9071 356.297 100.52 355.373 100.529 353.818H100.444C100.077 354.393 99.4358 354.742 98.7007 354.742C97.4755 354.742 96.4953 353.809 96.4953 352.499C96.4953 351.198 97.4661 350.18 98.9457 350.19ZM98.9457 351.057C98.1164 351.057 97.5038 351.698 97.5038 352.48C97.5038 353.272 98.0975 353.894 98.9269 353.894C99.7468 353.894 100.388 353.224 100.388 352.47C100.388 351.735 99.7845 351.057 98.9457 351.057Z" fill="#5E6573" style="fill:#5E6573;fill:color(display-p3 0.3676 0.3959 0.4524);fill-opacity:1;"/>
<path d="M109.806 351.588V357.041H109.168V356.298H107.681V355.837H109.168V351.588H109.806ZM109.984 358.075V358.608H104.878V356.508H105.516V358.075H109.984ZM103.844 354.917C105.185 354.908 106.979 354.9 108.521 354.706L108.562 355.167C107.92 355.268 107.249 355.333 106.591 355.369V356.791H105.953V355.401C105.226 355.434 104.535 355.438 103.933 355.434L103.844 354.917ZM106.203 351.879C107.253 351.879 107.972 352.38 107.98 353.131C107.972 353.899 107.253 354.375 106.203 354.375C105.145 354.375 104.426 353.899 104.426 353.131C104.426 352.38 105.145 351.879 106.203 351.879ZM106.203 352.364C105.5 352.356 105.024 352.671 105.032 353.131C105.024 353.6 105.5 353.907 106.203 353.907C106.882 353.907 107.366 353.6 107.374 353.131C107.366 352.671 106.882 352.356 106.203 352.364Z" fill="#5E6573" style="fill:#5E6573;fill:color(display-p3 0.3676 0.3959 0.4524);fill-opacity:1;"/>
<path d="M156.273 356.764V357.386H149.673V356.764H152.589V355.932H153.348V356.764H156.273ZM153.348 353.048V353.743H155.61V354.357H153.397C153.478 355.055 154.479 355.58 155.917 355.698L155.683 356.287C154.431 356.17 153.417 355.75 152.969 355.076C152.516 355.75 151.503 356.17 150.263 356.287L150.02 355.698C151.45 355.58 152.452 355.055 152.541 354.357H150.335V353.743H152.589V353.048H153.348ZM152.969 357.863C154.544 357.863 155.465 358.291 155.465 359.074C155.465 359.858 154.544 360.286 152.969 360.278C151.385 360.286 150.456 359.858 150.456 359.074C150.456 358.291 151.385 357.863 152.969 357.863ZM152.969 358.436C151.854 358.436 151.232 358.662 151.232 359.074C151.232 359.486 151.854 359.704 152.969 359.696C154.067 359.704 154.698 359.486 154.698 359.074C154.698 358.662 154.067 358.436 152.969 358.436ZM164.529 353.056V354.874H165.579V355.52H164.529V357.273H163.761V353.056H164.529ZM160.659 357.572V358.275H163.761V357.572H164.529V360.205H159.9V357.572H160.659ZM160.659 359.591H163.761V358.872H160.659V359.591ZM163.164 353.767V354.381H158.85V353.767H160.627V352.991H161.394V353.767H163.164ZM161.007 354.68C162.049 354.68 162.76 355.172 162.76 355.948C162.76 356.715 162.049 357.224 161.007 357.216C159.948 357.224 159.246 356.715 159.246 355.948C159.246 355.172 159.948 354.68 161.007 354.68ZM161.007 355.253C160.393 355.245 159.981 355.528 159.989 355.948C159.981 356.376 160.393 356.651 161.007 356.651C161.621 356.651 162.033 356.376 162.041 355.948C162.033 355.528 161.621 355.245 161.007 355.253ZM172.211 353.056V360.294H171.484V353.056H172.211ZM170.733 353.242V359.939H170.006V357.475H168.77V356.845H170.006V355.665H168.891C168.54 356.881 167.768 357.935 166.403 358.751L165.951 358.202C167.485 357.289 168.225 356.073 168.358 354.583H166.306V353.953H169.117C169.117 354.324 169.089 354.684 169.028 355.035H170.006V353.242H170.733Z" fill="#5E6573" style="fill:#5E6573;fill:color(display-p3 0.3676 0.3959 0.4524);fill-opacity:1;"/>
<path d="M179.815 349.809V357.607H178.62V350.994H178.577L176.713 352.211V351.08L178.652 349.809H179.815ZM181.797 357.607V356.746L184.501 354.021C185.352 353.127 185.783 352.631 185.783 351.953C185.783 351.188 185.158 350.692 184.339 350.692C183.478 350.692 182.917 351.242 182.917 352.071H181.797C181.787 350.649 182.874 349.701 184.361 349.701C185.869 349.701 186.903 350.649 186.914 351.92C186.903 352.793 186.493 353.482 185.029 354.925L183.445 356.53V356.595H187.043V357.607H181.797ZM191.125 357.715C189.509 357.715 188.357 356.843 188.314 355.572H189.52C189.563 356.261 190.242 356.692 191.114 356.692C192.051 356.692 192.741 356.175 192.741 355.421C192.741 354.656 192.094 354.096 190.985 354.096H190.317V353.127H190.985C191.868 353.127 192.493 352.631 192.493 351.888C192.493 351.177 191.965 350.692 191.136 350.692C190.349 350.692 189.66 351.123 189.628 351.834H188.486C188.518 350.563 189.692 349.701 191.147 349.701C192.676 349.701 193.645 350.671 193.635 351.823C193.645 352.707 193.096 353.353 192.256 353.558V353.611C193.322 353.762 193.936 354.473 193.936 355.464C193.936 356.767 192.741 357.715 191.125 357.715ZM196.403 356.864L195.541 359.837H194.626L195.196 356.864H196.403ZM197.782 356.089V355.13L201.228 349.809H202.693V355.087H203.759V356.089H202.693V357.607H201.573V356.089H197.782ZM199.031 355.087H201.573V351.22H201.487L199.031 355.022V355.087ZM207.605 357.715C206.129 357.715 205.02 356.81 204.966 355.572H206.118C206.183 356.24 206.818 356.724 207.605 356.724C208.553 356.724 209.231 356.035 209.231 355.109C209.231 354.161 208.531 353.471 207.551 353.461C206.926 353.461 206.452 353.665 206.183 354.15H205.063L205.569 349.809H209.985V350.822H206.549L206.291 353.008H206.366C206.689 352.696 207.238 352.48 207.831 352.48C209.296 352.48 210.384 353.568 210.384 355.076C210.384 356.616 209.231 357.715 207.605 357.715ZM214.466 357.715C213.023 357.704 211.515 356.853 211.515 353.967C211.515 351.253 212.689 349.701 214.563 349.701C215.995 349.701 216.997 350.595 217.18 351.834H216.006C215.855 351.199 215.349 350.736 214.563 350.736C213.356 350.736 212.656 351.791 212.656 353.547H212.742C213.163 352.89 213.895 352.491 214.746 352.491C216.135 352.491 217.256 353.558 217.256 355.055C217.256 356.563 216.146 357.726 214.466 357.715ZM214.455 356.724C215.403 356.724 216.103 355.992 216.103 355.076C216.103 354.182 215.424 353.461 214.487 353.461C213.529 353.461 212.807 354.215 212.796 355.087C212.807 355.949 213.496 356.724 214.455 356.724ZM219.561 356.864L218.699 359.837H217.783L218.354 356.864H219.561ZM221.176 357.607L224.655 350.886V350.822H220.638V349.809H225.883V350.865L222.415 357.607H221.176ZM229.653 357.715C227.962 357.715 226.777 356.8 226.788 355.529C226.777 354.527 227.499 353.708 228.414 353.568V353.525C227.617 353.342 227.079 352.631 227.079 351.78C227.079 350.585 228.167 349.701 229.653 349.701C231.129 349.701 232.206 350.585 232.216 351.78C232.206 352.631 231.667 353.342 230.881 353.525V353.568C231.786 353.708 232.507 354.527 232.518 355.529C232.507 356.8 231.322 357.715 229.653 357.715ZM229.653 356.735C230.665 356.735 231.312 356.207 231.312 355.442C231.312 354.635 230.612 354.053 229.653 354.053C228.684 354.053 227.973 354.635 227.994 355.442C227.973 356.207 228.619 356.735 229.653 356.735ZM229.653 353.116C230.472 353.116 231.053 352.62 231.053 351.888C231.053 351.166 230.482 350.671 229.653 350.671C228.791 350.671 228.231 351.156 228.231 351.888C228.231 352.62 228.824 353.116 229.653 353.116ZM236.428 349.701C237.86 349.712 239.368 350.574 239.368 353.428C239.368 356.164 238.194 357.715 236.32 357.715C234.888 357.715 233.875 356.832 233.692 355.561H234.866C235.028 356.218 235.534 356.681 236.32 356.681C237.527 356.681 238.227 355.626 238.237 353.848H238.141C237.72 354.505 236.988 354.904 236.148 354.904C234.748 354.904 233.627 353.838 233.627 352.34C233.627 350.854 234.737 349.691 236.428 349.701ZM236.428 350.692C235.48 350.692 234.78 351.425 234.78 352.319C234.78 353.224 235.459 353.935 236.406 353.935C237.343 353.935 238.076 353.17 238.076 352.308C238.076 351.468 237.387 350.692 236.428 350.692Z" fill="black" style="fill:black;fill-opacity:1;"/>
<path d="M247.066 353.088V358.541H246.428V357.798H244.941V357.337H246.428V353.088H247.066ZM247.243 359.575V360.108H242.138V358.008H242.776V359.575H247.243ZM241.104 356.417C242.445 356.408 244.238 356.4 245.781 356.206L245.822 356.667C245.179 356.768 244.509 356.833 243.851 356.869V358.291H243.212V356.901C242.485 356.934 241.795 356.938 241.193 356.934L241.104 356.417ZM243.463 353.379C244.513 353.379 245.232 353.88 245.24 354.631C245.232 355.399 244.513 355.875 243.463 355.875C242.405 355.875 241.686 355.399 241.686 354.631C241.686 353.88 242.405 353.379 243.463 353.379ZM243.463 353.864C242.76 353.856 242.283 354.171 242.291 354.631C242.283 355.1 242.76 355.407 243.463 355.407C244.141 355.407 244.626 355.1 244.634 354.631C244.626 354.171 244.141 353.856 243.463 353.864Z" fill="#5E6573" style="fill:#5E6573;fill:color(display-p3 0.3676 0.3959 0.4524);fill-opacity:1;"/>
</g>
<defs>
<filter id="filter0_d_4819_34258" x="2.34354" y="226.314" width="267.604" height="160.608" filterUnits="userSpaceOnUse" color-interpolation-filters="sRGB">
<feFlood flood-opacity="0" result="BackgroundImageFix"/>
<feColorMatrix in="SourceAlpha" type="matrix" values="0 0 0 0 0 0 0 0 0 0 0 0 0 0 0 0 0 0 127 0" result="hardAlpha"/>
<feOffset dx="0.689345" dy="1.37869"/>
<feGaussianBlur stdDeviation="4.68755"/>
<feComposite in2="hardAlpha" operator="out"/>
<feColorMatrix type="matrix" values="0 0 0 0 0 0 0 0 0 0 0 0 0 0 0 0 0 0 0.1 0"/>
<feBlend mode="normal" in2="BackgroundImageFix" result="effect1_dropShadow_4819_34258"/>
<feBlend mode="normal" in="SourceGraphic" in2="effect1_dropShadow_4819_34258" result="shape"/>
</filter>
</defs>
</svg>
