<svg width="393" height="852" viewBox="0 0 393 852" fill="none" xmlns="http://www.w3.org/2000/svg">
<rect width="393" height="852" fill="#3490FF" style="fill:#3490FF;fill:color(display-p3 0.2057 0.5631 1.0000);fill-opacity:1;"/>
<path d="M125.498 359.974C125.498 367.14 131.318 372.949 138.498 372.949C145.678 372.949 151.498 367.14 151.498 359.974C151.498 352.809 145.678 347 138.498 347C131.318 347 125.498 352.809 125.498 359.974ZM125.498 359.974V386" stroke="white" style="stroke:white;stroke-opacity:1;" stroke-width="4"/>
<path d="M206.498 359.974C206.498 367.14 212.318 372.949 219.498 372.949C226.678 372.949 232.498 367.14 232.498 359.974C232.498 352.809 226.678 347 219.498 347C212.318 347 206.498 352.809 206.498 359.974ZM206.498 359.974V386" stroke="white" style="stroke:white;stroke-opacity:1;" stroke-width="4"/>
<path d="M196.498 375L196.498 357.5C196.498 351.149 191.349 346 184.998 346C178.647 346 173.498 351.149 173.498 357.5L173.498 375" stroke="white" style="stroke:white;stroke-opacity:1;" stroke-width="4"/>
<path d="M161.545 345L161.453 375" stroke="white" style="stroke:white;stroke-opacity:1;" stroke-width="4"/>
<path d="M161.498 335C163.155 335 164.498 336.343 164.498 338C164.498 339.657 163.155 341 161.498 341C159.841 341 158.498 339.657 158.498 338C158.498 336.343 159.841 335 161.498 335Z" fill="white" style="fill:white;fill-opacity:1;"/>
<path d="M243.541 345L243.449 375" stroke="white" style="stroke:white;stroke-opacity:1;" stroke-width="4"/>
<path d="M243.498 335C245.155 335 246.498 336.343 246.498 338C246.498 339.657 245.155 341 243.498 341C241.841 341 240.498 339.657 240.498 338C240.498 336.343 241.841 335 243.498 335Z" fill="white" style="fill:white;fill-opacity:1;"/>
<path d="M255.496 335L255.496 366C255.496 369.866 258.63 373 262.496 373L267.498 373" stroke="white" style="stroke:white;stroke-opacity:1;" stroke-width="4"/>
<path d="M267.502 350H254.499" stroke="white" style="stroke:white;stroke-opacity:1;" stroke-width="4"/>
<path opacity="0.61" d="M107.66 415.93V417.473H91.6445V415.93H98.6953V411.887H93.4805V403.566H105.746V411.887H100.531V415.93H107.66ZM95.2773 405.051V410.422H103.93V405.051H95.2773ZM122.953 408.605V410.07H111.078V403.156H122.738V404.66H112.953V408.605H122.953ZM124.926 412.199V413.703H117.777V419.621H115.961V413.703H108.91V412.199H124.926ZM142.211 410.188V411.613H126.195V410.188H142.211ZM140.238 412.844V416.691H129.965V418.137H140.785V419.445H128.109V415.461H138.402V414.172H128.09V412.844H140.238ZM140.199 402.609V406.398H130.082V407.727H140.492V409.035H128.246V405.168H138.344V403.918H128.207V402.609H140.199ZM154.125 402.961C156.762 402.961 158.676 404.426 158.676 406.594C158.676 408.742 156.762 410.227 154.125 410.207C151.488 410.227 149.613 408.742 149.613 406.594C149.613 404.426 151.488 402.961 154.125 402.961ZM154.125 404.465C152.543 404.465 151.391 405.305 151.41 406.594C151.391 407.863 152.543 408.703 154.125 408.684C155.746 408.703 156.898 407.863 156.898 406.594C156.898 405.305 155.746 404.465 154.125 404.465ZM162.934 402.18V419.66H161.098V402.18H162.934ZM148.363 411.574C151.586 411.574 156.059 411.496 159.887 410.93L160.023 412.316C158.432 412.619 156.771 412.805 155.16 412.922V419.113H153.305V413.02C151.605 413.098 150.004 413.107 148.617 413.117L148.363 411.574ZM179.418 402.18V407.805H181.957V409.348H179.418V415.266H177.562V402.18H179.418ZM176.117 404.211V405.715H165.688V404.211H169.984V402.16H171.84V404.211H176.117ZM170.902 406.555C173.422 406.555 175.141 407.863 175.141 409.855C175.141 411.848 173.422 413.137 170.902 413.137C168.363 413.137 166.645 411.848 166.645 409.855C166.645 407.863 168.363 406.555 170.902 406.555ZM170.902 407.98C169.418 407.98 168.422 408.703 168.441 409.855C168.422 410.988 169.418 411.691 170.902 411.691C172.387 411.691 173.383 410.988 173.402 409.855C173.383 408.703 172.387 407.98 170.902 407.98ZM180.16 417.785V419.289H168.324V414.23H170.18V417.785H180.16ZM188.637 418V403.859H197.504V405.715H190.785V409.992H197.035V411.828H190.785V416.145H197.582V418H188.637ZM199.438 405.715V403.859H210.395V405.715H206V418H203.852V405.715H199.438ZM212.582 418V403.859H221.352V405.715H214.73V409.992H220.727V411.828H214.73V418H212.582ZM243.832 412.668V414.191H236.723V419.66H234.887V414.191H227.816V412.668H243.832ZM242.055 409.562V411.047H229.926V402.941H241.859V404.426H231.742V406.223H241.469V407.668H231.742V409.562H242.055ZM251.215 407.316C251.215 410.09 253.031 413.176 255.688 414.426L254.633 415.871C252.67 414.924 251.117 412.951 250.336 410.656C249.525 413.166 247.885 415.324 245.883 416.32L244.789 414.855C247.445 413.586 249.379 410.285 249.379 407.316V405.461H245.434V403.918H255.023V405.461H251.215V407.316ZM258.754 402.16V409.094H261.566V410.656H258.754V419.66H256.898V402.16H258.754ZM281.879 402.18V412.531H280.023V410.402H275.609V408.879H280.023V406.75H275.785C274.662 409.562 272.035 411.545 268.246 412.629L267.504 411.184C271.645 409.992 274.066 407.775 274.398 404.953H268.402V403.43H276.41C276.41 404.074 276.342 404.699 276.234 405.285H280.023V402.18H281.879ZM276.117 412.727C279.652 412.727 281.977 414.016 281.996 416.145C281.977 418.273 279.652 419.582 276.117 419.582C272.523 419.582 270.219 418.273 270.219 416.145C270.219 414.016 272.523 412.727 276.117 412.727ZM276.117 414.191C273.617 414.191 272.055 414.895 272.055 416.145C272.055 417.375 273.617 418.098 276.117 418.098C278.578 418.098 280.121 417.375 280.141 416.145C280.121 414.895 278.578 414.191 276.117 414.191ZM299.164 402.16V412.766H297.309V408.957H294.574V407.414H297.309V402.16H299.164ZM299.164 413.625V419.445H287.621V413.625H299.164ZM289.457 415.09V417.941H297.348V415.09H289.457ZM294.848 403.898V405.383H284.594V403.898H288.812V402.004H290.648V403.898H294.848ZM289.73 406.184C292.133 406.184 293.832 407.473 293.832 409.309C293.832 411.203 292.133 412.434 289.73 412.453C287.328 412.434 285.609 411.203 285.609 409.309C285.609 407.473 287.328 406.184 289.73 406.184ZM289.73 407.609C288.324 407.59 287.387 408.273 287.387 409.309C287.387 410.383 288.324 411.047 289.73 411.047C291.117 411.047 292.055 410.383 292.055 409.309C292.055 408.273 291.117 407.59 289.73 407.609Z" fill="white" style="fill:white;fill-opacity:1;"/>
<path d="M154.188 756.328V770.359H152.719V762.719H149.938V761.5H152.719V756.328H154.188ZM149.703 757.578V758.781H144.656V761.5H149.109V762.688H144.656V765.812C147 765.805 148.625 765.75 150.484 765.422L150.641 766.625C148.609 766.953 146.844 767.031 144.25 767.047H143.156V757.578H149.703ZM167.938 756.328V770.328H166.453V756.328H167.938ZM161.609 760.828C161.609 763.062 163.094 765.344 165.266 766.266L164.453 767.406C162.844 766.703 161.555 765.25 160.906 763.484C160.273 765.352 159.008 766.906 157.375 767.641L156.547 766.5C158.719 765.531 160.156 763.172 160.156 760.828V759.906H156.969V758.719H160.141V756.609H161.609V758.719H164.75V759.906H161.609V760.828ZM182.984 767.406V768.656H170.172V767.406H175.812V764.953H171.734V760.5H179.953V758.531H171.703V757.312H181.422V761.688H173.203V763.734H181.75V764.953H177.281V767.406H182.984ZM193.047 759.891C193.031 762.453 194.578 765.016 196.75 765.984L195.859 767.156C194.25 766.391 192.977 764.82 192.328 762.906C191.672 764.953 190.383 766.648 188.703 767.469L187.797 766.219C190 765.234 191.547 762.562 191.547 759.891V757.5H193.047V759.891ZM199.5 756.328V770.359H198.016V756.328H199.5ZM206.625 758.844C206.625 760.625 207.859 762.328 210 763.047L209.25 764.203C207.664 763.656 206.5 762.562 205.891 761.188C205.281 762.703 204.07 763.891 202.422 764.469L201.625 763.312C203.812 762.562 205.125 760.766 205.141 758.828V758.453H202.062V757.25H209.641V758.453H206.625V758.844ZM212.734 756.328V759.922H214.766V761.172H212.734V764.766H211.25V756.328H212.734ZM212.734 765.453V770.328H211.25V766.656H203.484V765.453H212.734ZM226.469 756.328V762H228.719V763.234H226.469V770.328H225V756.328H226.469ZM223.781 758.516V759.734H215.484V758.516H218.938V756.516H220.422V758.516H223.781ZM219.688 760.766C221.688 760.766 223.156 762.109 223.172 764.016C223.156 765.938 221.688 767.266 219.688 767.281C217.672 767.266 216.203 765.938 216.203 764.016C216.203 762.109 217.672 760.766 219.688 760.766ZM219.688 761.984C218.5 761.984 217.609 762.812 217.625 764.016C217.609 765.234 218.5 766.047 219.688 766.031C220.875 766.047 221.75 765.234 221.75 764.016C221.75 762.812 220.875 761.984 219.688 761.984ZM241.031 756.328V770.328H239.531V756.328H241.031ZM236.859 757.828C236.859 761.922 235.109 765.484 230.312 767.781L229.531 766.578C233.258 764.805 235.07 762.281 235.359 759.016H230.203V757.828H236.859Z" fill="white" style="fill:white;fill-opacity:1;"/>
</svg>
