<svg width="26" height="26" viewBox="0 0 26 26" fill="none" xmlns="http://www.w3.org/2000/svg">
<rect x="4.3335" y="14.084" width="17.3333" height="5.41667" fill="#CACDD4" style="fill:#CACDD4;fill:color(display-p3 0.7903 0.8034 0.8297);fill-opacity:1;"/>
<path d="M7.69859 6.38823L6.94254 7.76954L4.75625 12.3308C4.38903 13.097 4.2568 13.9547 4.37623 14.7958C4.5332 15.9014 5.21069 17.5473 6.1127 18.5197C6.58583 19.0298 7.3037 19.1641 7.9994 19.1641C8.6951 19.1641 9.37565 19.3388 10.0338 19.5642C10.7418 19.8066 11.4785 19.9604 12.227 20.0212L13.6646 20.138C15.3519 20.275 17.0346 19.8241 18.4273 18.8617L18.5255 18.7938C19.6525 18.015 20.5238 16.92 21.0296 15.6468L21.509 14.4399C22.0659 13.0377 21.8853 11.4499 21.0275 10.2087L20.697 9.7303C20.0431 8.78415 18.9586 8.2287 17.8088 8.25107L17.3896 8.25923C16.1934 8.2825 15.1115 7.55205 14.6859 6.43386C14.4107 5.71087 13.8519 5.13179 13.1392 4.83099L12.6997 4.6455C10.8325 3.8574 8.6717 4.61035 7.69859 6.38823Z" fill="#005CCC" style="fill:#005CCC;fill:color(display-p3 0.0000 0.3600 0.8000);fill-opacity:1;"/>
<path d="M8.44629 5.34766C9.04612 5.15607 9.68816 5.4871 9.87988 6.08691C10.0715 6.68674 9.74043 7.32875 9.14062 7.52051L8.95605 7.5791C10.0386 8.78997 13.4163 11.3316 15.8184 13.1455C16.903 13.9647 16.9478 15.4933 15.7578 16.1504C14.4801 16.8559 12.6899 17.6123 10.4268 18.1152C6.38477 19.013 5.328 11.8779 5.84082 8.57422L4.7959 8.90918C4.196 9.10093 3.55405 8.76982 3.3623 8.16992C3.1706 7.57004 3.50168 6.92807 4.10156 6.73633L8.44629 5.34766Z" fill="#66ABFF" style="fill:#66ABFF;fill:color(display-p3 0.4000 0.6700 1.0000);fill-opacity:1;"/>
<path d="M16.2808 5.29297C16.6455 5.29297 16.9165 5.63122 16.8374 5.9873L16.6323 6.9082C16.6709 6.88928 16.7095 6.86958 16.7466 6.84766C19.2699 5.35791 21.5532 8.1608 21.5532 10.9844C21.5531 14.1394 19 16.6973 15.8511 16.6973C12.7022 16.6972 10.149 14.1393 10.1489 10.9844C10.1489 8.16084 12.4324 5.35806 14.9556 6.84766C14.9924 6.86942 15.0306 6.88939 15.0688 6.9082L14.8647 5.9873C14.7856 5.63131 15.0567 5.29313 15.4214 5.29297H16.2808Z" fill="url(#paint0_linear_4066_17362)" style=""/>
<path d="M22.75 10.834C23.3482 10.834 23.8338 11.3188 23.834 11.917C23.834 12.5153 23.3483 13.001 22.75 13.001H22.5723L21.6475 21.1611C21.6148 21.4494 21.3711 21.668 21.0811 21.668H4.91797C4.62809 21.6678 4.3842 21.4492 4.35156 21.1611L3.42773 13.001H3.25C2.65184 13.0008 2.16699 12.5152 2.16699 11.917C2.16717 11.3189 2.65195 10.8342 3.25 10.834H22.75ZM7.80273 13.542C7.16491 13.5421 6.64751 14.0141 6.64746 14.5957V17.7559C6.64771 18.3373 7.16504 18.8085 7.80273 18.8086C8.4403 18.8084 8.95678 18.3372 8.95703 17.7559V14.5957C8.95698 14.0142 8.44042 13.5422 7.80273 13.542ZM13 13.542C12.3622 13.5421 11.8448 14.0141 11.8447 14.5957V17.7559C11.845 18.3373 12.3623 18.8085 13 18.8086C13.6378 18.8086 14.155 18.3374 14.1553 17.7559V14.5957C14.1552 14.014 13.6379 13.542 13 13.542ZM18.1982 13.542C17.5604 13.5421 17.043 14.0141 17.043 14.5957V17.7559C17.0432 18.3373 17.5605 18.8085 18.1982 18.8086C18.8358 18.8084 19.3523 18.3373 19.3525 17.7559V14.5957C19.3525 14.0142 18.836 13.5422 18.1982 13.542Z" fill="#E6E7EA" style="fill:#E6E7EA;fill:color(display-p3 0.9007 0.9069 0.9193);fill-opacity:1;"/>
<defs>
<linearGradient id="paint0_linear_4066_17362" x1="18.4173" y1="5.9574" x2="11.3752" y2="14.083" gradientUnits="userSpaceOnUse">
<stop stop-color="#3490FF" style="stop-color:#3490FF;stop-color:color(display-p3 0.2057 0.5631 1.0000);stop-opacity:1;"/>
<stop offset="1" stop-color="#E0EEFF" style="stop-color:#E0EEFF;stop-color:color(display-p3 0.8800 0.9340 1.0000);stop-opacity:1;"/>
</linearGradient>
</defs>
</svg>
