<svg width="24" height="24" viewBox="0 0 24 24" fill="none" xmlns="http://www.w3.org/2000/svg">
<path d="M5.48837 3.39977C7.44093 2.47753 9.8493 2.75641 12 4.74708C14.1507 2.75738 16.5591 2.47849 18.5116 3.4017C20.5721 4.37587 22 6.63773 22 9.24578C22 11.8086 20.9674 13.7647 19.6121 15.3418C18.5274 16.6035 17.1991 17.6614 16.027 18.5942C15.7603 18.8058 15.5042 19.0116 15.2586 19.2116C14.7814 19.6001 14.2707 20.0136 13.7516 20.3271C13.2335 20.6397 12.6419 20.8945 12 20.8945C11.3581 20.8945 10.7665 20.6406 10.2484 20.3271C9.73023 20.0136 9.21861 19.6001 8.7414 19.2116C8.49581 19.0116 8.23969 18.8058 7.97302 18.5942C6.8 17.6614 5.47256 16.6045 4.38791 15.3418C3.03256 13.7647 2 11.8086 2 9.24578C2 6.63773 3.42884 4.37587 5.48837 3.39977Z" fill="#ADB3BD" style="fill:#ADB3BD;fill:color(display-p3 0.6800 0.7000 0.7400);fill-opacity:1;"/>
</svg>
