<svg width="24" height="24" viewBox="0 0 24 24" fill="none" xmlns="http://www.w3.org/2000/svg">
<path d="M12.6976 2.69767C12.6976 2.31236 12.3852 2 11.9999 2C11.6146 2 11.3022 2.31236 11.3022 2.69767V11.3024H2.69767C2.31236 11.3024 2 11.6147 2 12C2 12.3854 2.31236 12.6977 2.69767 12.6977H11.3022V21.3023C11.3022 21.6876 11.6146 22 11.9999 22C12.3852 22 12.6976 21.6876 12.6976 21.3023V12.6977H21.3023C21.6876 12.6977 22 12.3854 22 12C22 11.6147 21.6876 11.3024 21.3023 11.3024H12.6976V2.69767Z" fill="#1A1C20" style="fill:#1A1C20;fill:color(display-p3 0.1020 0.1098 0.1255);fill-opacity:1;"/>
<path d="M12.6976 2.69767C12.6976 2.31236 12.3852 2 11.9999 2C11.6146 2 11.3022 2.31236 11.3022 2.69767V11.3024H2.69767C2.31236 11.3024 2 11.6147 2 12C2 12.3854 2.31236 12.6977 2.69767 12.6977H11.3022V21.3023C11.3022 21.6876 11.6146 22 11.9999 22C12.3852 22 12.6976 21.6876 12.6976 21.3023V12.6977H21.3023C21.6876 12.6977 22 12.3854 22 12C22 11.6147 21.6876 11.3024 21.3023 11.3024H12.6976V2.69767Z" fill="black" fill-opacity="0.2" style="fill:black;fill-opacity:0.2;"/>
<path d="M12.6976 2.69767C12.6976 2.31236 12.3852 2 11.9999 2C11.6146 2 11.3022 2.31236 11.3022 2.69767V11.3024H2.69767C2.31236 11.3024 2 11.6147 2 12C2 12.3854 2.31236 12.6977 2.69767 12.6977H11.3022V21.3023C11.3022 21.6876 11.6146 22 11.9999 22C12.3852 22 12.6976 21.6876 12.6976 21.3023V12.6977H21.3023C21.6876 12.6977 22 12.3854 22 12C22 11.6147 21.6876 11.3024 21.3023 11.3024H12.6976V2.69767Z" fill="black" fill-opacity="0.2" style="fill:black;fill-opacity:0.2;"/>
<path d="M12.6976 2.69767C12.6976 2.31236 12.3852 2 11.9999 2C11.6146 2 11.3022 2.31236 11.3022 2.69767V11.3024H2.69767C2.31236 11.3024 2 11.6147 2 12C2 12.3854 2.31236 12.6977 2.69767 12.6977H11.3022V21.3023C11.3022 21.6876 11.6146 22 11.9999 22C12.3852 22 12.6976 21.6876 12.6976 21.3023V12.6977H21.3023C21.6876 12.6977 22 12.3854 22 12C22 11.6147 21.6876 11.3024 21.3023 11.3024H12.6976V2.69767Z" fill="black" fill-opacity="0.2" style="fill:black;fill-opacity:0.2;"/>
<path d="M12.6976 2.69767C12.6976 2.31236 12.3852 2 11.9999 2C11.6146 2 11.3022 2.31236 11.3022 2.69767V11.3024H2.69767C2.31236 11.3024 2 11.6147 2 12C2 12.3854 2.31236 12.6977 2.69767 12.6977H11.3022V21.3023C11.3022 21.6876 11.6146 22 11.9999 22C12.3852 22 12.6976 21.6876 12.6976 21.3023V12.6977H21.3023C21.6876 12.6977 22 12.3854 22 12C22 11.6147 21.6876 11.3024 21.3023 11.3024H12.6976V2.69767Z" fill="black" fill-opacity="0.2" style="fill:black;fill-opacity:0.2;"/>
</svg>
