<svg width="24" height="24" viewBox="0 0 24 24" fill="none" xmlns="http://www.w3.org/2000/svg">
<path fill-rule="evenodd" clip-rule="evenodd" d="M12 2C17.5228 2 22 6.47715 22 12C22 17.5228 17.5228 22 12 22C6.47715 22 2 17.5228 2 12C2 6.47715 6.47715 2 12 2ZM12 3.5C7.30558 3.5 3.5 7.30558 3.5 12C3.5 16.6944 7.30558 20.5 12 20.5C16.6944 20.5 20.5 16.6944 20.5 12C20.5 7.30558 16.6944 3.5 12 3.5Z" fill="#FAFCFF" style="fill:#FAFCFF;fill:color(display-p3 0.9800 0.9890 1.0000);fill-opacity:1;"/>
<path fill-rule="evenodd" clip-rule="evenodd" d="M12 3.5C7.30558 3.5 3.5 7.30558 3.5 12C3.5 16.6944 7.30558 20.5 12 20.5C16.6944 20.5 20.5 16.6944 20.5 12C20.5 7.30558 16.6944 3.5 12 3.5ZM12.7891 7.78906C12.7888 7.35324 12.4359 7 12 7C11.5641 7 11.2112 7.35324 11.2109 7.78906V11.2109H7.78906C7.35324 11.2112 7 11.5641 7 12C7 12.4359 7.35324 12.7888 7.78906 12.7891H11.2109V16.2109C11.2112 16.6468 11.5641 17 12 17C12.4359 17 12.7888 16.6468 12.7891 16.2109V12.7891H16.2109C16.6468 12.7888 17 12.4359 17 12C17 11.5641 16.6468 11.2112 16.2109 11.2109H12.7891V7.78906Z" fill="#FAFCFF" style="fill:#FAFCFF;fill:color(display-p3 0.9800 0.9890 1.0000);fill-opacity:1;"/>
</svg>
