<svg width="24" height="24" viewBox="0 0 24 24" fill="none" xmlns="http://www.w3.org/2000/svg">
<path d="M4.24573 3.21373C3.96075 2.92876 3.49871 2.92876 3.21373 3.21373C2.92876 3.49871 2.92876 3.96075 3.21373 4.24573L10.968 12L3.21373 19.7543C2.92876 20.0393 2.92876 20.5013 3.21373 20.7863C3.49871 21.0712 3.96075 21.0712 4.24573 20.7863L12 13.032L19.7543 20.7863C20.0393 21.0712 20.5013 21.0712 20.7863 20.7863C21.0712 20.5013 21.0712 20.0393 20.7863 19.7543L13.032 12L20.7863 4.24573C21.0712 3.96075 21.0712 3.49871 20.7863 3.21373C20.5013 2.92876 20.0393 2.92876 19.7543 3.21373L12 10.968L4.24573 3.21373Z" fill="#1A1C20" style="fill:#1A1C20;fill:color(display-p3 0.1020 0.1098 0.1255);fill-opacity:1;"/>
<path d="M4.24573 3.21373C3.96075 2.92876 3.49871 2.92876 3.21373 3.21373C2.92876 3.49871 2.92876 3.96075 3.21373 4.24573L10.968 12L3.21373 19.7543C2.92876 20.0393 2.92876 20.5013 3.21373 20.7863C3.49871 21.0712 3.96075 21.0712 4.24573 20.7863L12 13.032L19.7543 20.7863C20.0393 21.0712 20.5013 21.0712 20.7863 20.7863C21.0712 20.5013 21.0712 20.0393 20.7863 19.7543L13.032 12L20.7863 4.24573C21.0712 3.96075 21.0712 3.49871 20.7863 3.21373C20.5013 2.92876 20.0393 2.92876 19.7543 3.21373L12 10.968L4.24573 3.21373Z" fill="black" fill-opacity="0.2" style="fill:black;fill-opacity:0.2;"/>
<path d="M4.24573 3.21373C3.96075 2.92876 3.49871 2.92876 3.21373 3.21373C2.92876 3.49871 2.92876 3.96075 3.21373 4.24573L10.968 12L3.21373 19.7543C2.92876 20.0393 2.92876 20.5013 3.21373 20.7863C3.49871 21.0712 3.96075 21.0712 4.24573 20.7863L12 13.032L19.7543 20.7863C20.0393 21.0712 20.5013 21.0712 20.7863 20.7863C21.0712 20.5013 21.0712 20.0393 20.7863 19.7543L13.032 12L20.7863 4.24573C21.0712 3.96075 21.0712 3.49871 20.7863 3.21373C20.5013 2.92876 20.0393 2.92876 19.7543 3.21373L12 10.968L4.24573 3.21373Z" fill="black" fill-opacity="0.2" style="fill:black;fill-opacity:0.2;"/>
<path d="M4.24573 3.21373C3.96075 2.92876 3.49871 2.92876 3.21373 3.21373C2.92876 3.49871 2.92876 3.96075 3.21373 4.24573L10.968 12L3.21373 19.7543C2.92876 20.0393 2.92876 20.5013 3.21373 20.7863C3.49871 21.0712 3.96075 21.0712 4.24573 20.7863L12 13.032L19.7543 20.7863C20.0393 21.0712 20.5013 21.0712 20.7863 20.7863C21.0712 20.5013 21.0712 20.0393 20.7863 19.7543L13.032 12L20.7863 4.24573C21.0712 3.96075 21.0712 3.49871 20.7863 3.21373C20.5013 2.92876 20.0393 2.92876 19.7543 3.21373L12 10.968L4.24573 3.21373Z" fill="black" fill-opacity="0.2" style="fill:black;fill-opacity:0.2;"/>
<path d="M4.24573 3.21373C3.96075 2.92876 3.49871 2.92876 3.21373 3.21373C2.92876 3.49871 2.92876 3.96075 3.21373 4.24573L10.968 12L3.21373 19.7543C2.92876 20.0393 2.92876 20.5013 3.21373 20.7863C3.49871 21.0712 3.96075 21.0712 4.24573 20.7863L12 13.032L19.7543 20.7863C20.0393 21.0712 20.5013 21.0712 20.7863 20.7863C21.0712 20.5013 21.0712 20.0393 20.7863 19.7543L13.032 12L20.7863 4.24573C21.0712 3.96075 21.0712 3.49871 20.7863 3.21373C20.5013 2.92876 20.0393 2.92876 19.7543 3.21373L12 10.968L4.24573 3.21373Z" fill="black" fill-opacity="0.2" style="fill:black;fill-opacity:0.2;"/>
</svg>
