<svg width="24" height="24" viewBox="0 0 24 24" fill="none" xmlns="http://www.w3.org/2000/svg">
<path fill-rule="evenodd" clip-rule="evenodd" d="M12 2C10.8954 2 10 2.89543 10 4V5.28988C7.10851 6.15043 5 8.82898 5 12V12.8421C5 13.5988 4.75 14.3407 4.5 15.0826C4.25 15.8245 4 16.5664 4 17.3231C4 18.8024 5.19924 20.0017 6.67857 20.0017H9.1713C9.23293 20.1757 9.31018 20.3424 9.40135 20.5C9.92006 21.3967 10.8896 22 12 22C13.1104 22 14.0799 21.3967 14.5987 20.5C14.6898 20.3424 14.7671 20.1757 14.8287 20.0017H17.3214C18.8008 20.0017 20 18.8024 20 17.3231C20 16.5664 19.75 15.8245 19.5 15.0826C19.25 14.3407 19 13.5988 19 12.8421V12C19 8.82898 16.8915 6.15043 14 5.28988V4C14 2.89543 13.1046 2 12 2ZM12 6.5C8.96243 6.5 6.5 8.96243 6.5 12V12.8421C6.5 13.8486 6.18084 14.7936 5.94832 15.482L5.92146 15.5616C5.6554 16.3512 5.5 16.8556 5.5 17.3231C5.5 17.974 6.02766 18.5017 6.67857 18.5017H17.3214C17.9723 18.5017 18.5 17.974 18.5 17.3231C18.5 16.8556 18.3446 16.3512 18.0785 15.5616L18.0517 15.482C17.8192 14.7936 17.5 13.8486 17.5 12.8421V12C17.5 8.96243 15.0376 6.5 12 6.5Z" fill="#1A1C20" style="fill:#1A1C20;fill:color(display-p3 0.1020 0.1098 0.1255);fill-opacity:1;"/>
<path fill-rule="evenodd" clip-rule="evenodd" d="M12 2C10.8954 2 10 2.89543 10 4V5.28988C7.10851 6.15043 5 8.82898 5 12V12.8421C5 13.5988 4.75 14.3407 4.5 15.0826C4.25 15.8245 4 16.5664 4 17.3231C4 18.8024 5.19924 20.0017 6.67857 20.0017H9.1713C9.23293 20.1757 9.31018 20.3424 9.40135 20.5C9.92006 21.3967 10.8896 22 12 22C13.1104 22 14.0799 21.3967 14.5987 20.5C14.6898 20.3424 14.7671 20.1757 14.8287 20.0017H17.3214C18.8008 20.0017 20 18.8024 20 17.3231C20 16.5664 19.75 15.8245 19.5 15.0826C19.25 14.3407 19 13.5988 19 12.8421V12C19 8.82898 16.8915 6.15043 14 5.28988V4C14 2.89543 13.1046 2 12 2ZM12 6.5C8.96243 6.5 6.5 8.96243 6.5 12V12.8421C6.5 13.8486 6.18084 14.7936 5.94832 15.482L5.92146 15.5616C5.6554 16.3512 5.5 16.8556 5.5 17.3231C5.5 17.974 6.02766 18.5017 6.67857 18.5017H17.3214C17.9723 18.5017 18.5 17.974 18.5 17.3231C18.5 16.8556 18.3446 16.3512 18.0785 15.5616L18.0517 15.482C17.8192 14.7936 17.5 13.8486 17.5 12.8421V12C17.5 8.96243 15.0376 6.5 12 6.5Z" fill="black" fill-opacity="0.2" style="fill:black;fill-opacity:0.2;"/>
<path fill-rule="evenodd" clip-rule="evenodd" d="M12 2C10.8954 2 10 2.89543 10 4V5.28988C7.10851 6.15043 5 8.82898 5 12V12.8421C5 13.5988 4.75 14.3407 4.5 15.0826C4.25 15.8245 4 16.5664 4 17.3231C4 18.8024 5.19924 20.0017 6.67857 20.0017H9.1713C9.23293 20.1757 9.31018 20.3424 9.40135 20.5C9.92006 21.3967 10.8896 22 12 22C13.1104 22 14.0799 21.3967 14.5987 20.5C14.6898 20.3424 14.7671 20.1757 14.8287 20.0017H17.3214C18.8008 20.0017 20 18.8024 20 17.3231C20 16.5664 19.75 15.8245 19.5 15.0826C19.25 14.3407 19 13.5988 19 12.8421V12C19 8.82898 16.8915 6.15043 14 5.28988V4C14 2.89543 13.1046 2 12 2ZM12 6.5C8.96243 6.5 6.5 8.96243 6.5 12V12.8421C6.5 13.8486 6.18084 14.7936 5.94832 15.482L5.92146 15.5616C5.6554 16.3512 5.5 16.8556 5.5 17.3231C5.5 17.974 6.02766 18.5017 6.67857 18.5017H17.3214C17.9723 18.5017 18.5 17.974 18.5 17.3231C18.5 16.8556 18.3446 16.3512 18.0785 15.5616L18.0517 15.482C17.8192 14.7936 17.5 13.8486 17.5 12.8421V12C17.5 8.96243 15.0376 6.5 12 6.5Z" fill="black" fill-opacity="0.2" style="fill:black;fill-opacity:0.2;"/>
<path fill-rule="evenodd" clip-rule="evenodd" d="M12 2C10.8954 2 10 2.89543 10 4V5.28988C7.10851 6.15043 5 8.82898 5 12V12.8421C5 13.5988 4.75 14.3407 4.5 15.0826C4.25 15.8245 4 16.5664 4 17.3231C4 18.8024 5.19924 20.0017 6.67857 20.0017H9.1713C9.23293 20.1757 9.31018 20.3424 9.40135 20.5C9.92006 21.3967 10.8896 22 12 22C13.1104 22 14.0799 21.3967 14.5987 20.5C14.6898 20.3424 14.7671 20.1757 14.8287 20.0017H17.3214C18.8008 20.0017 20 18.8024 20 17.3231C20 16.5664 19.75 15.8245 19.5 15.0826C19.25 14.3407 19 13.5988 19 12.8421V12C19 8.82898 16.8915 6.15043 14 5.28988V4C14 2.89543 13.1046 2 12 2ZM12 6.5C8.96243 6.5 6.5 8.96243 6.5 12V12.8421C6.5 13.8486 6.18084 14.7936 5.94832 15.482L5.92146 15.5616C5.6554 16.3512 5.5 16.8556 5.5 17.3231C5.5 17.974 6.02766 18.5017 6.67857 18.5017H17.3214C17.9723 18.5017 18.5 17.974 18.5 17.3231C18.5 16.8556 18.3446 16.3512 18.0785 15.5616L18.0517 15.482C17.8192 14.7936 17.5 13.8486 17.5 12.8421V12C17.5 8.96243 15.0376 6.5 12 6.5Z" fill="black" fill-opacity="0.2" style="fill:black;fill-opacity:0.2;"/>
<path fill-rule="evenodd" clip-rule="evenodd" d="M12 2C10.8954 2 10 2.89543 10 4V5.28988C7.10851 6.15043 5 8.82898 5 12V12.8421C5 13.5988 4.75 14.3407 4.5 15.0826C4.25 15.8245 4 16.5664 4 17.3231C4 18.8024 5.19924 20.0017 6.67857 20.0017H9.1713C9.23293 20.1757 9.31018 20.3424 9.40135 20.5C9.92006 21.3967 10.8896 22 12 22C13.1104 22 14.0799 21.3967 14.5987 20.5C14.6898 20.3424 14.7671 20.1757 14.8287 20.0017H17.3214C18.8008 20.0017 20 18.8024 20 17.3231C20 16.5664 19.75 15.8245 19.5 15.0826C19.25 14.3407 19 13.5988 19 12.8421V12C19 8.82898 16.8915 6.15043 14 5.28988V4C14 2.89543 13.1046 2 12 2ZM12 6.5C8.96243 6.5 6.5 8.96243 6.5 12V12.8421C6.5 13.8486 6.18084 14.7936 5.94832 15.482L5.92146 15.5616C5.6554 16.3512 5.5 16.8556 5.5 17.3231C5.5 17.974 6.02766 18.5017 6.67857 18.5017H17.3214C17.9723 18.5017 18.5 17.974 18.5 17.3231C18.5 16.8556 18.3446 16.3512 18.0785 15.5616L18.0517 15.482C17.8192 14.7936 17.5 13.8486 17.5 12.8421V12C17.5 8.96243 15.0376 6.5 12 6.5Z" fill="black" fill-opacity="0.2" style="fill:black;fill-opacity:0.2;"/>
<path fill-rule="evenodd" clip-rule="evenodd" d="M12 6.5C8.96243 6.5 6.5 8.96243 6.5 12V12.8421C6.5 13.8486 6.18084 14.7936 5.94832 15.482L5.92146 15.5616C5.6554 16.3512 5.5 16.8556 5.5 17.3231C5.5 17.974 6.02766 18.5017 6.67857 18.5017H17.3214C17.9723 18.5017 18.5 17.974 18.5 17.3231C18.5 16.8556 18.3446 16.3512 18.0785 15.5616L18.0517 15.482C17.8192 14.7936 17.5 13.8486 17.5 12.8421V12C17.5 8.96243 15.0376 6.5 12 6.5Z" fill="#1A1C20" style="fill:#1A1C20;fill:color(display-p3 0.1020 0.1098 0.1255);fill-opacity:1;"/>
<path fill-rule="evenodd" clip-rule="evenodd" d="M12 6.5C8.96243 6.5 6.5 8.96243 6.5 12V12.8421C6.5 13.8486 6.18084 14.7936 5.94832 15.482L5.92146 15.5616C5.6554 16.3512 5.5 16.8556 5.5 17.3231C5.5 17.974 6.02766 18.5017 6.67857 18.5017H17.3214C17.9723 18.5017 18.5 17.974 18.5 17.3231C18.5 16.8556 18.3446 16.3512 18.0785 15.5616L18.0517 15.482C17.8192 14.7936 17.5 13.8486 17.5 12.8421V12C17.5 8.96243 15.0376 6.5 12 6.5Z" fill="black" fill-opacity="0.2" style="fill:black;fill-opacity:0.2;"/>
<path fill-rule="evenodd" clip-rule="evenodd" d="M12 6.5C8.96243 6.5 6.5 8.96243 6.5 12V12.8421C6.5 13.8486 6.18084 14.7936 5.94832 15.482L5.92146 15.5616C5.6554 16.3512 5.5 16.8556 5.5 17.3231C5.5 17.974 6.02766 18.5017 6.67857 18.5017H17.3214C17.9723 18.5017 18.5 17.974 18.5 17.3231C18.5 16.8556 18.3446 16.3512 18.0785 15.5616L18.0517 15.482C17.8192 14.7936 17.5 13.8486 17.5 12.8421V12C17.5 8.96243 15.0376 6.5 12 6.5Z" fill="black" fill-opacity="0.2" style="fill:black;fill-opacity:0.2;"/>
<path fill-rule="evenodd" clip-rule="evenodd" d="M12 6.5C8.96243 6.5 6.5 8.96243 6.5 12V12.8421C6.5 13.8486 6.18084 14.7936 5.94832 15.482L5.92146 15.5616C5.6554 16.3512 5.5 16.8556 5.5 17.3231C5.5 17.974 6.02766 18.5017 6.67857 18.5017H17.3214C17.9723 18.5017 18.5 17.974 18.5 17.3231C18.5 16.8556 18.3446 16.3512 18.0785 15.5616L18.0517 15.482C17.8192 14.7936 17.5 13.8486 17.5 12.8421V12C17.5 8.96243 15.0376 6.5 12 6.5Z" fill="black" fill-opacity="0.2" style="fill:black;fill-opacity:0.2;"/>
<path fill-rule="evenodd" clip-rule="evenodd" d="M12 6.5C8.96243 6.5 6.5 8.96243 6.5 12V12.8421C6.5 13.8486 6.18084 14.7936 5.94832 15.482L5.92146 15.5616C5.6554 16.3512 5.5 16.8556 5.5 17.3231C5.5 17.974 6.02766 18.5017 6.67857 18.5017H17.3214C17.9723 18.5017 18.5 17.974 18.5 17.3231C18.5 16.8556 18.3446 16.3512 18.0785 15.5616L18.0517 15.482C17.8192 14.7936 17.5 13.8486 17.5 12.8421V12C17.5 8.96243 15.0376 6.5 12 6.5Z" fill="black" fill-opacity="0.2" style="fill:black;fill-opacity:0.2;"/>
</svg>
