<svg width="24" height="24" viewBox="0 0 24 24" fill="none" xmlns="http://www.w3.org/2000/svg">
<path fill-rule="evenodd" clip-rule="evenodd" d="M12 4.74708C9.8493 2.75641 7.44093 2.47753 5.48837 3.39977C3.42884 4.37587 2 6.63773 2 9.24578C2 11.8086 3.03256 13.7647 4.38791 15.3418C5.47256 16.6045 6.8 17.6614 7.97302 18.5942C8.23969 18.8058 8.49581 19.0116 8.7414 19.2116C9.21861 19.6001 9.73023 20.0136 10.2484 20.3271C10.7665 20.6406 11.3581 20.8945 12 20.8945C12.6419 20.8945 13.2335 20.6397 13.7516 20.3271C14.2707 20.0136 14.7814 19.6001 15.2586 19.2116C15.5042 19.0116 15.7603 18.8058 16.027 18.5942C17.1991 17.6614 18.5274 16.6035 19.6121 15.3418C20.9674 13.7647 22 11.8086 22 9.24578C22 6.63773 20.5721 4.37587 18.5116 3.4017C16.5591 2.47849 14.1507 2.75738 12 4.74708Z" fill="#3490FF" style="fill:#3490FF;fill:color(display-p3 0.2057 0.5631 1.0000);fill-opacity:1;"/>
</svg>
