<svg width="12" height="12" viewBox="0 0 12 12" fill="none" xmlns="http://www.w3.org/2000/svg">
<path fill-rule="evenodd" clip-rule="evenodd" d="M6.00098 10.25C8.34819 10.25 10.251 8.34721 10.251 6C10.251 3.65279 8.34819 1.75 6.00098 1.75C3.65377 1.75 1.75098 3.65279 1.75098 6C1.75098 8.34721 3.65377 10.25 6.00098 10.25ZM6.00098 11C8.7624 11 11.001 8.76142 11.001 6C11.001 3.23858 8.7624 1 6.00098 1C3.23955 1 1.00098 3.23858 1.00098 6C1.00098 8.76142 3.23955 11 6.00098 11Z" fill="#3490FF" style="fill:#3490FF;fill:color(display-p3 0.2057 0.5631 1.0000);fill-opacity:1;"/>
<path fill-rule="evenodd" clip-rule="evenodd" d="M10.251 6C10.251 8.34721 8.34819 10.25 6.00098 10.25C3.65377 10.25 1.75098 8.34721 1.75098 6C1.75098 3.65279 3.65377 1.75 6.00098 1.75C8.34819 1.75 10.251 3.65279 10.251 6ZM6.14273 5.56873C5.72735 5.82817 5.48999 6.09097 5.48339 6.95013C5.48339 6.95013 5.48154 6.98717 5.48339 7.01078C5.507 7.31112 6.23121 7.31112 6.25482 7.01078C6.25668 6.98717 6.25482 6.95013 6.25482 6.95013C6.26142 6.44474 6.41966 6.21226 6.80207 5.97305C7.23065 5.71361 7.49768 5.35647 7.50098 4.80728C7.49768 4.00539 6.88779 3.5 5.99768 3.5C5.01855 3.51758 4.50071 4.37106 4.50098 4.86792C4.50124 5.36479 5.28942 5.27618 5.32515 4.86792C5.36088 4.45967 5.66471 4.20081 5.99109 4.20081C6.35043 4.20081 6.64054 4.4434 6.63724 4.82075C6.64054 5.15768 6.42295 5.38342 6.14273 5.56873ZM5.89219 7.45552C5.60867 7.45889 5.3746 7.69137 5.3779 7.97439C5.3746 8.26415 5.60867 8.5 5.89219 8.5C6.16581 8.5 6.39988 8.26415 6.39988 7.97439C6.39988 7.69137 6.16581 7.45889 5.89219 7.45552Z" fill="#3490FF" style="fill:#3490FF;fill:color(display-p3 0.2057 0.5631 1.0000);fill-opacity:1;"/>
</svg>
