<svg width="24" height="24" viewBox="0 0 24 24" fill="none" xmlns="http://www.w3.org/2000/svg">
<path d="M17.6569 7.47377C17.9693 7.16135 17.9693 6.65482 17.6569 6.3424C17.3444 6.02998 16.8379 6.02998 16.5255 6.3424L12 10.8679L7.47452 6.3424C7.1621 6.02998 6.65557 6.02998 6.34315 6.3424C6.03073 6.65482 6.03073 7.16135 6.34315 7.47377L10.8686 11.9993L6.34315 16.5247C6.03073 16.8372 6.03073 17.3437 6.34315 17.6561C6.65557 17.9685 7.1621 17.9685 7.47452 17.6561L12 13.1306L16.5255 17.6561C16.8379 17.9685 17.3444 17.9685 17.6569 17.6561C17.9693 17.3437 17.9693 16.8372 17.6569 16.5247L13.1314 11.9993L17.6569 7.47377Z" fill="#020203" style="fill:#020203;fill:color(display-p3 0.0090 0.0097 0.0110);fill-opacity:1;"/>
</svg>
