<svg width="12" height="12" viewBox="0 0 12 12" fill="none" xmlns="http://www.w3.org/2000/svg">
<path fill-rule="evenodd" clip-rule="evenodd" d="M6 1C8.76142 1 11 3.23858 11 6C11 8.76142 8.76142 11 6 11C3.23858 11 1 8.76142 1 6C1 3.23858 3.23858 1 6 1ZM6 2C3.79086 2 2 3.79086 2 6C2 8.20914 3.79086 10 6 10C8.20914 10 10 8.20914 10 6C10 3.79086 8.20914 2 6 2Z" fill="#757E8F" style="fill:#757E8F;fill:color(display-p3 0.4593 0.4931 0.5607);fill-opacity:1;"/>
<path fill-rule="evenodd" clip-rule="evenodd" d="M6 2C3.79086 2 2 3.79086 2 6C2 8.20914 3.79086 10 6 10C8.20914 10 10 8.20914 10 6C10 3.79086 8.20914 2 6 2ZM6.32715 5.30176C6.32715 5.09994 6.16367 4.93581 5.96191 4.93555C5.75993 4.93555 5.5957 5.09977 5.5957 5.30176V8.28223C5.59597 8.48398 5.76009 8.64746 5.96191 8.64746C6.16351 8.6472 6.32689 8.48382 6.32715 8.28223V5.30176ZM6.42285 3.93066C6.42285 3.69141 6.21094 3.5 5.96484 3.5C5.71191 3.5 5.5 3.69141 5.5 3.93066C5.5 4.16992 5.71191 4.36133 5.96484 4.36133C6.21094 4.36133 6.42285 4.16992 6.42285 3.93066Z" fill="#757E8F" style="fill:#757E8F;fill:color(display-p3 0.4593 0.4931 0.5607);fill-opacity:1;"/>
</svg>
