<svg width="24" height="24" viewBox="0 0 24 24" fill="none" xmlns="http://www.w3.org/2000/svg">
<path fill-rule="evenodd" clip-rule="evenodd" d="M15.2819 16.2781C13.9838 17.3536 12.3174 18 10.5 18C6.35786 18 3 14.6421 3 10.5C3 6.35786 6.35786 3 10.5 3C14.6421 3 18 6.35786 18 10.5C18 12.3174 17.3536 13.9838 16.2781 15.2819L20.7937 19.7975C21.0688 20.0726 21.0688 20.5186 20.7937 20.7937C20.5186 21.0688 20.0726 21.0688 19.7975 20.7937L15.2819 16.2781ZM16.5 10.5C16.5 13.8137 13.8137 16.5 10.5 16.5C7.18629 16.5 4.5 13.8137 4.5 10.5C4.5 7.18629 7.18629 4.5 10.5 4.5C13.8137 4.5 16.5 7.18629 16.5 10.5Z" fill="#1A1C20" style="fill:#1A1C20;fill:color(display-p3 0.1020 0.1098 0.1255);fill-opacity:1;"/>
<path fill-rule="evenodd" clip-rule="evenodd" d="M15.2819 16.2781C13.9838 17.3536 12.3174 18 10.5 18C6.35786 18 3 14.6421 3 10.5C3 6.35786 6.35786 3 10.5 3C14.6421 3 18 6.35786 18 10.5C18 12.3174 17.3536 13.9838 16.2781 15.2819L20.7937 19.7975C21.0688 20.0726 21.0688 20.5186 20.7937 20.7937C20.5186 21.0688 20.0726 21.0688 19.7975 20.7937L15.2819 16.2781ZM16.5 10.5C16.5 13.8137 13.8137 16.5 10.5 16.5C7.18629 16.5 4.5 13.8137 4.5 10.5C4.5 7.18629 7.18629 4.5 10.5 4.5C13.8137 4.5 16.5 7.18629 16.5 10.5Z" fill="black" fill-opacity="0.2" style="fill:black;fill-opacity:0.2;"/>
<path fill-rule="evenodd" clip-rule="evenodd" d="M15.2819 16.2781C13.9838 17.3536 12.3174 18 10.5 18C6.35786 18 3 14.6421 3 10.5C3 6.35786 6.35786 3 10.5 3C14.6421 3 18 6.35786 18 10.5C18 12.3174 17.3536 13.9838 16.2781 15.2819L20.7937 19.7975C21.0688 20.0726 21.0688 20.5186 20.7937 20.7937C20.5186 21.0688 20.0726 21.0688 19.7975 20.7937L15.2819 16.2781ZM16.5 10.5C16.5 13.8137 13.8137 16.5 10.5 16.5C7.18629 16.5 4.5 13.8137 4.5 10.5C4.5 7.18629 7.18629 4.5 10.5 4.5C13.8137 4.5 16.5 7.18629 16.5 10.5Z" fill="black" fill-opacity="0.2" style="fill:black;fill-opacity:0.2;"/>
<path fill-rule="evenodd" clip-rule="evenodd" d="M15.2819 16.2781C13.9838 17.3536 12.3174 18 10.5 18C6.35786 18 3 14.6421 3 10.5C3 6.35786 6.35786 3 10.5 3C14.6421 3 18 6.35786 18 10.5C18 12.3174 17.3536 13.9838 16.2781 15.2819L20.7937 19.7975C21.0688 20.0726 21.0688 20.5186 20.7937 20.7937C20.5186 21.0688 20.0726 21.0688 19.7975 20.7937L15.2819 16.2781ZM16.5 10.5C16.5 13.8137 13.8137 16.5 10.5 16.5C7.18629 16.5 4.5 13.8137 4.5 10.5C4.5 7.18629 7.18629 4.5 10.5 4.5C13.8137 4.5 16.5 7.18629 16.5 10.5Z" fill="black" fill-opacity="0.2" style="fill:black;fill-opacity:0.2;"/>
<path fill-rule="evenodd" clip-rule="evenodd" d="M15.2819 16.2781C13.9838 17.3536 12.3174 18 10.5 18C6.35786 18 3 14.6421 3 10.5C3 6.35786 6.35786 3 10.5 3C14.6421 3 18 6.35786 18 10.5C18 12.3174 17.3536 13.9838 16.2781 15.2819L20.7937 19.7975C21.0688 20.0726 21.0688 20.5186 20.7937 20.7937C20.5186 21.0688 20.0726 21.0688 19.7975 20.7937L15.2819 16.2781ZM16.5 10.5C16.5 13.8137 13.8137 16.5 10.5 16.5C7.18629 16.5 4.5 13.8137 4.5 10.5C4.5 7.18629 7.18629 4.5 10.5 4.5C13.8137 4.5 16.5 7.18629 16.5 10.5Z" fill="black" fill-opacity="0.2" style="fill:black;fill-opacity:0.2;"/>
</svg>
