<svg width="24" height="24" viewBox="0 0 24 24" fill="none" xmlns="http://www.w3.org/2000/svg">
<path fill-rule="evenodd" clip-rule="evenodd" d="M7.23013 2.2253C7.53697 1.9249 8.03446 1.9249 8.3413 2.2253L17.7699 11.4561C18.0767 11.7565 18.0767 12.2435 17.7699 12.5439L8.3413 21.7747C8.03446 22.0751 7.53697 22.0751 7.23013 21.7747C6.92329 21.4743 6.92329 20.9872 7.23013 20.6868L16.1031 12L7.23013 3.31316C6.92329 3.01276 6.92329 2.52571 7.23013 2.2253Z" fill="#1A1C20" style="fill:#1A1C20;fill:color(display-p3 0.1020 0.1098 0.1255);fill-opacity:1;"/>
<path fill-rule="evenodd" clip-rule="evenodd" d="M7.23013 2.2253C7.53697 1.9249 8.03446 1.9249 8.3413 2.2253L17.7699 11.4561C18.0767 11.7565 18.0767 12.2435 17.7699 12.5439L8.3413 21.7747C8.03446 22.0751 7.53697 22.0751 7.23013 21.7747C6.92329 21.4743 6.92329 20.9872 7.23013 20.6868L16.1031 12L7.23013 3.31316C6.92329 3.01276 6.92329 2.52571 7.23013 2.2253Z" fill="black" fill-opacity="0.2" style="fill:black;fill-opacity:0.2;"/>
<path fill-rule="evenodd" clip-rule="evenodd" d="M7.23013 2.2253C7.53697 1.9249 8.03446 1.9249 8.3413 2.2253L17.7699 11.4561C18.0767 11.7565 18.0767 12.2435 17.7699 12.5439L8.3413 21.7747C8.03446 22.0751 7.53697 22.0751 7.23013 21.7747C6.92329 21.4743 6.92329 20.9872 7.23013 20.6868L16.1031 12L7.23013 3.31316C6.92329 3.01276 6.92329 2.52571 7.23013 2.2253Z" fill="black" fill-opacity="0.2" style="fill:black;fill-opacity:0.2;"/>
<path fill-rule="evenodd" clip-rule="evenodd" d="M7.23013 2.2253C7.53697 1.9249 8.03446 1.9249 8.3413 2.2253L17.7699 11.4561C18.0767 11.7565 18.0767 12.2435 17.7699 12.5439L8.3413 21.7747C8.03446 22.0751 7.53697 22.0751 7.23013 21.7747C6.92329 21.4743 6.92329 20.9872 7.23013 20.6868L16.1031 12L7.23013 3.31316C6.92329 3.01276 6.92329 2.52571 7.23013 2.2253Z" fill="black" fill-opacity="0.2" style="fill:black;fill-opacity:0.2;"/>
<path fill-rule="evenodd" clip-rule="evenodd" d="M7.23013 2.2253C7.53697 1.9249 8.03446 1.9249 8.3413 2.2253L17.7699 11.4561C18.0767 11.7565 18.0767 12.2435 17.7699 12.5439L8.3413 21.7747C8.03446 22.0751 7.53697 22.0751 7.23013 21.7747C6.92329 21.4743 6.92329 20.9872 7.23013 20.6868L16.1031 12L7.23013 3.31316C6.92329 3.01276 6.92329 2.52571 7.23013 2.2253Z" fill="black" fill-opacity="0.2" style="fill:black;fill-opacity:0.2;"/>
</svg>
