<svg width="12" height="12" viewBox="0 0 12 12" fill="none" xmlns="http://www.w3.org/2000/svg">
<path d="M9.29983 3.36019C9.48208 3.17794 9.48208 2.88247 9.29983 2.70022C9.11759 2.51798 8.82211 2.51798 8.63987 2.70022L6 5.34009L3.36013 2.70022C3.17789 2.51798 2.88241 2.51798 2.70017 2.70022C2.51792 2.88247 2.51792 3.17794 2.70017 3.36019L5.34003 6.00005L2.70017 8.63992C2.51792 8.82216 2.51792 9.11764 2.70017 9.29989C2.88241 9.48213 3.17789 9.48213 3.36013 9.29989L6 6.66002L8.63987 9.29989C8.82211 9.48213 9.11759 9.48213 9.29983 9.29989C9.48208 9.11764 9.48208 8.82216 9.29983 8.63992L6.65997 6.00005L9.29983 3.36019Z" fill="#DA6816" style="fill:#DA6816;fill:color(display-p3 0.8534 0.4061 0.0866);fill-opacity:1;"/>
</svg>
