<svg width="24" height="24" viewBox="0 0 24 24" fill="none" xmlns="http://www.w3.org/2000/svg">
<path fill-rule="evenodd" clip-rule="evenodd" d="M12 2C17.5228 2 22 6.47715 22 12C22 17.5228 17.5228 22 12 22C6.47715 22 2 17.5228 2 12C2 6.47715 6.47715 2 12 2ZM12 3.5C7.30558 3.5 3.5 7.30558 3.5 12C3.5 16.6944 7.30558 20.5 12 20.5C16.6944 20.5 20.5 16.6944 20.5 12C20.5 7.30558 16.6944 3.5 12 3.5Z" fill="#474C57" style="fill:#474C57;fill:color(display-p3 0.2779 0.2993 0.3421);fill-opacity:1;"/>
<path fill-rule="evenodd" clip-rule="evenodd" d="M12 3.5C7.30558 3.5 3.5 7.30558 3.5 12C3.5 16.6944 7.30558 20.5 12 20.5C16.6944 20.5 20.5 16.6944 20.5 12C20.5 7.30558 16.6944 3.5 12 3.5ZM12.6543 10.6025C12.6543 10.1986 12.3268 9.87109 11.9229 9.87109C11.5189 9.87109 11.1914 10.1986 11.1914 10.6025V16.5635C11.1914 16.9674 11.5189 17.2949 11.9229 17.2949C12.3268 17.2949 12.6543 16.9674 12.6543 16.5635V10.6025ZM12.8457 7.86133C12.8457 7.38281 12.4219 7 11.9297 7C11.4238 7 11 7.38281 11 7.86133C11 8.33984 11.4238 8.72266 11.9297 8.72266C12.4219 8.72266 12.8457 8.33984 12.8457 7.86133Z" fill="#474C57" style="fill:#474C57;fill:color(display-p3 0.2779 0.2993 0.3421);fill-opacity:1;"/>
</svg>
