<svg width="24" height="24" viewBox="0 0 24 24" fill="none" xmlns="http://www.w3.org/2000/svg">
<path fill-rule="evenodd" clip-rule="evenodd" d="M13.6 3.5H10.4C9.25514 3.5 8.48671 3.50117 7.89496 3.54952C7.32071 3.59643 7.04615 3.6802 6.86502 3.77248C6.39462 4.01217 6.01217 4.39462 5.77248 4.86502C5.6802 5.04615 5.59643 5.32071 5.54952 5.89496C5.50117 6.48671 5.5 7.25514 5.5 8.4V15.6C5.5 16.7449 5.50117 17.5133 5.54952 18.105C5.59643 18.6793 5.6802 18.9539 5.77248 19.135C6.01217 19.6054 6.39462 19.9878 6.86502 20.2275C7.04615 20.3198 7.32071 20.4036 7.89496 20.4505C8.48671 20.4988 9.25514 20.5 10.4 20.5H13.6C14.7449 20.5 15.5133 20.4988 16.105 20.4505C16.6793 20.4036 16.9539 20.3198 17.135 20.2275C17.6054 19.9878 17.9878 19.6054 18.2275 19.135C18.3198 18.9539 18.4036 18.6793 18.4505 18.105C18.4988 17.5133 18.5 16.7449 18.5 15.6V8.4C18.5 7.25514 18.4988 6.48671 18.4505 5.89496C18.4036 5.32071 18.3198 5.04615 18.2275 4.86502C17.9878 4.39462 17.6054 4.01217 17.135 3.77248C16.9539 3.6802 16.6793 3.59643 16.105 3.54952C15.5133 3.50117 14.7449 3.5 13.6 3.5ZM4.43597 4.18404C4 5.03969 4 6.15979 4 8.4V15.6C4 17.8402 4 18.9603 4.43597 19.816C4.81947 20.5686 5.43139 21.1805 6.18404 21.564C7.03969 22 8.15979 22 10.4 22H13.6C15.8402 22 16.9603 22 17.816 21.564C18.5686 21.1805 19.1805 20.5686 19.564 19.816C20 18.9603 20 17.8402 20 15.6V8.4C20 6.15979 20 5.03969 19.564 4.18404C19.1805 3.43139 18.5686 2.81947 17.816 2.43597C16.9603 2 15.8402 2 13.6 2H10.4C8.15979 2 7.03969 2 6.18404 2.43597C5.43139 2.81947 4.81947 3.43139 4.43597 4.18404Z" fill="#3490FF" style="fill:#3490FF;fill:color(display-p3 0.2057 0.5631 1.0000);fill-opacity:1;"/>
<path fill-rule="evenodd" clip-rule="evenodd" d="M10.4 3.5H13.6C14.7449 3.5 15.5133 3.50117 16.105 3.54952C16.6793 3.59643 16.9539 3.6802 17.135 3.77248C17.6054 4.01217 17.9878 4.39462 18.2275 4.86502C18.3198 5.04615 18.4036 5.32071 18.4505 5.89496C18.4988 6.48671 18.5 7.25514 18.5 8.4V15.6C18.5 16.7449 18.4988 17.5133 18.4505 18.105C18.4036 18.6793 18.3198 18.9539 18.2275 19.135C17.9878 19.6054 17.6054 19.9878 17.135 20.2275C16.9539 20.3198 16.6793 20.4036 16.105 20.4505C15.5133 20.4988 14.7449 20.5 13.6 20.5H10.4C9.25514 20.5 8.48671 20.4988 7.89496 20.4505C7.32071 20.4036 7.04615 20.3198 6.86502 20.2275C6.39462 19.9878 6.01217 19.6054 5.77248 19.135C5.6802 18.9539 5.59643 18.6793 5.54952 18.105C5.50117 17.5133 5.5 16.7449 5.5 15.6V8.4C5.5 7.25514 5.50117 6.48671 5.54952 5.89496C5.59643 5.32071 5.6802 5.04615 5.77248 4.86502C6.01217 4.39462 6.39462 4.01217 6.86502 3.77248C7.04615 3.6802 7.32071 3.59643 7.89496 3.54952C8.48671 3.50117 9.25514 3.5 10.4 3.5ZM7.25 8C7.25 7.58579 7.58579 7.25 8 7.25H16C16.4142 7.25 16.75 7.58579 16.75 8C16.75 8.41421 16.4142 8.75 16 8.75H8C7.58579 8.75 7.25 8.41421 7.25 8ZM7.25 12C7.25 11.5858 7.58579 11.25 8 11.25H16C16.4142 11.25 16.75 11.5858 16.75 12C16.75 12.4142 16.4142 12.75 16 12.75H8C7.58579 12.75 7.25 12.4142 7.25 12ZM7.25 16C7.25 15.5858 7.58579 15.25 8 15.25H16C16.4142 15.25 16.75 15.5858 16.75 16C16.75 16.4142 16.4142 16.75 16 16.75H8C7.58579 16.75 7.25 16.4142 7.25 16Z" fill="#3490FF" style="fill:#3490FF;fill:color(display-p3 0.2057 0.5631 1.0000);fill-opacity:1;"/>
</svg>
