<svg width="24" height="24" viewBox="0 0 24 24" fill="none" xmlns="http://www.w3.org/2000/svg">
<path fill-rule="evenodd" clip-rule="evenodd" d="M12 20.5C16.6944 20.5 20.5 16.6944 20.5 12C20.5 7.30558 16.6944 3.5 12 3.5C7.30558 3.5 3.5 7.30558 3.5 12C3.5 16.6944 7.30558 20.5 12 20.5ZM12 22C17.5228 22 22 17.5228 22 12C22 6.47715 17.5228 2 12 2C6.47715 2 2 6.47715 2 12C2 17.5228 6.47715 22 12 22Z" fill="#9198A6" style="fill:#9198A6;fill:color(display-p3 0.5697 0.5966 0.6503);fill-opacity:1;"/>
<path fill-rule="evenodd" clip-rule="evenodd" d="M20.5 12C20.5 16.6944 16.6944 20.5 12 20.5C7.30558 20.5 3.5 16.6944 3.5 12C3.5 7.30558 7.30558 3.5 12 3.5C16.6944 3.5 20.5 7.30558 20.5 12ZM17.2804 8.21967C17.5733 8.51256 17.5733 8.98744 17.2804 9.28033L11.2804 15.2803C11.0165 15.5442 10.5986 15.5739 10.3 15.35L6.30004 12.35C5.96867 12.1015 5.90152 11.6314 6.15004 11.3C6.39857 10.9686 6.86867 10.9015 7.20004 11.15L10.6797 13.7597L16.2197 8.21967C16.5126 7.92678 16.9875 7.92678 17.2804 8.21967Z" fill="#9198A6" style="fill:#9198A6;fill:color(display-p3 0.5697 0.5966 0.6503);fill-opacity:1;"/>
</svg>
