<svg width="26" height="26" viewBox="0 0 26 26" fill="none" xmlns="http://www.w3.org/2000/svg">
<path d="M10.3899 4.83489C11.0087 4.51904 11.7413 4.51904 12.3601 4.83489L18.3184 7.87643C19.0436 8.24659 19.5 8.99204 19.5 9.8062V17.2755C19.5 18.0897 19.0435 18.8352 18.3182 19.2054L12.3599 22.2461C11.7412 22.5618 11.0088 22.5618 10.3901 22.2461L4.43179 19.2054C3.70652 18.8352 3.25 18.0897 3.25 17.2755V9.80621C3.25 8.99204 3.70642 8.24659 4.43158 7.87643L10.3899 4.83489Z" fill="#E6E7EA" style="fill:#E6E7EA;fill:color(display-p3 0.9007 0.9069 0.9193);fill-opacity:1;"/>
<path d="M9.91818 3.74805C10.5383 3.43043 11.2734 3.43043 11.8936 3.74805L17.4082 6.57246C18.1319 6.94313 18.5871 7.68779 18.5871 8.50091V15.4533C18.5871 16.2665 18.1318 17.0112 17.408 17.3818L11.8934 20.2055C11.2733 20.5229 10.5384 20.5229 9.9184 20.2055L4.4038 17.3818C3.67996 17.0112 3.22461 16.2665 3.22461 15.4533V8.50091C3.22461 7.68779 3.67987 6.94312 4.40358 6.57246L9.91818 3.74805Z" fill="url(#paint0_linear_4066_17376)" style=""/>
<path d="M15.7744 5.73633L10.043 8.80859C9.52893 9.08399 9.09024 9.48135 8.76562 9.96582C8.37265 10.5524 8.16215 11.2422 8.16211 11.9482V13.333C8.16192 13.4533 8.03552 13.532 7.92773 13.4785L6.06348 12.5508C6.00497 12.5217 5.96792 12.4618 5.96777 12.3965V10.8262C5.96777 10.1401 6.17184 9.46944 6.55371 8.89941C6.88886 8.39922 7.34863 7.99474 7.8877 7.72656L13.8584 4.75586L15.7744 5.73633Z" fill="url(#paint1_linear_4066_17376)" style=""/>
<path d="M19.5662 14.994C19.7298 17.7202 17.6529 20.0616 14.927 20.2238C12.201 20.3858 9.8578 18.3071 9.69397 15.5808C9.53025 12.8544 11.608 10.513 14.3341 10.351C17.0602 10.189 19.4025 12.2676 19.5662 14.994Z" fill="#3490FF" stroke="#99C7FF" style="fill:#3490FF;fill:color(display-p3 0.2057 0.5631 1.0000);fill-opacity:1;stroke:#99C7FF;stroke:color(display-p3 0.6000 0.7800 1.0000);stroke-opacity:1;" stroke-width="1.08333"/>
<rect x="-0.387149" y="0.0231302" width="0.54712" height="4.92736" rx="0.27356" transform="matrix(-0.665547 0.746356 -0.749678 -0.661803 22.0971 22.2532)" fill="#3490FF" stroke="#99C7FF" style="fill:#3490FF;fill:color(display-p3 0.2057 0.5631 1.0000);fill-opacity:1;stroke:#99C7FF;stroke:color(display-p3 0.6000 0.7800 1.0000);stroke-opacity:1;" stroke-width="0.54712"/>
<path d="M17.6897 14.0626C17.7715 14.1019 17.7715 14.2184 17.6897 14.2578L17.4326 14.3815C16.7725 14.6991 16.2391 15.2305 15.9188 15.8893L15.7954 16.1433C15.7558 16.2246 15.64 16.2246 15.6005 16.1433L15.477 15.8893C15.1568 15.2305 14.6234 14.6991 13.9633 14.3815L13.7062 14.2578C13.6243 14.2184 13.6243 14.1019 13.7062 14.0626L13.9633 13.9388C14.6234 13.6212 15.1568 13.0899 15.477 12.431L15.6005 12.177C15.64 12.0957 15.7558 12.0957 15.7954 12.177L15.9188 12.431C16.2391 13.0899 16.7725 13.6212 17.4326 13.9388L17.6897 14.0626Z" fill="#E0EEFF" style="fill:#E0EEFF;fill:color(display-p3 0.8800 0.9340 1.0000);fill-opacity:1;"/>
<path d="M14.1935 16.593C14.2429 16.6169 14.2428 16.6876 14.1933 16.7113C13.7941 16.9027 13.4706 17.2237 13.2765 17.6216C13.2525 17.6706 13.1825 17.6705 13.1587 17.6214C12.9658 17.223 12.6431 16.9011 12.2445 16.7086C12.195 16.6847 12.1951 16.614 12.2447 16.5903C12.6438 16.3989 12.9674 16.0779 13.1615 15.68C13.1854 15.6309 13.2554 15.631 13.2793 15.6802C13.4722 16.0786 13.7948 16.4005 14.1935 16.593Z" fill="#E0EEFF" style="fill:#E0EEFF;fill:color(display-p3 0.8800 0.9340 1.0000);fill-opacity:1;"/>
<defs>
<linearGradient id="paint0_linear_4066_17376" x1="10.9059" y1="3.24219" x2="7.58333" y2="17.8746" gradientUnits="userSpaceOnUse">
<stop stop-color="#3490FF" style="stop-color:#3490FF;stop-color:color(display-p3 0.2057 0.5631 1.0000);stop-opacity:1;"/>
<stop offset="1" stop-color="#0073FF" style="stop-color:#0073FF;stop-color:color(display-p3 0.0000 0.4510 1.0000);stop-opacity:1;"/>
</linearGradient>
<linearGradient id="paint1_linear_4066_17376" x1="11.1323" y1="4.75586" x2="6.49957" y2="10.8335" gradientUnits="userSpaceOnUse">
<stop stop-color="#E0EEFF" style="stop-color:#E0EEFF;stop-color:color(display-p3 0.8800 0.9340 1.0000);stop-opacity:1;"/>
<stop offset="1" stop-color="#99C7FF" style="stop-color:#99C7FF;stop-color:color(display-p3 0.6000 0.7804 1.0000);stop-opacity:1;"/>
</linearGradient>
</defs>
</svg>
