<svg width="60" height="58" viewBox="0 0 60 58" fill="none" xmlns="http://www.w3.org/2000/svg">
<path d="M28.3896 0.852845C29.074 -0.284429 30.7228 -0.284431 31.4073 0.852842L40.376 15.7559C40.6219 16.1644 41.023 16.4558 41.4875 16.5634L58.4326 20.4879C59.7257 20.7874 60.2352 22.3555 59.3651 23.3579L47.963 36.493C47.6504 36.853 47.4972 37.3245 47.5385 37.7996L49.0424 55.1281C49.1571 56.4505 47.8232 57.4196 46.601 56.9018L30.5854 50.1167C30.1463 49.9307 29.6506 49.9307 29.2115 50.1167L13.1958 56.9018C11.9737 57.4196 10.6398 56.4505 10.7545 55.1281L12.2584 37.7996C12.2996 37.3245 12.1464 36.8531 11.8339 36.493L0.431755 23.3579C-0.438359 22.3555 0.0711451 20.7874 1.36425 20.4879L18.3094 16.5634C18.7739 16.4558 19.175 16.1644 19.4209 15.7559L28.3896 0.852845Z" fill="#3490FF" style="fill:#3490FF;fill:color(display-p3 0.2057 0.5631 1.0000);fill-opacity:1;"/>
</svg>
