<svg width="26" height="26" viewBox="0 0 26 26" fill="none" xmlns="http://www.w3.org/2000/svg">
<mask id="path-1-inside-1_4066_17371" fill="white">
<rect width="6.10196" height="2.25167" rx="0.442704" transform="matrix(0.99384 -0.110823 0.10782 0.99417 6.23682 16.5645)"/>
</mask>
<rect width="6.10196" height="2.25167" rx="0.442704" transform="matrix(0.99384 -0.110823 0.10782 0.99417 6.23682 16.5645)" fill="#005CCC" stroke="#0073FF" style="fill:#005CCC;fill:color(display-p3 0.0000 0.3600 0.8000);fill-opacity:1;stroke:#0073FF;stroke:color(display-p3 0.0000 0.4500 1.0000);stroke-opacity:1;" stroke-width="2.25167" mask="url(#path-1-inside-1_4066_17371)"/>
<path d="M7.55371 17.1758L7.71564 18.6689" stroke="#3490FF" style="stroke:#3490FF;stroke:color(display-p3 0.2057 0.5631 1.0000);stroke-opacity:1;" stroke-width="0.442704"/>
<path d="M9.07227 17.0059L9.2342 18.499" stroke="#3490FF" style="stroke:#3490FF;stroke:color(display-p3 0.2057 0.5631 1.0000);stroke-opacity:1;" stroke-width="0.442704"/>
<rect width="6.10997" height="2.24879" rx="0.442704" transform="matrix(0.946373 -0.323077 0.314692 0.949194 5.50977 10.6641)" fill="#3490FF" style="fill:#3490FF;fill:color(display-p3 0.2057 0.5631 1.0000);fill-opacity:1;"/>
<path d="M6.92285 10.9727L7.39482 12.3962" stroke="#66ABFF" style="stroke:#66ABFF;stroke:color(display-p3 0.4000 0.6700 1.0000);stroke-opacity:1;" stroke-width="0.442704"/>
<path d="M8.36963 10.4805L8.8416 11.904" stroke="#66ABFF" style="stroke:#66ABFF;stroke:color(display-p3 0.4000 0.6700 1.0000);stroke-opacity:1;" stroke-width="0.442704"/>
<rect width="6.1022" height="2.25158" rx="0.442704" transform="matrix(0.994172 0.107809 -0.104449 0.99453 5.09619 13.6191)" fill="#3490FF" style="fill:#3490FF;fill:color(display-p3 0.2057 0.5631 1.0000);fill-opacity:1;"/>
<path d="M6.25586 14.5L6.09901 15.9934" stroke="#66ABFF" style="stroke:#66ABFF;stroke:color(display-p3 0.4000 0.6700 1.0000);stroke-opacity:1;" stroke-width="0.442704"/>
<path d="M7.77393 14.6641L7.61708 16.1575" stroke="#66ABFF" style="stroke:#66ABFF;stroke:color(display-p3 0.4000 0.6700 1.0000);stroke-opacity:1;" stroke-width="0.442704"/>
<rect width="6.11096" height="2.24844" rx="0.442704" transform="matrix(0.945623 0.325265 -0.316491 0.948596 6.49609 10.4629)" fill="#99C7FF" style="fill:#99C7FF;fill:color(display-p3 0.6000 0.7800 1.0000);fill-opacity:1;"/>
<path d="M9.47705 12.2812L9.0026 13.7033" stroke="#66ABFF" style="stroke:#66ABFF;stroke:color(display-p3 0.4000 0.6700 1.0000);stroke-opacity:1;" stroke-width="0.442704"/>
<path d="M10.9194 12.7773L10.445 14.1994" stroke="#66ABFF" style="stroke:#66ABFF;stroke:color(display-p3 0.4000 0.6700 1.0000);stroke-opacity:1;" stroke-width="0.442704"/>
<path d="M12.2575 6.65933C12.027 8.30102 10.4881 9.43598 8.8202 9.19433C7.15231 8.95267 5.98706 7.42592 6.21755 5.78422C6.44804 4.14253 7.98698 3.00757 9.65488 3.24923C11.3228 3.49088 12.488 5.01763 12.2575 6.65933Z" fill="#3490FF" style="fill:#3490FF;fill:color(display-p3 0.2057 0.5631 1.0000);fill-opacity:1;"/>
<path d="M11.8199 6.59565C12.0141 5.21133 11.0303 3.90122 9.59213 3.69284C8.15411 3.48475 6.8498 4.46324 6.65532 5.84737C6.46097 7.23165 7.44406 8.54143 8.88211 8.75003L8.8202 9.19433L8.5138 9.13471C7.01215 8.76197 6.00145 7.32342 6.21755 5.78422C6.44804 4.14253 7.98698 3.00757 9.65488 3.24923C11.3228 3.49088 12.488 5.01763 12.2575 6.65933L12.2321 6.81151C11.9308 8.37051 10.436 9.42844 8.8202 9.19433L8.88211 8.75003C10.3204 8.95842 11.6256 7.98007 11.8199 6.59565Z" fill="#66ABFF" style="fill:#66ABFF;fill:color(display-p3 0.4000 0.6700 1.0000);fill-opacity:1;"/>
<path d="M10.7928 5.07446C11.4439 5.9276 11.2747 7.13333 10.4147 7.76753C9.55475 8.40173 8.32978 8.22425 7.67865 7.37112C7.02752 6.51798 7.1968 5.31225 8.05675 4.67804C8.9167 4.04384 10.1417 4.22132 10.7928 5.07446Z" fill="#99C7FF" style="fill:#99C7FF;fill:color(display-p3 0.6000 0.7800 1.0000);fill-opacity:1;"/>
<path d="M21.184 12.4164C21.3935 12.289 21.4659 12.011 21.3459 11.7954L18.8073 7.23601C18.6872 7.02042 18.4201 6.94891 18.2107 7.0763L9.99988 12.0705C9.79044 12.1979 9.71797 12.4759 9.83802 12.6915L12.3766 17.2509C12.4967 17.4665 12.7638 17.538 12.9732 17.4106L21.184 12.4164Z" fill="#99C7FF" style="fill:#99C7FF;fill:color(display-p3 0.6000 0.7800 1.0000);fill-opacity:1;"/>
<path d="M10.2167 12.4607L9.83802 12.6915L12.3766 17.2509L12.7555 17.0205L10.2167 12.4607ZM18.4279 7.46626L20.9668 12.0261L12.3766 17.2509L12.428 17.3249C12.5432 17.4589 12.7265 17.5078 12.8919 17.4491L12.9732 17.4106L21.184 12.4164C21.3935 12.289 21.4659 12.011 21.3459 11.7954L18.8073 7.23601L18.7554 7.16185C18.621 7.00573 18.3938 6.96496 18.2107 7.0763L9.99988 12.0705L9.92752 12.125C9.79703 12.2462 9.74725 12.4372 9.80166 12.6079L9.83802 12.6915L18.4279 7.46626Z" fill="#66ABFF" style="fill:#66ABFF;fill:color(display-p3 0.4000 0.6700 1.0000);fill-opacity:1;"/>
<path d="M17.2329 11.2449C16.7069 10.3002 15.5455 9.98143 14.6388 10.5329C13.7321 11.0844 13.4235 12.2973 13.9495 13.242C14.4755 14.1867 15.6369 14.5054 16.5436 13.9539C17.4502 13.4024 17.7589 12.1895 17.2329 11.2449Z" fill="#99C7FF" style="fill:#99C7FF;fill:color(display-p3 0.6000 0.7800 1.0000);fill-opacity:1;"/>
<path d="M15.9691 12.0139C16.1029 12.2545 16.0135 12.5345 15.8196 12.6527C15.6254 12.7708 15.3476 12.7142 15.2134 12.4735C15.0793 12.2326 15.1696 11.9523 15.3638 11.8342L14.6388 10.5329L14.4755 10.6438C13.6966 11.235 13.4564 12.3564 13.9495 13.242C14.4755 14.1867 15.6369 14.5054 16.5436 13.9539L16.7065 13.8427C17.4854 13.2516 17.7258 12.1304 17.2329 11.2449C16.7069 10.3002 15.5455 9.98143 14.6388 10.5329L15.3638 11.8342C15.558 11.7163 15.8351 11.7732 15.9691 12.0139Z" fill="#66ABFF" style="fill:#66ABFF;fill:color(display-p3 0.4000 0.6700 1.0000);fill-opacity:1;"/>
<path d="M15.4896 5.51981C15.6514 5.3343 15.9343 5.31272 16.1216 5.47161L20.0826 8.83188C20.2699 8.99078 20.2906 9.26997 20.1289 9.45549L13.7883 16.7285C13.6265 16.914 13.3436 16.9356 13.1563 16.7767L9.19528 13.4164C9.00798 13.2575 8.98725 12.9783 9.14898 12.7928L15.4896 5.51981Z" fill="#3490FF" style="fill:#3490FF;fill:color(display-p3 0.2057 0.5631 1.0000);fill-opacity:1;"/>
<path d="M13.4491 16.4414L13.1563 16.7767L9.19528 13.4164L9.48777 13.0808L13.4491 16.4414ZM19.7901 9.16798L15.8288 5.8074L9.19528 13.4164L9.1328 13.3517C9.02381 13.2126 9.00973 13.0209 9.0968 12.8667L9.14898 12.7928L15.4896 5.51981C15.6514 5.3343 15.9343 5.31272 16.1216 5.47161L20.0826 8.83188L20.1451 8.89707C20.2721 9.05946 20.2703 9.29326 20.1289 9.45549L13.7883 16.7285L13.7222 16.7906C13.5808 16.8986 13.3865 16.9134 13.2307 16.8281L13.1563 16.7767L19.7901 9.16798Z" fill="url(#paint0_linear_4066_17371)" style=""/>
<path d="M15.9063 9.67135C16.727 10.3676 16.8247 11.5831 16.1245 12.3862C15.4244 13.1893 14.1914 13.2759 13.3707 12.5797C12.55 11.8835 12.4523 10.668 13.1525 9.86488C13.8527 9.06176 15.0856 8.97511 15.9063 9.67135Z" fill="#99C7FF" style="fill:#99C7FF;fill:color(display-p3 0.6000 0.7800 1.0000);fill-opacity:1;"/>
<path d="M20.5774 17.8057C20.3228 18.4719 19.7088 18.8519 19.206 18.6543C18.7031 18.4567 18.0891 18.8366 17.8345 19.5029L17.774 19.6613C17.6305 20.0368 17.3765 20.3499 17.072 20.5267L13.5647 22.5635C13.1603 22.7984 12.7253 22.8469 12.3489 22.699L3.89594 19.3773C3.28539 19.1374 3.04106 18.287 3.35022 17.478C3.65938 16.669 4.40495 16.2077 5.0155 16.4476L9.08606 18.0865C9.39134 18.2065 9.73708 18.1979 10.0755 18.0619L14.5905 16.2482C14.9394 16.108 14.9543 16.044 15.5514 15.5292C16.1485 15.0144 16.7446 14.3174 17.551 14.6343L20.1305 15.648C20.741 15.8879 20.9853 16.7382 20.6762 17.5472L20.5774 17.8057Z" fill="#E6E7EA" style="fill:#E6E7EA;fill:color(display-p3 0.9007 0.9069 0.9193);fill-opacity:1;"/>
<path d="M18.7494 15.5094C18.8519 15.241 19.1497 15.1078 19.4145 15.2118L22.3035 16.3471C22.5683 16.4512 22.6998 16.7531 22.5972 17.0214L20.7009 21.9837C20.5984 22.2521 20.3006 22.3853 20.0358 22.2812L17.1468 21.146C16.882 21.0419 16.7505 20.74 16.8531 20.4716L18.7494 15.5094Z" fill="#CACDD4" style="fill:#CACDD4;fill:color(display-p3 0.7903 0.8034 0.8297);fill-opacity:1;"/>
<defs>
<linearGradient id="paint0_linear_4066_17371" x1="15.2219" y1="5.36523" x2="15.2219" y2="17.4737" gradientUnits="userSpaceOnUse">
<stop offset="0.490385" stop-color="#66ABFF" style="stop-color:#66ABFF;stop-color:color(display-p3 0.4000 0.6700 1.0000);stop-opacity:1;"/>
<stop offset="1" stop-color="#E0EEFF" style="stop-color:#E0EEFF;stop-color:color(display-p3 0.8800 0.9340 1.0000);stop-opacity:1;"/>
</linearGradient>
</defs>
</svg>
