<svg width="26" height="26" viewBox="0 0 26 26" fill="none" xmlns="http://www.w3.org/2000/svg">
<path d="M9.75049 6.5C10.3485 6.50026 10.8333 6.98501 10.8335 7.58301C10.8335 8.18132 10.3478 8.66699 9.74951 8.66699H8.6665C9.26481 8.66699 9.74951 9.15169 9.74951 9.75C9.74951 10.3483 9.26481 10.833 8.6665 10.833H5.4165C4.85554 10.8329 4.39466 10.4068 4.33936 9.86035L4.3335 9.75H3.24951C2.65154 9.74974 2.16668 9.26499 2.1665 8.66699C2.1665 8.06868 2.65218 7.58301 3.25049 7.58301H5.4165C5.41668 6.98485 5.90229 6.5 6.50049 6.5H9.75049Z" fill="#E6E7EA" style="fill:#E6E7EA;fill:color(display-p3 0.9007 0.9069 0.9193);fill-opacity:1;"/>
<path d="M18.4165 5.41602C19.0147 5.41602 19.5003 5.90086 19.5005 6.49902H20.5835C21.1817 6.49911 21.6665 6.98475 21.6665 7.58301C21.6663 8.18108 21.1816 8.66593 20.5835 8.66602H17.3335C16.7726 8.66602 16.3108 8.23965 16.2554 7.69336L16.2505 7.58301H15.1665C14.5683 7.58283 14.0835 7.09722 14.0835 6.49902C14.0837 5.90097 14.5685 5.41619 15.1665 5.41602H18.4165Z" fill="#E6E7EA" style="fill:#E6E7EA;fill:color(display-p3 0.9007 0.9069 0.9193);fill-opacity:1;"/>
<path d="M4.26562 12.8988C5.03395 13.6592 7.17549 14.6257 7.91308 11.584C8.6814 12.5979 10.711 13.633 12.5549 9.98296C13.9379 10.1097 16.7395 9.27741 17.8459 4.71484" stroke="#005CCC" style="stroke:#005CCC;stroke:color(display-p3 0.0000 0.3600 0.8000);stroke-opacity:1;" stroke-width="0.216667"/>
<rect x="12.3081" y="9.6582" width="0.460993" height="5.32299" rx="0.230496" fill="#D9D9D9" style="fill:#D9D9D9;fill:color(display-p3 0.8510 0.8510 0.8510);fill-opacity:1;"/>
<rect x="17.6147" y="4.33984" width="0.460993" height="5.32299" rx="0.230496" fill="#66ABFF" style="fill:#66ABFF;fill:color(display-p3 0.4000 0.6700 1.0000);fill-opacity:1;"/>
<rect x="7.69873" y="11.1777" width="0.460993" height="5.32299" rx="0.230496" fill="#D9D9D9" style="fill:#D9D9D9;fill:color(display-p3 0.8510 0.8510 0.8510);fill-opacity:1;"/>
<rect x="4.01074" y="12.6973" width="0.460993" height="5.32299" rx="0.230496" fill="#D9D9D9" style="fill:#D9D9D9;fill:color(display-p3 0.8510 0.8510 0.8510);fill-opacity:1;"/>
<path d="M17.8335 6.35689V4.62731C17.8335 4.49146 17.9754 4.40225 18.0978 4.46113L20.1949 5.46988C20.3434 5.54132 20.3307 5.75685 20.1749 5.81043L18.0778 6.53128C17.9581 6.57243 17.8335 6.48348 17.8335 6.35689Z" fill="#66ABFF" style="fill:#66ABFF;fill:color(display-p3 0.4000 0.6700 1.0000);fill-opacity:1;"/>
<path d="M22.7873 21.6671H2.97634C2.56385 21.6671 2.26018 21.2809 2.35743 20.8801L3.36221 16.7382C3.74262 15.1701 5.14666 14.0659 6.76024 14.0659C7.92319 14.0659 9.01003 14.6441 9.65991 15.6085L10.3742 16.6685C10.4167 16.7316 10.51 16.7302 10.5506 16.6659L14.0221 11.1708C14.6932 10.1086 15.7756 9.37309 17.0104 9.14041C19.494 8.67239 21.8797 10.329 22.3088 12.8197L23.6556 20.6364C23.7484 21.1749 23.3337 21.6671 22.7873 21.6671Z" fill="url(#paint0_linear_4066_17370)" style=""/>
<path d="M6.62692 14.0679C7.83914 14.068 8.93739 14.5386 9.42979 15.2692L9.59997 15.5222C9.41335 15.5967 9.2064 15.6008 9.04173 15.581C8.85624 15.5586 8.66641 15.5021 8.4835 15.4337C8.43572 15.4159 8.40138 15.4077 8.38266 15.4052C8.3693 15.4035 8.36105 15.4052 8.36105 15.4052C8.36105 15.4052 8.35114 15.4073 8.33584 15.4147C8.31781 15.4234 8.28792 15.4405 8.253 15.4717C8.00721 15.6909 7.7416 15.8793 7.45707 16.0299C7.20024 16.1651 6.88807 16.191 6.58911 16.1178C6.33477 16.0553 6.10965 15.9259 5.90842 15.7757C5.89934 15.7949 5.8887 15.8162 5.87961 15.8399C5.79409 16.0628 5.69039 16.2587 5.56628 16.4195C5.44368 16.5782 5.28765 16.7237 5.07647 16.8209C4.93246 16.8871 4.75897 16.9214 4.57586 16.9135C4.40214 16.9059 4.24862 16.8607 4.12207 16.8066C3.88655 16.706 3.66627 16.539 3.4585 16.3399L3.59715 15.7716C3.83529 14.7899 5.11963 14.0679 6.62692 14.0679Z" fill="#3490FF" style="fill:#3490FF;fill:color(display-p3 0.2057 0.5631 1.0000);fill-opacity:1;"/>
<path d="M16.9443 9.15443C19.3437 8.70229 21.7847 9.77932 22.0666 11.4146L22.2782 12.6462C22.2782 12.6462 22.1161 12.5523 21.9891 12.5473C21.8622 12.5424 21.6686 12.9871 21.6686 12.9871C21.6077 13.1353 21.5371 13.2666 21.4561 13.3743C21.3809 13.4742 21.2698 13.5916 21.0924 13.664C20.9951 13.7035 20.8745 13.7306 20.743 13.7306C20.6138 13.7303 20.5003 13.7035 20.4081 13.6688C20.2364 13.6041 20.1088 13.4982 20.0155 13.4004C19.7119 13.082 19.4275 12.8477 19.1656 12.6878C18.9077 12.5304 18.709 12.4777 18.5677 12.4716C18.5535 12.4714 18.4146 12.4764 18.186 12.7329C18.0394 12.8972 17.8339 13.1392 17.5309 13.5589C17.228 13.9786 16.3508 14.0035 15.9962 13.7635C15.6417 13.5235 15.8617 12.7905 15.4551 12.6462C15.0485 12.5019 14.118 13.2753 14.055 13.4099C13.992 13.5444 13.3385 13.9914 13.0934 13.9443C12.8483 13.8972 12.6961 13.7617 12.6072 13.6688C12.5752 13.6353 12.5445 13.5982 12.5136 13.5589L14.326 10.6913C14.7988 9.943 15.7625 9.37715 16.9443 9.15443Z" fill="#3490FF" style="fill:#3490FF;fill:color(display-p3 0.2057 0.5631 1.0000);fill-opacity:1;"/>
<defs>
<linearGradient id="paint0_linear_4066_17370" x1="12.9998" y1="14.0834" x2="12.9998" y2="21.6671" gradientUnits="userSpaceOnUse">
<stop stop-color="#99C7FF" style="stop-color:#99C7FF;stop-color:color(display-p3 0.6000 0.7800 1.0000);stop-opacity:1;"/>
<stop offset="1" stop-color="#3490FF" style="stop-color:#3490FF;stop-color:color(display-p3 0.2039 0.5647 1.0000);stop-opacity:1;"/>
</linearGradient>
</defs>
</svg>
