<svg width="24" height="24" viewBox="0 0 24 24" fill="none" xmlns="http://www.w3.org/2000/svg">
<rect x="14.6855" y="5.91992" width="9.20014" height="12.2669" rx="1" transform="rotate(32.9952 14.6855 5.91992)" fill="#66ABFF" style="fill:#66ABFF;fill:color(display-p3 0.4000 0.6700 1.0000);fill-opacity:1;"/>
<rect x="14.8371" y="6.63465" width="8.16678" height="11.2335" rx="0.45" transform="rotate(32.9952 14.8371 6.63465)" fill="#3490FF" stroke="#E0EEFF" style="fill:#3490FF;fill:color(display-p3 0.2057 0.5631 1.0000);fill-opacity:1;stroke:#E0EEFF;stroke:color(display-p3 0.8800 0.9340 1.0000);stroke-opacity:1;" stroke-width="0.5"/>
<rect x="11.1523" y="12.7676" width="7.66678" height="3.83339" transform="rotate(32.9952 11.1523 12.7676)" fill="#66ABFF" style="fill:#66ABFF;fill:color(display-p3 0.4000 0.6700 1.0000);fill-opacity:1;"/>
<rect x="11.3784" y="13.8281" width="3.06671" height="0.766678" rx="0.383339" transform="rotate(32.9952 11.3784 13.8281)" fill="#E0EEFF" style="fill:#E0EEFF;fill:color(display-p3 0.8800 0.9340 1.0000);fill-opacity:1;"/>
<rect x="10.543" y="15.1152" width="5.36675" height="0.766678" rx="0.383339" transform="rotate(32.9952 10.543 15.1152)" fill="#E0EEFF" style="fill:#E0EEFF;fill:color(display-p3 0.8800 0.9340 1.0000);fill-opacity:1;"/>
<path d="M14.1773 9.93834C14.8686 9.45066 15.8062 9.51009 16.4303 10.0812L16.7125 10.3394C16.948 10.5549 17.0838 10.8582 17.0877 11.1773L17.0879 11.1984C17.0941 11.7066 17.4396 12.1478 17.9315 12.2755C18.6761 12.4689 19.0124 13.3349 18.5934 13.9801L18.3952 14.2854C18.0345 14.8409 17.3319 15.0646 16.7165 14.8199L16.403 14.6952C16.1118 14.5794 15.8558 14.3896 15.6604 14.1446L15.5685 14.0293C15.3311 13.7316 15.0036 13.519 14.6351 13.4232C13.6654 13.1714 13.1014 12.1619 13.3951 11.2041L13.4941 10.8815C13.611 10.5001 13.8514 10.1683 14.1773 9.93834Z" fill="#E0EEFF" style="fill:#E0EEFF;fill:color(display-p3 0.8800 0.9340 1.0000);fill-opacity:1;"/>
<rect x="6.72266" y="4.51953" width="9.20014" height="12.2669" rx="1" transform="rotate(-4.52217 6.72266 4.51953)" fill="#99C7FF" style="fill:#99C7FF;fill:color(display-p3 0.6000 0.7800 1.0000);fill-opacity:1;"/>
<rect x="6.72266" y="4.51953" width="9.20014" height="12.2669" rx="1" transform="rotate(-4.52217 6.72266 4.51953)" fill="#E0EEFF" style="fill:#E0EEFF;fill:color(display-p3 0.8800 0.9340 1.0000);fill-opacity:1;"/>
<rect x="7.27843" y="4.99315" width="8.16678" height="11.2335" rx="0.45" transform="rotate(-4.52217 7.27843 4.99315)" fill="#E0EEFF" stroke="#3490FF" style="fill:#E0EEFF;fill:color(display-p3 0.8800 0.9340 1.0000);fill-opacity:1;stroke:#3490FF;stroke:color(display-p3 0.2057 0.5631 1.0000);stroke-opacity:1;" stroke-width="0.5"/>
<rect x="8.09131" y="12.1016" width="7.66678" height="3.83339" transform="rotate(-4.52217 8.09131 12.1016)" fill="#66ABFF" style="fill:#66ABFF;fill:color(display-p3 0.4000 0.6700 1.0000);fill-opacity:1;"/>
<rect x="8.9165" y="12.8047" width="3.06671" height="0.766678" rx="0.383339" transform="rotate(-4.52217 8.9165 12.8047)" fill="#E0EEFF" style="fill:#E0EEFF;fill:color(display-p3 0.8800 0.9340 1.0000);fill-opacity:1;"/>
<rect x="9.03662" y="14.334" width="5.36675" height="0.766678" rx="0.383339" transform="rotate(-4.52217 9.03662 14.334)" fill="#E0EEFF" style="fill:#E0EEFF;fill:color(display-p3 0.8800 0.9340 1.0000);fill-opacity:1;"/>
<path d="M8.76555 8.01451C9.01683 7.20672 9.79667 6.68288 10.6395 6.75573L11.0207 6.78868C11.3386 6.81616 11.631 6.97403 11.8285 7.2248L11.8415 7.24139C12.1559 7.64072 12.6986 7.78023 13.1666 7.582C13.8749 7.28196 14.6691 7.76403 14.7297 8.53089L14.7584 8.89379C14.8106 9.55403 14.3896 10.1593 13.7524 10.34L13.4278 10.4321C13.1263 10.5176 12.8077 10.5229 12.5035 10.4475L12.3604 10.4121C11.9908 10.3206 11.6015 10.3513 11.2509 10.4999C10.3284 10.8906 9.26629 10.4335 8.91596 9.49485L8.79795 9.17869C8.65846 8.80494 8.64706 8.39544 8.76555 8.01451Z" fill="#3490FF" style="fill:#3490FF;fill:color(display-p3 0.2057 0.5631 1.0000);fill-opacity:1;"/>
<rect x="1.49268" y="9.94336" width="9.20014" height="12.2669" rx="1" transform="rotate(-27.9685 1.49268 9.94336)" fill="#99C7FF" style="fill:#99C7FF;fill:color(display-p3 0.6000 0.7800 1.0000);fill-opacity:1;"/>
<rect x="2.19174" y="10.1562" width="8.16678" height="11.2335" rx="0.45" transform="rotate(-27.9685 2.19174 10.1562)" fill="#3490FF" stroke="#E0EEFF" style="fill:#3490FF;fill:color(display-p3 0.2057 0.5631 1.0000);fill-opacity:1;stroke:#E0EEFF;stroke:color(display-p3 0.8800 0.9340 1.0000);stroke-opacity:1;" stroke-width="0.5"/>
<rect x="5.76611" y="16.3555" width="7.66678" height="3.83339" transform="rotate(-27.9685 5.76611 16.3555)" fill="#99C7FF" style="fill:#99C7FF;fill:color(display-p3 0.6000 0.7800 1.0000);fill-opacity:1;"/>
<rect x="6.80176" y="16.6719" width="3.06671" height="0.766678" rx="0.383339" transform="rotate(-27.9685 6.80176 16.6719)" fill="#3490FF" style="fill:#3490FF;fill:color(display-p3 0.2057 0.5631 1.0000);fill-opacity:1;"/>
<rect x="7.52197" y="18.0273" width="5.36675" height="0.766678" rx="0.383339" transform="rotate(-27.9685 7.52197 18.0273)" fill="#3490FF" style="fill:#3490FF;fill:color(display-p3 0.2057 0.5631 1.0000);fill-opacity:1;"/>
<path d="M4.75857 12.3369C4.66769 11.4958 5.17471 10.7049 5.97694 10.4364L6.33974 10.315C6.64239 10.2137 6.97347 10.2421 7.25437 10.3937L7.27295 10.4037C7.72026 10.6449 8.27371 10.557 8.62417 10.1889C9.15462 9.63181 10.075 9.75811 10.4357 10.4375L10.6065 10.759C10.9171 11.344 10.7716 12.0669 10.259 12.4861L9.99782 12.6997C9.75522 12.8981 9.46504 13.0298 9.15596 13.0817L9.0106 13.1061C8.63511 13.1692 8.2902 13.3523 8.02764 13.6281C7.33679 14.3536 6.18044 14.3568 5.48558 13.6351L5.25151 13.392C4.97482 13.1046 4.80143 12.7335 4.75857 12.3369Z" fill="#E0EEFF" style="fill:#E0EEFF;fill:color(display-p3 0.8800 0.9340 1.0000);fill-opacity:1;"/>
</svg>
