<svg width="48" height="48" viewBox="0 0 48 48" fill="none" xmlns="http://www.w3.org/2000/svg">
<path d="M40.876 20.7095C42.0318 21.769 41.2888 23.7084 39.7269 23.7084C38.7834 23.7084 38.0184 24.48 38.0184 25.4318V37.9213C38.0184 39.051 37.1105 39.9668 35.9906 39.9668H12.3909C11.2709 39.9668 10.363 39.051 10.363 37.9213V25.4323C10.363 24.4802 9.59781 23.7084 8.65392 23.7084C7.0916 23.7084 6.34829 21.7684 7.50453 20.7085L22.8259 6.66449C23.5993 5.95559 24.7801 5.95559 25.5535 6.66449L40.876 20.7095Z" fill="url(#paint0_linear_4066_17393)" style=""/>
<path d="M31.3036 24.4453C30.5135 24.7563 29.8658 25.3801 29.3711 26.1263C28.8744 26.8757 28.5094 27.78 28.2947 28.7103C28.0799 29.6412 28.0105 30.6192 28.1224 31.5186C28.2338 32.4136 28.5292 33.2676 29.0774 33.9112L29.876 33.245C29.499 32.8023 29.2549 32.1598 29.1593 31.3912C29.0644 30.6273 29.1214 29.7724 29.3129 28.9421C29.5046 28.111 29.8259 27.3228 30.2439 26.6923C30.6638 26.059 31.16 25.6138 31.6877 25.4058L31.3036 24.4453Z" fill="#99C7FF" style="fill:#99C7FF;fill:color(display-p3 0.6000 0.7800 1.0000);fill-opacity:1;"/>
<path d="M30.7394 33.6849C30.7989 32.9938 30.2811 32.3858 29.5827 32.3269L27.0539 32.1136C26.3555 32.0547 25.7412 32.5672 25.6816 33.2583C25.6221 33.9493 26.14 34.5573 26.8383 34.6162L29.3672 34.8295C30.0655 34.8884 30.6799 34.3759 30.7394 33.6849Z" fill="#D9D9D9" style="fill:#D9D9D9;fill:color(display-p3 0.8510 0.8510 0.8510);fill-opacity:1;"/>
<path d="M25.6864 33.5119C25.7452 34.0095 26.1008 34.427 26.5865 34.5686L26.8383 34.6162L29.3672 34.8295L29.6235 34.8248C30.21 34.7569 30.6873 34.2897 30.7394 33.6849C30.7915 33.08 30.401 32.5396 29.8346 32.3745L29.5827 32.3269L27.0539 32.1136L26.7975 32.1184C26.2111 32.1863 25.7337 32.6535 25.6816 33.2583L25.6864 33.5119Z" fill="#99C7FF" style="fill:#99C7FF;fill:color(display-p3 0.6000 0.7800 1.0000);fill-opacity:1;"/>
<path d="M42.3684 21.9996C42.3684 26.161 38.3912 29.5345 33.4852 29.5345C28.5792 29.5345 24.6021 26.161 24.6021 21.9996C24.6021 17.8383 28.5792 14.4648 33.4852 14.4648C38.3912 14.4648 42.3684 17.8383 42.3684 21.9996Z" fill="url(#paint1_linear_4066_17393)" style=""/>
<path d="M18.1037 15.6409C18.8037 15.8599 19.3483 16.4623 19.6623 17.2399C20.2931 18.8029 20.0529 21.186 18.2007 23.322L17.9642 23.1203L17.7258 22.918C19.4457 20.9343 19.6137 18.7927 19.0812 17.4716C18.8133 16.8078 18.3827 16.3786 17.9149 16.2322C17.4625 16.0907 16.8944 16.1887 16.2776 16.7453C16.1499 16.8603 15.9523 16.8505 15.8357 16.7246C15.7192 16.5981 15.7271 16.4021 15.8546 16.2867C16.5936 15.6199 17.3879 15.4171 18.1037 15.6409Z" fill="#3490FF" style="fill:#3490FF;fill:color(display-p3 0.2057 0.5631 1.0000);fill-opacity:1;"/>
<path d="M12.4119 15.8984C13.1376 15.789 13.8951 16.0913 14.5239 16.6517C15.7875 17.7783 16.6356 20.0213 15.9273 22.7472L15.6251 22.6696L15.3209 22.5923C15.9785 20.0608 15.1733 18.066 14.106 17.1136C13.5693 16.6351 12.9914 16.4383 12.5064 16.5114C12.0373 16.5822 11.5714 16.9185 11.2665 17.6874C11.2032 17.8464 11.0216 17.924 10.8607 17.862C10.6998 17.7995 10.6194 17.6201 10.6823 17.4608C11.0477 16.5396 11.6698 16.0105 12.4119 15.8984Z" fill="#3490FF" style="fill:#3490FF;fill:color(display-p3 0.2057 0.5631 1.0000);fill-opacity:1;"/>
<path d="M23.0954 25.291C22.3348 25.6673 21.743 26.3433 21.3142 27.1284C20.8835 27.9168 20.5975 28.8485 20.4633 29.7935C20.3292 30.7391 20.3441 31.7194 20.5327 32.6061C20.7205 33.4886 21.0881 34.3146 21.6896 34.9098L22.4282 34.1789C22.0145 33.7695 21.7161 33.1499 21.5549 32.3921C21.3948 31.6389 21.3783 30.7823 21.4978 29.9389C21.6175 29.0947 21.8699 28.2824 22.2323 27.619C22.5963 26.9527 23.0526 26.4674 23.5605 26.2157L23.0954 25.291Z" fill="#66ABFF" style="fill:#66ABFF;fill:color(display-p3 0.4000 0.6700 1.0000);fill-opacity:1;"/>
<path d="M23.3281 34.5429C23.3281 33.8494 22.76 33.2871 22.0591 33.2871H19.5211C18.8202 33.2871 18.252 33.8494 18.252 34.5429C18.252 35.2365 18.8202 35.7987 19.5211 35.7987H22.0591C22.76 35.7987 23.3281 35.2365 23.3281 34.5429Z" fill="#D9D9D9" style="fill:#D9D9D9;fill:color(display-p3 0.8510 0.8510 0.8510);fill-opacity:1;"/>
<path d="M18.2786 34.7953C18.3798 35.2861 18.77 35.6722 19.266 35.7725L19.5211 35.7987H22.0591L22.3141 35.7725C22.8927 35.6556 23.3281 35.1499 23.3281 34.5429C23.3281 33.9359 22.8927 33.4302 22.3141 33.3134L22.0591 33.2871H19.5211L19.266 33.3134C18.6876 33.4303 18.252 33.9359 18.252 34.5429L18.2786 34.7953Z" fill="#66ABFF" style="fill:#66ABFF;fill:color(display-p3 0.4000 0.6700 1.0000);fill-opacity:1;"/>
<path d="M29.6756 24.5095C29.6756 27.2838 27.403 29.5327 24.5995 29.5327C21.7961 29.5327 19.5234 27.2838 19.5234 24.5095C19.5234 21.7353 21.7961 19.4863 24.5995 19.4863C27.403 19.4863 29.6756 21.7353 29.6756 24.5095Z" fill="url(#paint2_linear_4066_17393)" style=""/>
<path d="M22.0614 27.0232C22.0614 29.7974 19.7887 32.0464 16.9853 32.0464C14.1818 32.0464 11.9092 29.7974 11.9092 27.0232C11.9092 24.249 14.1818 22 16.9853 22C19.7887 22 22.0614 24.249 22.0614 27.0232Z" fill="#3490FF" style="fill:#3490FF;fill:color(display-p3 0.2057 0.5631 1.0000);fill-opacity:1;"/>
<path d="M24.0234 28.2782C25.4399 30.0828 24.5474 32.3449 23.1743 33.7675C22.4697 34.4974 21.5833 35.078 20.6665 35.3465C19.7453 35.6161 18.7489 35.5793 17.9162 34.992L18.221 34.5711L18.5228 34.1499C19.0236 34.503 19.6641 34.5634 20.3708 34.3566C21.0815 34.1484 21.8168 33.6789 22.4199 33.0541C23.6622 31.767 24.131 30.1011 23.1987 28.913L24.0234 28.2782Z" fill="url(#paint3_linear_4066_17393)" style=""/>
<path d="M18.7108 33.7337C19.4112 33.7082 19.9999 34.2494 20.0257 34.9425L20.037 35.2463C20.0628 35.9393 19.516 36.5219 18.8156 36.5474C18.1152 36.573 17.5265 36.0318 17.5007 35.3387L17.4894 35.0349C17.4636 34.3418 18.0105 33.7593 18.7108 33.7337Z" fill="#3490FF" style="fill:#3490FF;fill:color(display-p3 0.2057 0.5631 1.0000);fill-opacity:1;"/>
<path d="M13.7554 26.8887C12.9141 27.0112 12.0378 26.7925 11.2319 26.392C10.4225 25.9898 9.64879 25.3882 8.99191 24.6895C8.33472 23.9904 7.77953 23.1784 7.42096 22.3446C7.06414 21.5148 6.88739 20.6293 7.03596 19.8005L8.06443 19.981C7.96225 20.5511 8.07633 21.2281 8.38277 21.9407C8.68744 22.6489 9.16965 23.3604 9.75575 23.9841C10.3425 24.6082 11.0196 25.1311 11.7005 25.4695C12.3846 25.8093 13.0395 25.9486 13.6015 25.867L13.7554 26.8887Z" fill="#3490FF" style="fill:#3490FF;fill:color(display-p3 0.2057 0.5631 1.0000);fill-opacity:1;"/>
<path d="M8.55101 20.8379C8.14638 21.4042 7.35445 21.5387 6.78219 21.1383L4.70985 19.6882C4.13759 19.2878 4.0017 18.5041 4.40633 17.9378C4.81096 17.3716 5.60289 17.2371 6.17515 17.6375L8.24749 19.0875C8.81975 19.4879 8.95564 20.2716 8.55101 20.8379Z" fill="#D9D9D9" style="fill:#D9D9D9;fill:color(display-p3 0.8510 0.8510 0.8510);fill-opacity:1;"/>
<path d="M4.57522 17.7469C4.94429 17.404 5.48811 17.3117 5.9516 17.5132L6.17515 17.6375L8.24749 19.0875L8.44041 19.2547C8.84461 19.6806 8.90513 20.3422 8.55101 20.8379C8.19685 21.3336 7.5463 21.4976 7.00574 21.2625L6.78219 21.1383L4.70985 19.6882L4.51693 19.5211C4.11287 19.0951 4.05222 18.4334 4.40633 17.9378L4.57522 17.7469Z" fill="#3490FF" style="fill:#3490FF;fill:color(display-p3 0.2057 0.5631 1.0000);fill-opacity:1;"/>
<path d="M27.0331 27.4023C27.7936 27.7787 28.3854 28.4546 28.8143 29.2397C29.2449 30.0281 29.531 30.9598 29.6651 31.9049C29.7992 32.8504 29.7844 33.8307 29.5957 34.7174C29.4079 35.5999 29.0403 36.426 28.4388 37.0212L27.7003 36.2903C28.1139 35.8809 28.4123 35.2612 28.5735 34.5034C28.7336 33.7502 28.7502 32.8936 28.6306 32.0502C28.5109 31.206 28.2585 30.3937 27.8961 29.7303C27.5321 29.064 27.0759 28.5787 26.5679 28.3271L27.0331 27.4023Z" fill="#66ABFF" style="fill:#66ABFF;fill:color(display-p3 0.4000 0.6700 1.0000);fill-opacity:1;"/>
<path d="M26.8003 36.6542C26.8003 35.9607 27.3685 35.3984 28.0693 35.3984H30.6074C31.3082 35.3984 31.8764 35.9607 31.8764 36.6542C31.8764 37.3478 31.3082 37.91 30.6074 37.91H28.0693C27.3685 37.91 26.8003 37.3478 26.8003 36.6542Z" fill="#D9D9D9" style="fill:#D9D9D9;fill:color(display-p3 0.8510 0.8510 0.8510);fill-opacity:1;"/>
<path d="M31.8499 36.9066C31.7486 37.3975 31.3584 37.7835 30.8624 37.8838L30.6074 37.91H28.0693L27.8143 37.8838C27.2358 37.7669 26.8003 37.2613 26.8003 36.6542C26.8003 36.0472 27.2357 35.5416 27.8143 35.4247L28.0693 35.3984H30.6074L30.8624 35.4247C31.4408 35.5416 31.8764 36.0473 31.8764 36.6542L31.8499 36.9066Z" fill="#66ABFF" style="fill:#66ABFF;fill:color(display-p3 0.4000 0.6700 1.0000);fill-opacity:1;"/>
<path d="M34.8003 27.7155C35.648 27.6494 36.5074 27.9261 37.2842 28.3795C38.0643 28.8348 38.7952 29.4868 39.403 30.2277C40.011 30.9691 40.5096 31.8163 40.8105 32.6721C41.1099 33.5239 41.2259 34.4192 41.0211 35.2362L40.0073 34.9874C40.1481 34.4255 40.0805 33.7423 39.8233 33.0109C39.5676 32.284 39.135 31.5419 38.5928 30.8806C38.0499 30.2186 37.41 29.6518 36.7537 29.2687C36.0944 28.8839 35.4505 28.7012 34.8842 28.7452L34.8003 27.7155Z" fill="#99C7FF" style="fill:#99C7FF;fill:color(display-p3 0.6000 0.7800 1.0000);fill-opacity:1;"/>
<path d="M39.4269 35.7612C39.0652 35.1671 39.2586 34.3954 39.8589 34.0374L42.0328 32.7411C42.6331 32.3831 43.413 32.5745 43.7747 33.1686C44.1364 33.7626 43.943 34.5344 43.3427 34.8923L41.1689 36.1886C40.5686 36.5466 39.7887 36.3552 39.4269 35.7612Z" fill="#D9D9D9" style="fill:#D9D9D9;fill:color(display-p3 0.8510 0.8510 0.8510);fill-opacity:1;"/>
<path d="M43.8836 33.3983C44.0529 33.8704 43.92 34.4004 43.5475 34.7396L43.3427 34.8923L41.1689 36.1886L40.9367 36.2964C40.3803 36.4918 39.7436 36.2811 39.4269 35.7612C39.1103 35.2412 39.2196 34.5857 39.6542 34.1901L39.8589 34.0374L42.0328 32.7411L42.2649 32.6333C42.8213 32.4381 43.4581 32.6487 43.7747 33.1686L43.8836 33.3983Z" fill="#99C7FF" style="fill:#99C7FF;fill:color(display-p3 0.6000 0.7800 1.0000);fill-opacity:1;"/>
<path d="M5.61553 32.4276C5.35664 32.0963 5.49704 31.6116 5.89396 31.4664L12.6314 29.0011C12.8883 28.9071 13.177 28.989 13.3446 29.2034L19.0504 36.5042C19.3093 36.8354 19.1689 37.3201 18.7719 37.4654L12.0345 39.9307C11.7776 40.0247 11.4889 39.9428 11.3213 39.7284L5.61553 32.4276Z" fill="#005CCC" style="fill:#005CCC;fill:color(display-p3 0.0000 0.3600 0.8000);fill-opacity:1;"/>
<path d="M17.488 24.6594C17.488 24.9675 17.236 25.2172 16.9251 25.2172C16.6143 25.2172 16.3623 24.9675 16.3623 24.6594C16.3623 24.3513 16.6143 24.1016 16.9251 24.1016C17.236 24.1016 17.488 24.3513 17.488 24.6594Z" fill="#1A1C20" style="fill:#1A1C20;fill:color(display-p3 0.1020 0.1098 0.1255);fill-opacity:1;"/>
<path d="M15.2175 24.8723C15.2175 25.1803 14.9655 25.4301 14.6546 25.4301C14.3438 25.4301 14.0918 25.1803 14.0918 24.8723C14.0918 24.5642 14.3438 24.3145 14.6546 24.3145C14.9655 24.3145 15.2175 24.5642 15.2175 24.8723Z" fill="#1A1C20" style="fill:#1A1C20;fill:color(display-p3 0.1020 0.1098 0.1255);fill-opacity:1;"/>
<path d="M14.7023 27.1583C14.6423 26.9576 14.7581 26.7468 14.9609 26.6875L18.8888 25.5387C19.0915 25.4794 19.3045 25.594 19.3644 25.7947L19.3917 25.886C19.7722 27.16 19.037 28.498 17.7496 28.8746C16.4622 29.2511 15.11 28.5236 14.7295 27.2495L14.7023 27.1583Z" fill="#005CCC" style="fill:#005CCC;fill:color(display-p3 0.0000 0.3600 0.8000);fill-opacity:1;"/>
<defs>
<linearGradient id="paint0_linear_4066_17393" x1="24.1902" y1="6.13281" x2="24.1902" y2="39.9668" gradientUnits="userSpaceOnUse">
<stop stop-color="#E6E7EA" style="stop-color:#E6E7EA;stop-color:color(display-p3 0.9007 0.9069 0.9193);stop-opacity:1;"/>
<stop offset="0.974054" stop-color="#C9CDD4" style="stop-color:#C9CDD4;stop-color:color(display-p3 0.7882 0.8039 0.8314);stop-opacity:1;"/>
</linearGradient>
<linearGradient id="paint1_linear_4066_17393" x1="33.4852" y1="14.4648" x2="33.4852" y2="29.5345" gradientUnits="userSpaceOnUse">
<stop stop-color="#66ABFF" style="stop-color:#66ABFF;stop-color:color(display-p3 0.4000 0.6700 1.0000);stop-opacity:1;"/>
<stop offset="1" stop-color="#99C7FF" style="stop-color:#99C7FF;stop-color:color(display-p3 0.6000 0.7800 1.0000);stop-opacity:1;"/>
</linearGradient>
<linearGradient id="paint2_linear_4066_17393" x1="24.5995" y1="19.4863" x2="24.5995" y2="29.5327" gradientUnits="userSpaceOnUse">
<stop stop-color="#3490FF" style="stop-color:#3490FF;stop-color:color(display-p3 0.2039 0.5647 1.0000);stop-opacity:1;"/>
<stop offset="1" stop-color="#66ABFF" style="stop-color:#66ABFF;stop-color:color(display-p3 0.4000 0.6700 1.0000);stop-opacity:1;"/>
</linearGradient>
<linearGradient id="paint3_linear_4066_17393" x1="24.7208" y1="29.9888" x2="22.6216" y2="33.663" gradientUnits="userSpaceOnUse">
<stop stop-color="#66ABFF" style="stop-color:#66ABFF;stop-color:color(display-p3 0.4000 0.6700 1.0000);stop-opacity:1;"/>
<stop offset="1" stop-color="#3490FF" style="stop-color:#3490FF;stop-color:color(display-p3 0.2039 0.5647 1.0000);stop-opacity:1;"/>
</linearGradient>
</defs>
</svg>
