<svg width="26" height="26" viewBox="0 0 26 26" fill="none" xmlns="http://www.w3.org/2000/svg">
<rect x="3.25" y="20.584" width="19.5" height="2.16667" rx="1.08333" fill="#E6E7EA" style="fill:#E6E7EA;fill:color(display-p3 0.9007 0.9069 0.9193);fill-opacity:1;"/>
<rect x="3.25" y="3.25" width="14.7333" height="18.4167" rx="1.08333" fill="url(#paint0_linear_4066_17387)" style=""/>
<rect x="5.0918" y="5.0918" width="11.05" height="2.7625" rx="1.38125" fill="#E0EEFF" style="fill:#E0EEFF;fill:color(display-p3 0.8800 0.9340 1.0000);fill-opacity:1;"/>
<path d="M14.4561 13.0732C15.2187 13.0735 15.8369 13.6924 15.8369 14.4551V17.8379C15.8369 18.6006 15.2187 19.2185 14.4561 19.2188C13.6932 19.2188 13.0742 18.6007 13.0742 17.8379V14.4551C13.0742 13.6922 13.6932 13.0732 14.4561 13.0732ZM6.47168 16.4502C7.23444 16.4502 7.85242 17.0683 7.85254 17.8311C7.85254 18.5939 7.23452 19.2129 6.47168 19.2129C5.70884 19.2129 5.09082 18.5939 5.09082 17.8311C5.09094 17.0683 5.70891 16.4502 6.47168 16.4502ZM10.4639 16.4502C11.2266 16.4502 11.8456 17.0683 11.8457 17.8311C11.8457 18.5939 11.2267 19.2129 10.4639 19.2129C9.70124 19.2126 9.08301 18.5937 9.08301 17.8311C9.08313 17.0685 9.70132 16.4505 10.4639 16.4502ZM6.47168 13.0732C7.23452 13.0732 7.85254 13.6922 7.85254 14.4551C7.85242 15.2178 7.23444 15.8359 6.47168 15.8359C5.70891 15.8359 5.09094 15.2178 5.09082 14.4551C5.09082 13.6922 5.70884 13.0732 6.47168 13.0732ZM10.4639 13.0732C11.2267 13.0732 11.8457 13.6922 11.8457 14.4551C11.8456 15.2178 11.2266 15.8359 10.4639 15.8359C9.70132 15.8357 9.08313 15.2177 9.08301 14.4551C9.08301 13.6924 9.70124 13.0735 10.4639 13.0732ZM6.47168 9.69727C7.23441 9.69727 7.85237 10.3154 7.85254 11.0781C7.85254 11.841 7.23452 12.46 6.47168 12.46C5.70884 12.46 5.09082 11.841 5.09082 11.0781C5.09099 10.3154 5.70894 9.69727 6.47168 9.69727ZM10.4639 9.69727C11.2266 9.69727 11.8455 10.3154 11.8457 11.0781C11.8457 11.841 11.2267 12.46 10.4639 12.46C9.70124 12.4597 9.08301 11.8408 9.08301 11.0781C9.08317 10.3156 9.70135 9.69752 10.4639 9.69727ZM14.4531 9.69727C15.2159 9.69727 15.8348 10.3154 15.835 11.0781C15.835 11.841 15.216 12.46 14.4531 12.46C13.6905 12.4598 13.0723 11.8408 13.0723 11.0781C13.0724 10.3155 13.6906 9.69746 14.4531 9.69727Z" fill="url(#paint1_linear_4066_17387)" style=""/>
<path d="M13 18.4485C13 18.2902 13.1364 18.1618 13.3047 18.1618H15.1328C15.3011 18.1618 15.4375 18.2902 15.4375 18.4485V22.4632C15.4375 22.6216 15.3011 22.75 15.1328 22.75H13.3047C13.1364 22.75 13 22.6216 13 22.4632V18.4485Z" fill="url(#paint2_linear_4066_17387)" style=""/>
<path d="M16.6562 16.7279C16.6562 16.5696 16.7927 16.4412 16.9609 16.4412H18.7891C18.9573 16.4412 19.0938 16.5696 19.0938 16.7279V22.4632C19.0938 22.6216 18.9573 22.75 18.7891 22.75H16.9609C16.7927 22.75 16.6562 22.6216 16.6562 22.4632V16.7279Z" fill="url(#paint3_linear_4066_17387)" style=""/>
<path d="M20.3125 13.2868C20.3125 13.1284 20.4489 13 20.6172 13H22.4453C22.6136 13 22.75 13.1284 22.75 13.2868V22.4632C22.75 22.6216 22.6136 22.75 22.4453 22.75H20.6172C20.4489 22.75 20.3125 22.6216 20.3125 22.4632V13.2868Z" fill="url(#paint4_linear_4066_17387)" style=""/>
<path d="M21.5889 13.9629C21.6555 13.9089 21.7552 13.9388 21.7812 14.0205L22.3105 15.6836C22.3396 15.7758 22.2543 15.8639 22.1611 15.8379L21.6797 15.7021C20.1704 19.0971 16.6045 20.7771 13.6543 21.0723C13.4032 21.0972 13.1794 20.9132 13.1543 20.6621C13.1295 20.4111 13.3125 20.1872 13.5635 20.1621C16.2742 19.8909 19.4194 18.3733 20.7881 15.4512L20.2471 15.2998C20.1523 15.2728 20.1275 15.1501 20.2041 15.0879L21.5889 13.9629Z" fill="#99C7FF" style="fill:#99C7FF;fill:color(display-p3 0.6000 0.7800 1.0000);fill-opacity:1;"/>
<defs>
<linearGradient id="paint0_linear_4066_17387" x1="13" y1="14.625" x2="17.3333" y2="21.125" gradientUnits="userSpaceOnUse">
<stop stop-color="#3490FF" style="stop-color:#3490FF;stop-color:color(display-p3 0.2057 0.5631 1.0000);stop-opacity:1;"/>
<stop offset="1" stop-color="#E0EEFF" style="stop-color:#E0EEFF;stop-color:color(display-p3 0.8800 0.9340 1.0000);stop-opacity:1;"/>
</linearGradient>
<linearGradient id="paint1_linear_4066_17387" x1="6.8137" y1="6.68708" x2="11.3762" y2="15.7069" gradientUnits="userSpaceOnUse">
<stop offset="0.211669" stop-color="#E0EEFF" style="stop-color:#E0EEFF;stop-color:color(display-p3 0.8800 0.9340 1.0000);stop-opacity:1;"/>
<stop offset="1" stop-color="#99C7FF" style="stop-color:#99C7FF;stop-color:color(display-p3 0.6000 0.7804 1.0000);stop-opacity:1;"/>
</linearGradient>
<linearGradient id="paint2_linear_4066_17387" x1="17.875" y1="18.4721" x2="17.875" y2="22.6507" gradientUnits="userSpaceOnUse">
<stop stop-color="#005CCC" style="stop-color:#005CCC;stop-color:color(display-p3 0.0000 0.3600 0.8000);stop-opacity:1;"/>
<stop offset="1" stop-color="#3590FF" style="stop-color:#3590FF;stop-color:color(display-p3 0.2078 0.5647 1.0000);stop-opacity:1;"/>
</linearGradient>
<linearGradient id="paint3_linear_4066_17387" x1="17.875" y1="18.4721" x2="17.875" y2="22.6507" gradientUnits="userSpaceOnUse">
<stop stop-color="#005CCC" style="stop-color:#005CCC;stop-color:color(display-p3 0.0000 0.3600 0.8000);stop-opacity:1;"/>
<stop offset="1" stop-color="#3590FF" style="stop-color:#3590FF;stop-color:color(display-p3 0.2078 0.5647 1.0000);stop-opacity:1;"/>
</linearGradient>
<linearGradient id="paint4_linear_4066_17387" x1="17.875" y1="18.4721" x2="17.875" y2="22.6507" gradientUnits="userSpaceOnUse">
<stop stop-color="#005CCC" style="stop-color:#005CCC;stop-color:color(display-p3 0.0000 0.3600 0.8000);stop-opacity:1;"/>
<stop offset="1" stop-color="#3590FF" style="stop-color:#3590FF;stop-color:color(display-p3 0.2078 0.5647 1.0000);stop-opacity:1;"/>
</linearGradient>
</defs>
</svg>
