<svg width="48" height="48" viewBox="0 0 48 48" fill="none" xmlns="http://www.w3.org/2000/svg">
<rect x="5.96191" y="11.3516" width="23.9921" height="16.6499" rx="1.68373" transform="rotate(-9.48786 5.96191 11.3516)" fill="#CACDD4" style="fill:#CACDD4;fill:color(display-p3 0.7903 0.8034 0.8297);fill-opacity:1;"/>
<rect x="6.52539" y="11.2559" width="23.4217" height="16.1024" rx="1.68373" transform="rotate(-9.48786 6.52539 11.2559)" fill="#CACDD4" style="fill:#CACDD4;fill:color(display-p3 0.7903 0.8034 0.8297);fill-opacity:1;"/>
<path d="M27.9663 7.67271C28.8833 7.51961 29.7511 8.13876 29.9044 9.05575L30.4314 12.2093L7.33092 16.07L6.80067 12.8972C6.65931 11.9873 7.27538 11.1308 8.18597 10.9785L27.9663 7.67271Z" fill="#E6E7EA" style="fill:#E6E7EA;fill:color(display-p3 0.9007 0.9069 0.9193);fill-opacity:1;"/>
<rect x="9.83984" y="8.89453" width="1.46386" height="4.39157" rx="0.731928" transform="rotate(-9.48786 9.83984 8.89453)" fill="#CACDD4" style="fill:#CACDD4;fill:color(display-p3 0.7903 0.8034 0.8297);fill-opacity:1;"/>
<rect x="24.2783" y="6.48242" width="1.46386" height="4.39157" rx="0.731928" transform="rotate(-9.48786 24.2783 6.48242)" fill="#CACDD4" style="fill:#CACDD4;fill:color(display-p3 0.7903 0.8034 0.8297);fill-opacity:1;"/>
<path d="M42 40C42 41.1046 41.1046 42 40 42H26C24.8954 42 24 41.1046 24 40C24 38.8954 23.1046 38 22 38H8C6.89543 38 6 37.1046 6 36C6 34.8954 6.89543 34 8 34H30C31.1046 34 32 34.8954 32 36C32 37.1046 32.8954 38 34 38H40C41.1046 38 42 38.8954 42 40Z" fill="#E6E7EA" style="fill:#E6E7EA;fill:color(display-p3 0.9007 0.9069 0.9193);fill-opacity:1;"/>
<rect x="6.00586" y="15.5508" width="27.5957" height="19.1508" rx="1.68373" fill="#3490FF" style="fill:#3490FF;fill:color(display-p3 0.2057 0.5631 1.0000);fill-opacity:1;"/>
<rect x="6.66211" y="15.5508" width="26.9396" height="18.521" rx="1.68373" fill="url(#paint0_linear_4066_17395)" style=""/>
<path d="M31.918 15.5508C32.8478 15.5508 33.6015 16.3045 33.6016 17.2344V21.166H6.66211V17.2344C6.66213 16.3045 7.41582 15.5508 8.3457 15.5508H31.918Z" fill="#99C7FF" style="fill:#99C7FF;fill:color(display-p3 0.6000 0.7800 1.0000);fill-opacity:1;"/>
<rect x="10.8711" y="13.5" width="1.68373" height="5.05118" rx="0.841864" fill="#3490FF" style="fill:#3490FF;fill:color(display-p3 0.2057 0.5631 1.0000);fill-opacity:1;"/>
<rect x="27.709" y="13.5" width="1.68373" height="5.05118" rx="0.841864" fill="#3490FF" style="fill:#3490FF;fill:color(display-p3 0.2057 0.5631 1.0000);fill-opacity:1;"/>
<path d="M19.6104 23.0451C19.8612 22.6792 20.4013 22.6792 20.6521 23.0451L21.7857 24.6992C21.8678 24.819 21.9887 24.9069 22.128 24.9479L24.0515 25.5149C24.4771 25.6404 24.6439 26.154 24.3734 26.5056L23.1506 28.0949C23.062 28.21 23.0158 28.3521 23.0198 28.4973L23.0749 30.5019C23.0871 30.9454 22.6502 31.2628 22.2322 31.1142L20.3428 30.4423C20.206 30.3936 20.0565 30.3936 19.9197 30.4423L18.0303 31.1142C17.6123 31.2628 17.1754 30.9454 17.1876 30.5019L17.2427 28.4973C17.2467 28.3521 17.2005 28.21 17.112 28.0949L15.8891 26.5056C15.6186 26.154 15.7855 25.6404 16.211 25.5149L18.1345 24.9479C18.2738 24.9069 18.3947 24.819 18.4768 24.6992L19.6104 23.0451Z" fill="url(#paint1_linear_4066_17395)" style=""/>
<mask id="path-13-inside-1_4066_17395" fill="white">
<rect x="27.5137" y="32.7715" width="12.6329" height="4.59394" rx="0.918788"/>
</mask>
<rect x="27.5137" y="32.7715" width="12.6329" height="4.59394" rx="0.918788" fill="#005CCC" stroke="#0073FF" style="fill:#005CCC;fill:color(display-p3 0.0000 0.3600 0.8000);fill-opacity:1;stroke:#0073FF;stroke:color(display-p3 0.0000 0.4500 1.0000);stroke-opacity:1;" stroke-width="4.59394" mask="url(#path-13-inside-1_4066_17395)"/>
<path d="M30.0889 34.3047V37.3673" stroke="#3490FF" style="stroke:#3490FF;stroke:color(display-p3 0.2057 0.5631 1.0000);stroke-opacity:1;" stroke-width="0.918788"/>
<path d="M33.249 34.3047V37.3673" stroke="#3490FF" style="stroke:#3490FF;stroke:color(display-p3 0.2057 0.5631 1.0000);stroke-opacity:1;" stroke-width="0.918788"/>
<rect x="27.5137" y="23.584" width="12.6329" height="4.59394" rx="0.918788" fill="#3490FF" style="fill:#3490FF;fill:color(display-p3 0.2057 0.5631 1.0000);fill-opacity:1;"/>
<path d="M30.0889 25.1152V28.1779" stroke="#66ABFF" style="stroke:#66ABFF;stroke:color(display-p3 0.4000 0.6700 1.0000);stroke-opacity:1;" stroke-width="0.918788"/>
<path d="M33.249 25.1152V28.1779" stroke="#66ABFF" style="stroke:#66ABFF;stroke:color(display-p3 0.4000 0.6700 1.0000);stroke-opacity:1;" stroke-width="0.918788"/>
<rect x="29.1689" y="28.1777" width="12.6329" height="4.59394" rx="0.918788" fill="#99C7FF" style="fill:#99C7FF;fill:color(display-p3 0.6000 0.7800 1.0000);fill-opacity:1;"/>
<path d="M36.2021 29.709V32.7716" stroke="#66ABFF" style="stroke:#66ABFF;stroke:color(display-p3 0.4000 0.6700 1.0000);stroke-opacity:1;" stroke-width="0.918788"/>
<path d="M39.3604 29.709V32.7716" stroke="#66ABFF" style="stroke:#66ABFF;stroke:color(display-p3 0.4000 0.6700 1.0000);stroke-opacity:1;" stroke-width="0.918788"/>
<rect x="29.1689" y="19.7773" width="12.6329" height="4.59394" rx="0.918788" transform="rotate(-19.7564 29.1689 19.7773)" fill="url(#paint2_linear_4066_17395)" style=""/>
<path d="M36.3057 18.8418L37.3409 21.7242" stroke="#66ABFF" style="stroke:#66ABFF;stroke:color(display-p3 0.4000 0.6700 1.0000);stroke-opacity:1;" stroke-width="0.918788"/>
<path d="M39.2783 17.7734L40.3136 20.6558" stroke="#66ABFF" style="stroke:#66ABFF;stroke:color(display-p3 0.4000 0.6700 1.0000);stroke-opacity:1;" stroke-width="0.918788"/>
<rect x="29.1699" y="37.3691" width="12.6329" height="4.59394" rx="0.918788" fill="#99C7FF" style="fill:#99C7FF;fill:color(display-p3 0.6000 0.7800 1.0000);fill-opacity:1;"/>
<path d="M36.3809 38.9004V41.963" stroke="#66ABFF" style="stroke:#66ABFF;stroke:color(display-p3 0.4000 0.6700 1.0000);stroke-opacity:1;" stroke-width="0.918788"/>
<path d="M39.5391 38.9004V41.963" stroke="#66ABFF" style="stroke:#66ABFF;stroke:color(display-p3 0.4000 0.6700 1.0000);stroke-opacity:1;" stroke-width="0.918788"/>
<defs>
<linearGradient id="paint0_linear_4066_17395" x1="16.7645" y1="25.6531" x2="1.61093" y2="39.123" gradientUnits="userSpaceOnUse">
<stop stop-color="#E0EEFF" style="stop-color:#E0EEFF;stop-color:color(display-p3 0.8800 0.9340 1.0000);stop-opacity:1;"/>
<stop offset="1" stop-color="#99C7FF" style="stop-color:#99C7FF;stop-color:color(display-p3 0.6000 0.7804 1.0000);stop-opacity:1;"/>
</linearGradient>
<linearGradient id="paint1_linear_4066_17395" x1="22.4587" y1="24.9975" x2="19.0608" y2="31.6045" gradientUnits="userSpaceOnUse">
<stop stop-color="#99C7FF" style="stop-color:#99C7FF;stop-color:color(display-p3 0.6000 0.7804 1.0000);stop-opacity:1;"/>
<stop offset="1" stop-color="#3490FF" style="stop-color:#3490FF;stop-color:color(display-p3 0.2039 0.5647 1.0000);stop-opacity:1;"/>
</linearGradient>
<linearGradient id="paint2_linear_4066_17395" x1="34.2319" y1="19.5898" x2="26.8365" y2="20.8922" gradientUnits="userSpaceOnUse">
<stop stop-color="#99C7FF" style="stop-color:#99C7FF;stop-color:color(display-p3 0.6000 0.7800 1.0000);stop-opacity:1;"/>
<stop offset="1" stop-color="#3490FF" style="stop-color:#3490FF;stop-color:color(display-p3 0.2039 0.5647 1.0000);stop-opacity:1;"/>
</linearGradient>
</defs>
</svg>
