<svg width="26" height="26" viewBox="0 0 26 26" fill="none" xmlns="http://www.w3.org/2000/svg">
<path d="M12.9229 4.33398C13.4415 4.33398 13.8256 4.81547 13.7109 5.32129L13.3711 6.81641C13.3781 6.81218 13.3857 6.80899 13.3926 6.80469C17.397 4.31442 21.0605 8.65699 21.0605 13.0322C21.0605 17.8557 17.126 23.6934 12.1553 21.7676C7.28852 23.6934 3.25 17.8557 3.25 13.0322C3.25004 8.65702 6.91386 4.31451 10.918 6.80469C10.924 6.80846 10.9304 6.81172 10.9365 6.81543L10.5977 5.32129C10.483 4.81556 10.8672 4.33412 11.3857 4.33398H12.9229Z" fill="#3490FF" style="fill:#3490FF;fill:color(display-p3 0.2057 0.5631 1.0000);fill-opacity:1;"/>
<path d="M12.5161 21.8934C17.3149 23.4084 21.0603 17.7367 21.0603 13.0307C21.0603 8.38996 16.9388 3.78569 12.6604 7.33332C12.3261 7.61055 12.1548 8.0353 12.1548 8.46962V21.3851C12.1548 21.6149 12.297 21.8242 12.5161 21.8934Z" fill="#99C7FF" style="fill:#99C7FF;fill:color(display-p3 0.6000 0.7800 1.0000);fill-opacity:1;"/>
<path d="M19.9471 13.0304C19.947 10.9139 18.9576 8.86648 17.6098 7.85476C16.9563 7.36432 16.2475 7.13418 15.5204 7.19707C14.9784 7.24405 14.3518 7.46057 13.6659 7.96051C13.4048 8.15089 13.268 8.46338 13.268 8.78658V20.4885C13.268 20.7517 13.4523 20.9834 13.7143 21.0089C15.1853 21.152 16.525 20.4541 17.6359 19.1932C19.058 17.5791 19.9471 15.177 19.9471 13.0304ZM21.0603 13.0304C21.0603 17.7364 17.3149 23.4084 12.5161 21.8934C12.297 21.8242 12.1548 21.6149 12.1548 21.3851V8.02436C12.1548 7.87486 12.2175 7.72792 12.3271 7.62621C16.7221 3.54677 21.0601 8.26925 21.0603 13.0304Z" fill="#005CCC" style="fill:#005CCC;fill:color(display-p3 0.0000 0.3600 0.8000);fill-opacity:1;"/>
<path d="M11.8329 21.8737C16.076 24.579 21.1617 20.07 22.3797 15.5244C23.5808 11.0417 20.7915 5.52765 15.7407 7.84707C15.346 8.02832 15.0706 8.39426 14.9581 8.81378L11.6154 21.2892C11.5559 21.5112 11.6391 21.7502 11.8329 21.8737Z" fill="#E0EEFF" style="fill:#E0EEFF;fill:color(display-p3 0.8800 0.9340 1.0000);fill-opacity:1;"/>
<path d="M21.3045 15.236C21.8522 13.1916 21.4265 10.9578 20.3865 9.63175C19.8821 8.98886 19.257 8.58311 18.5385 8.45568C18.0028 8.36078 17.3414 8.40774 16.5496 8.71313C16.248 8.82943 16.035 9.09587 15.9514 9.40805L12.9227 20.7112C12.8546 20.9655 12.9726 21.237 13.2191 21.3294C14.6029 21.8484 16.0776 21.521 17.4771 20.5906C19.2685 19.3996 20.7489 17.3095 21.3045 15.236ZM22.3798 15.5241C21.1618 20.0697 16.076 24.579 11.8329 21.8737C11.6391 21.7502 11.5559 21.5112 11.6154 21.2892L15.0734 8.38369C15.1121 8.23929 15.2107 8.11358 15.3428 8.0437C20.6439 5.24077 23.6119 10.9251 22.3798 15.5241Z" fill="#66ABFF" style="fill:#66ABFF;fill:color(display-p3 0.4000 0.6700 1.0000);fill-opacity:1;"/>
<path d="M15.7274 14.8232C15.8698 14.6113 16.1572 14.555 16.3691 14.6975C16.6333 14.875 16.6433 15.2601 16.3887 15.4511L15.7405 15.9376C15.6298 16.0208 15.4786 16.0247 15.3637 15.9474C15.2145 15.8472 15.1749 15.645 15.2752 15.4959L15.7274 14.8232Z" fill="#005CCC" style="fill:#005CCC;fill:color(display-p3 0.0000 0.3600 0.8000);fill-opacity:1;"/>
<path d="M8.61753 7.62695C6.58891 7.62604 4.28505 10.2227 4.68415 13.1386" stroke="url(#paint0_linear_4066_17366)" style="" stroke-width="1.66977" stroke-linecap="round"/>
<defs>
<linearGradient id="paint0_linear_4066_17366" x1="7.70209" y1="5.44517" x2="4.36255" y2="12.1242" gradientUnits="userSpaceOnUse">
<stop stop-color="#E0EEFF" style="stop-color:#E0EEFF;stop-color:color(display-p3 0.8800 0.9340 1.0000);stop-opacity:1;"/>
<stop offset="1" stop-color="#E0EEFF" stop-opacity="0" style="stop-color:none;stop-opacity:0;"/>
</linearGradient>
</defs>
</svg>
