<svg width="26" height="26" viewBox="0 0 26 26" fill="none" xmlns="http://www.w3.org/2000/svg">
<rect x="2.1665" y="19.5" width="21.6667" height="2.16667" rx="1.08333" fill="#E6E7EA" style="fill:#E6E7EA;fill:color(display-p3 0.9007 0.9069 0.9193);fill-opacity:1;"/>
<path d="M5.43115 4.47656C6.00218 4.21356 6.69443 4.31034 7.18604 4.72168L7.77881 5.21777C8.09769 5.48464 8.346 5.81402 8.51416 6.17578C8.9564 6.08202 9.41508 6.03223 9.88525 6.03223H17.2554C20.8883 6.03226 23.8334 8.97739 23.8335 12.6104C23.8333 15.5399 21.9176 18.0208 19.271 18.8721V18.873C19.2705 19.8174 18.5045 20.583 17.5601 20.583C16.7237 20.5828 16.0288 19.9818 15.8804 19.1885H11.2583C11.1099 19.9819 10.415 20.5829 9.57861 20.583C8.6342 20.583 7.86815 19.8174 7.86768 18.873V18.8711C6.07337 18.2933 4.61627 16.967 3.86377 15.2588C3.84124 15.2612 3.81857 15.2666 3.79541 15.2666C2.89602 15.2665 2.16691 14.537 2.1665 13.6377V11.5801C2.1665 10.6804 2.89577 9.95127 3.79541 9.95117C3.81886 9.95117 3.84193 9.95462 3.86475 9.95703C4.2585 9.06495 4.84478 8.27698 5.5708 7.64551C5.48157 7.38063 5.31931 7.13879 5.09521 6.95117C4.2451 6.23986 4.39623 4.9542 5.3833 4.49902L5.43115 4.47656ZM9.2749 7.29199C9.12819 7.29208 9.00928 7.41088 9.00928 7.55762C9.00939 7.70426 9.12826 7.82316 9.2749 7.82324H17.8667C18.0133 7.82308 18.1322 7.70421 18.1323 7.55762C18.1323 7.41093 18.0133 7.29216 17.8667 7.29199H9.2749Z" fill="#E0EEFF" style="fill:#E0EEFF;fill:color(display-p3 0.8800 0.9340 1.0000);fill-opacity:1;"/>
<mask id="mask0_4066_17380" style="mask-type:alpha" maskUnits="userSpaceOnUse" x="2" y="4" width="22" height="17">
<path d="M5.43115 4.47656C6.00218 4.21356 6.69443 4.31034 7.18604 4.72168L7.77881 5.21777C8.09769 5.48464 8.346 5.81402 8.51416 6.17578C8.9564 6.08202 9.41508 6.03223 9.88525 6.03223H17.2554C20.8883 6.03226 23.8334 8.97739 23.8335 12.6104C23.8333 15.5399 21.9176 18.0208 19.271 18.8721V18.873C19.2705 19.8174 18.5045 20.583 17.5601 20.583C16.7237 20.5828 16.0288 19.9818 15.8804 19.1885H11.2583C11.1099 19.9819 10.415 20.5829 9.57861 20.583C8.6342 20.583 7.86815 19.8174 7.86768 18.873V18.8711C6.07337 18.2933 4.61627 16.967 3.86377 15.2588C3.84124 15.2612 3.81857 15.2666 3.79541 15.2666C2.89602 15.2665 2.16691 14.537 2.1665 13.6377V11.5801C2.1665 10.6804 2.89577 9.95127 3.79541 9.95117C3.81886 9.95117 3.84193 9.95462 3.86475 9.95703C4.2585 9.06495 4.84478 8.27698 5.5708 7.64551C5.48157 7.38063 5.31931 7.13879 5.09521 6.95117C4.2451 6.23986 4.39623 4.9542 5.3833 4.49902L5.43115 4.47656ZM9.2749 7.29199C9.12819 7.29208 9.00928 7.41088 9.00928 7.55762C9.00939 7.70426 9.12826 7.82316 9.2749 7.82324H17.8667C18.0133 7.82308 18.1322 7.70421 18.1323 7.55762C18.1323 7.41093 18.0133 7.29216 17.8667 7.29199H9.2749Z" fill="url(#paint0_linear_4066_17380)" style=""/>
</mask>
<g mask="url(#mask0_4066_17380)">
<path d="M5.27721 11.5488L2.99303 16.8773C2.9071 17.0778 2.92055 17.3068 3.03182 17.4944C3.69994 18.6208 4.82776 20.4115 5.10132 20.4115C5.39434 20.4115 13.3608 21.6442 17.5571 22.2995C17.7292 22.3263 17.9025 22.2867 18.0468 22.1893L22.8583 18.9402C22.989 18.8519 23.0855 18.7215 23.1317 18.5707L24.6132 13.7323C24.7611 13.2493 24.3563 12.7764 23.8562 12.8481L23.185 12.9442C22.945 12.9786 22.7454 12.761 22.8004 12.5249L22.9441 11.9073C23.0131 11.6109 22.8795 11.3043 22.6154 11.1529L21.1861 10.334C20.959 10.2039 20.6779 10.2136 20.4603 10.359L17.9022 12.069C17.6915 12.2099 17.406 12.0828 17.3695 11.8321L17.151 10.3292C17.1057 10.0178 16.8553 9.77657 16.5424 9.74296L14.584 9.53257C14.2845 9.5004 13.9989 9.6663 13.8785 9.94232L13.02 11.9099C12.9808 11.9997 12.9052 12.0686 12.8122 12.0993L8.74635 13.4433C8.47716 13.5323 8.22163 13.2763 8.31107 13.0073L8.5697 12.2293C8.70946 11.8089 8.42207 11.3677 7.98104 11.3256L5.97638 11.1341C5.67796 11.1056 5.39532 11.2733 5.27721 11.5488Z" fill="url(#paint1_linear_4066_17380)" style=""/>
<rect x="-0.172979" y="0.0621365" width="3.19902" height="5.45069" rx="0.128288" transform="matrix(-0.910059 -0.414477 -0.438303 0.898827 14.4083 12.1319)" fill="#66ABFF" stroke="#99C7FF" style="fill:#66ABFF;fill:color(display-p3 0.4000 0.6700 1.0000);fill-opacity:1;stroke:#99C7FF;stroke:color(display-p3 0.6000 0.7800 1.0000);stroke-opacity:1;" stroke-width="0.256577"/>
<path d="M12.5057 14.3249C12.6448 14.0394 12.5211 13.6542 12.1586 13.4889C11.7958 13.3236 11.4089 13.4764 11.2695 13.7619C11.1302 14.0475 11.2546 14.4331 11.6176 14.5984C11.9804 14.7634 12.3665 14.6104 12.5057 14.3249Z" fill="#99C7FF" stroke="#99C7FF" style="fill:#99C7FF;fill:color(display-p3 0.6000 0.7800 1.0000);fill-opacity:1;stroke:#99C7FF;stroke:color(display-p3 0.6000 0.7800 1.0000);stroke-opacity:1;" stroke-width="0.855257"/>
<rect x="0.00843472" y="-0.172177" width="3.14185" height="5.5723" rx="0.128288" transform="matrix(0.772666 -0.634812 -0.706918 -0.707295 19.2728 16.7563)" fill="#66ABFF" stroke="#99C7FF" style="fill:#66ABFF;fill:color(display-p3 0.4000 0.6700 1.0000);fill-opacity:1;stroke:#99C7FF;stroke:color(display-p3 0.6000 0.7800 1.0000);stroke-opacity:1;" stroke-width="0.256577"/>
<path d="M18.1347 14.3245C18.3784 14.5684 18.8081 14.5937 19.0962 14.3572C19.3844 14.1204 19.3993 13.7297 19.1556 13.4858C18.9118 13.242 18.4813 13.217 18.1932 13.4537C17.9053 13.6904 17.8911 14.0807 18.1347 14.3245Z" fill="#99C7FF" stroke="#99C7FF" style="fill:#99C7FF;fill:color(display-p3 0.6000 0.7800 1.0000);fill-opacity:1;stroke:#99C7FF;stroke:color(display-p3 0.6000 0.7800 1.0000);stroke-opacity:1;" stroke-width="0.855257"/>
<rect x="-0.038066" y="0.168756" width="3.18055" height="5.50316" rx="0.128288" transform="matrix(-0.868768 0.495219 0.572046 0.820221 7.74541 12.098)" fill="#3490FF" stroke="#99C7FF" style="fill:#3490FF;fill:color(display-p3 0.2057 0.5631 1.0000);fill-opacity:1;stroke:#99C7FF;stroke:color(display-p3 0.6000 0.7800 1.0000);stroke-opacity:1;" stroke-width="0.256577"/>
<path d="M8.65258 14.9296C8.4645 14.6599 8.04745 14.5558 7.70938 14.7485C7.37142 14.9413 7.29542 15.3264 7.48348 15.596C7.67162 15.8654 8.08818 15.9688 8.42612 15.7762C8.76407 15.5836 8.84042 15.1992 8.65258 14.9296Z" fill="#99C7FF" stroke="#99C7FF" style="fill:#99C7FF;fill:color(display-p3 0.6000 0.7800 1.0000);fill-opacity:1;stroke:#99C7FF;stroke:color(display-p3 0.6000 0.7800 1.0000);stroke-opacity:1;" stroke-width="0.855257"/>
<rect x="-0.182588" y="-0.0292576" width="3.08663" height="5.64497" rx="0.128288" transform="matrix(-0.601948 -0.798535 -0.821316 0.570474 19.0565 15.2049)" fill="#3490FF" stroke="#99C7FF" style="fill:#3490FF;fill:color(display-p3 0.2057 0.5631 1.0000);fill-opacity:1;stroke:#99C7FF;stroke:color(display-p3 0.6000 0.7800 1.0000);stroke-opacity:1;" stroke-width="0.256577"/>
<path d="M16.3293 16.2259C16.6276 16.0185 16.6889 15.6219 16.4775 15.3412C16.2658 15.0604 15.8537 14.9917 15.5551 15.1989C15.2565 15.4063 15.195 15.804 15.4067 16.0849C15.6185 16.3655 16.0308 16.4332 16.3293 16.2259Z" fill="#99C7FF" stroke="#99C7FF" style="fill:#99C7FF;fill:color(display-p3 0.6000 0.7800 1.0000);fill-opacity:1;stroke:#99C7FF;stroke:color(display-p3 0.6000 0.7800 1.0000);stroke-opacity:1;" stroke-width="0.855257"/>
</g>
<defs>
<linearGradient id="paint0_linear_4066_17380" x1="13" y1="4.33008" x2="13" y2="20.583" gradientUnits="userSpaceOnUse">
<stop stop-color="#E6E7EA" style="stop-color:#E6E7EA;stop-color:color(display-p3 0.9007 0.9069 0.9193);stop-opacity:1;"/>
<stop offset="1" stop-color="#828384" style="stop-color:#828384;stop-color:color(display-p3 0.5088 0.5123 0.5193);stop-opacity:1;"/>
</linearGradient>
<linearGradient id="paint1_linear_4066_17380" x1="12.9611" y1="10.8917" x2="13.6378" y2="18.6499" gradientUnits="userSpaceOnUse">
<stop stop-color="#99C7FF" style="stop-color:#99C7FF;stop-color:color(display-p3 0.6000 0.7804 1.0000);stop-opacity:1;"/>
<stop offset="1" stop-color="#005CCC" style="stop-color:#005CCC;stop-color:color(display-p3 0.0000 0.3608 0.8000);stop-opacity:1;"/>
</linearGradient>
</defs>
</svg>
