<svg width="48" height="48" viewBox="0 0 48 48" fill="none" xmlns="http://www.w3.org/2000/svg">
<rect x="6" y="38" width="36" height="6" rx="3" fill="#E6E7EA" style="fill:#E6E7EA;fill:color(display-p3 0.9007 0.9069 0.9193);fill-opacity:1;"/>
<rect x="8" y="4" width="32" height="38" rx="2" fill="url(#paint0_linear_4066_17397)" style=""/>
<rect x="12.002" y="8" width="24" height="6" rx="3" fill="#3490FF" style="fill:#3490FF;fill:color(display-p3 0.2057 0.5631 1.0000);fill-opacity:1;"/>
<path d="M32.3359 25.3301C33.9928 25.3301 35.3359 26.6732 35.3359 28.3301V35.6777C35.3359 37.3346 33.9928 38.6777 32.3359 38.6777C30.6791 38.6777 29.3359 37.3346 29.3359 35.6777V28.3301C29.3359 26.6732 30.6791 25.3301 32.3359 25.3301ZM15 32.6641C16.6569 32.6641 18 34.0072 18 35.6641C18 37.3209 16.6569 38.6641 15 38.6641C13.3431 38.6641 12 37.3209 12 35.6641C12 34.0072 13.3431 32.6641 15 32.6641ZM23.667 32.6641C25.3238 32.6641 26.667 34.0072 26.667 35.6641C26.667 37.3209 25.3238 38.6641 23.667 38.6641C22.0101 38.6641 20.667 37.3209 20.667 35.6641C20.667 34.0072 22.0101 32.6641 23.667 32.6641ZM15 25.3301C16.6569 25.3301 18 26.6732 18 28.3301C18 29.9869 16.6569 31.3301 15 31.3301C13.3431 31.3301 12 29.9869 12 28.3301C12 26.6732 13.3431 25.3301 15 25.3301ZM23.667 25.3301C25.3238 25.3301 26.667 26.6732 26.667 28.3301C26.667 29.9869 25.3238 31.3301 23.667 31.3301C22.0101 31.3301 20.667 29.9869 20.667 28.3301C20.667 26.6732 22.0101 25.3301 23.667 25.3301ZM15 17.9961C16.6569 17.9961 18 19.3392 18 20.9961C18 22.6529 16.6569 23.9961 15 23.9961C13.3431 23.9961 12 22.6529 12 20.9961C12 19.3392 13.3431 17.9961 15 17.9961ZM23.667 17.9961C25.3238 17.9961 26.667 19.3392 26.667 20.9961C26.667 22.6529 25.3238 23.9961 23.667 23.9961C22.0101 23.9961 20.667 22.6529 20.667 20.9961C20.667 19.3392 22.0101 17.9961 23.667 17.9961ZM32.334 17.9961C33.9908 17.9961 35.334 19.3392 35.334 20.9961C35.334 22.6529 33.9908 23.9961 32.334 23.9961C30.6771 23.9961 29.334 22.6529 29.334 20.9961C29.334 19.3392 30.6771 17.9961 32.334 17.9961Z" fill="url(#paint1_linear_4066_17397)" style=""/>
<defs>
<linearGradient id="paint0_linear_4066_17397" x1="21" y1="17.3" x2="9.13404" y2="51.889" gradientUnits="userSpaceOnUse">
<stop stop-color="#E0EEFF" style="stop-color:#E0EEFF;stop-color:color(display-p3 0.8800 0.9340 1.0000);stop-opacity:1;"/>
<stop offset="1" stop-color="#66ABFF" style="stop-color:#66ABFF;stop-color:color(display-p3 0.4000 0.6700 1.0000);stop-opacity:1;"/>
</linearGradient>
<linearGradient id="paint1_linear_4066_17397" x1="23.667" y1="8.99609" x2="23.667" y2="36.9961" gradientUnits="userSpaceOnUse">
<stop stop-color="#3490FF" style="stop-color:#3490FF;stop-color:color(display-p3 0.2039 0.5647 1.0000);stop-opacity:1;"/>
<stop offset="1" stop-color="#66ABFF" style="stop-color:#66ABFF;stop-color:color(display-p3 0.4000 0.6700 1.0000);stop-opacity:1;"/>
</linearGradient>
</defs>
</svg>
