<svg width="26" height="26" viewBox="0 0 26 26" fill="none" xmlns="http://www.w3.org/2000/svg">
<path d="M19.1047 10.6562L19.9144 8.18367C19.9899 7.95317 19.8948 7.70109 19.6859 7.57782L15.7823 5.27455C15.5558 5.14086 15.265 5.1989 15.1072 5.40931L13.7509 7.21794C13.7163 7.26415 13.676 7.30417 13.6239 7.32907C12.9376 7.657 9.55685 8.32805 7.72116 8.6651C7.59875 8.68758 7.47144 8.66322 7.36289 8.60224C4.23943 6.84754 1.94616 8.36201 2.12898 9.50016C2.27786 10.427 4.05392 11.6053 4.92335 12.0787L16.8564 16.7263C17.1344 16.8345 17.4459 16.6853 17.5357 16.4008L17.8318 15.4636C17.8411 15.4342 17.853 15.4056 17.8674 15.3784L18.3944 14.3784C18.4187 14.3322 18.4359 14.2826 18.4454 14.2312L19.1047 10.6562Z" fill="#99C7FF" style="fill:#99C7FF;fill:color(display-p3 0.6000 0.7800 1.0000);fill-opacity:1;"/>
<path d="M17.8677 15.3808C17.853 15.4086 17.8408 15.438 17.8313 15.468L17.5372 16.3987C17.4463 16.6859 17.1345 16.8378 16.857 16.7298L4.92346 12.0814C4.05399 11.608 2.27813 10.4299 2.12926 9.50307C2.08645 9.23593 2.18059 8.94887 2.38926 8.68744C4.94888 11.2369 11.0476 14.6832 17.9457 15.2328L17.8677 15.3808Z" fill="#66ABFF" style="fill:#66ABFF;fill:color(display-p3 0.4000 0.6700 1.0000);fill-opacity:1;"/>
<path d="M9.83034 6.25579C11.0766 5.50113 12.9466 6.41304 13.4103 7.40491C13.5278 7.65641 13.2562 7.85152 12.9857 7.78686C11.4955 7.43064 8.54245 7.03567 9.83034 6.25579Z" stroke="#99C7FF" style="stroke:#99C7FF;stroke:color(display-p3 0.6000 0.7800 1.0000);stroke-opacity:1;" stroke-width="0.854212"/>
<path d="M11.1592 4.80589C12.5968 4.61557 13.9431 6.20959 13.9731 7.30887C13.9808 7.58759 13.6552 7.65711 13.4337 7.48832C12.2138 6.55867 9.67365 5.00255 11.1592 4.80589Z" stroke="#66ABFF" style="stroke:#66ABFF;stroke:color(display-p3 0.4000 0.6700 1.0000);stroke-opacity:1;" stroke-width="0.854212"/>
<path d="M11.3191 7.73004C11.6549 7.42509 12.5804 7.05943 13.5958 8.03649" stroke="#66ABFF" style="stroke:#66ABFF;stroke:color(display-p3 0.4000 0.6700 1.0000);stroke-opacity:1;" stroke-width="0.854212" stroke-linecap="round"/>
<path d="M9.61354 8.14797C9.94935 7.84299 11.1495 8.03123 11.678 8.82969M8.07771 8.26441C8.41352 7.95943 9.61371 8.14767 10.1421 8.94613" stroke="#66ABFF" style="stroke:#66ABFF;stroke:color(display-p3 0.4000 0.6700 1.0000);stroke-opacity:1;" stroke-width="0.854212" stroke-linecap="round"/>
<path d="M22.2851 13.3564L21.776 10.805C21.7286 10.5671 21.522 10.3942 21.2794 10.3895L16.7479 10.3004C16.4849 10.2952 16.2601 10.4886 16.226 10.7494L15.9329 12.991C15.9254 13.0483 15.91 13.1029 15.8768 13.1502C15.4401 13.7729 12.8248 16.0179 11.3913 17.2131C11.2958 17.2928 11.1729 17.3341 11.0484 17.3343C7.4658 17.34 6.21204 19.7855 6.93031 20.6872C7.51522 21.4214 9.64105 21.5755 10.6309 21.5607L23.3081 19.7481C23.6034 19.7059 23.8014 19.4229 23.74 19.131L23.5375 18.1691C23.5312 18.139 23.5276 18.1083 23.5267 18.0775L23.4946 16.9475C23.4931 16.8954 23.4837 16.8437 23.4668 16.7943L22.2851 13.3564Z" fill="#3490FF" style="fill:#3490FF;fill:color(display-p3 0.2057 0.5631 1.0000);fill-opacity:1;"/>
<path d="M23.5271 18.0786C23.528 18.11 23.5317 18.1416 23.5382 18.1724L23.7392 19.1275C23.8011 19.4224 23.604 19.7078 23.3093 19.75L10.6312 21.5622C9.64136 21.5769 7.51582 21.4229 6.93094 20.6887C6.76245 20.477 6.70345 20.1807 6.75682 19.8505C10.2386 20.8141 17.2437 20.8206 23.5224 17.9113L23.5271 18.0786Z" fill="#005CCC" style="fill:#005CCC;fill:color(display-p3 0.0000 0.3600 0.8000);fill-opacity:1;"/>
<path d="M12.0451 14.0791C12.76 12.8096 14.8368 12.6855 15.7279 13.3217C15.9538 13.483 15.813 13.7864 15.5457 13.8629C14.0726 14.2846 11.3063 15.3909 12.0451 14.0791Z" stroke="#3490FF" style="stroke:#3490FF;stroke:color(display-p3 0.2057 0.5631 1.0000);stroke-opacity:1;" stroke-width="0.854212"/>
<path d="M12.4906 12.1631C13.6494 11.2912 15.605 12.0185 16.1711 12.9613C16.3146 13.2003 16.0652 13.4208 15.7894 13.3826C14.2702 13.1719 11.2932 13.0641 12.4906 12.1631Z" stroke="#005CCC" style="stroke:#005CCC;stroke:color(display-p3 0.0000 0.3600 0.8000);stroke-opacity:1;" stroke-width="0.854212"/>
<path d="M14.0657 14.6322C14.2084 14.2017 14.8349 13.4286 16.1993 13.781" stroke="#005CCC" style="stroke:#005CCC;stroke:color(display-p3 0.0000 0.3600 0.8000);stroke-opacity:1;" stroke-width="0.854212" stroke-linecap="round"/>
<path d="M12.7851 15.8338C12.9278 15.4032 14.0657 14.9777 14.9182 15.4137M11.5045 16.6896C11.6472 16.259 12.7851 15.8335 13.6375 16.2695" stroke="#005CCC" style="stroke:#005CCC;stroke:color(display-p3 0.0000 0.3600 0.8000);stroke-opacity:1;" stroke-width="0.854212" stroke-linecap="round"/>
</svg>
