<svg width="26" height="26" viewBox="0 0 26 26" fill="none" xmlns="http://www.w3.org/2000/svg">
<path d="M21.1255 4.33398L16.1538 5.98047C16.0931 5.96543 16.0299 5.95579 15.9644 5.95801C15.2387 5.98279 14.6675 6.23952 14.229 6.61719L13.2407 6.94531C13.0464 7.0041 12.9352 7.21165 12.9927 7.40918C13.0295 7.53534 13.127 7.62558 13.2427 7.66016L12.7124 7.73535C12.5124 7.77021 12.3775 7.96281 12.4116 8.16602C12.4459 8.36931 12.6363 8.50647 12.8364 8.47168L13.1675 8.4248C13.0377 8.93344 12.9968 9.45962 13.0337 9.93945C13.0736 10.458 13.2079 10.9905 13.4761 11.3945C14.2023 12.4879 14.7524 13.351 14.8843 14.1338C14.9444 14.4911 14.9114 14.8138 14.7612 15.1318C14.606 15.4604 14.2997 15.8367 13.729 16.249C12.523 17.1204 12.059 18.2608 11.9985 19.3242C11.972 19.792 12.0258 20.2406 12.1196 20.6445H7.70166C7.63601 20.6447 7.58252 20.698 7.58252 20.7637C7.58274 21.8604 8.47212 22.7498 9.56885 22.75H20.7065C21.8034 22.75 22.6926 21.8605 22.6929 20.7637C22.6929 20.6979 22.6396 20.6445 22.5737 20.6445H17.4058C17.2204 20.2553 17.0504 19.6663 17.0854 19.0469C17.1235 18.3763 17.3993 17.6505 18.228 17.0518C18.9288 16.5455 19.4251 15.997 19.7124 15.3887C20.0046 14.7695 20.0551 14.1415 19.9526 13.5332C19.7592 12.3847 18.9977 11.2491 18.3257 10.2373C18.2414 10.1104 18.1478 9.84681 18.1187 9.46777C18.0905 9.10183 18.128 8.69105 18.2407 8.31152C18.3126 8.06958 18.4098 7.85388 18.5327 7.6709L22.5688 7.10352C22.6416 7.09083 22.6906 7.02017 22.6782 6.94629L22.5991 6.47754C22.5867 6.40376 22.5174 6.35382 22.4448 6.36621L20.2778 6.6709C20.3429 6.55848 20.3791 6.42706 20.3745 6.28711C20.3616 5.9012 20.0489 5.59875 19.6714 5.59961L21.3345 5.0498C21.4051 5.02833 21.4453 4.95266 21.4243 4.88086L21.2915 4.42578C21.2705 4.35396 21.1962 4.31287 21.1255 4.33398Z" fill="url(#paint0_linear_4066_17389)" style=""/>
<path d="M8.66077 7.40986C8.60304 7.21206 8.71409 7.00417 8.9088 6.94552L21.1591 3.25564C21.2299 3.23431 21.3043 3.27533 21.3253 3.34726L21.4583 3.80309C21.4793 3.87501 21.4389 3.95061 21.3681 3.97194L9.11786 7.66182C8.92315 7.72047 8.71851 7.60766 8.66077 7.40986Z" fill="#3490FF" style="fill:#3490FF;fill:color(display-p3 0.2057 0.5631 1.0000);fill-opacity:1;"/>
<path d="M8.87929 8.26024C9.212 7.14035 10.0642 6.01294 11.632 5.95939C12.0195 5.94618 12.3449 6.25481 12.3579 6.64844C12.3709 7.04208 12.0667 7.37165 11.6792 7.38486C10.9133 7.41103 10.4484 7.91546 10.2235 8.67239C10.1108 9.05196 10.0734 9.4627 10.1016 9.82869C10.1307 10.2078 10.2242 10.4715 10.3085 10.5984C10.9806 11.6102 11.7425 12.7458 11.936 13.8943C12.0385 14.5026 11.9873 15.1301 11.6951 15.7493C11.4078 16.3577 10.9122 16.9066 10.2114 17.4129C9.38247 18.0117 9.10614 18.7373 9.06806 19.4079C9.0282 20.1122 9.25358 20.7774 9.46511 21.154L8.24629 21.8618C7.9262 21.2922 7.60827 20.3547 7.66665 19.3255C7.72704 18.2619 8.19098 17.1216 9.39725 16.2502C9.96815 15.8378 10.2741 15.4613 10.4293 15.1326C10.5794 14.8146 10.6121 14.4923 10.552 14.135C10.4201 13.3522 9.87018 12.4892 9.14393 11.3958C8.87567 10.9916 8.74158 10.459 8.70167 9.94032C8.66075 9.40832 8.71327 8.81904 8.87929 8.26024Z" fill="#99C7FF" style="fill:#99C7FF;fill:color(display-p3 0.6000 0.7800 1.0000);fill-opacity:1;"/>
<path d="M10.0448 8.36961C10.3775 7.24973 11.2297 6.12231 12.7975 6.06877C13.185 6.05556 13.5104 6.36418 13.5234 6.75781C13.5365 7.15146 13.2322 7.48102 12.8447 7.49423C12.0788 7.5204 11.614 8.02483 11.3891 8.78176C11.2763 9.16133 11.239 9.57208 11.2671 9.93807C11.2962 10.3172 11.3897 10.5809 11.474 10.7078C12.1461 11.7196 12.908 12.8551 13.1015 14.0036C13.204 14.612 13.1529 15.2395 12.8606 15.8587C12.5734 16.4671 12.0777 17.0159 11.3769 17.5222C10.548 18.121 10.2717 18.8466 10.2336 19.5172C10.1937 20.2216 10.4191 20.8868 10.6306 21.2634L9.41182 21.9712C9.09173 21.4016 8.7738 20.4641 8.83217 19.4349C8.89257 18.3713 9.3565 17.231 10.5628 16.3596C11.1337 15.9471 11.4397 15.5707 11.5948 15.242C11.745 14.9239 11.7777 14.6017 11.7175 14.2444C11.5856 13.4616 11.0357 12.5985 10.3095 11.5051C10.0412 11.101 9.90711 10.5684 9.86719 10.0497C9.82628 9.5177 9.8788 8.92842 10.0448 8.36961Z" fill="#66ABFF" style="fill:#66ABFF;fill:color(display-p3 0.4000 0.6700 1.0000);fill-opacity:1;"/>
<path d="M11.3031 8.21141C11.6358 7.09152 12.488 5.96411 14.0558 5.91057C14.4433 5.89735 14.7687 6.20598 14.7817 6.59961C14.7948 6.99325 14.4905 7.32282 14.103 7.33603C13.3371 7.3622 12.8723 7.86663 12.6474 8.62356C12.5346 9.00313 12.4973 9.41388 12.5254 9.77986C12.5545 10.159 12.648 10.4227 12.7323 10.5496C13.4044 11.5614 14.1663 12.6969 14.3598 13.8454C14.4623 14.4538 14.4112 15.0813 14.1189 15.7005C13.8317 16.3089 13.336 16.8577 12.6352 17.364C11.8063 17.9628 11.53 18.6884 11.4919 19.359C11.452 20.0634 11.6774 20.7286 11.8889 21.1052L10.6701 21.813C10.35 21.2434 10.0321 20.3059 10.0905 19.2767C10.1509 18.2131 10.6148 17.0728 11.8211 16.2014C12.392 15.7889 12.698 15.4125 12.8531 15.0838C13.0033 14.7657 13.036 14.4435 12.9758 14.0862C12.8439 13.3034 12.294 12.4403 11.5678 11.3469C11.2995 10.9428 11.1654 10.4101 11.1255 9.89149C11.0846 9.35949 11.1371 8.77021 11.3031 8.21141Z" fill="#99C7FF" style="fill:#99C7FF;fill:color(display-p3 0.6000 0.7800 1.0000);fill-opacity:1;"/>
<path d="M12.5639 7.89891C12.8966 6.77902 13.7487 5.65161 15.3166 5.59807C15.7041 5.58485 16.0295 5.89348 16.0425 6.28711C16.0555 6.68075 15.7512 7.01032 15.3637 7.02353C14.5979 7.0497 14.133 7.55413 13.9081 8.31106C13.7953 8.69063 13.758 9.10138 13.7861 9.46736C13.8153 9.84649 13.9088 10.1102 13.9931 10.2371C14.6651 11.2489 15.4271 12.3844 15.6206 13.5329C15.723 14.1413 15.6719 14.7688 15.3797 15.388C15.0924 15.9964 14.5968 16.5452 13.8959 17.0515C13.067 17.6503 12.7907 18.3759 12.7526 19.0465C12.7128 19.7509 12.9381 20.4161 13.1497 20.7927L11.9309 21.5005C11.6108 20.9309 11.2928 19.9934 11.3512 18.9642C11.4116 17.9006 11.8755 16.7603 13.0818 15.8889C13.6527 15.4764 13.9587 15.1 14.1139 14.7713C14.264 14.4532 14.2967 14.131 14.2365 13.7737C14.1047 12.9909 13.5547 12.1278 12.8285 11.0344C12.5602 10.6303 12.4262 10.0976 12.3862 9.57899C12.3453 9.04699 12.3978 8.45771 12.5639 7.89891Z" fill="#66ABFF" style="fill:#66ABFF;fill:color(display-p3 0.4000 0.6700 1.0000);fill-opacity:1;"/>
<path d="M13.6517 7.76415C13.9845 6.64426 14.8366 5.51685 16.4045 5.4633C16.792 5.45009 17.1174 5.75871 17.1304 6.15234C17.1434 6.54599 16.8391 6.87555 16.4516 6.88876C15.6857 6.91493 15.2209 7.41936 14.996 8.17629C14.8832 8.55587 14.8459 8.96661 14.874 9.3326C14.9032 9.71172 14.9967 9.97544 15.081 10.1023C15.753 11.1141 16.515 12.2497 16.7084 13.3982C16.8109 14.0065 16.7598 14.634 16.4675 15.2532C16.1803 15.8616 15.6847 16.4105 14.9838 16.9168C14.1549 17.5156 13.8786 18.2412 13.8405 18.9118C13.8007 19.6161 14.026 20.2813 14.2376 20.6579L13.0187 21.3657C12.6987 20.7961 12.3807 19.8586 12.4391 18.8294C12.4995 17.7658 12.9634 16.6255 14.1697 15.7541C14.7406 15.3417 15.0466 14.9652 15.2018 14.6365C15.3519 14.3185 15.3846 13.9962 15.3244 13.6389C15.1926 12.8561 14.6426 11.9931 13.9164 10.8997C13.6481 10.4956 13.514 9.96288 13.4741 9.44423C13.4332 8.91223 13.4857 8.32295 13.6517 7.76415Z" fill="#99C7FF" style="fill:#99C7FF;fill:color(display-p3 0.6000 0.7800 1.0000);fill-opacity:1;"/>
<path d="M8.07957 8.16576C8.04524 7.96242 8.17967 7.7693 8.37984 7.73442L22.5146 5.27151C22.5874 5.25883 22.6566 5.30849 22.669 5.38243L22.7482 5.85103C22.7606 5.92497 22.7118 5.99519 22.639 6.00788L8.50417 8.47079C8.304 8.50567 8.1139 8.3691 8.07957 8.16576Z" fill="#3490FF" style="fill:#3490FF;fill:color(display-p3 0.2057 0.5631 1.0000);fill-opacity:1;"/>
<path d="M4.0542 21.4673C5.45823 20.3465 9.36948 18.5124 16.7574 21.6029" stroke="#66ABFF" style="stroke:#66ABFF;stroke:color(display-p3 0.4000 0.6700 1.0000);stroke-opacity:1;" stroke-width="1.80519"/>
<path d="M4.99023 21.4673C6.39427 20.3465 10.3055 18.5124 17.6934 21.6029" stroke="#99C7FF" style="stroke:#99C7FF;stroke:color(display-p3 0.6000 0.7800 1.0000);stroke-opacity:1;" stroke-width="1.80519"/>
<path d="M5.92578 21.5493C7.12291 20.6125 10.4578 19.0794 16.7569 21.6626" stroke="#E0EEFF" style="stroke:#E0EEFF;stroke:color(display-p3 0.8800 0.9340 1.0000);stroke-opacity:1;" stroke-width="1.80519"/>
<path d="M18.3608 20.7637C18.3608 21.8607 17.4715 22.75 16.3745 22.75L5.23709 22.75C4.14007 22.75 3.25075 21.8607 3.25075 20.7637C3.25075 20.6978 3.30411 20.6445 3.36993 20.6445L18.2417 20.6445C18.3075 20.6445 18.3608 20.6978 18.3608 20.7637Z" fill="url(#paint1_linear_4066_17389)" style=""/>
<defs>
<linearGradient id="paint0_linear_4066_17389" x1="18.4961" y1="5.86331" x2="13.8848" y2="10.0661" gradientUnits="userSpaceOnUse">
<stop stop-color="#E6E7EA" stop-opacity="0" style="stop-color:none;stop-opacity:0;"/>
<stop offset="1" stop-color="#E6E7EA" style="stop-color:#E6E7EA;stop-color:color(display-p3 0.9020 0.9059 0.9176);stop-opacity:1;"/>
</linearGradient>
<linearGradient id="paint1_linear_4066_17389" x1="8.79255" y1="19.4325" x2="5.56693" y2="26.6271" gradientUnits="userSpaceOnUse">
<stop stop-color="#3490FF" style="stop-color:#3490FF;stop-color:color(display-p3 0.2057 0.5631 1.0000);stop-opacity:1;"/>
<stop offset="0.494532" stop-color="#1555A1" style="stop-color:#1555A1;stop-color:color(display-p3 0.0824 0.3333 0.6314);stop-opacity:1;"/>
</linearGradient>
</defs>
</svg>
