<svg width="26" height="26" viewBox="0 0 26 26" fill="none" xmlns="http://www.w3.org/2000/svg">
<path d="M6.6665 9.75C7.49494 9.75 8.16648 10.4216 8.1665 11.25V11.251H10.4175C11.2458 11.2511 11.9175 11.9226 11.9175 12.751C11.9173 13.5791 11.2457 14.2508 10.4175 14.251H7.41748C6.58917 14.251 5.91771 13.5792 5.91748 12.751V12.75H3.6665C2.83807 12.75 2.1665 12.0784 2.1665 11.25C2.16652 10.4216 2.83809 9.75002 3.6665 9.75H6.6665Z" fill="url(#paint0_linear_4066_17379)" style=""/>
<path d="M17.3335 3.25C16.3079 3.25006 15.4761 4.08178 15.4761 5.10742H12.6909C11.6652 5.10742 10.8335 5.93917 10.8335 6.96484C10.8338 7.99029 11.6654 8.82129 12.6909 8.82129H16.4048C17.4303 8.82129 18.2619 7.99029 18.2622 6.96484V6.96387H21.0483C22.0737 6.96362 22.9046 6.13281 22.9048 5.10742C22.9048 4.0819 22.0738 3.25025 21.0483 3.25H17.3335Z" fill="url(#paint1_linear_4066_17379)" style=""/>
<path d="M9.79257 4.18324C10.1643 3.70861 10.8828 3.70861 11.2546 4.18324L11.7101 4.76474C11.9106 5.0207 12.2303 5.15315 12.5531 5.11393L13.2864 5.02483C13.8849 4.9521 14.3929 5.46013 14.3202 6.05863L14.2311 6.79191C14.1919 7.11467 14.3243 7.43443 14.5803 7.63492L15.1618 8.09042C15.6364 8.4622 15.6364 9.18066 15.1618 9.55244L14.5803 10.0079C14.3243 10.2084 14.1919 10.5282 14.2311 10.851L14.3202 11.5842C14.3929 12.1827 13.8849 12.6908 13.2864 12.618L12.5531 12.5289C12.2303 12.4897 11.9106 12.6222 11.7101 12.8781L11.2546 13.4596C10.8828 13.9342 10.1643 13.9342 9.79257 13.4596L9.33707 12.8781C9.13658 12.6222 8.81681 12.4897 8.49405 12.5289L7.76078 12.618C7.16228 12.6908 6.65425 12.1827 6.72698 11.5842L6.81608 10.851C6.8553 10.5282 6.72285 10.2084 6.46689 10.0079L5.88538 9.55244C5.41076 9.18066 5.41076 8.4622 5.88538 8.09042L6.46689 7.63492C6.72285 7.43443 6.8553 7.11467 6.81608 6.79191L6.72698 6.05863C6.65425 5.46013 7.16228 4.9521 7.76078 5.02483L8.49405 5.11393C8.81681 5.15315 9.13658 5.0207 9.33707 4.76474L9.79257 4.18324Z" fill="#3490FF" style="fill:#3490FF;fill:color(display-p3 0.2057 0.5631 1.0000);fill-opacity:1;"/>
<circle cx="10.5229" cy="8.81982" r="2.78662" fill="url(#paint2_linear_4066_17379)" style=""/>
<path d="M19.147 11.916C18.3163 11.9163 17.6431 12.5902 17.6431 13.4209V13.4219H15.2788C14.4481 13.4219 13.7741 14.0951 13.7739 14.9258C13.7739 15.7567 14.4479 16.4307 15.2788 16.4307H18.4604C19.2911 16.4304 19.9644 15.7565 19.9644 14.9258V14.9248H22.3286C23.1593 14.9248 23.8332 14.2516 23.8335 13.4209C23.8335 12.59 23.1595 11.916 22.3286 11.916H19.147Z" fill="#CACDD4" style="fill:#CACDD4;fill:color(display-p3 0.7903 0.8034 0.8297);fill-opacity:1;"/>
<path d="M21.2421 18.9273C21.4457 18.8502 21.6652 19.0692 21.5328 19.242C21.0486 19.8738 20.3838 20.3857 19.5776 20.6907C17.3232 21.5433 14.8238 20.4582 13.9949 18.2667C13.166 16.0752 14.3217 13.6076 16.5762 12.7549C17.3821 12.4502 18.2191 12.3932 19.0001 12.5457C19.2136 12.5875 19.1945 12.8985 18.991 12.9754C17.3003 13.615 16.4332 15.4658 17.0548 17.1094C17.6765 18.7528 19.5514 19.5666 21.2421 18.9273Z" fill="url(#paint3_linear_4066_17379)" style=""/>
<path d="M11.04 17.334C12.0369 17.334 12.8454 18.1419 12.8457 19.1387H15.6836C16.6806 19.1387 17.4893 19.9473 17.4893 20.9443C17.4891 21.9413 16.6805 22.749 15.6836 22.749H11.8662C10.9316 22.749 10.1619 22.0391 10.0693 21.1289L10.0605 20.9443H7.22266C6.22574 20.9443 5.4172 20.1365 5.41699 19.1396C5.41699 18.1426 6.22561 17.334 7.22266 17.334H11.04Z" fill="url(#paint4_linear_4066_17379)" style=""/>
<defs>
<linearGradient id="paint0_linear_4066_17379" x1="8.12479" y1="10.2917" x2="5.95776" y2="14.0836" gradientUnits="userSpaceOnUse">
<stop stop-color="#CACDD4" style="stop-color:#CACDD4;stop-color:color(display-p3 0.7903 0.8034 0.8297);stop-opacity:1;"/>
<stop offset="1" stop-color="white" style="stop-color:white;stop-opacity:1;"/>
</linearGradient>
<linearGradient id="paint1_linear_4066_17379" x1="19.4995" y1="4.33336" x2="15.1659" y2="11.3748" gradientUnits="userSpaceOnUse">
<stop stop-color="#E6E7EA" style="stop-color:#E6E7EA;stop-color:color(display-p3 0.9007 0.9069 0.9193);stop-opacity:1;"/>
<stop offset="1" stop-color="#CACDD4" style="stop-color:#CACDD4;stop-color:color(display-p3 0.7922 0.8039 0.8314);stop-opacity:1;"/>
</linearGradient>
<linearGradient id="paint2_linear_4066_17379" x1="8.66626" y1="10.8331" x2="11.1062" y2="6.49976" gradientUnits="userSpaceOnUse">
<stop stop-color="#99C7FF" style="stop-color:#99C7FF;stop-color:color(display-p3 0.6000 0.7804 1.0000);stop-opacity:1;"/>
<stop offset="1" stop-color="#E0EEFF" style="stop-color:#E0EEFF;stop-color:color(display-p3 0.8800 0.9340 1.0000);stop-opacity:1;"/>
</linearGradient>
<linearGradient id="paint3_linear_4066_17379" x1="13.5443" y1="14.6718" x2="21.2921" y2="19.8469" gradientUnits="userSpaceOnUse">
<stop offset="0.105539" stop-color="#3490FF" style="stop-color:#3490FF;stop-color:color(display-p3 0.2057 0.5631 1.0000);stop-opacity:1;"/>
<stop offset="1" stop-color="#005CCC" style="stop-color:#005CCC;stop-color:color(display-p3 0.0000 0.3600 0.8000);stop-opacity:1;"/>
</linearGradient>
<linearGradient id="paint4_linear_4066_17379" x1="6.50033" y1="18.4161" x2="15.7083" y2="23.2915" gradientUnits="userSpaceOnUse">
<stop stop-color="#E6E7EA" style="stop-color:#E6E7EA;stop-color:color(display-p3 0.9007 0.9069 0.9193);stop-opacity:1;"/>
<stop offset="1" stop-color="#CACDD4" style="stop-color:#CACDD4;stop-color:color(display-p3 0.7922 0.8039 0.8314);stop-opacity:1;"/>
</linearGradient>
</defs>
</svg>
