<svg width="26" height="26" viewBox="0 0 26 26" fill="none" xmlns="http://www.w3.org/2000/svg">
<path d="M4.33366 13.332H2.11092L5.38296 15.3498C8.09556 17.0227 10.3785 19.3078 12.0488 22.022L15.2241 18.8466L12.0488 16.9414L4.33366 13.332Z" fill="url(#paint0_linear_4066_17372)" style=""/>
<path d="M22.0554 15.0346H16.3079C16.2299 15.0346 16.2205 14.9213 16.2974 14.9085L21.1272 14.1035C21.2081 14.09 21.2906 14.1165 21.3486 14.1745L22.1003 14.9262C22.1403 14.9662 22.112 15.0346 22.0554 15.0346Z" fill="#3490FF" style="fill:#3490FF;fill:color(display-p3 0.2057 0.5631 1.0000);fill-opacity:1;"/>
<path d="M11.9829 2.80109C11.9829 2.45035 12.2672 2.16602 12.618 2.16602C12.9687 2.16602 13.253 2.45035 13.253 2.80108V19.3129C13.253 19.6636 12.9687 19.948 12.618 19.948C12.2672 19.948 11.9829 19.6636 11.9829 19.3129V2.80109Z" fill="url(#paint1_linear_4066_17372)" style=""/>
<path d="M17.4466 15.0352H20.9395L19.5295 15.8409C16.0684 17.8187 13.0966 20.5498 10.8343 23.832L4.33398 23.2903C7.74954 19.9371 11.7966 17.2952 16.2407 15.5175L17.4466 15.0352Z" fill="url(#paint2_linear_4066_17372)" style=""/>
<path d="M6.79824 3.61955C6.91717 3.50168 7.07784 3.43555 7.24528 3.43555H14.5876C14.9383 3.43555 15.2226 3.71988 15.2226 4.07062V6.61089C15.2226 6.96163 14.9383 7.24596 14.5876 7.24596H7.24528C7.07784 7.24596 6.91717 7.17983 6.79824 7.06196L5.28909 5.56629C5.16374 5.44206 5.16374 5.23945 5.28909 5.11522L6.79824 3.61955Z" fill="#99C7FF" style="fill:#99C7FF;fill:color(display-p3 0.6000 0.7800 1.0000);fill-opacity:1;"/>
<path d="M8.39502 4.07031C9.0965 4.07031 9.66553 4.63934 9.66553 5.34082C9.66553 6.0423 9.0965 6.61133 8.39502 6.61133C7.69371 6.61113 7.12549 6.04218 7.12549 5.34082C7.12549 4.63946 7.69371 4.07051 8.39502 4.07031ZM8.39502 4.5459C7.95682 4.54604 7.60124 4.90165 7.60107 5.33984C7.60107 5.77818 7.95672 6.13364 8.39502 6.13379C8.83344 6.13379 9.18896 5.77827 9.18896 5.33984C9.1888 4.90156 8.83334 4.5459 8.39502 4.5459Z" fill="#3490FF" style="fill:#3490FF;fill:color(display-p3 0.2057 0.5631 1.0000);fill-opacity:1;"/>
<path d="M17.297 8.70158C17.178 8.58371 17.0174 8.51758 16.8499 8.51758H9.50766C9.15692 8.51758 8.87259 8.80191 8.87259 9.15265V11.6929C8.87259 12.0437 9.15692 12.328 9.50766 12.328H16.8499C17.0174 12.328 17.178 12.2619 17.297 12.144L18.8061 10.6483C18.9315 10.5241 18.9315 10.3215 18.8061 10.1972L17.297 8.70158Z" fill="#3490FF" style="fill:#3490FF;fill:color(display-p3 0.2057 0.5631 1.0000);fill-opacity:1;"/>
<rect width="0.513176" height="3.07905" rx="0.256588" transform="matrix(0.707135 0.707078 -0.707135 0.707078 16.2891 9.15039)" fill="#E0EEFF" style="fill:#E0EEFF;fill:color(display-p3 0.8800 0.9340 1.0000);fill-opacity:1;"/>
<rect width="0.513176" height="3.07905" rx="0.256588" transform="matrix(0.707135 -0.707078 0.707135 0.707078 14.1113 9.51367)" fill="#E0EEFF" style="fill:#E0EEFF;fill:color(display-p3 0.8800 0.9340 1.0000);fill-opacity:1;"/>
<defs>
<linearGradient id="paint0_linear_4066_17372" x1="5.41699" y1="14.0832" x2="9.75033" y2="17.3332" gradientUnits="userSpaceOnUse">
<stop stop-color="#CACDD4" stop-opacity="0" style="stop-color:none;stop-opacity:0;"/>
<stop offset="1" stop-color="#CACDD4" style="stop-color:#CACDD4;stop-color:color(display-p3 0.7922 0.8039 0.8314);stop-opacity:1;"/>
</linearGradient>
<linearGradient id="paint1_linear_4066_17372" x1="12.618" y1="6.49935" x2="12.618" y2="19.9479" gradientUnits="userSpaceOnUse">
<stop stop-color="#E0EEFF" style="stop-color:#E0EEFF;stop-color:color(display-p3 0.8800 0.9340 1.0000);stop-opacity:1;"/>
<stop offset="1" stop-color="#3590FF" style="stop-color:#3590FF;stop-color:color(display-p3 0.2078 0.5647 1.0000);stop-opacity:1;"/>
</linearGradient>
<linearGradient id="paint2_linear_4066_17372" x1="10.2923" y1="22.2069" x2="10.143" y2="23.6086" gradientUnits="userSpaceOnUse">
<stop stop-color="#3490FF" style="stop-color:#3490FF;stop-color:color(display-p3 0.2057 0.5631 1.0000);stop-opacity:1;"/>
<stop offset="1" stop-color="#3490FF" stop-opacity="0" style="stop-color:none;stop-opacity:0;"/>
</linearGradient>
</defs>
</svg>
