<svg width="36" height="36" viewBox="0 0 36 36" fill="none" xmlns="http://www.w3.org/2000/svg">
<rect x="12" y="6" width="16.5" height="10.5" rx="1.5" fill="#CACDD4" style="fill:#CACDD4;fill:color(display-p3 0.7903 0.8034 0.8297);fill-opacity:1;"/>
<path d="M19.5 9C19.5 9.82843 20.1716 10.5 21 10.5H31.5C32.3284 10.5 33 11.1716 33 12V28.5C33 29.3284 32.3284 30 31.5 30H4.5C3.67157 30 3 29.3284 3 28.5V7.5C3 6.67157 3.67157 6 4.5 6H18C18.8284 6 19.5 6.67157 19.5 7.5V9Z" fill="#ADB3BD" style="fill:#ADB3BD;fill:color(display-p3 0.6800 0.7000 0.7400);fill-opacity:1;"/>
<path d="M24.6291 22.2488C24.2157 23.4674 23.4745 24.5486 22.4867 25.3734C21.499 26.1983 20.3029 26.7349 19.0301 26.9242C17.7572 27.1136 16.4568 26.9485 15.2717 26.4469C14.0866 25.9453 13.0627 25.1268 12.3125 24.0812C11.5623 23.0357 11.1148 21.8035 11.0193 20.5202C10.9237 19.2369 11.1838 17.9521 11.7709 16.8069C12.358 15.6618 13.2494 14.7007 14.3471 14.0291C15.4449 13.3576 16.7065 13.0017 17.9934 13.0005L17.9999 20.0005L24.6291 22.2488Z" fill="#CACDD4" style="fill:#CACDD4;fill:color(display-p3 0.7903 0.8034 0.8297);fill-opacity:1;"/>
<path d="M24.2927 23.0661C24.8258 21.9719 25.0644 20.7576 24.985 19.543C24.9055 18.3284 24.5107 17.1556 23.8395 16.1401C23.1684 15.1247 22.244 14.3019 21.1577 13.7528C20.0714 13.2037 18.8608 12.9473 17.6451 13.009L17.9999 20L24.2927 23.0661Z" fill="#E6E7EA" style="fill:#E6E7EA;fill:color(display-p3 0.9007 0.9069 0.9193);fill-opacity:1;"/>
</svg>
