<svg width="26" height="26" viewBox="0 0 26 26" fill="none" xmlns="http://www.w3.org/2000/svg">
<path d="M21.3951 18.0362C22.2257 16.4964 23.1179 14.8206 23.7094 13.7045C24.0448 13.0717 23.6453 12.3183 22.9091 12.1905C22.4626 12.113 22.0104 12.2954 21.7603 12.6537L21.1282 13.5594C20.9705 13.7853 20.5985 13.6771 20.6023 13.4064L20.6847 7.58274C20.7095 5.83128 19.3602 4.3327 17.528 4.07669C15.4853 3.79128 13.5913 5.14339 13.3217 7.07949L11.8731 17.4847C11.673 18.922 12.8296 20.2082 14.3618 20.2522L17.2654 20.3356C18.9976 20.3854 20.6076 19.4961 21.3951 18.0362Z" fill="url(#paint0_linear_4066_17378)" style=""/>
<path d="M19.4192 20.8912C19.4973 20.4465 19.1793 20.0261 18.709 19.9523L13.6 19.1505C13.1297 19.0767 12.6852 19.3774 12.6071 19.8221C12.5291 20.2669 12.8471 20.6873 13.3173 20.7611L18.4264 21.5629C18.8967 21.6367 19.3412 21.336 19.4192 20.8912Z" fill="#99C7FF" style="fill:#99C7FF;fill:color(display-p3 0.6000 0.7800 1.0000);fill-opacity:1;"/>
<path d="M18.3247 7.17811C18.2062 7.16695 18.1005 7.24881 18.0886 7.36091L17.649 11.5025C17.6372 11.6146 17.7238 11.7145 17.8423 11.7257C17.9608 11.7369 18.0665 11.655 18.0784 11.5429L18.518 7.40135C18.5298 7.28927 18.4432 7.18936 18.3247 7.17811ZM15.8658 8.63551C15.7469 8.62845 15.644 8.71407 15.6365 8.82649L15.4669 11.3836C15.4596 11.496 15.55 11.5925 15.6688 11.5997C15.7877 11.6067 15.8906 11.5212 15.898 11.4087L16.0677 8.85234C16.0752 8.7399 15.9846 8.64263 15.8658 8.63551Z" fill="url(#paint1_linear_4066_17378)" style=""/>
<path d="M16.9059 11.3901C15.9045 11.3361 14.8049 11.437 13.9342 11.687C13.8202 11.7197 13.7557 11.8336 13.7902 11.9414C13.8248 12.0492 13.9452 12.1102 14.0592 12.0775C14.8729 11.8439 15.9212 11.7458 16.882 11.7976C17.3612 11.8235 17.813 11.8869 18.1989 11.986C18.5877 12.0858 18.8952 12.2187 19.098 12.3763C19.1901 12.4479 19.326 12.4353 19.4017 12.3482C19.4774 12.2612 19.4641 12.1326 19.3721 12.061C19.1034 11.8522 18.7309 11.6993 18.3124 11.5918C17.8909 11.4836 17.4077 11.4172 16.9059 11.3901Z" fill="#66ABFF" style="fill:#66ABFF;fill:color(display-p3 0.4000 0.6700 1.0000);fill-opacity:1;"/>
<path d="M4.74712 18.1805C3.88219 16.6576 2.95263 15.0002 2.33629 13.8962C1.98681 13.2702 2.36929 12.5089 3.10249 12.3665C3.54715 12.2801 4.00337 12.4533 4.26141 12.8065L4.9137 13.6993C5.07643 13.9221 5.4459 13.8065 5.43601 13.5359L5.22322 7.71516C5.15923 5.96459 6.47465 4.43932 8.30074 4.14668C10.3366 3.82041 12.2604 5.13428 12.5733 7.06454L14.2546 17.4384C14.4869 18.8714 13.3593 20.1804 11.8285 20.2551L8.92735 20.3967C7.19668 20.4811 5.56716 19.6243 4.74712 18.1805Z" fill="#3490FF" style="fill:#3490FF;fill:color(display-p3 0.2057 0.5631 1.0000);fill-opacity:1;"/>
<path d="M6.78724 20.9917C6.69926 20.5487 7.00774 20.122 7.47626 20.0388L13.5921 18.9526C14.0606 18.8694 14.5117 19.1611 14.5997 19.6042C14.6877 20.0473 14.3792 20.474 13.9107 20.5572L7.79488 21.6434C7.32636 21.7266 6.87523 21.4348 6.78724 20.9917Z" fill="#E0EEFF" style="fill:#E0EEFF;fill:color(display-p3 0.8800 0.9340 1.0000);fill-opacity:1;"/>
<path d="M7.57514 7.26254C7.69338 7.24901 7.80083 7.32874 7.81524 7.44057L8.34749 11.5724C8.3618 11.6842 8.27749 11.7859 8.15924 11.7995C8.04101 11.813 7.93356 11.7333 7.91915 11.6215L7.3869 7.48961C7.37259 7.37779 7.4569 7.27617 7.57514 7.26254ZM10.0662 8.67036C10.1849 8.66093 10.2896 8.74446 10.2997 8.85671L10.5265 11.4099C10.5363 11.5221 10.4481 11.6204 10.3295 11.6299C10.2107 11.6394 10.106 11.5559 10.096 11.4436L9.86911 8.89119C9.85914 8.77892 9.94747 8.67987 10.0662 8.67036Z" fill="url(#paint2_linear_4066_17378)" style=""/>
<path d="M9.08532 11.443C10.0853 11.369 11.1869 11.4478 12.063 11.6803C12.1777 11.7107 12.2448 11.8233 12.2127 11.9317C12.1805 12.0402 12.0615 12.1036 11.9468 12.0732C11.128 11.856 10.0778 11.7789 9.11842 11.8499C8.63985 11.8854 8.18955 11.9578 7.80598 12.0646C7.41951 12.1722 7.11502 12.3112 6.91582 12.4729C6.82538 12.5463 6.68918 12.5364 6.61156 12.4509C6.53396 12.3654 6.54436 12.2366 6.63478 12.1632C6.89872 11.949 7.26771 11.7887 7.68373 11.6728C8.10262 11.5562 8.58429 11.4801 9.08532 11.443Z" fill="#66ABFF" style="fill:#66ABFF;fill:color(display-p3 0.4000 0.6700 1.0000);fill-opacity:1;"/>
<path d="M14.5604 11.6675C14.6214 11.5707 14.7539 11.539 14.8563 11.5966C14.9587 11.6543 14.9922 11.7796 14.9312 11.8764L11.6176 17.136C11.5566 17.2328 11.4241 17.2645 11.3217 17.2068C11.2194 17.1491 11.1858 17.0239 11.2468 16.927L14.5604 11.6675Z" fill="#E0EEFF" style="fill:#E0EEFF;fill:color(display-p3 0.8800 0.9340 1.0000);fill-opacity:1;"/>
<path d="M17.3132 11.998C16.7043 12.9936 15.3821 13.3198 14.3602 12.7266C13.3382 12.1333 13.0034 10.8453 13.6123 9.84965C14.2212 8.85401 15.5433 8.52779 16.5653 9.12103C17.5873 9.71427 17.9221 11.0023 17.3132 11.998Z" fill="#E0EEFF" style="fill:#E0EEFF;fill:color(display-p3 0.8800 0.9340 1.0000);fill-opacity:1;"/>
<path d="M13.2972 9.28423C13.4192 9.09058 13.6841 9.02713 13.8888 9.14251L17.5964 11.2317C17.8011 11.3471 17.8682 11.5976 17.7462 11.7913L17.3044 12.4925C17.1824 12.6862 16.9175 12.7496 16.7127 12.6343L13.0052 10.5451C12.8004 10.4297 12.7333 10.1791 12.8553 9.9855L13.2972 9.28423Z" fill="#99C7FF" style="fill:#99C7FF;fill:color(display-p3 0.6000 0.7800 1.0000);fill-opacity:1;"/>
<path d="M11.2769 10.6681C11.1922 10.5559 11.2198 10.3999 11.3385 10.3198C11.4572 10.2397 11.6221 10.2658 11.7068 10.3781L16.3069 16.4765C16.3916 16.5888 16.364 16.7447 16.2453 16.8248C16.1266 16.9049 15.9617 16.8788 15.877 16.7665L11.2769 10.6681Z" fill="url(#paint3_linear_4066_17378)" style=""/>
<path d="M12.7075 8.10792C13.531 9.26237 13.2628 10.8659 12.1084 11.6894C10.9539 12.513 9.35041 12.2448 8.52684 11.0903C7.70328 9.93587 7.97151 8.33237 9.12596 7.5088C10.2804 6.68523 11.8839 6.95347 12.7075 8.10792Z" fill="url(#paint4_linear_4066_17378)" style=""/>
<path d="M7.83451 10.8343C7.66514 10.6098 7.7203 10.2979 7.95772 10.1377L12.2566 7.23735C12.4941 7.07717 12.8238 7.12934 12.9932 7.35388L13.6066 8.167C13.7759 8.39154 13.7208 8.70342 13.4833 8.8636L9.18443 11.7639C8.94701 11.9241 8.61724 11.872 8.44787 11.6474L7.83451 10.8343Z" fill="#99C7FF" style="fill:#99C7FF;fill:color(display-p3 0.6000 0.7800 1.0000);fill-opacity:1;"/>
<defs>
<linearGradient id="paint0_linear_4066_17378" x1="11.9738" y1="20.2523" x2="17.0995" y2="11.7306" gradientUnits="userSpaceOnUse">
<stop stop-color="#005CCC" style="stop-color:#005CCC;stop-color:color(display-p3 0.0000 0.3600 0.8000);stop-opacity:1;"/>
<stop offset="1" stop-color="#3490FF" style="stop-color:#3490FF;stop-color:color(display-p3 0.2057 0.5631 1.0000);stop-opacity:1;"/>
</linearGradient>
<linearGradient id="paint1_linear_4066_17378" x1="16.1614" y1="7.1582" x2="16.888" y2="9.97945" gradientUnits="userSpaceOnUse">
<stop stop-color="#3490FF" style="stop-color:#3490FF;stop-color:color(display-p3 0.2039 0.5647 1.0000);stop-opacity:1;"/>
<stop offset="1" stop-color="#66ABFF" style="stop-color:#66ABFF;stop-color:color(display-p3 0.4000 0.6700 1.0000);stop-opacity:1;"/>
</linearGradient>
<linearGradient id="paint2_linear_4066_17378" x1="7.0411" y1="6.35347" x2="8.01966" y2="8.66647" gradientUnits="userSpaceOnUse">
<stop stop-color="#3490FF" style="stop-color:#3490FF;stop-color:color(display-p3 0.2039 0.5647 1.0000);stop-opacity:1;"/>
<stop offset="1" stop-color="#66ABFF" style="stop-color:#66ABFF;stop-color:color(display-p3 0.4000 0.6700 1.0000);stop-opacity:1;"/>
</linearGradient>
<linearGradient id="paint3_linear_4066_17378" x1="11.3385" y1="10.3198" x2="15.8893" y2="17.065" gradientUnits="userSpaceOnUse">
<stop stop-color="#99C7FF" style="stop-color:#99C7FF;stop-color:color(display-p3 0.6000 0.7804 1.0000);stop-opacity:1;"/>
<stop offset="1" stop-color="#FAFCFF" style="stop-color:#FAFCFF;stop-color:color(display-p3 0.9800 0.9890 1.0000);stop-opacity:1;"/>
</linearGradient>
<linearGradient id="paint4_linear_4066_17378" x1="10.6172" y1="8.99425" x2="9.2737" y2="13.4195" gradientUnits="userSpaceOnUse">
<stop stop-color="#E0EEFF" style="stop-color:#E0EEFF;stop-color:color(display-p3 0.8800 0.9340 1.0000);stop-opacity:1;"/>
<stop offset="1" stop-color="#99C7FF" style="stop-color:#99C7FF;stop-color:color(display-p3 0.6000 0.7804 1.0000);stop-opacity:1;"/>
</linearGradient>
</defs>
</svg>
