<svg width="36" height="36" viewBox="0 0 36 36" fill="none" xmlns="http://www.w3.org/2000/svg">
<path d="M16.9326 5.09961C17.5225 4.4879 18.5019 4.4879 19.0918 5.09961L22.5 8.63281V6.74902C22.5001 6.33485 22.8358 5.99902 23.25 5.99902H27.75C28.1641 5.99914 28.4999 6.33493 28.5 6.74902V14.8545L31.252 17.709C31.7109 18.1852 31.3733 18.9793 30.7119 18.9795H28.5V30C28.4998 30.8282 27.8282 31.4999 27 31.5H9C8.17168 31.5 7.50018 30.8283 7.5 30V18.9795H5.3125C4.65113 18.9793 4.31352 18.1852 4.77246 17.709L16.9326 5.09961Z" fill="#ADB3BD" style="fill:#ADB3BD;fill:color(display-p3 0.6800 0.7000 0.7400);fill-opacity:1;"/>
<path d="M13.5 22.5C13.5 20.0147 15.5147 18 18 18C20.4853 18 22.5 20.0147 22.5 22.5V31.5H13.5V22.5Z" fill="#F7F7F8" style="fill:#F7F7F8;fill:color(display-p3 0.9669 0.9690 0.9731);fill-opacity:1;"/>
</svg>
